<?xml version="1.0" encoding="UTF-8"?>
<svg id="_图层_2" data-name="图层 2" xmlns="http://www.w3.org/2000/svg" viewBox="0 0 76.28 79.39">
  <defs>
    <style>
      .cls-1 {
        fill: none;
        opacity: .5;
      }

      .cls-2 {
        fill: #fbf8f3;
      }
    </style>
  </defs>
  <g id="Layer_1" data-name="Layer 1">
    <g class="cls-1">
      <path class="cls-2" d="m70.86,7.47h0,0m-12.03,7.22c-3.63,8.56-6.8,14.88-9.07,18.02-7.51,10.38,1.2,24.27,5.45,30.36L13.2,42.06,58.83,14.68M68.44,0c-.58,0-1.18.15-1.76.5L1.65,39.52c-2.3,1.38-2.17,4.76.23,5.96l67.09,33.55c.47.23,1,.37,1.52.37.03,0,.06,0,.09,0,9.33-.28,4.38-5.23,4.38-5.23,0,0-26.21-26.21-18.63-36.69,4.96-6.86,11.41-22.72,15.27-32.85.91-2.39-.98-4.62-3.18-4.62h0Z"/>
    </g>
  </g>
</svg>