<?xml version="1.0" encoding="utf-8"?>
<!-- Generator: Adobe Illustrator 24.0.1, SVG Export Plug-In . SVG Version: 6.00 Build 0)  -->
<svg version="1.1" id="图层_1" xmlns="http://www.w3.org/2000/svg" xmlns:xlink="http://www.w3.org/1999/xlink" x="0px" y="0px"
	 viewBox="0 0 232 208" style="enable-background:new 0 0 232 208;" xml:space="preserve">
<style type="text/css">
	.st0{display:none;fill-rule:evenodd;clip-rule:evenodd;fill:#D0994D;}
	.st1{fill-rule:evenodd;clip-rule:evenodd;fill:#714623;}
</style>
<title>Group 2</title>
<g id="UI-FA">
	<g id="Desktop_x2F_Home" transform="translate(-864.000000, -5505.000000)">
		<g id="Group-2" transform="translate(864.000000, 5505.550000)">
			<g id="Group-3">
			</g>
			<path id="Fill-1" class="st0" d="M101.3,0.4c73.5-0.2,129.6,38.9,130.7,91c1.2,58.8-56,114.2-118.8,115
				C53.6,207.2,0.6,152.8,0,90.3C-0.5,36.4,39.8,0.6,101.3,0.4"/>
			<g transform="translate(39.000000, 54.450000)">
				<path id="Fill-1_1_" class="st1" d="M134.6,51.3c1,1.3,1.8,2.9,2.1,2.8c1.9-0.4,3.6-1.2,5.5-1.9c-1.1-1.3-1.9-3.1-3.3-3.5
					C138,48.3,136.3,50.1,134.6,51.3 M132.2,60.7c-1.1,2.7-1.7,5-2.9,7.1c-0.6,1.1-2.1,1.8-3.2,2.6c-0.7-1.3-2.4-2.9-2.1-3.9
					c2.2-7.4,4.9-14.8,7.7-22.1c0.3-0.8,1.2-1.5,2-1.9c3.4-1.7,10.1,0.8,13.2,5c3.3,4.4,2.8,7.4-1.5,10.3c-1,0.7-1.9,1.3-3.4,2.4
					c2.6,2,4.8,3.7,6.9,5.5c1.3,1,2.8,1.9,3.6,3.2c0.7,1.1,0.4,2.7,0.6,4c-1.4,0-3.2,0.5-4.1-0.2c-3.9-2.8-7.7-5.8-11.6-8.7
					C135.9,63,134.4,62.1,132.2,60.7"/>
				<path id="Fill-3" class="st1" d="M47.3,55.4c4.9,0.6,6.1-1.4,4-7.6C49.7,50.8,48.5,53,47.3,55.4 M59,46.2
					c-0.6,6.5-1,13.1-1.8,19.6c-0.2,1.2-2,2.3-3,3.5c-0.8-1-1.7-1.9-2.5-3c-0.8-1.2-1.8-3.7-2.2-3.6c-2.2,0.5-4.3,1.6-6.3,2.8
					c-0.5,0.3-0.3,1.6-0.9,2.1c-1.1,1-2.4,1.7-3.5,2.5c-0.6-1.3-2-2.7-1.8-3.8c2.5-9.6,6-18.9,12.7-26.8c3.3-3.8,6.9-2.9,8.3,1.8
					C58.6,42.8,58.7,44.5,59,46.2"/>
				<path id="Fill-5" class="st1" d="M85,57.2c0.9,1.8,1.2,3.5,2,3.7c0.9,0.3,2.9-0.4,3.3-1.2c2.1-4,3.9-8.1,5.7-12.2
					c0.3-0.6-0.4-1.6-0.7-2.4c-1,0.2-2.5,0.2-2.9,0.8C89.8,49.6,87.4,53.5,85,57.2 M102,47.5c-0.7,6.4-3.1,12.1-8.2,16.6
					c-2.8,2.5-6,3.8-9.7,2.2c-3.9-1.7-4.3-5.1-3.9-8.6c0.7-6.1,3.4-11.3,8.1-15.6c2.7-2.5,6.2-5.1,10.3-3.6
					C102.9,40.1,101.8,44.1,102,47.5"/>
				<path id="Fill-7" class="st1" d="M112.6,60.8c1.1-1.3,2.6-2.6,3.4-4c2.3-4.1,4.1-8.4,6.6-12.4c0.7-1.1,2.8-1.6,4.3-2.4
					c0.4,1.5,1.5,3.2,1,4.4c-2.3,4.9-4.9,9.7-7.7,14.3c-1.2,2-3.3,3.9-5.4,5.2c-3.6,2.3-8,0.8-9.1-3.1c-1.7-6.2-0.1-12.3,2.5-18
					c0.4-0.8,2.2-1,3.3-1.5c0.6,1.1,1.9,2.2,1.8,3.3c-0.4,2.6-1.5,5.1-1.9,7.7c-0.3,2-0.2,4.1-0.2,6.2
					C111.6,60.5,112.1,60.7,112.6,60.8"/>
				<path id="Fill-9" class="st1" d="M69.9,55.1c0.9-1.7,1.9-3.4,2.9-5c1.5-2.5,2.8-5.1,4.7-7.3c0.7-0.9,2.6-0.9,4-1.4
					c0.2,1.3,0.5,2.7,0.6,4c0,0.3-0.3,0.7-0.5,1c-3.9,5.9-7.5,12-11.2,17.9c-0.8,1.3-2.7,1.8-4,2.8c-0.8-1.5-2.3-2.9-2.4-4.5
					c-0.7-6.9-0.8-13.7-1-20.6c-0.1-1.9-0.1-4,2.9-4c2.8,0,2.6,2,2.6,3.8c0.1,4.3,0.2,8.6,0.3,13C69.2,54.8,69.5,55,69.9,55.1"/>
				<path id="Fill-11" class="st1" d="M16.1,40.3c0.6-0.1,1.2-0.4,1.7-0.2c1.8,0.6,3.5,1.3,5.2,2c-1.4,1.2-2.6,3-4.2,3.4
					c-5.5,1.5-6.2,2-6.1,7c0,2,0.6,3,3.1,2.9c1.3,0,2.5,1.2,3.8,1.9c-0.8,1-1.5,2.8-2.5,3c-5.2,1.1-6.5,4.4-6.5,8.7
					c0,2.1-0.5,4.6-3.4,4c-1-0.3-2.3-3-2.2-4.5c0.3-7.2,1.2-14.4,2.1-21.6C7.6,42.6,8.6,41.9,16.1,40.3"/>
				<path id="Fill-13" class="st1" d="M26.5,62.1c2.8-0.4,5.1-0.9,7.3-0.8c1.4,0.1,2.8,1.2,4.2,1.8c-1.1,1.1-1.9,2.6-3.2,3.1
					c-3.1,1.1-6.3,1.8-9.5,2.5c-3.8,0.8-5.8-0.3-5.2-3.8c1.4-7.7,3.4-15.3,5.7-22.9c0.3-0.9,2.3-1.4,3.5-2c0.6,1.1,1.9,2.4,1.7,3.3
					c-1,4.4-2.4,8.7-3.5,13.1C27.1,58.2,26.9,60,26.5,62.1"/>
				<path id="Fill-15" class="st1" d="M125.6,20.3c0.8-1.1,1.6-2.2,2.4-3.4c2.5-4.1,4.8-8.3,7.6-12.2c0.7-1,3-1.1,4.6-1.6
					c0.3,1.5,1.2,3.3,0.6,4.4c-4.7,8.7-9.4,17.5-14,26.2c-0.6,1.1-2.4,2.5-3.2,2.3c-1.2-0.3-2.8-1.8-3.1-3
					c-1.1-4.7-1.8-9.5-2.7-14.3c-0.2-1.2-0.7-2.4-1-3.5c-0.6-0.1-1.1-0.2-1.7-0.2c-1.6,4.3-3.3,8.6-4.8,12.9c-0.3,0.9-0.1,2-0.6,2.6
					c-0.9,1.1-2.2,1.8-3.4,2.7c-0.8-1.2-2.5-2.7-2.2-3.6c2.9-8.4,5.9-16.8,9.7-24.9c1.3-2.7,4.9-2.1,6.4,0.9c1.4,2.9,2.1,6,3,9
					c0.5,1.8,0.9,3.5,1.3,5.3C124.9,20.1,125.3,20.2,125.6,20.3"/>
				<path id="Fill-17" class="st1" d="M71.8,12.1c1.3,1.3,2.4,2.8,2.8,2.6c1.7-0.6,3.1-1.6,4.7-2.4c-1.1-1.1-2-2.7-3.4-3.1
					C75,9,73.5,10.8,71.8,12.1 M80.9,20.2c3.3,1.9,6.8,3.6,9.8,5.8c1.2,0.9,1.6,2.9,2.3,4.4c-1.8,0-3.9,0.6-5.3-0.1
					c-5.2-2.7-10.3-5.7-16.4-8.8c-0.7,2.8-1.1,5.1-1.9,7.2C68.9,30,67.7,31,66.8,32c-1-1.1-2.9-2.4-2.8-3.3
					c1.1-7.6,2.6-15.2,4.2-22.8C68.3,5.2,69,4.5,69.6,4c3-2.2,9.7-0.8,13.4,2.8c3.8,3.7,3.9,6.8,0.5,9.8c-0.9,0.9-2.4,1.3-3.6,1.9
					C80.3,19.2,80.6,19.7,80.9,20.2"/>
				<path id="Fill-19" class="st1" d="M30.8,18.3c2.8,0.2,4.2-1.4,4.9-4.2c0.7-2.9,1.4-5.8,2.8-8.5c0.6-1.1,2.7-1.5,4.1-2.2
					c0.5,1.3,1.6,2.8,1.3,3.9c-1.9,7.2-3.9,14.4-6,21.6c-0.4,1.3-2.3,2.3-3.4,3.4c-0.7-1.5-1.6-2.8-1.9-4.4c-0.3-1.5,1-3.8-1.8-3.7
					c-2.6,0.1-6-0.8-7.1,2.9c-0.6,2-0.5,4.2-1.4,6C21.7,34.3,20,35,18.9,36c-0.7-1.2-2.1-2.6-1.9-3.7c1.7-9.1,3.8-18.1,6.3-27.1
					c0.3-1,2.4-1.5,3.7-2.3c0.5,1.3,1.7,2.6,1.5,3.8c-0.3,2.5-1.3,5-2,7.5C25.6,18.4,26.1,18.8,30.8,18.3"/>
				<path id="Fill-21" class="st1" d="M50.2,18.6c4.9,0.1,6.3-2.6,3.7-7.6C52.5,13.8,51.4,16.1,50.2,18.6 M62,6.7
					c-1,8.6-1.6,15.8-2.5,22.9c-0.1,1.1-1.9,2-2.9,2.9c-0.7-0.9-1.6-1.8-2.1-2.8c-0.8-1.3-1.6-4-2-3.9c-2.2,0.4-4.3,1.4-6.3,2.5
					c-0.5,0.3-0.4,1.6-1,2.1c-1.1,1-2.4,1.8-3.6,2.7c-0.5-1.5-1.9-3.2-1.5-4.3c3.1-8,6.6-16,10.5-23.7c1.3-2.5,3.6-6.1,6.8-4.6
					C59.8,1.4,60.9,5,62,6.7"/>
				<path id="Fill-23" class="st1" d="M132.2,26.7c1.6-6.3,4.2-12.9,10.4-17.6c3.5-2.7,7.4-2.8,9.5-0.1c1,1.3,0.8,3.2,1.1,4.9
					c-1.5,0.1-3,0-4.4,0.2s-3.4,0.3-3.9,1c-2.6,4.2-4.8,8.5-6.8,12.9c-0.4,0.9,0.4,3.4,1.1,3.5c1.3,0.3,3.2-0.1,4.3-0.9
					c1.1-0.7,1.8-2.2,2.2-3.5c0.4-1.5,0.3-3.2,0.4-4.7c2.6,0.6,5.3,0.8,7.5,2.1c0.7,0.4,0.5,3.8-0.5,4.9c-2.1,2.6-4.7,4.9-7.5,6.8
					c-3.1,2.1-6.8,2.6-10.2,0.4C132.1,34.4,131.6,31,132.2,26.7"/>
				<path id="Fill-25" class="st1" d="M12.8,4.6c1.4,0.1,2.9-0.1,4,0.5c1,0.5,2,1.8,2.2,2.8c0.1,0.6-1.4,1.8-2.4,2.2
					c-2.4,0.9-5.1,1.4-7.4,2.5c-2.6,1.2-2.7,2.8,0,4.2c1.8,0.9,3.7,1.7,5.3,2.9c4.5,3.2,4.7,9.1,1.1,13.2C11.8,37.3,5.1,38.4,1.4,35
					c-0.8-0.7-1.6-2.7-1.2-3.3c0.6-0.9,2.2-1.3,3.5-1.6C4.3,30,5,30.5,5.6,30.6c2.6,0.6,4.8,0.1,6.1-2.5c1.4-2.9-1-4-3-5.1
					c-1.6-0.9-3.4-1.6-5-2.5c-4-2.3-5-5.9-1.8-9.3C4.8,8.4,8.6,6.4,12.1,4C12.3,4.2,12.6,4.4,12.8,4.6"/>
				<path id="Fill-27" class="st1" d="M93,27.8c0.4-1.3,0.6-2.2,1-3c2.7-6.4,5.4-12.9,8.6-19.2c0.6-1.2,2.5-1.8,3.8-2.6
					c0.6,1.4,1.9,3.1,1.5,4.1c-3.1,7.2-6.4,14.4-9.6,21.5c-0.4,0.8-2.4,1.4-3.6,1.3C94.1,30,93.5,28.4,93,27.8"/>
				<path id="Fill-29" class="st1" d="M38.3,97c-0.9,0-1.8,0-2.6-0.2c-1.5-0.2-1.9-0.9-1.6-2.4c0.2-1,0.5-1.9,0.8-2.8
					c0.9-2.7,1.9-5.3,2.9-8c0.4-1.2,1.1-1.7,2.4-1.6c1.5,0.1,3-0.1,4.5,0c0.5,0,1.2,0.6,1.3,1c0.2,0.8-0.5,1.2-1.2,1.3
					c-1.1,0.1-2.3,0.1-3.4,0.2c-1.2,0.1-2.6,1.9-2.2,3.1c0.1,0.2,0.4,0.5,0.7,0.6c0.5,0.2,1.1,0.1,1.5,0.3c0.4,0.3,1,0.8,0.9,1.2
					c-0.1,0.4-0.7,0.9-1.1,1c-0.8,0.2-1.6,0-2.4,0.1c-0.9,0-2.3,2.5-1.8,3.3c0.2,0.3,0.6,0.4,1,0.4c1,0.1,1.9-0.1,2.9,0.1
					c0.5,0.1,1.3,0.6,1.4,1c0.2,0.9-0.6,1.3-1.4,1.4C39.9,97,39.1,96.9,38.3,97L38.3,97"/>
				<path id="Fill-31" class="st1" d="M110.6,92.9c0.6-0.6,1.1-1,1.5-1.5c0.1-0.1-0.6-0.6-0.9-1c-0.5,0.4-1,0.9-1.4,1.4
					C109.8,91.9,110.2,92.4,110.6,92.9 M114.2,85.4l-0.1-0.6c-0.5-0.1-1-0.5-1.4-0.4c-0.6,0.2-1.2,0.6-1.7,1c0.4,0.4,1,1.3,1.2,1.2
					C112.9,86.5,113.5,85.9,114.2,85.4 M110.5,95c-1.3,0-2.5-0.2-3.1-1.5c-0.6-1.4-0.4-2.8,0.7-3.8c1.2-1.1,1.3-2,0.5-3.4
					c-0.9-1.5-0.3-2.7,1.2-3.5s3.1-1,4.7-0.6c1,0.2,1.5,0.9,1.3,1.9c0,0.1-0.1,0.2-0.1,0.2c0.6,1.8,0.2,3.2-1.5,4.2
					c-0.2,0.1-0.1,0.9,0.1,1.3C115.4,93,113.9,95,110.5,95"/>
				<path id="Fill-33" class="st1" d="M99.5,91.7c0.2,0.3,0.3,1.1,0.8,1.3c0.3,0.2,1.1-0.3,1.4-0.7c1.7-2,2.5-4.4,2.8-7.1
					c0-0.4-0.2-1.1-0.5-1.2c-0.4-0.1-1,0.1-1.3,0.4C101,86.5,100.1,88.8,99.5,91.7 M97,91c0.5-3.5,2.1-6.8,5.1-9.4
					c1.5-1.3,4.2-0.2,4.8,2c0.3,1,0.2,2.2,0,3.3c-0.4,2.8-1.5,5.3-3.4,7.4c-1.1,1.3-2.5,2.1-4.3,1.4C97.8,95.2,97,93.6,97,91"/>
				<path id="Fill-35" class="st1" d="M94.5,85.1c-0.1-0.2-0.3-0.8-0.6-0.9c-0.3-0.1-1,0.2-1.2,0.5c-1.7,1.9-2.7,4.2-3,6.8
					c-0.1,0.5,0.3,1.1,0.5,1.7c0.5-0.3,1.2-0.4,1.5-0.8C93.3,90.3,94.1,87.9,94.5,85.1 M97,85c-0.3,3.7-1.4,6.9-3.7,9.5
					c-1.1,1.2-2.4,1.9-4,1.3c-1.7-0.7-2.3-2.2-2.2-3.9c0.2-4.3,2.1-7.7,5.2-10.4c1.3-1.1,3.7-0.1,4.5,1.8C96.9,83.8,96.9,84.5,97,85
					"/>
				<path id="Fill-37" class="st1" d="M64.6,82c1.7,0,3.3,0,5,0c0.5,0,1-0.1,1.3,0.1c0.4,0.2,0.8,0.7,1.1,1.1
					c-0.4,0.4-0.7,1-1.1,1.1c-1.2,0.2-2.4,0.1-3.6,0.1c-1.2-0.1-1.9,0.4-2.3,1.6c-0.9,2.5-1.9,4.9-2.8,7.3c-0.2,0.4-0.3,1-0.6,1.2
					c-0.4,0.3-1.1,0.7-1.4,0.5c-0.3-0.1-0.7-1-0.5-1.4c0.5-1.6,1.1-3.1,1.7-4.7c0.4-1.1,0.8-2.2,1.2-3.2c0.4-0.9,0-1.3-0.9-1.3
					c-1,0-2.1,0-3.1,0c-0.8,0-1.5-0.1-1.5-1.1C57,82.4,57.7,82,58.5,82C60.4,82,62.5,82.1,64.6,82L64.6,82z"/>
				<path id="Fill-39" class="st1" d="M80.5,91.9c0.9,0.1,1.4,0.1,1.9,0.3c0.5,0.2,0.9,0.7,1.3,1.1c-0.4,0.4-0.7,1.1-1.1,1.1
					c-2.1,0.3-4.2,0.5-6.3,0.5c-1.2,0-1.6-0.9-0.9-1.9c0.3-0.4,0.8-0.8,1.2-1.2c1.8-1.9,3.5-3.8,5.3-5.8c0.3-0.3,0.2-0.9,0.3-1.4
					c-0.5,0-1.1,0-1.5,0.1c-0.3,0.1-0.6,0.5-1,0.6c-0.5,0-1.3,0.1-1.5-0.2c-0.2-0.3-0.2-1.2,0.1-1.6c0.8-1.2,4.1-2,5.5-1.5
					c1.2,0.4,1.8,1.9,1.1,3.4C84.1,87,83,88.5,82,90.1C81.5,90.8,81.1,91.2,80.5,91.9"/>
				<path id="Fill-41" class="st1" d="M53.8,90.7c-0.3,1.8-1.3,3.2-3,3.9c-1.6,0.7-3.2,0.5-4.4-0.8c-0.4-0.4-0.6-1.3-0.4-1.7
					c0.3-0.8,1-0.6,1.7-0.2c0.4,0.2,0.9,0.6,1.2,0.5c0.7-0.2,1.5-0.4,2-0.9c0.6-0.6,0.1-1.3-0.5-1.8c-0.7-0.6-1.4-1.1-2.1-1.7
					c-1.5-1.3-1.6-2.9-0.1-4.2c1.5-1.3,3.2-1.9,5.2-1.7c0.8,0.1,1.6,0.4,1.6,1.4c-0.1,1-0.9,0.9-1.7,1c-1,0.1-1.9,0.3-2.8,0.6
					c-0.8,0.3-0.8,0.8-0.1,1.4c0.6,0.5,1.4,0.9,1.9,1.6C52.9,88.9,53.3,89.8,53.8,90.7"/>
				<g id="Group-45" transform="translate(65.000000, 94.000000)">
					<g id="Clip-44">
					</g>
					<path id="Fill-43" class="st1" d="M3,1.6C2.1,2.3,1.6,3.1,1.1,3C0.7,2.9,0,2,0,1.4C0,0.9,0.8,0,1.3,0C1.7,0,2.2,0.8,3,1.6"/>
				</g>
			</g>
		</g>
	</g>
</g>
</svg>
