<?xml version="1.0" encoding="UTF-8"?>
<svg width="378px" height="276px" viewBox="0 0 378 276" version="1.1" xmlns="http://www.w3.org/2000/svg" xmlns:xlink="http://www.w3.org/1999/xlink">
    <title>Group 3</title>
    <defs>
        <filter id="filter-1">
            <feColorMatrix in="SourceGraphic" type="matrix" values="0 0 0 0 0.000000 0 0 0 0 0.000000 0 0 0 0 0.000000 0 0 0 1.000000 0"></feColorMatrix>
        </filter>
        <polygon id="path-2" points="0 0 377.737 0 377.737 275.269695 0 275.269695"></polygon>
    </defs>
    <g id="UI-FA" stroke="none" stroke-width="1" fill="none" fill-rule="evenodd">
        <g id="Group-3" transform="translate(-734.000000, -351.000000)" filter="url(#filter-1)">
            <g transform="translate(734.000000, 351.000000)">
                <mask id="mask-3" fill="white">
                    <use xlink:href="#path-2"></use>
                </mask>
                <g id="Clip-2"></g>
                <path d="M237.4256,158.351295 C237.4226,158.410295 237.4186,158.468295 237.4156,158.526295 L238.2346,158.526295 C238.2366,158.490295 238.2376,158.455295 238.2406,158.418295 C237.9686,158.396295 237.6966,158.373295 237.4256,158.351295 L237.4256,158.351295 Z M202.0766,130.834295 L201.1336,130.834295 C201.3986,131.123295 201.5636,131.302295 201.7796,131.538295 C201.8986,131.256295 201.9746,131.077295 202.0766,130.834295 L202.0766,130.834295 Z M170.2706,150.002295 C170.5886,150.613295 170.8836,150.377295 171.1676,150.164295 C171.2046,150.136295 171.2006,150.051295 171.2356,149.915295 C170.9176,149.944295 170.6366,149.970295 170.2706,150.002295 L170.2706,150.002295 Z M221.6706,164.636295 L221.6706,163.646295 C221.3646,163.922295 221.1786,164.091295 220.9106,164.335295 C221.2146,164.455295 221.3956,164.527295 221.6706,164.636295 L221.6706,164.636295 Z M202.9946,143.346295 C202.7376,143.071295 202.5656,142.886295 202.3386,142.642295 C202.0756,143.019295 201.8746,143.308295 201.5606,143.758295 C202.1266,143.596295 202.4676,143.497295 202.9946,143.346295 L202.9946,143.346295 Z M272.1006,222.352295 C271.9186,222.731295 271.7606,223.059295 271.5196,223.562295 C272.1056,223.275295 272.4796,223.091295 272.9926,222.839295 C272.6136,222.632295 272.3846,222.507295 272.1006,222.352295 L272.1006,222.352295 Z M219.1096,128.662295 L218.9676,128.508295 C218.5756,128.707295 218.1856,128.907295 217.7386,129.135295 C217.8776,129.489295 217.9996,129.800295 218.1236,130.115295 C218.2386,130.063295 218.2916,130.057295 218.3086,130.028295 C218.5786,129.574295 218.8426,129.118295 219.1096,128.662295 L219.1096,128.662295 Z M193.2876,128.162295 C193.7626,128.115295 194.0496,128.098295 194.3326,128.054295 C194.5676,128.018295 194.7966,127.950295 195.1206,127.875295 C194.5996,127.319295 194.1906,126.884295 193.7046,126.365295 C193.5556,127.007295 193.4366,127.518295 193.2876,128.162295 L193.2876,128.162295 Z M211.1666,165.940295 C210.1376,165.636295 209.2776,165.382295 208.2136,165.068295 C208.8936,165.841295 209.4216,166.441295 209.8516,166.930295 C210.2706,166.615295 210.6546,166.326295 211.1666,165.940295 L211.1666,165.940295 Z M226.0136,124.935295 C225.7966,124.202295 225.5936,123.517295 225.3536,122.706295 C224.8126,123.583295 224.3216,124.380295 223.7366,125.329295 C224.6246,125.175295 225.2976,125.059295 226.0136,124.935295 L226.0136,124.935295 Z M260.3716,269.366295 C260.0606,269.090295 259.9696,268.943295 259.8816,268.945275 C259.6456,268.951295 259.3636,268.951295 259.1826,269.075295 C258.0416,269.853295 256.9246,270.664295 255.7996,271.465295 C255.8596,271.558295 255.9176,271.650295 255.9776,271.742295 C257.3926,270.977295 258.8066,270.212295 260.3716,269.366295 L260.3716,269.366295 Z M226.3746,215.919295 C226.3076,217.180295 226.2466,218.326295 226.1806,219.563295 C226.8426,219.282295 227.4696,219.016295 228.0886,218.753295 C227.5126,217.801295 226.9636,216.893295 226.3746,215.919295 L226.3746,215.919295 Z M198.1976,144.603295 C197.8906,144.929295 197.5316,145.310295 197.1596,145.706295 C197.3766,146.180295 197.5736,146.612295 197.8096,147.130295 C198.6456,146.217295 199.4076,145.384295 200.2156,144.502295 C199.5396,144.536295 198.9066,144.568295 198.1976,144.603295 L198.1976,144.603295 Z M194.0686,155.457295 C195.3316,155.142295 196.4256,154.868295 197.5416,154.588295 C197.2916,153.961295 197.0656,153.394295 196.8396,152.830295 C195.9986,153.254295 195.2036,153.655295 194.3216,154.099295 C194.2536,154.463295 194.1726,154.898295 194.0686,155.457295 L194.0686,155.457295 Z M256.9366,204.656295 C258.2786,206.410295 259.0116,208.141295 258.4856,210.399295 C259.1446,210.031295 259.5536,209.801295 260.0366,209.532295 C258.4806,208.101295 258.5666,206.436295 259.1576,204.656295 L256.9366,204.656295 Z M244.6526,142.346295 C245.4276,143.192295 246.1276,143.956295 246.8906,144.788295 C247.3576,143.705295 247.7686,142.751295 248.2246,141.693295 C246.9966,141.917295 245.8876,142.120295 244.6526,142.346295 L244.6526,142.346295 Z M179.4056,169.128295 C178.6346,169.374295 177.9066,169.607295 177.1326,169.854295 C177.8076,171.100295 178.4466,172.279295 179.1606,173.597295 C179.2476,172.005295 179.3236,170.620295 179.4056,169.128295 L179.4056,169.128295 Z M190.8206,160.318295 C189.1896,161.699295 187.1916,161.762295 185.2856,162.238295 C187.2426,161.757295 188.9956,162.564295 190.8206,163.078295 L190.8206,160.318295 Z M248.9536,199.548295 C248.6426,198.362295 248.3416,197.219295 248.0606,196.149295 C247.2026,197.036295 246.3036,197.964295 245.4666,198.830295 C246.5256,199.048295 247.7216,199.294295 248.9536,199.548295 L248.9536,199.548295 Z M240.5586,179.189295 C239.1596,179.722295 237.8426,180.225295 236.5366,180.723295 C236.8706,181.503295 237.2216,182.325295 237.5546,183.104295 C238.7026,182.855295 239.8516,182.607295 240.9366,182.372295 C240.8126,181.326295 240.6866,180.268295 240.5586,179.189295 L240.5586,179.189295 Z M240.1596,200.219295 C238.9876,199.770295 237.9826,199.385295 236.9176,198.977295 C236.6396,200.689295 236.1746,202.289295 235.0766,203.739295 C236.2436,203.884295 237.2736,204.013295 238.3926,204.153295 C238.2636,202.506295 238.8356,201.241295 240.1596,200.219295 L240.1596,200.219295 Z M196.1836,228.871295 C195.8716,228.023295 195.5746,227.429295 195.4426,226.800295 C195.3046,226.150295 195.3286,225.466295 195.2796,224.769295 C193.6586,225.516295 189.4756,228.250295 188.9356,228.871295 L196.1836,228.871295 Z M229.9426,147.630295 C230.7066,146.027295 231.7266,144.535295 233.0476,143.248295 C234.4176,141.914295 236.0346,141.067295 238.1006,140.738295 C237.4936,140.173295 237.0556,139.765295 236.5916,139.332295 C235.4246,140.892295 234.0246,142.033295 232.4086,142.925295 C230.7956,143.817295 228.9816,143.900295 227.2576,144.079295 C228.1856,145.307295 229.0446,146.443295 229.9426,147.630295 L229.9426,147.630295 Z M227.0276,173.254295 C226.6606,175.234295 226.3746,177.193295 224.9946,178.761295 C223.6076,180.339295 221.6536,180.951295 219.8756,181.762295 C220.3296,182.673295 220.7476,183.509295 221.1876,184.390295 C222.9146,180.698295 225.2376,177.849295 229.9506,178.158295 C228.6416,176.683295 227.6546,175.096295 227.0276,173.254295 L227.0276,173.254295 Z M285.4036,203.796295 C282.1026,205.021295 279.3166,204.169295 276.6946,202.389295 C276.5386,202.284295 276.3436,202.236295 276.1366,202.148295 C275.7336,203.410295 275.3556,204.595295 274.9296,205.929295 C276.7476,205.111295 278.4676,204.991295 280.2086,205.259295 C282.0226,205.539295 283.4026,206.609295 284.5646,208.042295 C284.8516,206.590295 285.1046,205.308295 285.4036,203.796295 L285.4036,203.796295 Z M220.5516,205.505295 C219.9476,206.156295 219.3426,206.808295 218.5656,207.646295 C222.7696,207.750295 224.3846,210.631295 225.9176,213.667295 C225.7886,211.490295 226.4326,209.539295 227.7336,207.539295 C224.8416,208.011295 222.6966,206.884295 220.5516,205.505295 L220.5516,205.505295 Z M195.5766,176.469295 C194.5796,177.628295 193.5996,178.769295 192.5626,179.974295 C196.4076,180.301295 199.5996,181.928295 202.1956,184.667295 C202.6606,183.688295 203.0786,182.811295 203.5216,181.878295 C199.8096,181.531295 197.1756,179.662295 195.5766,176.469295 L195.5766,176.469295 Z M251.3096,255.567295 C250.4526,255.154295 249.7356,254.837295 249.0446,254.467295 C248.4136,254.129295 247.7966,254.069295 247.1466,254.376295 C245.7266,255.045295 244.2646,255.635295 242.8986,256.400295 C241.5826,257.135295 240.5646,258.244295 239.8176,259.568295 C239.5166,260.102295 239.2126,260.657295 239.5226,261.326295 C243.6916,259.965295 247.4966,257.918295 251.3096,255.567295 L251.3096,255.567295 Z M250.7596,160.742295 C250.9156,160.177295 251.0736,159.601295 251.2306,159.035295 C249.1416,157.617295 247.3366,156.033295 246.3596,153.590295 C244.5396,155.928295 241.9856,156.964295 239.3496,158.451295 C242.2016,158.392295 244.4996,158.957295 245.8896,161.309295 C247.7096,160.381295 247.9766,160.334295 250.7596,160.742295 L250.7596,160.742295 Z M215.7716,129.277295 C213.8266,127.418295 211.7626,126.560295 209.3706,127.106295 C206.0686,127.860295 204.0856,130.064295 203.3276,133.332295 C202.7696,135.736295 203.2376,138.104295 203.7726,140.455295 C203.8106,140.622295 203.9036,140.778295 204.0566,141.145295 C204.3506,139.582295 204.5656,138.246295 204.8576,136.926295 C205.4496,134.247295 206.8606,132.054295 208.9096,130.248295 C210.3486,128.981295 212.0066,128.562295 213.8726,128.897295 C214.4236,128.996295 214.9706,129.116295 215.7716,129.277295 L215.7716,129.277295 Z M201.4356,156.037295 C201.4346,152.434295 203.2576,150.104295 206.2396,148.697295 C205.8396,147.819295 205.4716,147.079295 205.1606,146.315295 C204.6066,144.955295 203.4536,144.504295 202.1766,145.197295 C200.6246,146.040295 199.5386,147.316295 198.8436,148.921295 C197.8616,151.195295 198.6126,154.843295 201.4356,156.037295 L201.4356,156.037295 Z M278.3266,243.058295 C278.0226,242.019295 277.4326,241.180295 276.4526,240.714295 C275.4526,240.239295 274.4126,239.841295 273.3696,239.468295 C272.4486,239.139295 271.5686,239.340295 270.7896,239.912295 C269.4916,240.866295 268.1906,241.817295 266.9256,242.813295 C265.9706,243.565295 265.0716,244.386295 264.1036,245.214295 C266.8856,245.901295 274.4876,244.730295 278.3266,243.058295 L278.3266,243.058295 Z M246.4316,162.042295 C246.7026,163.435295 247.0216,164.596295 247.1316,165.777295 C247.2446,166.995295 247.1566,168.231295 247.1566,169.577295 C249.9926,168.655295 252.7076,168.661295 255.3866,169.651295 C255.8116,167.774295 254.4596,165.068295 252.3996,163.383295 C250.6146,161.924295 248.6546,161.437295 246.4316,162.042295 L246.4316,162.042295 Z M194.4086,152.811295 C195.9126,152.205295 196.5516,151.090295 196.6076,149.596295 C196.6786,147.687295 195.9506,146.144295 194.4586,144.949295 C192.4226,143.319295 190.0746,142.868295 187.5646,143.222295 C186.1936,143.414295 184.9106,143.931295 183.6146,144.982295 C184.1816,145.090295 184.4906,145.150295 184.8006,145.207295 C189.2956,146.045295 192.8886,148.033295 194.4086,152.811295 L194.4086,152.811295 Z M165.7926,186.092295 C166.8746,187.638295 167.9556,189.183295 169.0386,190.731295 C172.1976,186.367295 176.3676,186.294295 180.9526,187.550295 C180.7366,184.345295 182.1746,182.151295 185.1756,180.893295 C184.1316,180.215295 183.1346,179.697295 182.2966,178.990295 C181.4636,178.286295 180.7896,177.393295 179.8826,176.406295 C180.2476,180.322295 179.1126,183.513295 175.9256,185.697295 C172.6786,187.921295 169.2766,187.802295 165.7926,186.092295 L165.7926,186.092295 Z M257.3756,168.929295 C258.8616,166.215295 260.9286,165.055295 263.8356,165.478295 C266.5746,165.876295 268.4896,167.339295 269.7176,169.853295 C269.7746,169.136295 270.3946,168.659295 270.0586,167.898295 C269.1416,165.823295 269.0136,163.663295 269.6066,161.466295 C269.6606,161.262295 269.6826,161.048295 269.7186,160.839295 C268.4796,161.826295 267.3576,162.884295 266.0806,163.702295 C262.9536,165.702295 259.2586,165.185295 256.8176,162.546295 C255.9146,161.572295 255.4406,160.397295 255.1216,159.139295 C255.0146,158.712295 254.9186,158.282295 254.7936,157.749295 C253.2236,158.477295 251.9196,159.255295 251.2966,160.936295 C254.6776,162.509295 256.5716,165.184295 257.3756,168.929295 L257.3756,168.929295 Z M181.2896,138.118295 C182.9036,135.781295 185.7276,135.159295 188.5556,134.678295 C188.6556,133.659295 188.7476,132.731295 188.8466,131.732295 C185.5716,130.410295 182.2386,129.866295 179.0066,130.715295 C178.4366,132.193295 177.9686,133.409295 177.4416,134.778295 C178.6546,135.830295 179.9626,136.965295 181.2896,138.118295 L181.2896,138.118295 Z M205.9206,114.998295 C204.8516,111.904295 202.9026,109.930295 199.9696,109.149295 C197.1336,108.393295 194.4016,109.167295 191.8016,110.356295 C191.2756,110.596295 190.8556,111.067295 190.3296,111.476295 C191.9086,113.091295 192.9506,114.820295 193.2506,117.043295 C197.0326,113.432295 201.2006,113.206295 205.9206,114.998295 L205.9206,114.998295 Z M205.1956,219.024295 C204.1866,219.622295 203.2076,220.233295 202.2026,220.797295 C200.3286,221.850295 198.4396,222.877295 196.5556,223.914295 C196.1486,224.137295 195.8046,224.356295 195.7846,224.922295 C195.6926,227.588295 198.2456,229.841295 200.7786,229.200295 C203.3886,228.539295 206.7446,225.593295 206.3306,221.616295 C206.2316,220.662295 205.9516,219.760295 205.1956,219.024295 L205.1956,219.024295 Z M268.8216,174.995295 C268.9266,172.347295 268.3356,169.973295 266.4036,168.279295 C263.4636,165.702295 258.7576,166.418295 257.6706,170.823295 C259.5016,172.358295 261.3056,173.971295 261.9506,176.479295 C264.4906,174.510295 265.7146,174.391295 268.8216,174.995295 L268.8216,174.995295 Z M218.7566,149.841295 C221.3296,151.694295 222.4246,154.373295 223.5986,157.099295 C224.9326,155.455295 226.0716,153.798295 227.9966,153.009295 C228.0426,151.843295 228.0706,150.768295 228.1316,149.696295 C228.3116,146.561295 224.6926,144.127295 221.7556,144.504295 C221.1436,146.395295 220.5246,148.341295 218.7566,149.841295 L218.7566,149.841295 Z M244.2066,216.607295 C243.0166,217.968295 241.9096,219.233295 240.6916,220.626295 C241.6226,221.358295 242.6536,222.154295 243.6676,222.969295 C244.7426,223.832295 245.3916,225.005295 245.8656,226.379295 C247.0216,225.214295 248.1546,224.288295 249.5556,223.845295 C250.9156,223.415295 252.3276,223.151295 253.8226,222.789295 C253.1636,220.920295 253.4366,219.011295 253.8046,217.014295 C250.4136,218.252295 247.1856,218.592295 244.2066,216.607295 L244.2066,216.607295 Z M196.2786,144.497295 C197.1856,142.494295 196.9186,140.926295 195.5206,139.612295 C193.0846,137.321295 190.2196,136.317295 186.8756,136.751295 C185.0466,136.989295 183.4256,137.659295 182.2156,139.084295 C181.8926,139.464295 181.5686,140.050295 181.6176,140.500295 C181.7796,141.995295 181.7846,143.448295 181.1556,144.934295 L182.5566,144.934295 C184.1996,142.614295 186.5576,141.893295 189.1706,141.806295 C191.8516,141.717295 194.1916,142.673295 196.2786,144.497295 L196.2786,144.497295 Z M234.9606,114.356295 C234.5816,113.606295 234.2736,113.029295 233.9956,112.436295 C233.3836,111.131295 232.3656,110.299295 231.0506,109.748295 C229.6916,109.179295 228.2666,108.927295 226.8236,108.911295 C224.0896,108.881295 222.1646,110.349295 220.7126,112.523295 C220.4296,112.948295 220.3246,113.492295 220.0946,114.093295 C221.6436,114.473295 223.0376,114.869295 224.0876,116.068295 C225.1066,117.233295 225.7996,118.512295 226.0606,120.142295 C228.1716,116.842295 230.6896,114.427295 234.9606,114.356295 L234.9606,114.356295 Z M239.3906,234.530295 C238.1976,233.880295 237.1716,233.349295 236.1736,232.771295 C235.1426,232.173295 234.0736,232.130295 232.9346,232.354295 C229.6626,232.997295 227.5456,235.104295 225.9516,237.853295 C225.6946,238.297295 225.4686,238.896295 225.5456,239.372295 C225.7796,240.830295 226.4456,242.084295 227.7186,242.964295 C232.0456,240.670295 236.0276,238.051295 239.3906,234.530295 L239.3906,234.530295 Z M189.457551,134.631295 C189.7296,134.671295 190.0096,134.714295 190.2896,134.753295 C192.9616,135.131295 195.2376,136.292295 197.1486,138.194295 C198.3796,139.419295 198.8516,140.894295 198.6796,142.602295 C198.6446,142.955295 198.6316,143.309295 198.6006,143.776295 C199.4796,143.629295 200.1166,143.271295 200.6906,142.798295 C201.4526,142.170295 201.7256,141.363295 201.6076,140.369295 C201.4036,138.648295 201.2626,136.920295 201.0976,135.195295 C201.0776,134.990295 201.1096,134.770295 201.0486,134.579295 C199.8966,130.971295 197.5146,129.085295 193.5456,129.769295 C191.3026,130.156295 189.4466,132.450295 189.457551,134.631295 L189.457551,134.631295 Z M219.7956,203.376295 C217.7356,202.458295 215.7496,202.058295 213.6676,202.066177 C212.6216,202.070295 211.7516,202.458295 210.9886,203.168295 C210.3246,203.789295 209.6056,204.350295 208.9286,204.957295 C207.4636,206.273295 206.3076,207.818295 205.5466,209.643295 C205.0936,210.731295 205.0716,211.818295 205.6486,212.870295 C206.0636,213.625295 206.7326,214.009295 207.4846,213.829295 C208.5656,213.570295 209.6136,213.252295 210.4236,212.363295 C211.1146,211.603295 211.9576,210.983295 212.7176,210.284295 C214.6936,208.464295 216.6696,206.645295 218.6236,204.803295 C219.0296,204.420295 219.3406,203.937295 219.7956,203.376295 L219.7956,203.376295 Z M226.5266,170.219295 C226.8106,164.210295 230.5306,160.967295 235.6416,158.855295 C235.5456,158.329295 235.5106,157.871295 235.3756,157.443295 C235.0466,156.404295 234.6406,155.374295 233.5316,154.929295 C231.0966,153.950295 228.8196,154.227295 226.8116,155.973295 C226.1276,156.569295 225.5256,157.263295 224.9156,157.939295 C224.2996,158.622295 223.8086,159.366295 223.7166,160.337295 C223.6796,160.730295 223.4126,161.097295 223.2786,161.487295 C223.0266,162.220295 222.7466,162.950295 222.5696,163.703295 C222.3936,164.445295 222.5826,165.027295 223.3776,165.417295 C224.8346,166.133295 225.6676,167.405295 226.1426,168.926295 C226.2766,169.355295 226.3986,169.789295 226.5266,170.219295 L226.5266,170.219295 Z M221.7996,187.530295 C223.5296,187.763295 225.2706,187.856295 226.9356,188.263295 C228.5916,188.667295 230.1686,189.386295 231.6406,189.916295 C232.1766,188.681295 232.5296,187.308295 233.3026,186.239295 C234.0696,185.179295 235.2576,184.424295 236.2696,183.530295 C235.5626,181.853295 234.4456,180.460295 232.5296,179.937295 C231.8216,179.744295 231.0736,179.689295 230.3416,179.590295 C225.7266,178.969295 221.5706,183.317295 221.7996,187.530295 L221.7996,187.530295 Z M185.7086,160.759295 C186.7386,160.422295 187.5706,160.186295 188.3756,159.880295 C191.8906,158.541295 194.0206,153.194295 190.7036,149.794295 C188.0746,147.100295 184.8946,145.962295 181.2376,145.856295 C180.7566,145.843295 180.4116,146.049295 180.0426,146.378295 C179.2766,147.062295 178.4236,147.647295 177.6036,148.270295 C177.3986,148.427295 177.1896,148.577295 176.9816,148.729295 C177.7896,148.926295 178.5316,148.878295 179.2666,148.935295 C180.9806,149.068295 182.5216,149.683295 183.6306,151.020295 C185.5026,153.276295 186.4956,155.844295 186.0336,158.836295 C185.9476,159.399295 185.8446,159.957295 185.7086,160.759295 L185.7086,160.759295 Z M205.6136,163.829295 C204.8036,162.973295 204.0316,162.279295 203.4076,161.471295 C202.4296,160.203295 201.5356,158.869295 200.6386,157.539295 C200.1776,156.856295 199.5696,156.407295 198.8126,156.126295 C196.6016,155.304295 194.1476,156.151295 192.9116,158.161295 C192.7816,158.372295 192.6626,158.597295 192.4956,158.776295 C191.5566,159.785295 191.3556,161.031295 191.3096,162.335295 C191.2836,163.082295 191.4926,163.702295 192.1096,164.182295 C193.3196,165.125295 194.0706,166.397295 194.6156,167.809295 C194.8146,168.322295 195.0576,168.818295 195.3536,169.487295 C195.8266,168.675295 196.1756,168.078295 196.5206,167.488295 C195.7976,166.818295 195.7146,166.450295 196.1836,165.947295 C196.3156,165.807295 196.5816,165.611295 196.6846,165.659295 C197.0166,165.813295 197.3006,166.070295 197.4506,166.177295 C198.7776,165.431295 200.0166,164.706295 201.2816,164.031295 C202.6516,163.300295 204.1166,163.992295 205.6136,163.829295 L205.6136,163.829295 Z M176.0536,133.714295 C176.1426,133.219295 176.2256,132.786295 176.2976,132.351295 C176.7236,129.773295 175.3076,127.455295 172.7676,126.730295 C168.6156,125.547295 164.9776,126.627295 161.8676,129.493295 C159.8846,131.320295 158.9116,134.336295 161.8196,137.615295 C164.6346,133.983295 168.6936,133.148295 173.0776,132.683295 C172.3986,131.995295 172.5206,131.242295 172.8516,130.502295 C173.0356,130.090295 173.4026,129.792295 173.8466,129.997295 C174.1796,130.151295 174.6146,130.489295 174.6506,130.787295 C174.7026,131.230295 174.4916,131.733295 174.2986,132.168295 C174.1816,132.432295 173.8856,132.615295 173.6506,132.855295 C174.4656,133.146295 175.1956,133.407295 176.0536,133.714295 L176.0536,133.714295 Z M270.2786,189.909295 C270.7436,189.024295 271.0856,188.120295 271.6456,187.379295 C272.2606,186.568295 272.6966,185.688295 272.9826,184.750295 C273.6666,182.511295 273.3326,180.480295 271.4606,178.894295 C270.7036,178.253295 269.9316,177.614295 269.0956,177.086295 C267.0536,175.796295 264.4616,175.940295 262.8266,177.343295 C262.4256,177.687295 262.1806,178.039295 262.2626,178.621295 C262.4346,179.830295 262.2116,181.015295 261.8646,182.173295 C261.6176,182.997295 261.3376,183.812295 261.0976,184.550295 C262.1606,184.793295 263.2376,185.012295 264.2976,185.292295 C264.7686,185.416295 265.1986,185.682295 265.6606,185.848295 C267.6796,186.574295 269.4146,187.609295 270.1336,189.803295 C270.1536,189.864295 270.2586,189.896295 270.2786,189.909295 L270.2786,189.909295 Z M283.3236,163.727295 C284.6906,161.183295 284.5506,158.580295 283.2176,155.980295 C282.9116,155.384295 282.3916,155.045295 281.7646,154.911295 C281.1606,154.781295 280.5376,154.658295 279.9246,154.664295 C274.9036,154.720295 270.4336,158.778295 270.0366,163.861295 C269.9436,165.060295 270.1566,166.230295 270.5636,167.541295 C270.8416,167.171295 271.0116,166.949295 271.1776,166.723295 C272.9476,164.316295 275.2386,163.002295 278.3136,163.298295 C279.9536,163.456295 281.5976,163.580295 283.3236,163.727295 L283.3236,163.727295 Z M169.4236,151.178295 C168.5956,149.544295 167.3446,148.685295 165.8456,148.921295 C163.8476,149.235295 162.3706,150.360295 161.4896,152.216295 C161.1376,152.959295 160.7286,153.680295 160.4286,154.445295 C159.8426,155.941295 159.4976,157.437295 160.5766,158.909295 C161.9566,160.789295 162.6766,162.962295 162.9806,165.231295 C163.2966,167.592295 162.9276,169.869295 161.3316,171.788295 C159.2846,174.246295 156.5876,175.271295 153.4606,175.335295 C153.1296,175.342295 152.7976,175.336295 152.4636,175.336295 C155.7406,177.740295 158.9296,180.080295 162.2806,182.538295 C161.2606,179.886295 160.7106,177.318295 161.3126,174.648295 C161.9136,171.984295 163.2076,169.743295 165.5826,168.230295 C165.3776,167.926295 165.2336,167.725295 165.1006,167.517295 C163.6596,165.261295 163.0726,162.815295 163.5466,160.163295 C164.1396,156.845295 165.8136,154.156295 168.4056,152.022295 C168.7526,151.737295 169.0966,151.450295 169.4236,151.178295 L169.4236,151.178295 Z M191.2816,119.510295 C191.5686,118.350295 191.5386,117.332295 191.2376,116.323295 C190.6426,114.331295 189.4236,112.801295 187.6956,111.687295 C186.2476,110.754295 184.6216,110.282295 182.9356,109.983295 C181.2026,109.676295 179.5486,110.001295 177.9616,110.651295 C177.4486,110.861295 176.9836,111.281295 176.6026,111.701295 C174.8816,113.598295 175.0066,115.763295 175.8056,117.988295 C175.8956,118.238295 176.1176,118.482295 176.3426,118.634295 C177.3536,119.318295 178.3866,119.969295 179.4176,120.635295 C181.8786,117.101295 186.4126,115.829295 191.2816,119.510295 L191.2816,119.510295 Z M189.7536,130.527295 C193.6276,126.531295 192.0826,121.235295 187.7966,119.058295 C185.4206,117.851295 182.8216,118.353295 180.9456,120.246295 C178.8786,122.332295 178.1316,126.343295 179.3106,129.059295 C179.3386,129.123295 179.4366,129.157295 179.5726,129.256295 C183.0696,128.308295 186.4716,128.696295 189.7536,130.527295 L189.7536,130.527295 Z M314.7746,212.140295 C316.2506,212.022295 317.1006,211.233295 317.5076,210.012295 C317.7916,209.158295 317.9766,208.247295 318.0506,207.348295 C318.4126,202.935295 318.7176,198.518295 319.0626,194.105295 C319.1036,193.568295 318.9556,193.163295 318.6216,192.749295 C317.8486,191.791295 316.8286,191.325295 315.6576,191.089295 C314.4666,190.851295 313.9076,190.974295 313.3846,192.039295 C312.8256,193.175295 312.2586,194.392295 312.1056,195.625295 C311.8356,197.790295 311.7616,199.997295 311.8186,202.182295 C311.9106,205.716295 313.0306,208.989295 314.7746,212.140295 L314.7746,212.140295 Z M217.1126,128.328295 C217.3146,128.272295 217.4086,128.271295 217.4696,128.226295 C218.5966,127.396295 219.7246,126.566295 220.8426,125.724295 C222.0966,124.780295 222.9816,123.529295 223.6416,122.133295 C224.0276,121.318295 224.3656,120.454295 224.2066,119.503295 C223.9646,118.059295 222.4266,115.742295 220.2126,115.608295 C219.1936,115.547295 218.1336,115.568295 217.1406,115.778295 C214.8966,116.253295 213.0376,117.477295 211.3966,119.059295 C210.7686,119.664295 210.2556,120.244295 210.7266,121.196295 C210.8456,121.436295 210.8246,121.768295 210.8026,122.053295 C210.7236,123.069295 210.6156,124.083295 210.5096,125.194295 C213.1666,125.147295 215.3006,126.371295 217.1126,128.328295 L217.1126,128.328295 Z M242.7516,233.518295 C240.1196,236.653295 237.0446,239.255295 233.7446,241.479295 C233.8186,241.918295 233.9056,242.202295 233.9056,242.485295 C233.9056,244.681295 235.1186,246.121295 236.8786,247.179295 C238.9886,248.448295 241.2936,248.747295 243.7026,248.381295 C246.6766,247.930295 248.5116,246.222295 249.3486,243.239295 C247.2036,242.623295 245.3256,241.700295 244.0676,239.768295 C242.8236,237.862295 242.3046,235.870295 242.7516,233.518295 L242.7516,233.518295 Z M269.9986,194.740295 C269.7386,195.405295 269.5306,196.032295 269.2536,196.628295 C267.6426,200.098295 265.3126,202.858295 261.5216,204.012295 C260.6226,204.286295 260.2466,204.771295 260.0216,205.582295 C259.7346,206.617295 259.9886,207.527295 260.4756,208.436295 C260.8016,209.043295 261.1966,209.232295 261.8816,209.073295 C264.7246,208.413295 267.3886,208.694295 269.6836,210.701295 C269.7406,210.751295 269.8346,210.761295 269.9496,210.805295 C270.4726,209.626295 271.0966,208.492295 272.2016,207.762295 C273.2736,207.056295 273.8606,206.051295 274.1936,204.869295 C274.4736,203.874295 274.7626,202.876295 274.9366,201.861295 C275.5106,198.497295 273.2186,195.123295 269.9986,194.740295 L269.9986,194.740295 Z M219.5036,114.040295 C219.6026,113.460295 219.6536,112.921295 219.7956,112.407295 C219.9376,111.892295 220.2076,111.413295 220.3536,110.899295 C220.5676,110.148295 220.8246,109.386295 220.8806,108.616295 C221.0936,105.672295 219.1256,103.623295 216.1716,103.621291 C213.2586,103.618295 211.2816,105.241295 209.7426,107.463295 C208.5806,109.143295 207.8236,111.050295 207.5486,113.084295 C207.4126,114.089295 207.5406,115.132295 207.5736,116.157295 C207.5786,116.300295 207.7106,116.453295 207.8116,116.577295 C208.5306,117.463295 209.2586,118.342295 209.9846,119.226295 C214.3296,115.064295 215.3966,114.481295 219.5036,114.040295 L219.5036,114.040295 Z M157.1786,155.324295 C159.4906,154.065295 160.5766,150.647295 159.9486,148.202295 C159.0826,144.827295 156.8196,142.970295 153.5566,142.135295 C150.9916,141.478295 149.1966,142.135295 147.4116,144.492295 C146.6306,145.524295 146.0216,146.706295 146.1746,148.054295 C146.3546,149.634295 146.9906,151.081295 147.7956,152.448295 C148.1516,153.051295 148.6446,153.221295 149.3636,153.122295 C150.2126,153.003295 151.0926,152.997295 151.9466,153.079295 C153.8996,153.264295 155.5716,154.169295 157.1786,155.324295 L157.1786,155.324295 Z M259.2466,145.498295 C258.7546,144.579295 258.3076,143.694295 257.8156,142.835295 C257.1536,141.679295 256.1516,140.878295 254.9296,140.401295 C253.4276,139.814295 251.9876,139.933295 250.8236,141.166295 C250.2036,141.824295 249.5856,142.520295 249.1386,143.298295 C248.2696,144.810295 247.6426,146.397295 247.8546,148.238295 C247.9496,149.077295 247.8436,149.991295 247.6046,150.806295 C247.1266,152.434295 247.5436,153.830295 248.4686,155.123295 C249.3666,156.380295 250.5506,157.338295 251.7846,158.106295 C252.8026,157.618295 253.7266,157.174295 254.6666,156.723295 C255.3136,151.616295 256.1766,149.479295 259.2466,145.498295 L259.2466,145.498295 Z M235.5066,128.973295 C237.7346,124.918295 238.2666,124.444295 242.4756,123.095295 C243.1506,122.878295 243.2946,122.516295 243.2816,121.925295 C243.2416,120.078295 242.4426,118.666295 240.8596,117.717295 C239.4626,116.881295 237.9666,116.264295 236.3506,116.059295 C235.2946,115.925295 234.1626,115.743295 233.1576,115.978295 C230.0166,116.715295 227.8376,118.690295 226.6166,121.685295 C226.4476,122.100295 226.3486,122.562295 226.3156,123.010295 C226.2106,124.426295 226.6806,124.960295 228.0996,124.999295 C230.3566,125.062295 232.2826,125.886295 233.9166,127.422295 C234.4266,127.901295 234.9186,128.398295 235.5066,128.973295 L235.5066,128.973295 Z M202.7136,165.103295 C201.1026,164.644295 199.8926,165.813295 198.6766,166.967295 C194.6256,170.813295 196.0296,176.914295 200.7576,179.188295 C204.6546,181.062295 208.4226,178.761295 209.3216,175.308295 C209.6116,174.195295 209.7716,173.027295 209.8196,171.877295 C209.9846,167.894295 206.9626,164.915295 202.7136,165.103295 L202.7136,165.103295 Z M214.6796,193.129295 C214.8266,191.126295 216.0606,190.017295 217.5646,189.113295 C218.9956,188.250295 219.6006,186.819295 219.2416,185.203295 C218.7746,183.103295 217.3206,181.955295 215.3966,181.372295 C213.0276,180.657295 210.5856,180.423295 208.1606,181.033295 C205.7396,181.641295 203.7506,182.881295 202.7896,185.347295 C204.2776,187.993295 205.7036,190.613295 203.4866,193.768295 C207.2986,192.959295 210.9256,192.535295 214.6796,193.129295 L214.6796,193.129295 Z M237.6736,156.914295 C237.9626,156.878295 238.2756,156.913295 238.5186,156.800295 C240.5486,155.856295 242.6206,154.922295 244.1536,153.245295 C245.8666,151.369295 246.5616,149.042295 245.5756,146.669295 C243.6476,142.020295 238.9126,140.155295 234.5246,143.374295 C233.3456,144.238295 232.3896,145.450295 231.4726,146.614295 C230.5976,147.725295 230.0596,149.053295 229.7786,150.452295 C229.6536,151.074295 229.4856,151.738295 229.9576,152.392295 C231.4156,151.949295 232.7756,152.370295 234.1306,152.736295 C235.3946,153.078295 236.3366,153.867295 236.9156,155.044295 C237.1876,155.596295 237.3816,156.185295 237.6736,156.914295 L237.6736,156.914295 Z M232.2436,190.589295 C234.3926,191.995295 235.5736,193.979295 236.2816,196.226295 C236.6196,197.297295 237.1606,197.941295 238.2396,198.157295 C238.4006,198.189295 238.5446,198.291295 238.7036,198.330295 C239.9576,198.639295 241.2156,198.916295 242.4616,198.300295 C244.3636,197.359295 245.9146,196.040295 246.9296,194.143295 C248.0126,192.121295 248.2916,190.083295 247.0946,187.999295 C246.8676,187.605295 246.6846,187.187295 246.4666,186.788295 C245.8686,185.688295 244.9656,184.918295 243.8116,184.468295 C241.7326,183.658295 239.6456,183.435295 237.5676,184.500295 C237.1626,184.708295 236.7366,184.872295 236.3216,185.056295 C235.0206,185.634295 234.0496,186.571295 233.4266,187.838295 C233.0086,188.687295 232.6756,189.578295 232.2436,190.589295 L232.2436,190.589295 Z M272.4586,221.682295 C272.9526,221.876295 273.3136,222.062295 273.6966,222.159295 C274.3316,222.318295 274.9986,222.579295 275.6216,222.511295 C276.9706,222.365295 278.3246,222.127295 279.6266,221.750295 C280.3946,221.528295 281.1666,221.080295 281.7626,220.541295 C285.8216,216.865295 285.5776,211.935295 283.0776,208.456295 C282.2716,207.333295 281.1446,206.642295 279.7926,206.399295 C276.6026,205.825295 272.5106,207.704295 270.7806,210.458295 C270.4316,211.014295 270.3796,211.434295 270.7796,212.022295 C272.7756,214.962295 273.7056,218.120295 272.4586,221.682295 L272.4586,221.682295 Z M202.4786,130.132295 C203.7986,128.041295 205.4946,126.479295 207.8466,125.679295 C208.2476,125.542295 208.6316,125.037295 208.8056,124.613295 C209.2696,123.479295 209.4966,122.201295 208.9886,121.096295 C207.9156,118.766295 206.4656,116.660295 203.8626,115.817295 C201.3476,115.002295 198.8796,115.038295 196.3826,116.195295 C192.8846,117.816295 192.1656,122.470295 194.3806,125.428295 C196.2436,127.918295 198.9596,129.151295 201.8376,130.067295 C201.9896,130.116295 202.1626,130.102295 202.4786,130.132295 L202.4786,130.132295 Z M194.4736,172.656295 C194.4836,171.259295 193.9566,169.837295 193.3456,168.416295 C192.1346,165.601295 189.9456,164.128295 187.0096,163.644295 C185.6376,163.417295 184.5176,163.757295 183.7046,165.038295 C183.1576,165.898295 182.3636,166.598295 181.7146,167.398295 C181.3826,167.807295 180.9906,168.238295 180.8536,168.723295 C180.1426,171.257295 180.3046,173.727295 181.7356,175.999295 C182.7216,177.568295 184.2256,178.524295 185.9256,179.161295 C190.3916,180.834295 194.8856,176.747295 194.4736,172.656295 L194.4736,172.656295 Z M219.1856,181.236295 C220.5916,180.170295 222.0136,179.183295 223.3176,178.058295 C223.8176,177.627295 224.1426,176.920295 224.3836,176.277295 C225.2626,173.940295 225.1596,171.580295 224.4116,169.220295 C224.0826,168.182295 223.4796,167.367295 222.5206,166.865295 C220.6126,165.865295 218.6056,165.328295 216.4296,165.717295 C215.7786,165.833295 215.1286,165.971295 214.4716,166.031295 C212.9026,166.174295 211.7146,167.030295 210.5916,167.925295 C211.9256,171.839295 211.3386,175.462295 209.4046,179.035295 C212.8926,178.866295 216.2786,178.855295 219.1856,181.236295 L219.1856,181.236295 Z M234.5526,205.593295 C233.7456,205.782295 232.3446,205.883295 231.1546,206.437295 C228.4836,207.680295 226.9766,211.091295 227.5906,213.993295 C228.5916,218.727295 233.9256,221.536295 238.6766,219.830295 C243.9376,217.941295 245.1886,211.505295 241.0076,207.792295 C239.3236,206.296295 237.3166,205.647295 234.5526,205.593295 L234.5526,205.593295 Z M218.8766,131.656295 C218.9386,131.783295 218.9506,131.825295 218.9766,131.855295 C219.1376,132.044295 219.2986,132.233295 219.4656,132.416295 C221.4866,134.639295 222.3576,137.290295 222.3836,140.254295 C222.3936,141.521295 222.6766,141.870295 223.9346,142.229295 C225.3746,142.642295 226.7996,142.390295 228.2406,142.236295 C230.5426,141.990295 232.4266,140.964295 233.9096,139.242295 C234.4036,138.669295 234.7896,137.926295 234.9916,137.196295 C235.7106,134.602295 235.3206,132.215295 233.4866,130.124295 C232.1196,128.566295 230.6326,127.185295 228.5066,126.878295 C227.2886,126.702295 226.0236,126.683295 224.7956,126.784295 C222.2586,126.992295 219.5786,129.255295 218.8766,131.656295 L218.8766,131.656295 Z M171.3696,148.169295 C173.7056,148.188295 176.5856,147.058295 178.2076,145.679295 C180.4466,143.776295 180.6766,140.571295 178.6786,138.406295 C177.9516,137.618295 177.1626,136.867295 176.3126,136.218295 C173.7566,134.266295 171.0106,133.591295 167.9906,135.179295 C167.6876,135.338295 167.3336,135.571295 167.0076,135.109295 C166.9406,135.016295 166.5536,135.064295 166.3656,135.154295 C164.9586,135.823295 163.7656,136.769295 162.8766,138.058295 C162.1626,139.093295 161.9446,140.247295 162.1606,141.488295 C162.5086,143.480295 163.6026,145.010295 165.2126,146.139295 C167.1906,147.527295 169.4786,148.031295 171.3696,148.169295 L171.3696,148.169295 Z M244.5646,215.392295 C245.6246,216.065295 246.8606,216.477295 248.2256,216.360295 C249.9986,216.208295 251.7676,215.997295 253.5396,215.830295 C254.0486,215.782295 254.3346,215.548295 254.5656,215.083295 C254.9306,214.346295 255.3286,213.607295 255.8286,212.957295 C257.5316,210.747295 257.6836,208.436295 256.2006,206.058295 C255.9606,205.672295 255.6686,205.315295 255.4536,204.915295 C255.1416,204.333295 254.6686,204.033295 254.0626,203.779295 C253.3076,203.462295 252.6046,202.998295 251.9196,202.539295 C249.3436,200.810295 246.5166,200.052295 243.4446,200.460295 C242.5286,200.581295 241.6226,200.997295 240.7826,201.419295 C239.9946,201.814295 239.6396,202.559295 239.633499,203.477295 C239.6276,204.363295 239.8866,204.969295 240.6996,205.499295 C242.7616,206.846295 244.1316,208.783295 244.5266,211.224295 C244.7396,212.544295 244.5646,213.928295 244.5646,215.392295 L244.5646,215.392295 Z M270.5296,152.518295 C270.6906,150.193295 269.7256,148.066295 268.3096,146.122295 C266.9116,144.205295 265.2226,143.857295 263.1156,144.927295 C262.7886,145.093295 262.3946,145.393295 262.1116,145.320295 C261.4516,145.148295 261.0436,145.498295 260.7076,145.871295 C259.9376,146.726295 259.1526,147.593295 258.5466,148.563295 C257.5556,150.149295 256.9766,151.922295 256.5206,153.738295 C255.9816,155.877295 256.2336,157.941295 257.1216,159.911295 C257.4326,160.599295 257.9576,161.257295 258.5386,161.747295 C260.4356,163.342295 263.0796,163.422295 265.3576,161.972295 C268.7426,159.817295 270.6136,156.787295 270.5296,152.518295 L270.5296,152.518295 Z M270.2896,193.585295 C271.5606,193.949295 272.7996,194.306295 273.8086,195.282295 C275.1486,196.578295 275.9986,198.057295 276.2406,199.909295 C276.2836,200.234295 276.4626,200.652295 276.7166,200.823295 C279.5776,202.750295 282.5986,203.355295 285.8846,201.908295 C287.3696,201.253295 288.1306,200.217295 288.2266,198.580295 C288.3836,195.931295 287.4946,193.549295 286.1486,191.415295 C284.2606,188.422295 281.5376,186.439295 277.8896,186.065295 C276.6256,185.936313 275.3186,185.735295 274.1246,186.438295 C272.6066,187.334295 271.4576,188.545295 271.0126,190.298295 C270.7396,191.372295 270.5336,192.462295 270.2896,193.585295 L270.2896,193.585295 Z M214.6726,164.194295 C215.6176,163.977295 217.3466,163.715295 218.9816,163.171295 C221.4036,162.365295 222.3976,160.203295 221.5246,157.832295 C221.1136,156.713295 220.5756,155.622295 219.9546,154.604295 C218.4366,152.118295 216.1756,150.593295 213.3676,149.903295 C212.2866,149.638295 211.1126,149.673295 210.0876,149.288295 C209.1496,148.934295 208.4016,149.144295 207.6126,149.489295 C207.0466,149.737295 206.4976,150.038295 205.9746,150.368295 C203.0566,152.208295 202.2386,154.982295 203.4946,158.208295 C205.2936,162.833295 210.3806,164.288295 214.6726,164.194295 L214.6726,164.194295 Z M217.3916,148.822295 C218.7596,147.139295 219.4586,145.161295 219.9256,143.084295 C220.9636,138.482295 219.6286,134.655295 216.0786,131.599295 C213.8766,129.703295 211.2096,129.743295 209.1536,131.759295 C208.3076,132.588295 207.4956,133.545295 206.9756,134.596295 C204.9216,138.754295 204.7406,143.024295 206.5926,147.323295 C206.7316,147.647295 206.9666,147.931295 207.1526,148.228295 C207.7016,148.072295 208.1356,147.938295 208.5736,147.825295 C209.8256,147.504295 211.1036,147.243295 212.3816,147.524295 C214.0286,147.886295 215.6496,148.364295 217.3916,148.822295 L217.3916,148.822295 Z M206.5106,218.058295 C207.9736,220.072295 208.2616,222.169295 207.5446,224.319295 C207.2116,225.318295 207.4426,225.976295 208.0686,226.649295 C208.3216,226.920295 208.5756,227.196295 208.8566,227.439295 C210.0456,228.470295 210.0796,228.470295 211.4306,227.710295 C211.7136,227.550295 211.9886,227.378295 212.2476,227.224295 C211.9876,225.533295 212.2486,224.786295 213.1466,224.571295 C214.0366,224.358295 214.4556,224.699295 214.9116,226.039295 C215.1016,225.963295 215.3016,225.912295 215.4746,225.812295 C217.8076,224.480295 220.1356,223.140295 222.4666,221.804295 C223.5506,221.183295 224.1466,220.205295 224.3376,219.017295 C224.8916,215.552295 223.8726,212.531295 221.4536,210.052295 C220.8006,209.382295 219.7786,209.016295 218.8636,208.677295 C218.1536,208.414295 217.4636,208.610295 216.8516,209.232295 C215.8976,210.202295 214.8186,211.048295 213.7976,211.954295 C213.0546,212.612295 212.3316,213.291295 211.5816,213.941295 C210.3636,214.996295 209.1396,216.041295 207.9016,217.072295 C207.4936,217.411295 207.0356,217.689295 206.5106,218.058295 L206.5106,218.058295 Z M221.2996,204.554295 C222.7136,205.324295 224.1866,205.986295 225.8146,206.106295 C227.2126,206.209295 228.6926,206.305295 229.9476,205.597295 C231.2496,204.863295 232.5126,204.046295 233.6206,202.980295 C235.0306,201.622295 235.4436,199.934295 235.1216,198.207295 C234.6546,195.688295 233.5236,193.435295 231.3496,191.839295 C229.6796,190.614295 227.7926,189.905295 225.8316,189.362295 C223.3576,188.676295 220.9316,188.717295 218.6176,189.995295 C218.4086,190.110295 218.1486,190.133295 217.9116,190.197295 C216.5776,190.556295 215.5096,191.770295 215.3136,193.170295 C215.4066,193.235295 215.4976,193.340295 215.6076,193.368295 C218.0596,193.973295 219.4276,195.814295 220.7826,197.747295 C222.3086,199.924295 222.1696,202.155295 221.2996,204.554295 L221.2996,204.554295 Z M261.6536,227.693295 C262.6196,227.495295 263.6506,227.368295 264.6266,227.068295 C268.2156,225.965295 270.5016,223.510295 271.2676,219.889295 C271.9396,216.708295 270.7266,213.929295 268.5456,211.619295 C267.3646,210.366295 265.8236,209.833295 264.0606,209.860295 C260.7246,209.911295 258.1526,211.448295 256.2496,214.023295 C254.6086,216.246295 253.9206,218.853295 254.2136,221.644295 C254.3476,222.920295 254.3916,222.923295 255.6286,223.055295 C257.3536,223.239295 258.8106,223.948295 259.9126,225.292295 C260.4866,225.992295 260.9796,226.756295 261.6536,227.693295 L261.6536,227.693295 Z M178.6116,177.190295 C178.2696,174.079295 176.8206,170.780295 173.5226,168.485295 C172.5876,167.833295 171.5136,167.553295 170.3976,167.373295 C169.3806,167.208295 168.5786,167.699295 167.7376,168.112295 C166.4306,168.753295 165.1496,169.439295 164.2556,170.633295 C162.5616,172.896295 161.8846,175.453295 162.3366,178.238295 C162.5736,179.701295 162.9516,181.169295 164.0136,182.311295 C165.1226,183.503295 166.4096,184.425295 167.9186,185.096295 C172.8676,187.293295 178.7176,183.504295 178.6116,177.190295 L178.6116,177.190295 Z M258.0316,202.689295 C259.5156,202.698295 260.9536,202.353295 262.1526,201.749295 C265.3886,200.119295 267.2096,197.322295 268.4066,194.050295 C268.6706,193.328295 268.7326,192.510295 268.7706,191.730295 C268.8516,190.064295 268.1926,188.764295 266.7086,187.911295 C264.9336,186.889295 263.0166,186.455295 260.9936,186.598295 C259.8856,186.677295 258.7896,186.943295 257.6896,187.123295 C253.6006,187.795295 250.4626,190.855295 249.6996,194.930295 C249.4616,196.206295 249.6516,197.429295 250.4126,198.487295 C252.3236,201.140295 254.9456,202.518295 258.0316,202.689295 L258.0316,202.689295 Z M143.8566,162.105295 C144.0776,165.457295 145.6196,168.568295 148.2766,171.063295 C150.7296,173.367295 153.5296,174.085295 156.8326,172.686295 C160.1846,171.264295 161.6286,168.634295 161.0216,165.030295 C160.1706,159.977295 156.0196,155.817295 150.9596,154.956295 C149.7996,154.759295 148.5746,154.563295 147.4686,155.319295 C145.1966,156.872295 143.9036,158.959295 143.8566,162.105295 L143.8566,162.105295 Z M189.9766,198.772295 C190.7076,198.299295 191.2816,197.785295 191.9546,197.518295 C194.2976,196.590295 196.6336,195.605295 199.0526,194.925295 C200.5766,194.497295 201.6066,193.697295 202.4156,192.439295 C203.0056,191.522295 203.2246,190.580295 202.9086,189.490295 C202.4736,187.992295 201.8266,186.617295 200.7706,185.469295 C198.0756,182.542295 194.7046,181.082295 190.7426,181.007295 C189.9246,180.991295 189.1016,181.243295 188.2816,181.234295 C186.4476,181.216295 184.8956,181.902295 183.4836,182.986295 C182.2526,183.931295 181.7236,185.252295 181.5866,186.754295 C181.5166,187.513295 181.7746,188.026295 182.5106,188.450295 C186.5016,190.751295 189.2906,193.966295 189.9766,198.772295 L189.9766,198.772295 Z M249.7076,190.965295 C249.9546,190.651295 250.0646,190.534295 250.1496,190.401295 C251.4146,188.410295 253.1696,187.029295 255.3696,186.195295 C256.1036,185.916295 256.8146,185.563295 257.5666,185.350295 C258.2206,185.164295 258.6346,184.768295 258.9836,184.233295 C259.8466,182.911295 260.2336,181.403295 260.2806,179.882295 C260.3366,178.151295 260.1316,176.383295 259.0196,174.925295 C256.6736,171.851295 253.6116,170.183295 249.6816,170.589295 C246.8546,170.881295 244.3916,171.994295 242.9166,174.610295 C241.8356,176.527295 241.4306,178.639295 241.5216,180.821295 C241.5836,182.342295 241.7296,182.455295 243.2096,182.741295 C244.9036,183.067295 246.3806,183.815295 247.3726,185.218295 C248.5406,186.872295 249.5656,188.629295 249.7076,190.965295 L249.7076,190.965295 Z M255.4606,132.946295 C255.2596,130.322295 254.8316,129.045295 253.3556,127.552295 C250.6886,124.855295 247.4636,123.757295 243.6566,124.255295 C240.5596,124.661295 238.1846,126.031295 236.7506,128.858295 C236.5356,129.281295 236.1806,129.904295 236.3376,130.189295 C236.7296,130.905295 236.7536,131.903295 237.7716,132.240295 C238.4626,132.469295 238.6696,133.135295 238.1386,133.565295 C237.4956,134.084295 237.5716,134.682295 237.5366,135.326295 C237.5136,135.781295 237.5286,136.260295 237.3876,136.681295 C237.0626,137.650295 237.5086,138.266295 238.2076,138.812295 C239.9876,140.204295 242.0546,140.750295 244.2566,140.649295 C248.1346,140.471295 251.4856,139.040295 254.1946,136.191295 C255.1016,135.237295 255.6636,134.198295 255.4606,132.946295 L255.4606,132.946295 Z M253.8626,224.198295 C253.3656,224.232295 252.8676,224.251295 252.3736,224.304295 C250.3856,224.519295 248.5906,225.244295 247.0776,226.541295 C246.5016,227.036295 246.0296,227.702295 245.6566,228.371295 C245.0566,229.449295 244.5756,230.595295 244.0446,231.712295 C243.8316,232.159295 243.5246,232.583295 243.4196,233.054295 C242.6026,236.732295 245.2886,241.113295 248.5646,241.921295 C252.2526,242.830295 255.5706,242.153295 258.3806,239.566295 C261.3576,236.826295 262.3176,231.710295 259.8386,227.429295 C258.5096,225.134295 256.5436,224.000295 253.8626,224.198295 L253.8626,224.198295 Z M176.0876,168.718295 C176.4336,168.548295 176.7626,168.445295 177.0206,168.249295 C178.3046,167.275295 179.5776,166.285295 180.8366,165.279295 C181.1226,165.049295 181.3556,164.746295 181.5856,164.455295 C183.0156,162.645295 183.6906,160.539295 183.9586,158.286295 C184.2126,156.148295 183.4516,154.297295 182.2456,152.600295 C181.6256,151.727295 180.7646,151.148295 179.7196,150.912295 C177.9256,150.504295 176.1156,150.486295 174.3046,150.818295 C171.2116,151.386295 168.8256,153.137295 166.9286,155.513295 C164.8446,158.124295 163.9746,161.126295 164.7836,164.471295 C165.0536,165.589295 165.5216,166.623295 166.2256,167.546295 C169.0766,165.537295 171.8716,165.001295 176.0876,168.718295 L176.0876,168.718295 Z M239.8786,159.665295 C237.1496,159.570295 234.6446,160.225295 232.4126,161.867295 C226.6446,166.111295 227.8276,173.438295 231.1596,176.588295 C232.8106,178.148295 234.7356,178.980295 237.0346,178.554295 C237.8346,178.407295 238.5866,178.021295 239.3756,177.797295 C240.4366,177.496295 240.9226,176.839295 241.1986,175.747295 C241.7666,173.497295 243.0236,171.579295 245.1666,170.600295 C246.5966,169.948295 246.9816,169.107295 246.6536,167.712295 C246.5866,167.433295 246.6086,167.134295 246.5796,166.846295 C246.4366,165.355295 246.1286,163.926295 245.4406,162.558295 C244.5746,160.838295 243.1936,159.958295 241.3666,159.676295 C240.8816,159.602295 240.3756,159.665295 239.8786,159.665295 L239.8786,159.665295 Z M176.9056,187.915295 C174.0686,187.872295 171.7116,188.608295 169.9986,190.861295 C169.5926,191.394295 169.3816,191.867295 169.7086,192.547295 C170.9076,195.039295 170.9656,197.662295 170.4246,200.316295 C170.2196,201.318295 170.4456,202.188295 170.9136,203.049295 C172.5956,206.143295 175.5596,207.030295 178.7066,207.360295 C181.2416,207.625295 183.4446,206.495295 185.5096,205.088295 C187.2096,203.931295 188.0696,202.309295 188.3336,200.336295 C188.5236,198.916295 188.2806,197.537295 187.7576,196.202295 C186.7896,193.735295 185.1136,191.783295 183.0526,190.226295 C181.2316,188.850295 179.1896,187.799295 176.9056,187.915295 L176.9056,187.915295 Z M163.2776,199.995295 C163.5816,197.407295 162.9376,194.810295 162.0926,192.234295 C161.7216,191.103295 161.0776,190.243295 160.0086,189.746295 C158.2096,188.910295 156.4266,188.021295 154.5736,187.324295 C152.7416,186.634295 150.8796,186.834295 149.2186,187.905295 C148.1456,188.597295 147.0656,189.347295 146.1886,190.263295 C143.9556,192.594295 143.0096,195.364295 143.9126,198.575295 C144.5296,200.767295 145.7656,202.627295 147.2216,204.348295 C147.4026,204.562295 147.6436,204.763295 147.8986,204.870295 C150.4536,205.938295 152.9906,207.055295 155.5876,208.013295 C157.2656,208.632295 159.0656,208.735295 160.8566,208.606295 C161.9746,208.526295 162.0576,208.422295 162.4006,207.368295 C163.1626,205.019295 163.5126,202.619295 163.2776,199.995295 L163.2776,199.995295 Z M275.0446,184.904295 C275.2336,184.930295 275.3546,184.973295 275.4676,184.958295 C277.9966,184.624295 280.4166,185.037295 282.7336,186.065295 C283.4376,186.377295 284.1146,186.357295 284.7706,186.042295 C285.5876,185.650295 286.3686,185.178295 287.1686,184.747295 C289.0726,183.717295 290.1626,182.103295 290.7226,180.034295 C291.4526,177.330295 291.1906,174.639295 290.3866,172.067295 C289.6506,169.706295 288.1746,167.759295 285.9386,166.448295 C283.3896,164.953295 280.6206,164.455295 277.7386,164.295295 C274.7296,164.128295 272.7056,165.657295 271.2596,168.096295 C270.5576,169.282295 270.1396,170.581295 270.2986,172.010295 C270.3706,172.663295 270.3716,173.323295 270.3876,173.980295 C270.4126,175.056295 270.6096,176.008295 271.6836,176.602295 C272.2536,176.916295 272.7416,177.396295 273.2296,177.843295 C274.6136,179.117295 275.3636,180.676295 275.2456,182.590295 C275.1996,183.330295 275.1186,184.068295 275.0446,184.904295 L275.0446,184.904295 Z M257.0906,245.102295 C257.1566,245.425295 257.1896,245.616295 257.2366,245.802295 C258.1016,249.243295 257.4566,252.282295 254.8586,254.809295 C253.5136,256.118295 252.0576,257.280295 250.3846,258.136295 C247.9186,259.400295 245.4386,260.638295 242.9456,261.847295 C242.4546,262.084295 242.1856,262.354295 242.0336,262.894295 C241.4076,265.122295 241.6366,267.327295 242.0966,269.537295 C242.5566,271.748295 243.5706,272.987295 246.3686,273.314295 C247.7936,273.481295 249.2616,273.381295 250.7016,273.284295 C252.0886,273.190295 253.2986,272.718295 254.2766,271.580295 C255.2416,270.454295 256.4086,269.496295 257.5256,268.506295 C258.1556,267.948295 258.9216,267.653295 259.7826,267.577295 C260.5946,267.505295 261.0076,268.103295 261.4796,268.589295 C261.9066,268.300295 262.2526,268.076295 262.5896,267.837295 C265.5696,265.736295 268.4916,263.565295 271.3476,261.289295 C276.4686,257.208295 281.0806,252.661295 284.9176,247.352295 C286.0146,245.834295 286.9446,244.197295 287.9496,242.615295 C287.8856,242.533295 287.8206,242.451295 287.7556,242.369295 C283.4906,244.542295 278.7796,245.252295 274.1886,246.540295 C274.6126,247.606295 275.3916,248.480295 274.7526,249.830295 C274.1386,248.740295 273.6246,247.826295 273.0836,246.864295 C271.4486,247.096295 269.8636,247.381295 268.2636,247.537295 C265.0456,247.849295 261.8876,247.633295 258.9336,246.142295 C258.3476,245.847295 257.7886,245.498295 257.0906,245.102295 L257.0906,245.102295 Z M196.1776,255.172295 C196.4346,256.531295 196.5966,257.821295 197.6606,258.679295 C198.5576,259.403295 199.5766,259.975295 200.5376,260.621295 C203.8346,262.833295 207.5976,263.704295 211.4386,264.071295 C214.8946,264.402295 218.3906,264.327295 221.8696,264.420295 C222.2216,264.429295 222.5746,264.372295 223.1776,264.326295 C221.9806,262.795295 220.9136,261.431295 219.8476,260.068295 C219.9146,260.016295 219.9806,259.964295 220.0476,259.912295 C221.0776,261.086295 222.1966,262.196295 223.1106,263.455295 C223.7926,264.396295 224.5316,264.551295 225.5486,264.267295 C225.2806,263.261295 225.0246,262.300295 224.7676,261.340295 C224.8266,261.325295 224.8866,261.309295 224.9456,261.292295 C225.3076,262.291295 225.6706,263.289295 226.0536,264.345295 C230.4216,264.045295 234.5586,263.197295 238.6256,261.687295 C238.3956,260.567295 238.6146,259.580295 239.1366,258.653295 C240.0056,257.109295 241.1046,255.768295 242.6986,254.935295 C243.9816,254.266295 245.3026,253.670295 246.6146,253.058295 C247.7446,252.531295 248.8616,252.589295 249.9556,253.189295 C250.8156,253.661295 251.6826,254.120295 252.5206,254.571295 C254.8846,252.882295 256.2686,250.773295 256.1196,247.820295 C256.0186,245.811295 254.7696,244.608295 253.2846,243.541295 C253.1936,243.476295 253.0516,243.455295 252.9326,243.454295 C252.1956,243.446295 251.4576,243.450295 250.8656,243.450295 C250.5686,244.429295 250.4346,245.306295 250.0476,246.052295 C249.1136,247.857295 247.6526,249.105295 245.6516,249.630295 C244.9326,249.819295 244.1986,249.996295 243.4616,250.065295 C239.9256,250.398295 236.7996,249.548295 234.3956,246.765295 C233.4276,245.646295 232.9746,244.350295 233.1646,242.856295 C233.1976,242.596295 233.1696,242.329295 233.1696,242.063295 C230.4996,243.429295 227.8946,244.766295 225.2846,246.096295 C221.4136,248.070295 217.5466,250.053295 213.6656,252.007295 C208.6306,254.541295 203.3106,255.669295 197.6716,255.177295 C197.2276,255.139295 196.7786,255.172295 196.1776,255.172295 L196.1776,255.172295 Z M290.9926,226.722295 C290.5746,226.722295 290.4716,226.755295 290.4166,226.717295 C290.0786,226.482295 289.7296,226.255295 289.4256,225.979295 C287.5166,224.242295 285.2516,223.164295 282.8236,222.374295 C282.2856,222.199295 281.8226,222.201295 281.2936,222.493295 C279.5726,223.443295 277.6586,223.867295 275.7696,223.495295 C274.3336,223.212295 273.2146,223.616295 272.0346,224.186295 C271.8116,224.294295 271.5916,224.447295 271.3546,224.485295 C270.7396,224.584295 270.3576,224.966295 269.9436,225.394295 C268.6666,226.710295 267.3076,227.947295 265.4396,228.351295 C264.1046,228.640295 263.2226,229.526295 262.4116,230.327295 C262.9996,235.672295 261.1916,239.706295 256.5466,242.458295 C258.1316,243.829295 259.9406,244.483295 261.8216,244.954295 C262.1206,245.029295 262.5626,244.845295 262.8386,244.645295 C263.5746,244.112295 264.2616,243.511295 264.9576,242.925295 C266.5736,241.567295 268.1906,240.207295 269.7936,238.833295 C270.7516,238.014295 271.8846,237.753295 273.0536,238.030295 C275.8616,238.693295 278.7106,239.364295 279.6306,242.871295 C281.3926,242.283295 283.0916,241.782295 284.7386,241.145295 C286.1646,240.593295 287.5206,239.864295 288.9256,239.255295 C292.1506,237.858295 294.8926,235.912295 296.8196,232.875295 C298.2176,230.673295 299.8166,228.601295 301.2836,226.442295 C302.4706,224.697295 303.6676,222.952295 304.7236,221.126295 C305.5506,219.697295 306.1406,218.133295 306.8846,216.653295 C307.6166,215.198295 308.1556,213.700295 308.1996,211.997295 C307.7536,211.623295 307.2776,211.228295 306.8046,210.829295 C304.6806,209.037295 302.5546,207.247295 300.8446,205.029295 C297.2086,200.313295 294.5366,195.118295 293.0356,189.338295 C292.3076,186.533295 291.9076,183.725295 292.9176,180.900295 C293.1826,180.159295 292.8926,179.571295 292.4266,178.786295 C292.2276,179.522295 292.0716,180.066295 291.9336,180.615295 C291.3356,182.996295 289.9906,184.788295 287.8086,185.950295 C286.9066,186.429295 286.0386,186.971295 285.1096,187.511295 C285.2466,187.688295 285.3276,187.830295 285.4446,187.932295 C287.3306,189.597295 288.5206,191.677295 289.2976,194.058295 C289.8106,195.628295 290.0226,197.202295 289.8926,198.830295 C289.7766,200.298295 289.2466,201.622295 287.9946,202.449295 C286.9436,203.145295 286.5616,204.093295 286.4166,205.246295 C286.2536,206.561295 286.1286,207.886295 285.8606,209.181295 C285.7206,209.854295 285.6946,210.448295 285.8646,211.119295 C286.7306,214.527295 285.9886,217.598295 283.8106,220.340295 C283.5816,220.628295 283.3526,220.916295 283.0116,221.346295 C286.4066,222.023295 289.0326,223.678295 290.9926,226.722295 L290.9926,226.722295 Z M226.6406,243.515295 C226.0006,242.565295 225.4576,241.832295 224.9956,241.051295 C224.3426,239.949295 224.2226,238.754295 224.8116,237.602295 C226.2836,234.720295 228.2876,232.410295 231.4526,231.230295 C233.6956,230.394295 235.7836,230.365295 237.8826,231.593295 C238.5876,232.005295 239.4086,232.214295 240.1556,232.561295 C240.8076,232.863295 241.2646,232.656295 241.6386,232.119295 C242.3006,231.169295 243.0376,230.262295 243.5966,229.255295 C244.7026,227.259295 244.4426,225.846295 242.8596,224.196295 C242.1996,223.510295 241.5936,222.774295 240.9536,222.070295 C240.5746,221.652295 240.1766,221.250295 239.8286,220.885295 C236.2036,222.402295 232.8416,222.286295 229.6756,220.058295 C229.2646,219.768295 228.9286,219.812295 228.5346,220.027295 C226.8296,220.960295 225.0776,221.816295 223.4216,222.829295 C220.1706,224.817295 216.9186,226.787295 213.3646,228.210295 C212.4856,228.563295 211.6506,229.037295 210.8206,229.501295 C207.5796,231.314295 205.7036,233.994295 205.5366,237.787295 C205.4966,238.698295 205.2736,239.602295 205.1346,240.509295 C205.0396,240.486295 204.9446,240.462295 204.8496,240.439295 C204.3736,236.152295 204.9996,232.233295 208.8056,229.379295 C207.8886,228.455295 206.7696,228.197295 205.6886,228.118295 C205.2036,228.081295 204.6496,228.665295 204.1646,229.020295 C202.0216,230.582295 199.7876,231.122295 197.3226,229.760295 C197.0696,229.621295 196.7036,229.627295 196.3966,229.651295 C193.9216,229.840295 191.4486,230.057295 188.9736,230.247295 C188.6056,230.275295 188.1996,230.293295 187.8646,230.169295 C187.1476,229.904295 186.5786,230.126295 186.0136,230.531295 C184.1876,231.840295 182.1886,232.832295 180.1586,233.783295 C176.1216,235.675295 171.8686,236.632295 167.4306,236.672295 C163.4296,236.708295 159.5326,235.910295 155.6746,234.912295 C154.5166,234.612295 153.3436,234.372295 152.1776,234.105295 C152.2396,234.404295 152.3556,234.516295 152.4866,234.605295 C156.5336,237.349295 160.6836,239.930295 165.0316,242.165295 C168.8596,244.133295 172.7356,246.010295 176.6356,247.829295 C179.7796,249.295295 182.8496,250.984295 186.2566,251.798295 C189.3956,252.549295 192.5766,253.042295 195.8116,253.272295 C199.5906,253.541295 203.3356,253.621295 207.0296,252.648295 C208.6156,252.230295 210.1756,251.718295 211.6776,250.922295 C211.5606,250.683295 211.4946,250.537295 211.4186,250.396295 C211.3496,250.270295 211.2706,250.150295 211.0476,249.783295 C212.2076,250.765295 212.2076,250.765295 213.1016,250.152295 C212.1456,248.963295 211.5546,247.615295 211.3646,246.108295 C211.8976,247.091295 212.3256,248.122295 212.8386,249.108295 C213.3676,250.126295 213.4876,250.176295 214.4666,249.686295 C218.5296,247.648295 222.5766,245.579295 226.6406,243.515295 L226.6406,243.515295 Z M112.9926,188.179295 C113.0356,188.578295 113.0186,188.709295 113.0666,188.810295 C114.9746,192.877295 115.4796,197.208295 115.5786,201.638295 C115.6326,203.997295 115.8506,206.353295 116.0596,208.705295 C116.2636,210.995295 116.8336,213.195295 117.9736,215.214295 C119.0126,217.054295 120.0176,218.915295 121.1316,220.709295 C123.2786,224.167295 126.1756,226.681295 130.1606,227.887295 C133.6566,228.945295 137.2186,229.656295 140.8066,230.283295 C144.6356,230.953295 148.4666,231.622295 152.2956,232.298295 C153.0886,232.439295 153.8766,232.610295 154.7116,232.775295 C154.1436,228.343295 154.1946,226.422295 154.9716,224.972295 C155.0446,227.738295 154.8886,230.376295 155.5506,232.893295 C158.5156,233.889295 163.8906,234.760295 165.5276,234.528295 C162.0926,230.699295 160.8896,228.816295 160.9236,227.043295 C161.2716,227.606295 161.5016,227.979295 161.7346,228.350295 C163.0166,230.399295 164.4506,232.311295 166.4166,233.777295 C167.9096,234.891295 168.6446,235.021295 170.4546,234.361295 C167.3096,232.509295 163.9246,227.914295 164.1336,225.507295 C166.2736,229.122295 168.4176,232.511295 172.3896,234.205295 C176.8306,233.401295 180.9076,231.474295 184.7576,228.947295 C189.3956,225.901295 194.0586,222.895295 198.9646,220.273295 C201.3696,218.988295 203.6346,217.439295 205.9576,216.000295 C206.2116,215.843295 206.4276,215.625295 206.7836,215.336295 C204.8946,214.750295 204.1296,213.442295 203.8826,211.778295 C203.7136,210.637295 204.0206,209.555295 204.4936,208.523295 C205.3716,206.604295 206.6476,204.993295 208.2796,203.661295 C208.9856,203.084295 209.7146,202.533295 210.4046,201.938295 C211.5126,200.983295 212.8296,200.716295 214.2276,200.772295 C214.8836,200.797295 215.5486,200.916295 216.1866,201.080295 C217.4976,201.416295 218.7926,201.812295 220.1666,202.203295 C220.4146,201.299295 220.4526,200.430295 220.0146,199.568295 C219.4096,198.377295 218.6766,197.287295 217.7176,196.344295 C217.0116,195.652295 216.1956,195.198295 215.2426,194.998295 C212.9886,194.528295 210.7026,194.488295 208.4406,194.817295 C202.5896,195.669295 197.0166,197.511295 191.5726,199.768295 C191.1536,199.942295 190.7326,200.146295 190.3736,200.416295 C190.0976,200.624295 189.7846,200.930295 189.7146,201.243295 C189.2366,203.368295 187.9276,204.840295 186.1566,205.985295 C184.5096,207.048295 182.7966,207.885295 180.8076,208.177295 C178.3876,208.533295 176.2336,207.758295 174.0606,206.922295 C172.2426,206.223295 171.0726,204.898295 170.2906,203.168295 C170.1876,202.940295 170.0516,202.726295 169.8666,202.388295 C169.0196,204.622295 167.8246,206.427295 166.3456,208.094295 C164.1256,210.598295 161.3596,211.305295 158.1596,211.015295 C155.8996,210.810295 153.7876,210.151295 151.7166,209.277295 C148.3626,207.863295 145.0606,206.316295 141.5146,205.392295 C138.8326,204.693295 136.1556,203.961295 133.5106,203.135295 C132.0976,202.694295 130.7126,202.110295 129.3916,201.438295 C126.2626,199.845295 123.6096,197.587295 121.0126,195.256295 C118.4256,192.934295 115.8006,190.654295 112.9926,188.179295 L112.9926,188.179295 Z M178.2316,128.509295 C178.1366,128.985295 178.3576,129.316295 178.8256,129.859295 C178.7906,129.114295 178.6116,128.767295 178.2066,128.530295 C178.2206,128.448295 178.2596,128.362295 178.2446,128.287295 C177.8306,126.258295 177.8396,124.250295 178.5816,122.292295 C178.7736,121.785295 178.4906,121.488295 178.1976,121.212295 C177.3976,120.456295 176.4476,119.974295 175.3546,119.787295 C172.8696,119.362295 170.3936,119.446295 167.9596,120.073295 C166.0806,120.557295 164.4066,121.441295 163.2146,123.053295 C162.3626,124.205295 162.3276,125.384295 163.0336,126.591295 C163.1436,126.586295 163.1896,126.597295 163.2216,126.580295 C163.5516,126.411295 163.8746,126.225295 164.2096,126.066295 C166.6416,124.912295 169.1666,124.248295 171.8936,124.530295 C174.3956,124.789295 176.3876,125.858295 177.7456,128.022295 C177.8646,128.211295 178.0676,128.348295 178.2316,128.509295 L178.2316,128.509295 Z M47.2586,13.9972949 C47.7296,14.1952949 48.1246,14.3022949 48.4546,14.5102949 C53.2946,17.5552949 58.1766,20.5362949 62.9416,23.6962949 C66.4616,26.0302949 69.8216,28.6052949 73.2576,31.0692949 C80.1626,36.0202949 87.0436,41.0062949 93.9836,45.9092949 C104.1816,53.1142949 113.8736,60.9722949 123.6916,68.6722949 C131.3876,74.7102949 139.2696,80.5122949 147.0356,86.4602949 C151.4116,89.8132949 155.8226,93.1332949 160.0326,96.6862949 C164.0516,100.077295 168.0266,103.551295 171.5126,107.515295 C172.7396,108.910295 173.8056,110.446295 175.0106,112.001295 C175.0476,111.945295 175.1436,111.811295 175.2246,111.668295 C176.1236,110.072295 177.5666,109.306295 179.2866,108.863295 C182.7986,107.960295 186.0006,108.757295 189.0606,110.486295 C189.2046,110.567295 189.3306,110.678295 189.4696,110.769295 C189.6046,110.858295 189.7456,110.939295 189.8726,111.018295 C192.6196,108.201295 196.0686,107.441295 199.7656,107.663295 C202.3886,107.820295 204.4056,109.288295 206.0556,111.268295 C206.2896,111.549295 206.4796,111.867295 206.7646,112.274295 C206.8916,111.942295 206.9846,111.729295 207.0546,111.508295 C207.4036,110.405295 207.7266,109.293295 208.0946,108.197295 C208.8006,106.098295 210.2686,104.612295 212.0336,103.369295 C213.1596,102.577295 214.4526,102.330295 215.7806,102.194295 C216.1476,102.156295 216.5176,102.154295 216.9546,102.132295 C217.1016,101.341295 217.2206,100.575295 217.3896,99.8192949 C217.9216,97.4472949 219.0336,95.3282949 220.1876,93.2082949 C223.7906,86.5892949 228.2646,80.5802949 232.9266,74.6902949 C238.1296,68.1182949 243.6256,61.8062949 249.3446,55.6812949 C258.9946,45.3442949 268.7096,35.0712949 279.0266,25.3882949 C287.1916,17.7262949 295.5206,10.2462949 304.2086,3.17729494 C305.3636,2.23729494 306.6016,1.39529494 307.8396,0.566294942 C308.2736,0.275294942 308.8156,0.0392949417 309.3246,2.84217094e-14 C309.7126,-0.0257050583 310.2186,0.206294942 310.5046,0.491294942 C310.8576,0.841294942 310.7186,1.35729494 310.4306,1.75029494 C310.2116,2.04829494 309.9496,2.32229494 309.6736,2.56829494 C293.2996,17.1792949 277.6526,32.5522949 262.1456,48.0682949 C253.5276,56.6912949 245.2246,65.6212949 237.3806,74.9632949 C235.0876,77.6942949 232.8686,80.4862949 230.6096,83.2452949 C227.1096,87.5212949 224.1416,92.1702949 221.1536,96.8032949 C220.0276,98.5492949 219.2146,100.445295 218.7826,102.638295 C221.3496,103.655295 222.7056,105.565295 222.7566,108.365295 C222.9096,108.365295 223.0396,108.404295 223.1246,108.360295 C226.6926,106.489295 230.1206,107.194295 233.3986,109.060295 C235.0386,109.994295 235.7406,111.684295 236.1566,113.471295 C236.2316,113.789295 236.2896,114.112295 236.3556,114.430295 C237.3536,114.698295 238.3206,114.909295 239.2526,115.223295 C239.9936,115.473295 240.7216,115.798295 241.4046,116.180295 C243.8536,117.548295 245.1426,119.529295 244.5226,122.494295 C245.5916,122.603295 246.6156,122.660295 247.6236,122.821295 C250.7206,123.315295 253.3716,124.631295 255.3546,127.135295 C256.9326,129.128295 257.4176,131.444295 257.2736,133.912295 C257.1936,135.264295 256.4476,136.319295 255.4846,137.225295 C255.1286,137.559295 254.7686,137.888295 254.3306,138.293295 C257.6016,139.206295 259.9116,140.953295 260.4596,144.465295 C261.6956,144.045295 262.8896,143.727295 264.0106,143.240295 C266.0906,142.336295 267.8016,143.081295 269.1906,144.506295 C271.0636,146.427295 272.1166,148.818295 272.2596,151.531295 C272.3486,153.231295 272.2406,154.928295 271.7936,156.587295 C271.7546,156.732295 271.7876,156.895295 271.7876,157.232295 C274.6526,154.256295 277.9996,152.875295 282.2416,153.500295 C280.5266,150.073295 279.0796,146.821295 278.7386,143.220295 C278.5406,141.131295 278.4126,139.035295 278.2386,136.737295 C278.8896,137.248295 278.9016,137.800295 278.9686,138.302295 C279.2276,140.231295 279.4426,142.167295 279.7086,144.096295 C280.1506,147.296295 281.3406,150.249295 282.7786,153.113295 C282.9416,153.439295 283.2026,153.718295 283.4326,154.008295 C283.9666,154.681295 284.5856,155.300295 285.0326,156.027295 C286.2966,158.079295 286.3026,160.291295 285.6336,162.529295 C285.4576,163.114295 285.0986,163.643295 284.8276,164.190295 C286.3136,165.074295 287.8236,165.972295 289.3666,166.891295 C289.3436,166.736295 289.3346,166.483295 289.2636,166.250295 C288.6356,164.190295 288.0106,162.129295 287.3586,160.077295 C286.4256,157.136295 285.8406,154.127295 285.7566,151.048295 C285.6826,148.294295 285.2526,145.608295 284.6036,142.943295 C284.4306,142.233295 284.2406,141.512295 284.6866,140.614295 C284.9486,140.903295 285.1556,141.064295 285.2766,141.273295 C286.7256,143.790295 287.5046,146.540295 287.8946,149.386295 C288.4706,153.593295 289.5386,157.661295 290.9316,161.665295 C291.9496,164.596295 292.8556,167.569295 293.7096,170.552295 C294.0726,171.819295 294.1716,173.161295 294.3996,174.466295 C294.4756,174.906295 294.5766,175.340295 294.6906,175.894295 C295.7106,174.529295 295.7036,172.670295 297.2546,171.766295 C297.8866,172.325295 297.6656,172.904295 297.4986,173.431295 C296.8726,175.405295 296.2156,177.368295 295.5656,179.333295 C295.4476,179.687295 295.3146,180.036295 295.1696,180.378295 C294.0496,183.044295 294.0186,185.749295 294.7216,188.533295 C296.0776,193.899295 298.2896,198.860295 301.5426,203.341295 C303.8116,206.468295 306.7486,208.900295 309.8726,211.107295 C310.5576,211.590295 311.4356,211.800295 312.4476,212.231295 C312.3636,211.843295 312.3636,211.693295 312.2996,211.576295 C310.6276,208.489295 309.8956,205.147295 309.6886,201.683295 C309.5476,199.323295 309.5796,196.956295 310.0946,194.627295 C310.4096,193.201295 310.9066,191.842295 311.7626,190.642295 C312.8166,189.164295 314.1356,188.660295 315.8836,189.114295 C316.5176,189.278295 317.1446,189.533295 317.7176,189.849295 C318.2836,190.162295 318.7786,190.604295 319.4006,191.061295 C319.6746,189.666295 319.9476,188.350295 320.1916,187.029295 C320.7006,184.259295 321.1856,181.486295 321.6986,178.717295 C321.8396,177.960295 321.6536,177.413295 321.0806,176.847295 C320.2316,176.006295 319.5536,174.993295 318.7496,174.102295 C317.6396,172.872295 316.4786,171.690295 315.3426,170.485295 C315.2386,170.374295 315.1586,170.242295 314.9906,170.017295 C315.7716,169.963295 316.2096,170.373295 316.5986,170.760295 C317.9496,172.103295 319.2656,173.483295 320.5886,174.854295 C320.8976,175.173295 321.1856,175.512295 321.6556,176.035295 C321.6556,175.060295 321.6686,174.346295 321.6506,173.633295 C321.6376,173.136295 321.5536,172.641295 321.5526,172.144295 C321.5516,171.478295 321.4506,170.912295 320.6836,170.712295 C320.5356,170.673295 320.4066,170.531295 320.2896,170.415295 C318.2026,168.356295 315.7566,166.808295 313.1906,165.432295 C313.0566,165.360295 312.9426,165.251295 312.7236,165.089295 C314.6426,165.157295 318.2376,167.383295 321.2476,170.349295 C321.2236,169.865295 321.2516,169.527295 321.1836,169.210295 C320.6186,166.579295 320.0866,163.939295 319.4456,161.327295 C318.8596,158.937295 318.5296,156.539295 318.5186,154.074295 C318.5026,150.426295 318.4996,146.772295 318.2806,143.133295 C317.8796,136.473295 316.0796,130.240295 312.0296,124.813295 C311.2676,123.791295 310.3896,122.826295 309.4316,121.987295 C307.7946,120.553295 306.3996,118.945295 305.1666,117.156295 C304.0646,115.555295 302.8116,114.058295 301.6466,112.499295 C300.6056,111.105295 299.5806,109.699295 298.5796,108.277295 C298.3216,107.911295 298.1236,107.479295 297.9966,107.049295 C297.8606,106.584295 297.7826,106.071295 298.2456,105.750295 C300.0516,107.696295 301.8346,109.619295 303.6996,111.629295 C303.8706,111.282295 303.9856,111.114295 304.0396,110.929295 C306.0366,104.117295 309.9676,98.4822949 314.7356,93.3572949 C321.4466,86.1432949 328.8356,79.6852949 336.5836,73.6142949 C346.8446,65.5742949 357.7056,58.4162949 368.7536,51.5272949 C371.1436,50.0372949 373.6056,48.6592949 376.3386,47.8662949 C376.7416,47.7492949 377.1676,47.7092949 377.5826,47.6342949 C377.6346,47.7262949 377.6866,47.8172949 377.7376,47.9082949 C377.4426,48.2252949 377.1876,48.5952949 376.8456,48.8492949 C375.6506,49.7382949 374.4586,50.6402949 373.2056,51.4442949 C363.3006,57.8002949 353.2646,63.9632949 343.7916,70.9682949 C335.0846,77.4072949 326.6236,84.1532949 318.9716,91.8442949 C316.5186,94.3102949 314.2076,96.9212949 311.8986,99.5252949 C308.7206,103.108295 306.7066,107.391295 304.7506,111.701295 C304.5446,112.155295 304.6356,112.448295 304.9316,112.812295 C305.8716,113.969295 306.7326,115.194295 307.7056,116.322295 C308.7316,117.510295 309.7746,118.704295 310.9486,119.736295 C312.4266,121.035295 313.7246,122.457295 314.8536,124.060295 C317.7216,128.135295 319.4316,132.665295 320.2856,137.550295 C320.7866,140.418295 320.9646,143.311295 321.0116,146.214295 C321.0486,148.495295 321.0586,150.776295 321.0326,153.056295 C321.0006,155.937295 321.3906,158.747295 322.1576,161.527295 C323.2186,165.366295 323.9456,169.266295 324.2936,173.247295 C324.6686,177.517295 324.1516,181.686295 323.1826,185.822295 C321.8336,191.577295 321.3106,197.428295 321.0006,203.314295 C320.8946,205.334295 320.5596,207.345295 320.2686,209.352295 C320.1806,209.955295 319.9426,210.555295 319.6776,211.112295 C318.6476,213.271295 316.8526,214.321295 314.4646,214.173295 C313.7656,214.129295 313.0656,214.025295 312.3756,213.895295 C311.6936,213.766295 311.0236,213.570295 310.2566,213.380295 C309.9916,216.733295 308.2726,219.511295 306.8046,222.351295 C305.6876,224.513295 304.2126,226.492295 302.8766,228.539295 C301.6766,230.378295 300.4106,232.175295 299.2416,234.035295 C297.4396,236.905295 295.1996,239.266295 292.0626,240.703295 C290.9276,241.221295 290.3386,242.343295 289.6176,243.296295 C289.3696,243.623295 289.1556,243.991295 288.9936,244.369295 C287.9106,246.918295 286.2606,249.088295 284.5236,251.212295 C283.5266,252.430295 282.7496,253.850295 281.6486,254.955295 C279.2796,257.328295 276.7976,259.592295 274.2956,261.829295 C273.0006,262.986295 271.5656,263.987295 270.1936,265.058295 C269.9316,265.262295 269.6836,265.486295 269.4066,265.666295 C265.5306,268.209295 261.8036,270.995295 257.5926,272.998295 C254.4426,274.497295 251.1506,275.414295 247.6406,275.251295 C246.5406,275.200295 245.4216,274.963295 244.3676,274.632295 C241.9666,273.877295 240.8196,272.045295 240.4356,269.661295 C240.0896,267.514295 239.9746,265.373295 240.6846,263.265295 C240.7186,263.164295 240.6696,263.036295 240.6536,262.839295 C239.5146,263.205295 238.4246,263.565295 237.3276,263.903295 C233.6326,265.040295 229.8676,265.839295 225.9886,265.877295 C222.1366,265.915295 218.2796,265.922295 214.4306,265.779295 C210.5186,265.631295 206.6826,264.876295 203.0806,263.320295 C201.2316,262.521295 199.4756,261.448295 197.8056,260.311295 C196.0256,259.099295 194.8396,257.415295 194.9046,255.024295 C194.1566,254.943295 193.4706,254.861295 192.7826,254.794295 C186.7456,254.210295 181.2246,252.059295 175.8836,249.312295 C171.9816,247.304295 167.9666,245.507295 164.1126,243.414295 C159.4916,240.904295 154.8846,238.318295 150.9586,234.760295 C149.9876,233.880295 149.0376,233.346295 147.7606,233.144295 C144.1236,232.569295 140.4846,231.977295 136.8786,231.238295 C134.3716,230.723295 131.9016,230.005295 129.4416,229.287295 C125.2466,228.062295 122.2136,225.325295 119.9876,221.665295 C118.7606,219.650295 117.6586,217.556295 116.5736,215.458295 C115.4756,213.334295 114.9176,211.041295 114.7796,208.656295 C114.5976,205.512295 114.4616,202.365295 114.2796,199.221295 C114.1046,196.192295 113.5936,193.227295 112.7426,190.301295 C112.1326,188.203295 111.2996,186.357295 109.7056,184.767295 C108.4626,183.526295 107.5156,181.959295 106.5676,180.456295 C104.9116,177.830295 104.1276,174.891295 104.2176,171.816295 C104.3476,167.414295 104.9676,163.064295 106.5056,158.898295 C106.9206,157.773295 107.3596,156.644295 107.9296,155.593295 C108.3546,154.810295 108.3416,154.132295 108.0266,153.354295 C107.3996,151.801295 106.5946,150.364295 105.4316,149.147295 C102.0956,145.658295 98.4796,142.510295 94.3426,139.983295 C92.5746,138.904295 90.8236,137.793295 89.1096,136.631295 C86.0136,134.531295 82.7576,132.710295 79.3366,131.220295 C72.7626,128.356295 66.4226,125.015295 59.9656,121.914295 C46.4056,115.403295 33.0956,108.410295 19.8616,101.268295 C15.0136,98.6512949 10.1466,96.0712949 5.3176,93.4202949 C3.9776,92.6852949 2.7086,91.8062949 1.4766,90.8982949 C0.9316,90.4962949 0.4386,89.9172949 0.1416,89.3112949 C-0.2554,88.4992949 0.2186,88.0212949 1.1006,88.2232949 C1.3396,88.2772949 1.5686,88.3862949 1.7906,88.4932949 C5.8926,90.4742949 10.0086,92.4262949 14.0866,94.4532949 C16.7946,95.7982949 19.4596,97.2292949 22.1236,98.6602949 C29.6786,102.714295 37.2606,106.720295 44.7606,110.876295 C50.9616,114.311295 57.3676,117.332295 63.6626,120.577295 C69.0746,123.366295 74.5436,126.030295 80.1046,128.514295 C84.2356,130.359295 88.1546,132.601295 91.8386,135.243295 C92.8816,135.990295 93.9776,136.666295 95.0716,137.339295 C99.5316,140.080295 103.3306,143.577295 106.7306,147.528295 C107.7666,148.731295 108.5706,150.080295 109.1266,151.572295 C109.2366,151.866295 109.3826,152.147295 109.5856,152.598295 C109.9356,152.094295 110.2496,151.760295 110.4286,151.364295 C111.1516,149.771295 112.4686,148.601295 113.3766,147.132295 C114.2666,145.691295 115.3066,144.337295 116.3436,142.993295 C119.0526,139.483295 121.7966,135.999295 124.5296,132.507295 C124.8096,132.148295 125.0766,131.767295 125.4146,131.469295 C125.5966,131.309295 125.9146,131.301295 126.1726,131.225295 C126.2106,131.481295 126.3256,131.756295 126.2696,131.989295 C126.1826,132.344295 125.9806,132.672295 125.8196,133.008295 C124.2356,136.323295 122.0576,139.252295 119.8106,142.127295 C116.7396,146.055295 114.1206,150.284295 111.4886,154.502295 C109.2586,158.079295 108.1116,162.044295 107.5506,166.195295 C107.2406,168.494295 106.8396,170.789295 107.0296,173.123295 C107.2126,175.343295 107.8246,177.436295 109.0206,179.335295 C110.3276,181.413295 111.7766,183.383295 113.6226,185.020295 C117.7796,188.705295 121.9516,192.371295 126.1216,196.040295 C126.3956,196.281295 126.7026,196.484295 127.2096,196.867295 C127.2096,196.248295 127.2256,195.828295 127.2066,195.407295 C127.0376,191.664295 127.3026,187.951295 127.9846,184.268295 C128.0916,183.691295 128.1416,183.052295 128.8666,182.405295 C128.7666,183.333295 128.7016,183.999295 128.6226,184.664295 C128.1336,188.795295 128.0806,192.934295 128.4356,197.077295 C128.4646,197.416295 128.5936,197.824295 128.8226,198.056295 C129.5056,198.748295 132.3516,200.107295 133.6136,200.389295 C133.5166,197.426295 133.7886,194.527295 134.3766,191.656295 C134.9536,188.842295 135.3926,185.994295 136.6216,183.351295 C136.8846,184.014295 136.6496,184.630295 136.5276,185.244295 C135.6236,189.755295 134.7896,194.277295 134.5076,198.880295 C134.4726,199.457295 134.4516,200.035295 134.4176,200.764295 C137.9216,201.758295 141.4016,202.745295 145.1916,203.819295 C144.8326,203.292295 144.6446,203.014295 144.4536,202.739295 C143.2636,201.014295 142.3046,199.180295 142.0686,197.070295 C141.6936,193.708295 142.8206,190.874295 145.2726,188.575295 C145.9346,187.953295 146.6836,187.419295 147.4146,186.874295 C150.0916,184.877295 152.9956,184.501295 156.0946,185.729295 C157.4406,186.262295 158.7536,186.880295 160.0986,187.414295 C162.3096,188.293295 163.6076,189.894295 164.2556,192.175295 C165.4906,196.531295 165.5726,200.912295 164.8086,205.339295 C164.7536,205.659295 164.7076,205.980295 164.6286,206.488295 C164.9616,206.211295 165.1896,206.066295 165.3626,205.872295 C167.7906,203.161295 168.7986,199.920295 168.5766,196.358295 C168.4526,194.358295 167.5356,192.537295 166.4536,190.843295 C164.9436,188.482295 163.0426,186.448295 160.9256,184.643295 C158.0536,182.196295 155.0376,179.930295 151.7796,178.001295 C150.7466,177.391295 149.7416,176.724295 148.7656,176.026295 C146.2616,174.233295 143.6236,172.691295 140.7606,171.542295 C140.3396,171.372295 139.9056,171.199295 139.5396,170.939295 C139.2446,170.729295 139.0436,170.387295 138.7536,170.048295 C140.1236,169.592295 141.0526,169.800295 146.4066,171.673295 C146.1536,171.312295 145.9806,171.059295 145.8016,170.809295 C143.8756,168.122295 142.6016,165.219295 142.6396,161.829295 C142.6636,159.789295 143.2596,157.968295 144.6156,156.472295 C145.5266,155.468295 146.6146,154.624295 147.5126,153.810295 C146.8586,152.452295 146.2836,151.324295 145.7626,150.171295 C144.5056,147.387295 145.3556,144.986295 147.2336,142.847295 C149.0926,140.730295 151.5086,140.233295 154.1486,140.852295 C157.9996,141.755295 160.6776,143.966295 161.6196,147.964295 C161.6866,148.245295 161.7726,148.521295 161.8696,148.874295 C162.6506,148.386295 163.4006,147.916295 164.2216,147.403295 C161.5296,144.803295 160.0306,141.899295 161.4636,138.099295 C159.8446,136.721295 158.9126,134.949295 159.0036,132.731295 C159.0926,130.556295 160.1996,128.900295 161.7866,127.587295 C161.7866,127.437295 161.8196,127.336295 161.7816,127.287295 C160.0946,125.040295 161.0346,122.864295 162.3436,121.411295 C163.8416,119.749295 165.8026,118.868295 167.9256,118.351295 C170.0486,117.834295 172.2096,118.012295 174.3626,118.163295 C174.5186,118.174295 174.6746,118.202295 174.9466,118.236295 C174.8486,117.805295 174.7536,117.465295 174.6986,117.118295 C174.5696,116.302295 174.2426,115.440295 174.3946,114.676295 C174.6276,113.497295 174.0316,112.806295 173.3816,112.075295 C170.8986,109.284295 168.2286,106.693295 165.4216,104.219295 C157.1026,96.8872949 148.1426,90.3932949 139.1926,83.8832949 C127.2886,75.2252949 115.7616,66.0712949 104.0186,57.2032949 C98.3646,52.9342949 92.4556,49.0052949 86.6816,44.8932949 C80.4356,40.4452949 74.1986,35.9852949 67.9856,31.4912949 C62.1426,27.2662949 56.3296,22.9992949 50.5216,18.7262949 C49.5906,18.0402949 48.7266,17.2542949 47.8886,16.4552949 C47.2726,15.8702949 46.8716,15.1502949 47.2586,13.9972949 L47.2586,13.9972949 Z" id="Fill-1" fill="#231F20" mask="url(#mask-3)"></path>
            </g>
        </g>
    </g>
</svg>