<svg xmlns="http://www.w3.org/2000/svg" viewBox="0 0 445.48 338.1"><title>资源 1</title><g id="图层_2" data-name="图层 2"><g id="Layer_1" data-name="Layer 1"><path d="M.79,76.14a14.35,14.35,0,0,0,1.64.55,11.21,11.21,0,0,0,6.21,1h.1a31.73,31.73,0,0,1,7.64,2.1c4.93,2,9.69,4.25,14.9,5.44,1,.24,2,.42,3.08.56a1.12,1.12,0,0,0,.79.1,34.15,34.15,0,0,0,9.68-.25c4.22-.72,8.5-1.51,12.79-.88s8.15,2.69,12,4.67c3.62,1.83,7.65,3.52,11.78,2.79,3.89-.68,6.74-3.22,9.55-5.81s5.86-4.89,9.91-4.48,8.2,2.48,12.18.89a9.89,9.89,0,0,0,4-3.19,15.26,15.26,0,0,1,3.3-3.59l.08-.07c1,.75,2,1.4,2.83,2a16.48,16.48,0,0,0,5.44,2.25c-1.67,1.38-3.19,3-4.79,4.42a32.78,32.78,0,0,0-6.48,7.42,27.74,27.74,0,0,0-3.4,9.54,1.42,1.42,0,0,0,2.43,1.23c2-2.08,3.63-4.21,6.68-4.4,1.81-.11,3.62.18,5.43.1a9.68,9.68,0,0,0,4.65-1.4,15.65,15.65,0,0,0,5.94-6.47,57.9,57.9,0,0,0,7.34,12.39,71,71,0,0,0,6.64,7.67,42.21,42.21,0,0,0-11.19,1.82c-6.45,2-12.24,5.78-17.6,9.8a57,57,0,0,0-13.56,13.85,35.16,35.16,0,0,0-5.89,18.6,41.76,41.76,0,0,0,1.24,11.52c1,3.84,2.91,7.25,4.2,11a30.13,30.13,0,0,1,1.23,11.29c-.14,3.32,1,6.54,1.75,9.74a12.28,12.28,0,0,1,.37,4.59,8.66,8.66,0,0,1-2,3.81,22.25,22.25,0,0,1-3.53,3.46c-1.12.64-2.23,1.29-3.29,2l-.18.15-.83.38c-1.67.69-.77,3.36.91,2.67a20.42,20.42,0,0,0,4.06-2.26l.48-.35a34.56,34.56,0,0,0,6.16-4c3-2.61,3.57-6.79,5.91-9.87s4.9-5.67,7-8.87a76.8,76.8,0,0,0,5.34-10.21,55.32,55.32,0,0,1,4.19-8.49,15.48,15.48,0,0,1,7-5.44c3.44-1.47,7.1-2.3,10.56-3.72a24.89,24.89,0,0,0,8.92-6.14c2.4-2.6,4.31-5.6,6.61-8.28a80.42,80.42,0,0,1,7.1-7c.59.34,1.17.69,1.75,1,4.8,3,9.4,6.31,14.5,8.78a30.42,30.42,0,0,0,16.59,3.25,1.37,1.37,0,0,0,.84-.38,14.87,14.87,0,0,0,1.06,2.37c2.51,4.48,8.37,7.19,13.44,6.71a12.73,12.73,0,0,0,3.2-.76,10.21,10.21,0,0,0-1.37,5.48c.11,4.1,2.34,8.76,6.16,10.61a12.31,12.31,0,0,0,9.48.44,10.16,10.16,0,0,0,2.33,5.88c2.91,3.48,7.34,4,11.33,2.63a18.49,18.49,0,0,0,1.27,6.21,10.59,10.59,0,0,0,5.25,5.46,12.32,12.32,0,0,0,9,.23c.89,1,1.54,1.74,2.47,2.83q2.49,2.92,4.94,5.88c8.23,9.91,16.35,19.91,24.47,29.9,5.48,6.73,10.86,13.56,16.48,20.18a12.35,12.35,0,0,0-4.91,2.71,8.51,8.51,0,0,0-1.89,9.53,11.16,11.16,0,0,0,4.05,5.1,12.67,12.67,0,0,0,6,2.05,19.42,19.42,0,0,0,8.26-.47,18.53,18.53,0,0,0-3.26,6c-1.24,3.6-1.17,7.38,1.23,10.53a11,11,0,0,0,11.37,4,8.9,8.9,0,0,0,1.27-.39c1.26,2.15,2.52,4.31,3.75,6.49,2.95,5.23,5.86,10.51,8.5,15.91a51.54,51.54,0,0,1,3.14,7.39c1.08,3.56,1.45,7.29,2.83,10.75a1.42,1.42,0,0,0,2.71-.16c1-4.14,2.73-8,4-12.07a9.94,9.94,0,0,0,.4-4.84,19.1,19.1,0,0,0-2.08-5,101.22,101.22,0,0,0-5.68-9.57c-2.06-3.17-4.18-6.31-6.07-9.59-1.44-2.5-2.53-5.22-4-7.71a13.54,13.54,0,0,0,5.8,2c5.75.63,12-2.32,13.28-8a8.54,8.54,0,0,0,6.73.52,12,12,0,0,0,7.56-14.38c-1.57-5.2-7.37-10.52-13.09-9.64a10.41,10.41,0,0,0-3.29-8.43,13,13,0,0,0-5.9-3.27,18,18,0,0,0-.75-10.51,13.75,13.75,0,0,0-9.44-7.63l1.3-.14a8.39,8.39,0,0,1,3.41.15c2,.59,3.86,1.89,5.74,2.86a43.22,43.22,0,0,0,9.39,4,1.05,1.05,0,0,0,.24.06c.55.12,1.12.24,1.68.31,4.22.55,8.41-.59,12.55-1.19a17.83,17.83,0,0,1,5.69-.22,11.11,11.11,0,0,1,5,2.57c3,2.41,5.61,5.19,8.91,7.18A24.37,24.37,0,0,0,417,247.65c3.67.24,7.37,0,11,.79,6.17,1.26,12.27,4.79,14.75,10.84.69,1.66,3.36.77,2.67-.91-1.37-3.33-2.58-6.72-3.71-10.14-1-3.11-1.74-6.48-3.27-9.39-2-3.84-5.57-6.36-8.58-9.36a1.2,1.2,0,0,0-.35-.36c-.59-.61-1.17-1.25-1.7-1.92-3.18-4-4.36-9.2-6.6-13.76-2.32-4.72-5.79-8.33-10.92-9.84s-10.22-.61-15.39-.9a19.16,19.16,0,0,1-7.33-1.77,30.75,30.75,0,0,1-6-4.39,22.9,22.9,0,0,0-5.78-3.86,15.79,15.79,0,0,0-7.67-1c-5.78.53-10.8,3.06-15.41,6.45a20.41,20.41,0,0,1-4.14,2.45l-.15,0a11.89,11.89,0,0,1-2.38.71c-2.88.52-5.88.33-8.8.68a22.88,22.88,0,0,0-7.85,2.23,14.32,14.32,0,0,0-3.76,2.63,15.78,15.78,0,0,0-1.1-2.12l-.08-.15-.11-.16c-.14-.21-.29-.41-.43-.61,0-.05.08-.09.12-.15,2-3,4.71-5.63,6.16-9a22.78,22.78,0,0,0,1.49-11.46,19.8,19.8,0,0,0-4.09-9.49c-2.08-2.79-4.49-5.3-6.34-8.27a24.41,24.41,0,0,1-3.79-10.17c-.4-3.7-.1-7.45-.83-11.12a26.59,26.59,0,0,0-10.26-16c-4.42-3.34-10.05-6.13-13-11a1.25,1.25,0,0,0-.56-.54,23.57,23.57,0,0,1-1.41-5.25c-.71-4.16-.83-8.42-2-12.49A18.88,18.88,0,0,0,282,88.43a37.26,37.26,0,0,1-9.45-9.54c-2.82-4.3-3.7-9.36-6.18-13.81-.73-1.3-2.6-.43-2.58.86.09,7.26.11,15-2.52,21.83a21.93,21.93,0,0,1-5,7.92c-2.37,2.33-5.44,3.54-8.05,5.53a12.44,12.44,0,0,0-4.83,7c-.94,3.94.12,7.77,1.08,11.59a14.13,14.13,0,0,1,.51,6.29,17.8,17.8,0,0,1-2.18,4.88,16.39,16.39,0,0,0-2,5,16.07,16.07,0,0,0,.25,6.29c1,4.21,3.56,7.93,5.61,11.67a22.5,22.5,0,0,0,3.45,5,17.06,17.06,0,0,1,2.74,3.1,8.4,8.4,0,0,0-2.43,1.09,11,11,0,0,0-7.45-6,13.81,13.81,0,0,0-7.62.24,7.67,7.67,0,0,0,1.19-3.33.76.76,0,0,0,0-.16c1-6.9-1.68-14.39-8.07-17.73a16.22,16.22,0,0,0-2.78-1.14,1.17,1.17,0,0,0-.08-.44c-2.32-6.54-1.43-14,0-20.64.72-3.37,1.77-6.66,2.47-10.05a80.27,80.27,0,0,0,1.45-11.14c.1-1.78.14-3.57.12-5.35,0-.25.05-.51.06-.77a1.27,1.27,0,0,0-.09-.57A76.69,76.69,0,0,0,228,72.72c-1.14-5.53-2.73-11.56-6.17-16.14a21.12,21.12,0,0,0-6.5-5.57l-.15-.14a1.29,1.29,0,0,0-.73-.34c-2.13-1.15-4.41-2.09-6.7-3.05a29.57,29.57,0,0,1-7.8-4.31c-2.45-2.05-4.18-4.74-6-7.34-.68-1-1.39-1.91-2.14-2.83a1.4,1.4,0,0,0-.33-.42,28.38,28.38,0,0,0-9.89-7.89c-5-2.28-10.42-2.53-15.63-4-11-3-21.36-10.06-27-20.11a1.43,1.43,0,0,0-2.55.49c-1,4.29-.09,9,1,13.13a61.61,61.61,0,0,0,4.41,11.5c2.33,4.63,5.15,9,7.63,13.54,1.74,3.2,3.34,6.49,4.9,9.8a1.21,1.21,0,0,0-.74.72c-1.5,3.6-3.93,6.74-5.86,10.11-.2.35-.4.7-.59,1.06-.93-5-3.27-9.87-5.24-14.28-.74-1.64-3.41-.75-2.67.91a89.8,89.8,0,0,1,4.35,10.84q.34,1.17.63,2.4c-2.75-4.57-7.22-7.9-10.86-11.71a1.42,1.42,0,0,0-2.31.76c-1.21,5.15.29,10.45,2.24,15.21.52,1.29,1,2.61,1.38,3.94a27.12,27.12,0,0,0-8-3.2,1.45,1.45,0,0,0,.15-.52c.28-3,.86-5.94.87-8.94a17.45,17.45,0,0,0-2.06-8.24c-2.72-5.23-7.54-9.35-9-15.2-.42-1.66-2.7-.93-2.74.54-.32,10.28-2.31,22.16,3.86,31-.79-.08-1.56-.14-2.31-.19a1.33,1.33,0,0,0-1.18.82c-6.27-5.5-13.26-10.93-22.06-10.39-4.72.3-9.26,2.44-14,2.1a38.27,38.27,0,0,1-6.16-1.27,34,34,0,0,0-6.42-1,16.39,16.39,0,0,0-11.14,3.75c-3,2.33-6,4.74-9.58,6.14-.5.2-1,.37-1.51.52l-.18,0c-3.47,1-7.13,1-10.65,1.89a69.08,69.08,0,0,0-11.33,4.42,42.84,42.84,0,0,1-9.23,3.1,28.32,28.32,0,0,1-3.55.49,36,36,0,0,1-5.06-.8,1.44,1.44,0,0,0-.67-.2c-.26-.08-.51-.17-.76-.27C.39,73-.89,75.46.79,76.14Zm33-6.63c3.29-.8,6.68-.88,9.94-1.71A38.66,38.66,0,0,1,50.13,70a23.48,23.48,0,0,1,3.6,2c-12.09.93-24.07,3.69-36.19,3.77a51.57,51.57,0,0,0,4.89-1.92A65.64,65.64,0,0,1,33.75,69.51Zm22.09-8.64a17.49,17.49,0,0,1,4.57-2.75,1.27,1.27,0,0,0,.39.56c2.84,2.46,6.25,4.11,9.5,5.94a23,23,0,0,1,7.21,5.63c-6.58.46-13.17,1.07-19.75,1.52a19.6,19.6,0,0,0-6.35-4.24c-1.12-.51-2.27-1-3.43-1.37A48.72,48.72,0,0,0,55.84,60.87ZM86,58.67s0,0,0,0c4.62,3.94,9.76,7.21,14.46,11l0,0c-1.48-.07-3-.13-4.45-.16-5.09-.08-10.17.1-15.24.42,0,0,0-.1-.07-.14-3.79-6.37-11.41-8.22-17-12.51a17.1,17.1,0,0,1,3,0c4.34.41,8.46,2.24,12.85,2.23A29,29,0,0,0,86,58.67Zm27.77,9.63a1.35,1.35,0,0,0,.68.33,10.14,10.14,0,0,0,1.62,3.17,88.15,88.15,0,0,0-11.19-1.71,1.37,1.37,0,0,0-.42-.66c-4.71-4.18-10-7.57-15-11.52a23.17,23.17,0,0,1,3.9-.44C101.6,57.35,108,63.21,113.78,68.3ZM125,56.09c-.44.88-.63,1.88-1.1,2.73-.52-1.34-.67-2.81-1.31-4.11-.12-.24-.45-.46-.7-.24a3.84,3.84,0,0,0-1.13,1.93,15.27,15.27,0,0,1-.52,1.62,32.13,32.13,0,0,0-2.33-3.75.47.47,0,0,0-.77.26,9,9,0,0,0-.15,1A49.28,49.28,0,0,1,116.33,42a75.47,75.47,0,0,1,2.27,10c.1.59,1,.54.93-.06-.41-2.3-.82-4.62-1.38-6.9a57,57,0,0,1,3,7.76c.16.58,1.05.28.89-.31a54.73,54.73,0,0,0-2.79-7.31c.1.16.21.32.3.48A38.76,38.76,0,0,1,122.78,53a.47.47,0,0,0,.89-.31,41.71,41.71,0,0,0-3.14-7.23c-.39-.66-.81-1.3-1.22-1.94,1.16,1.58,2.32,3.15,3.32,4.8A15.51,15.51,0,0,1,125,56.09Zm-.76,9.2c-.79-.14-1.59-.27-2.39-.39A18.42,18.42,0,0,1,117.71,58a1.7,1.7,0,0,0,.06-.31c.06-.64.09-1.28.15-1.91a34.7,34.7,0,0,0,2,3.32.47.47,0,0,0,.74,0,5.79,5.79,0,0,0,.88-2,6.7,6.7,0,0,1,.5-1.4A31.9,31.9,0,0,0,123.45,60a.47.47,0,0,0,.74,0,4.23,4.23,0,0,0,.71-1.21c-.18,2-.5,3.92-.69,5.87A1.64,1.64,0,0,0,124.26,65.29Zm13.91,15,.6,0-.31.24A.49.49,0,0,0,138.17,80.27Zm6.27,2.14a12.64,12.64,0,0,1,2.87,3.25,32.56,32.56,0,0,1,2.9,5.63c.23.55,1.12.25.89-.31a33.14,33.14,0,0,0-3.17-6.08,14,14,0,0,0-2.62-3,5.76,5.76,0,0,1,.6.33,14.21,14.21,0,0,1,2.47,2.11c1.41,1.44,2.6,3.06,4,4.54.4.45,1-.26.62-.7-1.43-1.57-2.68-3.28-4.19-4.79-.32-.32-.68-.66-1.06-1,.61.36,1.2.75,1.77,1.14a.47.47,0,0,0,.63-.21.47.47,0,0,0-.2-.63c-1.92-1.28-3.9-2.6-6.3-2.49l-.11,0a1.31,1.31,0,0,0,.12-.47,3.26,3.26,0,0,1,1.93-1.47s.44,0,.55,0h.26l.38.06a4.61,4.61,0,0,1,1.41.48A21.71,21.71,0,0,1,154.39,84a84.14,84.14,0,0,1,6.28,7.81c1.84,2.52,3.6,5.1,5.37,7.67.32.46.64.94,1,1.41-.54,0-1.09,0-1.65,0a21.66,21.66,0,0,1-5.69-.24c-3.18-.78-5.78-3.22-7.79-5.69C148.79,91.1,146.92,86.56,144.44,82.41ZM204,78.94c.12.24.24.48.37.72-4.84-2.4-10.79-2.36-16-2.72A49.59,49.59,0,0,1,180,75.86a11.5,11.5,0,0,1-5.48-2.72,29.6,29.6,0,0,0,4.48-6,13.65,13.65,0,0,0,1.37-3.46A43.55,43.55,0,0,0,187,66a66.25,66.25,0,0,0,10.1,2.32h.13A84.07,84.07,0,0,1,204,78.94ZM163.37,64.65a46.2,46.2,0,0,0-3.67-11l.3.13c1.74.76,3.53,1.38,5.27,2.16,3.08,1.37,6.24,2.71,9.26,4.27-2.75,1.21-5.49,2.44-8.31,3.48C165.28,64.06,164.33,64.37,163.37,64.65ZM218,128.74c-.23-.34-.46-.67-.7-1a77.21,77.21,0,0,1-4.61-7c-5.2-9.41-13.38-16.64-22-22.93L186,94.45c5.45,1.57,11.06,2.56,16.46,4.32,4.85,1.57,10.49,4.19,10.91,10a1.33,1.33,0,0,0,.28.75C215.08,115.9,216.41,122.35,218,128.74ZM169.26,77.9a37.21,37.21,0,0,0,3.32-2.8A14.13,14.13,0,0,0,179,78.51c5.66,1.49,11.65,1.13,17.42,1.92,4.33.6,8.72,1.9,10.82,5.66.33.85.65,1.72,1,2.58.1.42.22.83.36,1.24a1.42,1.42,0,0,0,.17.35c1.06,3.22,1.94,6.5,2.75,9.81-5.05-3.88-11.93-5.14-18-6.59s-13.38-2.78-18.22-7.19a1.54,1.54,0,0,0-.31-.21C172.4,83.86,169.79,81.16,169.26,77.9Zm-6.63.2c-3.46.38-6.92-1.64-10.09-2.72a13,13,0,0,0-6.94-.7,1.42,1.42,0,0,0,0-.2,61.84,61.84,0,0,1,8.6-.32c2.76.21,5.46.84,8.18,1.28.6.09.79-.83.19-.92-2.76-.44-5.5-1.08-8.3-1.29a44.78,44.78,0,0,0-6.75.17,11.42,11.42,0,0,1,1.74-.57,17,17,0,0,1,5.56-.07c.6.07.8-.85.2-.92a18.72,18.72,0,0,0-5.93.07,11.44,11.44,0,0,0-1.72.54,11.8,11.8,0,0,1,5.19-1.31,38.83,38.83,0,0,1,7.46.49c.59.09.79-.83.19-.92a38.58,38.58,0,0,0-8-.49,13.62,13.62,0,0,0-4.59,1.07s0-.07,0-.1l.06,0c3.25-2.26,7.79-2,11.54-2.6,6.48-1.06,12.39-4,18.37-6.6l0,0,.13.1c0,1.94-1.31,4-2.35,5.53a34.21,34.21,0,0,1-6.54,7C167.15,76,165,77.84,162.63,78.1Zm-19.42-5.46a8.77,8.77,0,0,0-.32,1.22,26.21,26.21,0,0,1-.88,2.49c.36-2.62.56-5.27.7-7.92,0-.61-.91-.54-.94,0-.11,2.26-.29,4.52-.57,6.76-.26-2-.61-4-.75-6a.47.47,0,0,0-.93,0c.13,1.91.44,3.8.7,5.7a12.92,12.92,0,0,0-1.43-2.35c-.84-2.69-1.53-5.44-2.56-8.05-1.45-3.63-2.82-7.48-2.67-11.39,3.12,3,6.48,5.81,8.64,9.57A13.28,13.28,0,0,1,143.21,72.64ZM155.83,52c.06.13.13.27.19.41,1.93,4.11,3.92,8.44,4.64,13a38.1,38.1,0,0,1-4,.7,45.21,45.21,0,0,0-6.75,1.09,13.43,13.43,0,0,0-2.2.79,21,21,0,0,1,3-7.26C152.37,57.78,154.4,55,155.83,52ZM151.9,37.72c-.58-1.07-1.18-2.12-1.79-3.17A105,105,0,0,0,159,41.22c4.46,2.83,9.95,5.17,15.2,3.56,3.9,3.53,7.78,7.07,11.57,10.71a112,112,0,0,1,8.89,9.59c-2.22-.45-4.41-1-6.57-1.65a32,32,0,0,1-7.6-2.93,5.13,5.13,0,0,0-.36-1,1.44,1.44,0,0,0-1.79-.88l-.53.23c-3.49-2-7.21-3.55-10.85-5.19-1.66-.74-3.37-1.36-5-2.07-1.29-.54-3.48-1.32-4.28-2.33C155.78,45.36,154,41.47,151.9,37.72ZM140.1,13c-.35-1.32-.67-2.7-.91-4.09A71.76,71.76,0,0,0,147.29,19c4.2,4.54,8.62,8.87,13.12,13.12,3.68,3.47,7.43,6.86,11.18,10.26-4.3.45-8.59-1.89-12.14-4.24-4.48-3-8.4-6.7-12.86-9.7-.8-1.42-1.59-2.85-2.32-4.31A58.5,58.5,0,0,1,140.1,13Zm27,10.92.28.06a37.56,37.56,0,0,0,3.84,9.81,36,36,0,0,1,3,7.29c-4.63-4.19-9.25-8.39-13.77-12.71-4-3.8-7.9-7.68-11.62-11.73q-1.51-1.63-3-3.35A51,51,0,0,0,167.11,23.91ZM189.38,34.3a102.16,102.16,0,0,1,7.12,28.59A126.53,126.53,0,0,0,186,51.81c-2.79-2.62-5.62-5.2-8.45-7.77a1.19,1.19,0,0,0,0-.33c-.46-7.05-5.57-12.45-7.17-19.12,4.09.79,8.15,1.45,11.89,3.58a26.58,26.58,0,0,1,6.25,5.13C188.81,33.63,189.1,34,189.38,34.3ZM208.91,51a48.71,48.71,0,0,1,4.53,2.09c2,1.88,2.83,5,3.22,7.65a22.38,22.38,0,0,1-.18,8.24,16.12,16.12,0,0,1-3.76,6.4c-1.57,1.88-3.31,3.75-4.22,6l-.05.14c-1-2.28-2.22-4.52-3.48-6.69a83.39,83.39,0,0,0-5.49-8.18,1.35,1.35,0,0,0,.11-.65,102.62,102.62,0,0,0-4.4-23.8,23.67,23.67,0,0,0,5.68,5A55.36,55.36,0,0,0,208.91,51Zm17.88,36.46a7.78,7.78,0,0,1-2.69,5c-1.58,1.39-3.43,2.41-5.06,3.74a16.7,16.7,0,0,0-4.37,5c-1-4.26-2-8.54-3.43-12.69-.12-.34-.25-.67-.37-1a8.63,8.63,0,0,1,1.37-7.07c1.51-2.16,3.41-4,4.88-6.22a15.19,15.19,0,0,0,2.53-7.46,28,28,0,0,0-.7-9.28,19.58,19.58,0,0,1,2.24,3.28,39.43,39.43,0,0,1,3,8,69,69,0,0,1,2,9.87A74.07,74.07,0,0,1,226.79,87.44Zm-4.23,47-.24,0c-2.4-8.75-4.2-17.67-6.15-26.54a10.34,10.34,0,0,1,1.28-5.87,16.76,16.76,0,0,1,4.81-4.68A32.6,32.6,0,0,0,226.58,94c-.12,1.61-.3,3.22-.52,4.82-.89,6.21-3,12.13-3.95,18.32C221.22,122.77,220.88,128.86,222.56,134.42Zm35.31,27.49-.25-.06a16.81,16.81,0,0,0-1.88-.14,9.06,9.06,0,0,0-1.81-2.79c1.5.61,3,1.16,4.53,1.79a20,20,0,0,1,2.62,1.31c.33.21.18.12.55.38l.85.64a26.58,26.58,0,0,1,4.25,4,8.79,8.79,0,0,1,1.41,2.17.49.49,0,0,1,0,.11q-.8,2-1.62,3.87a1.51,1.51,0,0,0-.1.77l-.21,0,0-.49a15.23,15.23,0,0,0-2.78-7.46C262.05,164.12,260.22,162.31,257.87,161.91Zm73.83,96.46a8.23,8.23,0,0,1-3.11-3.19c-2.13-4,.29-8.1,3.61-10.46a14.31,14.31,0,0,1,8.37-2.77,1.37,1.37,0,0,0,.64,0l.6.07a1.4,1.4,0,0,0,.52.19,9.06,9.06,0,0,1,6.09,4.2,6.25,6.25,0,0,1,.26,6.58,13.45,13.45,0,0,1-9.69,6.61,11.27,11.27,0,0,1-6.61-.9C332.16,258.6,331.93,258.49,331.7,258.37Zm9.75,17.24c-2.94-.51-4.74-3.07-5.28-5.87-.36-1.89-.81-5.78,1.11-6.83a1.43,1.43,0,0,0,.41-.34,16.15,16.15,0,0,0,3.83-.64,17.8,17.8,0,0,0,5.21-2.56A9.64,9.64,0,0,1,348.79,273,8,8,0,0,1,341.45,275.61ZM346.74,224c1,.77,2.06,1.67,3.19,2.46-2.34.41-4.87,1.05-6.67,2.57a1.52,1.52,0,0,0-.25.26,12.68,12.68,0,0,0-2.6-4.9,18.73,18.73,0,0,0-3.73-3.44c.09-.09.17-.2.27-.3a2,2,0,0,0,.42,0C340.87,219.78,344.09,221.9,346.74,224Zm-7.41,15.2a15.35,15.35,0,0,0-2,.29,10.76,10.76,0,0,0-5.78-8.05,18.22,18.22,0,0,0-5.36-1.9,1,1,0,0,0-.09-.45c-1.6-3.58,2.32-8.21,6.13-7.17a12.4,12.4,0,0,1,5.6,3.74,9.29,9.29,0,0,1,2.7,6.19,1.29,1.29,0,0,0,.08.49,1.34,1.34,0,0,0-.11.14A9.77,9.77,0,0,0,339.33,239.15Zm-13.4,8.74a15.21,15.21,0,0,1-8.86-4.51,6.68,6.68,0,0,1-1-8.43c1.63-2.52,4.57-3,7.36-2.94,4.84.19,10.87,2.82,11.14,8.26a18.65,18.65,0,0,0-6,3.87A12,12,0,0,0,325.93,247.89Zm-3.09-31a6.46,6.46,0,0,1-10.19,2.34,9.07,9.07,0,0,1-3.14-4.66,8.94,8.94,0,0,1,0-4.62,10.77,10.77,0,0,1,2-4c.28-.34.56-.64.84-.92a1.33,1.33,0,0,0,.68-.6l0,0a8.56,8.56,0,0,1,1.7-1,7.6,7.6,0,0,1,1.08-.36.91.91,0,0,1,.32-.06l.49,0a4.23,4.23,0,0,1,1.85.22,6.65,6.65,0,0,1,.89.41,4.09,4.09,0,0,1,.83.57,8.27,8.27,0,0,1,1.32,1.39A10.92,10.92,0,0,1,322.84,216.91Zm-12.66-30.43c-2.21-2.95-5.83-5-9.08-6.55-5.62-2.67-12.42-5.31-15.06-11.46a1,1,0,0,0-.1-.17c.13-.24.25-.48.38-.71a1.67,1.67,0,0,0,.37-.71s.05-.09.07-.13a22.62,22.62,0,0,0,1.9-5.55c2,2.26,4.5,4.22,6.61,6.34a22.92,22.92,0,0,0,10.45,6.23l.23,0c.53,1,1.06,2,1.56,3.06C309,180,310.26,183,310.18,186.48Zm-18.46-66,.13.23c1.24,1.86,2.75,3.53,4,5.4,2.49,3.83,3.15,8.89,2.5,13.36,0,.27-.08.54-.13.81-.76,2.2-3,3.27-5.15,4-2.61.86-5.33,1.26-7.93,2.12a22.91,22.91,0,0,0-9.33,5.59c.26-5.69-1.33-11-3.2-16.41a1.14,1.14,0,0,0,.06-.56c.78-4.85,6.19-7.37,10.3-9C285.93,124.74,289.88,123.26,291.72,120.44Zm-22.49,14.05c.2.55.39,1.11.59,1.67a64.25,64.25,0,0,1,2.82,9.59,26.51,26.51,0,0,1,0,9.19c-.1.59-.23,1.17-.35,1.76l-.17-.3c-3-4.76-8.12-8-12.58-11.26a66.46,66.46,0,0,1-7-6c-2.63-2.57-5-5.55-5.94-9.17a16.17,16.17,0,0,0,.68-1.59c1.46-4,.23-7.92-.74-11.86a29.75,29.75,0,0,0,2,3,50.16,50.16,0,0,0,7.18,7.88,24.71,24.71,0,0,0,8.09,4.91C265.63,132.91,267.92,133,269.23,134.49Zm9.32,47.1a15.34,15.34,0,0,0-1.24-2.25,61.64,61.64,0,0,0,6.92-8.27,21.29,21.29,0,0,0,7.3,7.16,11.67,11.67,0,0,0-2-.41C286.06,177.42,281.18,178.71,278.55,181.59Zm2.26-15.21a32.66,32.66,0,0,0-4.06.52,29,29,0,0,0-5.14,1.39q.87-2.22,1.64-4.47c.1-.27.19-.55.26-.82.53-1.64,1-3.29,1.36-4.95,2.41-5.47,8.07-8.41,13.71-9.79,1.43-.34,3-.69,4.6-1.16a1.47,1.47,0,0,0,0,.75c-2.45,2-5.12,4-6.32,7a9.69,9.69,0,0,0-.54,2.25,1.31,1.31,0,0,0-.09.71c-.09.83-.15,1.66-.3,2.51a19.8,19.8,0,0,1-1.86,5.39A8.22,8.22,0,0,1,280.81,166.38Zm17.34-17-1-1.25.41-.39a10.69,10.69,0,0,0,.69-.82c.18,1,.34,2,.5,3.06l-.13-.12-.33-.35-.14-.16Zm1.14-22.73c1.61,1.12,3.25,2.2,4.79,3.34.15,3.66-.8,7.24-1.09,10.87a16.58,16.58,0,0,1-1.08,5.39c-.22.52-.46,1-.71,1.55-.26-1.59-.53-3.17-.84-4.74a.08.08,0,0,0,0,0,16.7,16.7,0,0,0,.49-1.71,9,9,0,0,0,.31-1.11,1.41,1.41,0,0,0,0-.58,23.45,23.45,0,0,0,.21-3A22.77,22.77,0,0,0,299.29,126.65Zm3.57,40.79c.4,1,.84,1.9,1.3,2.83a21.41,21.41,0,0,1-7.21-5c-2.56-2.61-5.7-4.89-7.78-7.92a7.28,7.28,0,0,1,1.34-3.17A25.14,25.14,0,0,1,295,150c.36.44.71.88,1.08,1.3a7.23,7.23,0,0,0,3.23,2.35c.17,1.08.36,2.16.57,3.23A51.74,51.74,0,0,0,302.86,167.44ZM309,194.67a3.61,3.61,0,0,0-.35-.33,10.37,10.37,0,0,0-3.9-2.21,33.7,33.7,0,0,0-3.75-.78,10.62,10.62,0,0,0,0-1.59,13.8,13.8,0,0,0-4.84-9c.64.31,1.28.61,1.91.89,4.51,2,11.19,4.91,11.4,10.68C309.27,193.08,309.12,193.87,309,194.67Zm1.65,31.7q-4.51-5.4-8.93-10.88a13.13,13.13,0,0,0,5.1-.31,11.31,11.31,0,0,0,6.31,7.61,9.73,9.73,0,0,0,4.6.8c-.42,2.19-.81,4.39,0,6.54a8.83,8.83,0,0,0-2.5,1.54C313.61,230,312.13,228.16,310.64,226.37Zm-19.31-23.93c4.19-1.27,7.85-4.27,9.16-8.32,1.09.2,2.19.37,3.26.65a7.36,7.36,0,0,1,2.75,1.44c1.89,1.59,4,4.11,4,6.75a13.26,13.26,0,0,0-4,8.13c0,.42-.05.84-.05,1.26l-.58.17-.43.1-.49.08c-.42.06-.84.09-1.26.11H303l-.34,0h0a7.67,7.67,0,0,1-4.74-2.09l0,0Q294.57,206.57,291.33,202.44Zm-7.27-2.53a8,8,0,0,1-5.48-6.06,13.58,13.58,0,0,0,1.3-6.81,15.35,15.35,0,0,0-.22-1.79c.58-2.18,3.09-3.41,5.06-4.07a9.49,9.49,0,0,1,7.14.17c4,1.77,6.94,6.28,6.24,10.7a9.61,9.61,0,0,1-5.29,6.8A12,12,0,0,1,284.06,199.91ZM269.26,174l.6-1.41a1.3,1.3,0,0,0,.56-.31l.1-.08a8.3,8.3,0,0,1,3.62-1.8,39,39,0,0,1,4.12-.94c1.19-.22,2.55-.21,3.89-.34a57.42,57.42,0,0,1-6.64,8l-.25-.27A11,11,0,0,0,269.26,174Zm-25.91-35.67a11,11,0,0,1,1.37-4.95,26.16,26.16,0,0,0,5.62,7.58c4,4,8.65,7.06,13.06,10.57a30,30,0,0,1,6,5.94,6.25,6.25,0,0,1,1.41,4.66c-.12.37-.25.74-.37,1.1a1.61,1.61,0,0,0-.09.26c-.28.83-.58,1.66-.88,2.48a24.56,24.56,0,0,0-9-7.42c-2.2-1-4.5-1.74-6.71-2.73-1.85-.83-3.91-1.81-5-3.64-.09-.18-.19-.36-.29-.54C246.25,147.38,243.34,143.36,243.35,138.32Zm10.74-37.47c.64-.38,1.24-.79,1.81-1.21,1,3.39,3.84,6,5.68,9,2.22,3.6,4.38,7.8,4.45,12.12a1.24,1.24,0,0,0,.23.75A32.74,32.74,0,0,0,267,127c.27,1.2.6,2.37,1,3.53-.52-.18-1.05-.34-1.62-.48a20.37,20.37,0,0,1-7.89-4.07,43.77,43.77,0,0,1-7.31-7.71,22.87,22.87,0,0,1-3-4.77,32.4,32.4,0,0,0-2.06-4.33,8.69,8.69,0,0,1,1.13-2.92C248.77,103.71,251.59,102.33,254.09,100.85Zm10.75-15.22c.63,3.24,1.37,6.46,1.71,9.76a104.6,104.6,0,0,1,0,16.51c-.58-1.25-1.23-2.46-1.89-3.62a50.54,50.54,0,0,0-3.51-5.09c-1.23-1.63-2.58-3.41-2.79-5.5a.53.53,0,0,0,0-.12A25.91,25.91,0,0,0,264.84,85.63ZM284,94.08c-.47,1.74-2.08,2.91-3.54,3.85-1.84,1.17-3.82,2.1-5.63,3.35a20.52,20.52,0,0,0-5.22,5.21,76.14,76.14,0,0,0-.51-13.5c-.53-3.73-1.53-7.37-2-11.09a50.91,50.91,0,0,1-.15-8.09l.25.69A31.43,31.43,0,0,0,271,81.66,34.31,34.31,0,0,0,275.76,87c1.86,1.72,4,3.11,5.93,4.71A14.24,14.24,0,0,1,284,94.08Zm5.26,20.5A21.39,21.39,0,0,0,290,117a1.36,1.36,0,0,0-.08.42c-.07,2-2.32,3.29-3.85,4.11-1.88,1-3.92,1.66-5.87,2.53-3.41,1.53-7.22,3.72-9.15,7a47.42,47.42,0,0,1-1.56-5.72,42.08,42.08,0,0,1-.31-10.46l.09-1.69a1.75,1.75,0,0,0,.22-.43,18.75,18.75,0,0,1,8.23-10c2.6-1.59,6.17-3.1,8-5.73C288.13,102.34,287.82,108.86,289.25,114.58Zm24.6,30.13a1.25,1.25,0,0,0-.15.41c-.65,3.38-2,6.58-2.81,9.93-.63,2.73-.86,5.54-1.62,8.25-.61,2.14-1.55,4.16-2.35,6.24-.61-1.24-1.2-2.49-1.71-3.78a62.34,62.34,0,0,1-3.22-13,1,1,0,0,0,.24-.36c.64-1.81,1.63-3.46,2.35-5.24a19.3,19.3,0,0,0,1.17-5.73c.24-3.07.92-6.11,1.11-9.18A23.45,23.45,0,0,1,313.85,144.71Zm8.32,26.76c-1.95,4.09-1.39,8.94-3.84,12.81a9.46,9.46,0,0,1-4.34,3.59c-.39.17-.77.35-1.14.55a24.48,24.48,0,0,0,.16-2.58c0-3.73-1.45-7.08-3.07-10.37-.45-.92-.93-1.83-1.4-2.74A1.41,1.41,0,0,0,309,172c.9-2.84,2.31-5.49,3.1-8.37.72-2.63,1-5.37,1.55-8,.23-1,.51-1.95.81-2.92a34.8,34.8,0,0,0,.63,5.57,28.94,28.94,0,0,0,4.23,9.39A44.23,44.23,0,0,0,322.17,171.47ZM322,201.72l-.51-.46a1.45,1.45,0,0,0-.92-.33,7.94,7.94,0,0,0-1.82-.68,8.32,8.32,0,0,0-5.68.87,11.33,11.33,0,0,0-1.6-3.59c.14-1.52.41-3,.68-4.52a1.41,1.41,0,0,0,.3-.46c.67-1.58,2.62-2,4-2.74a11.48,11.48,0,0,0,4.38-4.26c2.23-3.54,2-7.81,3.34-11.61.48.6.95,1.2,1.4,1.82a16.65,16.65,0,0,1,3.41,9.4,18.64,18.64,0,0,1-2.05,9.68A77.33,77.33,0,0,1,322,201.72Zm24.2,2.38c-.63,1.58-1.06,3.26-1.72,4.82a16.85,16.85,0,0,1-5.91,6.79,1.41,1.41,0,0,0-.42.47,16,16,0,0,0-4,3.35,7.5,7.5,0,0,0-5.57-.16c-3.73,1.46-6.63,5.81-5.43,9.8a14.57,14.57,0,0,0-2.73.19,6.55,6.55,0,0,1-.29-3.15c.16-1.14.43-2.27.63-3.41a10.83,10.83,0,0,0,5.38-6.44,12.73,12.73,0,0,0,.48-6,.86.86,0,0,0,.1-.16c1-2.1,3.57-3.39,5.64-4.18,3.12-1.18,6.48-1.34,9.79-1.5A35.79,35.79,0,0,0,346.18,204.1Zm24.67-9.71c-2.58,2.2-3.93,5.94-4.82,9.05a16.57,16.57,0,0,1-2.67,5.8,6.56,6.56,0,0,1-5.6,2.58,1.28,1.28,0,0,0-.61.12h-.67a1.59,1.59,0,0,0-.39.08A66.22,66.22,0,0,0,345,213.54a15,15,0,0,0,1.73-2.71c1.21-2.48,1.51-5.58,3.24-7.79.18-.07.36-.14.54-.23,2.61-1.26,4.74-3.23,7.2-4.72C361.41,195.83,366.31,194.05,370.85,194.39Zm20.54,10.68c-.72.61-1.43,1.23-2.12,1.86-1.08,1-2,2.08-3.11,3-2.33,2-5.58,3.87-8.79,3.74-2.05-.43-4.12-.8-6.16-1.09s-4.35-.52-6.53-.63a15.57,15.57,0,0,0,3.46-6,56.47,56.47,0,0,1,2.12-6.06c.92-1.85,2.2-3.84,4.28-4.48a1.52,1.52,0,0,0,.34-.15c3.54,1.58,6.2,4.83,9.39,7A18.81,18.81,0,0,0,391.39,205.07Zm24.7,5.55a13.68,13.68,0,0,0-2,.19,43.47,43.47,0,0,0-5.95,1.48,34.54,34.54,0,0,0-7.12,3.28,24.48,24.48,0,0,1-4.05,2,27.35,27.35,0,0,0-4,1.67,46.56,46.56,0,0,0-7.82-3.51c-.59-.19-1.21-.35-1.81-.53a18.94,18.94,0,0,0,3.8-2.34c1.35-1.06,2.47-2.34,3.72-3.51s2.71-2.4,4.11-3.56a2.23,2.23,0,0,0,.26-.27c1.12.06,2.25.07,3.37.05,4.73-.13,9.69-.37,14,2A12.48,12.48,0,0,1,416.09,210.62Zm7.66,15.68a21.5,21.5,0,0,0,1.71,2.49c-1.93-.22-3.83-.64-5.78-1-2.26-.39-5.31-.77-7.31.68-.44-.19-.88-.39-1.32-.56-2.23-.87-4.51-1.6-6.71-2.52a57.64,57.64,0,0,1-6.52-3.4l-1.91-1.1c.77-.3,1.55-.55,2.32-.83a25,25,0,0,0,3.6-1.76,33.36,33.36,0,0,1,6.62-3.19c1.65-.51,3.3-1,5-1.38,1.13-.23,3.37-.8,4.41,0a1.8,1.8,0,0,0,.39.2,56.24,56.24,0,0,1,2.45,5.6A51.41,51.41,0,0,0,423.75,226.3Zm12.92,15.63c.7,2,1.36,4,2,6-.57-.61-1.16-1.2-1.73-1.79-2.38-2.41-4.88-4.71-7.39-7a47.43,47.43,0,0,0-6.69-5.29c-2.12-1.3-4.36-2.53-6.64-3.66a19.12,19.12,0,0,1,3.66.47,39.41,39.41,0,0,0,8.22,1h0C431.28,234.83,435.17,237.59,436.67,241.93Zm-8.94,3.6a81.86,81.86,0,0,0-9.9-.63c-.72-2.46-2.1-4.74-3.06-7.1-.67-1.64-1.48-3.76-1.11-5.59A62.78,62.78,0,0,1,423.84,238c1.83,1.38,3.5,3,5.19,4.57s3.53,3.29,5.25,5A28,28,0,0,0,427.73,245.53Zm-23.15-5.2c-.47-.36-.92-.74-1.37-1.13a12.6,12.6,0,0,0-1.21-4.94,24.54,24.54,0,0,0-2.79-4.08c-1.43-1.84-3.64-4.13-4.31-6.6,1.87,1.09,3.74,2.19,5.66,3.18,3.36,1.74,7,2.77,10.5,4.24-1.44,4.42,2,9.27,3.7,13.62A20.78,20.78,0,0,1,404.58,240.33ZM386.81,232a1.43,1.43,0,0,0-.2-.23,6.93,6.93,0,0,1-2.05-3.64c-.38-1.62-.55-3.28-1-4.89a14.88,14.88,0,0,0-2.52-5,12,12,0,0,0-.89-1,40.61,40.61,0,0,1,8.17,2.72c1.22.58,2.41,1.22,3.59,1.87-.08,3.35,2.14,6.32,4.16,8.86A38.75,38.75,0,0,1,399.2,235a7.1,7.1,0,0,1,.54,1.11,21.59,21.59,0,0,0-4.48-3.13C392.59,231.66,389.68,231.69,386.81,232Zm-14.26,1.06c-4.16-2.92-6.2-8.2-7.74-12.84a18.81,18.81,0,0,0-2.75-5.55h0a69.91,69.91,0,0,1,13.14,1.51l.22,0c.92,1.46,2.42,2.45,3.43,3.84a13.38,13.38,0,0,1,2.23,5c.37,1.61.51,3.28,1,4.85a8.7,8.7,0,0,0,1.4,2.62h0a60,60,0,0,1-6.64,1A15.93,15.93,0,0,1,372.55,233.1ZM359,226.92a10.71,10.71,0,0,0-3.12-.88,1.75,1.75,0,0,0-1-.37c-1.12,0-2.68-1.15-3.7-1.87-1.24-.88-2.4-1.86-3.63-2.75a17.66,17.66,0,0,0-6.57-3.19,26.4,26.4,0,0,1,6.13-1.9,71,71,0,0,1,10.28-1.17c3.14.46,4.39,5.21,5.17,7.75a34.52,34.52,0,0,0,2.66,6c.46.83.95,1.63,1.48,2.41C364.12,229.62,361.66,228.11,359,226.92Zm.15,19.72a15.39,15.39,0,0,0-7.06,1.26,12,12,0,0,0-6.55-7.59,11.37,11.37,0,0,0-3.37-1.05,6.9,6.9,0,0,1,1.27-6.13c2.93-3.21,8.91-1.78,12,.53C359.53,236.74,360.06,241.93,359.17,246.64Zm9.05,12.75c-.88,4.3-4.83,8.41-9.34,7.73a13.72,13.72,0,0,0-5.38-.43,12.49,12.49,0,0,0-4.6-9.21,12.76,12.76,0,0,0,3.25-5.74,6.86,6.86,0,0,0,.14-.79,12,12,0,0,1,7.55-1.43C364.63,250.22,369.29,254.16,368.22,259.39ZM370.15,279c-.38-4-3-7.51-6.54-9.78A11.92,11.92,0,0,0,367,267a13.61,13.61,0,0,0,3.44-5.17c2.55-.93,5.25.18,7.26,1.84a11.56,11.56,0,0,1,4.06,6.35,9.23,9.23,0,0,1-6.67,10.27A5.56,5.56,0,0,1,370.15,279Zm-21,3.6h0a12.81,12.81,0,0,0-2.22-4.94,10,10,0,0,0,4.41-3.38,11.55,11.55,0,0,0,2-4.74,9.35,9.35,0,0,1,3.69,0l.12.05a10.41,10.41,0,0,0,1.39.34,15.09,15.09,0,0,1,4.81,2.68,10.46,10.46,0,0,1,4,6.75,1.44,1.44,0,0,0,0,.68c0,.23,0,.47,0,.71a7.19,7.19,0,0,1-4.07,5.65A11.25,11.25,0,0,1,349.11,282.64Zm-3.3,12.58a9.89,9.89,0,0,0,3.13-4.66c.56,1.06,1.08,2.15,1.61,3.23,1,2,2.12,4,3.3,5.93,2.4,3.91,5,7.66,7.42,11.58,1.18,1.95,2.32,3.93,3.32,6s1.75,3.86,1.2,6.17c-.49,2.08-1.44,4.07-2.13,6.09-.25.73-.49,1.47-.74,2.21a59.32,59.32,0,0,0-2-7.79,129.12,129.12,0,0,0-7.48-15.21Q349.75,301.91,345.81,295.22Zm-13.22-12.89c.82-2,2.32-5,4.66-5.58a8.52,8.52,0,0,0,4.41,1.72,11.45,11.45,0,0,0,2.11,0c2.85,2.58,3.53,7.59,2.54,11.15-1.85,6.63-11.31,6.27-14.09.55C331,287.52,331.5,284.9,332.59,282.33Zm-13.26-20.8a11.76,11.76,0,0,1,10.75-.88c.33.21.67.4,1,.58a6.81,6.81,0,0,1,1.93,1.89,1.53,1.53,0,0,0,.5.46,10.55,10.55,0,0,0-.36,1.88,17,17,0,0,0,.5,5.89,9.77,9.77,0,0,0,.36,1.08c-2.41,2.68-7.13,2.12-10.32,1.63a8.37,8.37,0,0,1-7-6.58A5.53,5.53,0,0,1,319.33,261.53Zm-43.87-64a10.31,10.31,0,0,0,1.09-.86A10.73,10.73,0,0,0,284.9,203a14.34,14.34,0,0,0,3.34.08q2,2.49,3.92,5l3.64,4.56.05.06c2.62,3.27,5.24,6.53,7.89,9.78,3.13,3.83,6.24,7.7,9.57,11.36l.1.08a9.47,9.47,0,0,0-.57,1.15c-3.15,7.84,5.09,14.62,12.3,15.62a9.36,9.36,0,0,0,1.27,6.36l-.94,0c-.36,0-.71,0-1.07.05-2.54-3-5-6-7.43-9q-12.2-15-24.39-29.94-5.64-6.9-11.35-13.76C279.33,202,277.45,199.7,275.46,197.5Zm-15.39-11.9a12.73,12.73,0,0,0,6-8.81,8.53,8.53,0,0,1,8,3c3.69,4.31,4.64,13-1.19,16a1.28,1.28,0,0,0-.24.11,9.16,9.16,0,0,1-8.82-.44C260.65,193.15,260.28,189.23,260.07,185.6Zm-11-16.74a9.26,9.26,0,0,1,2.54-3.21,7.23,7.23,0,0,1,5.39-1h.22l.15,0a4.61,4.61,0,0,1,2.6,1.64,12.72,12.72,0,0,1,1.95,2.6,12.14,12.14,0,0,1,1.44,7.33,10,10,0,0,1-5.11,7.19,1.4,1.4,0,0,0-.74.39,11,11,0,0,1-1.37.57c-3.68,1.25-7.67,0-9.17-3.79C245.44,176.57,247.19,172.39,249.11,168.86Zm-18.2-3.1a7.12,7.12,0,0,1,5-5.63c4.69-1.65,10.68.08,12.26,5.11A21.32,21.32,0,0,0,246,168.7a22.34,22.34,0,0,0-2.18,6.37c-2.51,1.86-6.74,1.62-9.24-.11C231.87,173.08,230.42,169,230.91,165.76ZM216,139.86c3.32-4.05,9.18-2.93,12.93-.07s5.29,8,4.89,12.64a1.37,1.37,0,0,0-.16.72c.19,4.57-5.91,7.14-9.73,6.59-4.27-.62-8.07-2.73-9.57-7C213,148.74,213.23,143.28,216,139.86Zm-3.19-.32A15.18,15.18,0,0,0,211,144.7l-.59-.9a82.13,82.13,0,0,0-30-26.42,64.47,64.47,0,0,0-12.85-4.93,66.76,66.76,0,0,1-8.1-7.3c-.78-.82-1.57-1.66-2.33-2.52.36.16.74.3,1.12.43,3.78,1.25,7.9-.28,11.61,1.15a1.41,1.41,0,0,0,1.57-2.31l-.25-.27c-.11-.14-.23-.27-.33-.41-.34-.43-.65-.87-1-1.31-.86-1.21-1.7-2.44-2.54-3.67-4-5.75-8-11.72-13.09-16.5-.5-.46-1-.93-1.58-1.39,1,.38,2,.79,2.92,1.14,3.13,1.16,6.6,2.17,9.83.74.48-.21.94-.45,1.4-.7,1.27,4.34,5.19,7.72,8.59,10.44,8.77,7,18.44,12.83,26.35,20.88a57.51,57.51,0,0,1,9.16,12.47c2.21,3.94,5.86,7.32,7.29,11.67A10.51,10.51,0,0,0,212.84,139.54Zm-80-9.15c1.19-.47,2.38-.95,3.54-1.5,5.46-2.58,10.18-6.47,15.27-9.69a38.43,38.43,0,0,1,7.29-3.77l.24-.08a1.8,1.8,0,0,0,.64-.22,11.67,11.67,0,0,1,4.05-.67c.79.16,1.59.34,2.38.54l.3.24a1.46,1.46,0,0,0,1.31.2,65.4,65.4,0,0,1,14.9,6.45l.32.19a35,35,0,0,0-6.87.4,83.14,83.14,0,0,0-11.24,2.68c-3,.9-6.17,1.68-9.14,2.8s-5.67,2.39-8.61,3.3a16.29,16.29,0,0,1-7.61.91l-1.61-.45C136.25,131.22,134.53,130.73,132.8,130.39Zm16.26,3.21c2.46-.84,4.84-1.89,7.27-2.83,3-1.17,6.22-2,9.33-2.89,7.1-2.12,15-4.33,22.34-2.14a1.24,1.24,0,0,0,.71,0,80.61,80.61,0,0,1,11.38,9.83c-8.55,2.52-17.61-1.44-26.32-.26a1.14,1.14,0,0,0-.33.08,30.29,30.29,0,0,0-11.12-2.7c-4-.14-7.95.66-11.92.86C150,133.6,149.5,133.6,149.06,133.6Zm30.27,4.83a1.63,1.63,0,0,0-.48-.5c7.72.24,15.5,2.71,23.06,0a1.57,1.57,0,0,0,.26-.12,74.81,74.81,0,0,1,8.36,11.4,1.21,1.21,0,0,0,.29.34,15.23,15.23,0,0,0,.22,1.53h-.35c-6.48.71-12.47-1.34-18.05-4.47C188.14,144.14,183.82,141.06,179.33,138.43Zm-19,17.65a18.28,18.28,0,0,1-2.69,1.91,81.56,81.56,0,0,0-.73-11.38,21,21,0,0,0-4.8-10.34l1.79-.14c3.55-.35,7.13-.9,10.7-.42a32.67,32.67,0,0,1,10.85,3.73,66.79,66.79,0,0,0-7.57,7.66C165.43,150.15,163.29,153.51,160.31,156.08Zm-19.9,9a13.68,13.68,0,0,0-1.29.93,24.66,24.66,0,0,1-1-4.85,12.49,12.49,0,0,1,1.63-6.12c1.49-3.22,3-6.62,2.27-10.11a28.38,28.38,0,0,0,7.59-7.22,18.1,18.1,0,0,1,4.67,10.08c.54,3.83.4,7.72.61,11.57C150.12,161.41,144.83,162.31,140.41,165.09Zm-9,13a87.22,87.22,0,0,0-4.86-20.39,73.18,73.18,0,0,1,12.38-10.59l.44-.3c.05,3.13-1.85,6.11-3,9a12.21,12.21,0,0,0-.93,6.48c.29,2.05,1,4,1.41,6C134.4,171.1,132.91,174.61,131.39,178.05ZM125,190.11c-.55.79-1.15,1.54-1.77,2.28a63,63,0,0,1-2.82-7.42,23.86,23.86,0,0,0-3.32-6.42,46.85,46.85,0,0,1,1.12-6.31,31.67,31.67,0,0,1,6.26-12.14,84.08,84.08,0,0,1,4.58,23A53.93,53.93,0,0,1,125,190.11ZM114,180.56l-.09-.49.13-.07C114.05,180.19,114,180.38,114,180.56Zm4,18.29a18.23,18.23,0,0,0-1.26,2.45c0-4.49-.19-9-.18-13.48,0-1.46,0-2.93.09-4.4,1.71,3.64,2.57,7.74,4.55,11.27A39.26,39.26,0,0,0,118,198.85Zm-9.22-33.38a76.91,76.91,0,0,0,6.78-4.33,14.84,14.84,0,0,1,6.41-2.53c-.18.23-.38.46-.56.7a34.31,34.31,0,0,0-6.5,14.38q-.22,1.13-.39,2.25c-.27.2-.53.39-.78.61s-.38.34-.58.51c-.07-.22-.13-.45-.21-.67C111.71,172.68,109.8,169.29,108.81,165.47Zm-1.1-11.37a30,30,0,0,1,1-6.55,1.27,1.27,0,0,0,1,.3,72.63,72.63,0,0,0,17-3.31c3.81-1.19,8.2-2.61,12-1.09a1,1,0,0,0,0,.39c-1.45,1-2.9,1.93-4.24,2.95a75.93,75.93,0,0,0-10,8.91,1.55,1.55,0,0,0-.38.13,1.47,1.47,0,0,0-.64-.14,16.47,16.47,0,0,0-8.91,2.75c-2.15,1.36-4.14,3-6.37,4.22A40.9,40.9,0,0,1,107.71,154.1Zm6.39-17.8c.31-.42.63-.83,1-1.24a1.58,1.58,0,0,0,.38,0c4.27-.12,8.19-2.11,12.44-2.36a25.54,25.54,0,0,1,8.93,1.53l.07,0a12.09,12.09,0,0,0,1.6.47c.9.27,1.8.53,2.69.75a30.73,30.73,0,0,0,6,.83,22.51,22.51,0,0,1-5.55,5.46c-4.39-2.64-9.28-1.93-14.07-.49a80.39,80.39,0,0,1-18,3.71h0A34.35,34.35,0,0,1,114.1,136.3Zm42-22.78c-4.09,1.8-7.75,4.44-11.44,6.93-3.36,2.25-6.67,4.72-10.42,6.29-2.67,1.12-5.43,2-8,3.32l0,0h0c-2.88.43-5.64,1.47-8.51,1.94A66.33,66.33,0,0,1,128,123.2c5.44-3.84,11.09-7.2,17.63-8.72A39.27,39.27,0,0,1,156.14,113.52Zm-15.53-27c.33-1.18.62-2.38.93-3.57,1.15,1.84,2.13,3.8,3.13,5.7a54,54,0,0,0,3.59,6.06,48.79,48.79,0,0,0,8.82,12.06c1.44,1.52,2.93,3,4.49,4.43-1.41-.21-2.82-.35-4.23-.43a61.45,61.45,0,0,1-8.51-9.3A51.5,51.5,0,0,1,140.61,86.55ZM125.45,87a63.8,63.8,0,0,1,6.37-5.6,8.28,8.28,0,0,1,2-1,34.62,34.62,0,0,1,4.06-.16.44.44,0,0,0-.15,0,38,38,0,0,0-8.42,6.5.47.47,0,0,0,.7.62,30.08,30.08,0,0,1,6.21-5,19.07,19.07,0,0,0-5.37,6.72c-.23.56.6,1,.84.43a16.46,16.46,0,0,1,4.06-5.46,21.68,21.68,0,0,0-2,4.48c-.18.58.74.77.92.2a17.65,17.65,0,0,1,4.36-7.33c-.41,1.54-.75,3.11-1.19,4.65a1,1,0,0,0-.11.38c-.21.69-.44,1.36-.71,2-1.17,2.88-3.55,5.79-6.55,6.87s-6.53-.21-9.7.62A7.83,7.83,0,0,0,118,97.35a21.43,21.43,0,0,1,1.73-3.74A28.26,28.26,0,0,1,125.45,87Zm-5.92-15.59a8.9,8.9,0,0,1-2.5-4.24c1.19.1,2.45.21,3.75.37a1.17,1.17,0,0,0,.26,0c5.65.72,11.89,2.28,15.25,6.35.05.13.09.26.13.39A60.07,60.07,0,0,0,131.28,71c-.52-.3-.94.54-.42.84A56.22,56.22,0,0,1,137,76c.07.2.15.41.23.61a52.07,52.07,0,0,0-9.16-4.39c-.57-.21-1,.63-.43.84a51.08,51.08,0,0,1,8.44,4,26.21,26.21,0,0,0-7.41-1.77c-.61,0-.54.9.05.94a22.89,22.89,0,0,1,5.73,1.23,11.31,11.31,0,0,0-1.28.3,13.5,13.5,0,0,1-7.47-1.52A24.76,24.76,0,0,1,119.53,71.41ZM80.08,89.61c2.83-3.54,5.62-7,9.63-9.38s8.49-4.13,11.78-7.58A90,90,0,0,1,117.3,75c-2.12,2.21-3.52,5.38-6.88,5.63-2.28.17-4.53-.57-6.74-1a15,15,0,0,0-6.93-.07C90.31,81.22,86.76,89.09,80.08,89.61Zm-13.4-4.82-.22-.1c2.53-1.48,5.06-3,7.44-4.69,2.62-1.91,5.3-4.18,6.77-7.14,5.6-.35,11.24-.55,16.85-.39-3,2.35-6.73,3.79-10,5.8C83,81,80,85.29,76.73,89.3,73.16,88.46,70,86.37,66.68,84.79ZM39.86,83.36c2.61-1,5.45-1.67,8-2.53,3.58-1.2,7.62-2.85,9.63-6.21h.18c6.53-.44,13-1.06,19.55-1.52a22.23,22.23,0,0,1-5.3,4.85c-2.75,2-5.68,3.61-8.58,5.32a.78.78,0,0,0-.15.1,27.16,27.16,0,0,0-8.36-1.58c-4.45-.11-8.69,1.1-13.08,1.48C41.13,83.32,40.49,83.35,39.86,83.36ZM28.79,81.71a83.83,83.83,0,0,1-8.16-3.15c5.38-.23,10.74-.91,16.07-1.67,5.63-.79,11.23-1.47,16.87-2-2.1,1.83-5.12,2.77-7.65,3.58-3.8,1.21-8.07,2.12-11.36,4.51A40.07,40.07,0,0,1,28.79,81.71Z"/><path d="M218.9,141.89a2.18,2.18,0,0,1,.17-.51,2.59,2.59,0,0,1,.3-.48c0-.06.1-.13.16-.19l.1-.1c.13-.11.25-.22.39-.32a1,1,0,0,1,.51-.2,1,1,0,0,1,.56,0,1.13,1.13,0,0,1,.5.22,1.15,1.15,0,0,1,.38.38h.13a1.12,1.12,0,0,1,.53.13l.3.21a1.48,1.48,0,0,1,.4.6l.07.37a1.51,1.51,0,0,1-.15.72,3.12,3.12,0,0,1-.43.72,1.07,1.07,0,0,1-.14.16c-.1.1-.22.2-.33.29l-.08.06a2.6,2.6,0,0,1-.47.24.76.76,0,0,1-.16.06l-.44.08h-.08a3,3,0,0,1-.52,0l-.14,0a3.75,3.75,0,0,1-.47-.17l-.06,0-.36-.24a1.47,1.47,0,0,1-.21-.22,1.57,1.57,0,0,1-.2-.25,3.1,3.1,0,0,1-.21-.45,2.75,2.75,0,0,1-.09-.5v-.07A3.42,3.42,0,0,1,218.9,141.89Z"/><path d="M232.8,167.62a1.06,1.06,0,0,1,.37-.39l.33-.16a1.33,1.33,0,0,1,.74,0l.35.12a1.34,1.34,0,0,1,.53.47l.55.63.23.28,0,.07a2.49,2.49,0,0,1,.16.33,1.37,1.37,0,0,1,0,.75,1.45,1.45,0,0,1-.12.35l-.21.29a.9.9,0,0,1-.27.24h0a1.68,1.68,0,0,1-.33.16l-.37.08a1.25,1.25,0,0,1-.38,0s-.33-.12-.34-.13l-.3-.2-.1-.09-.22-.23a1,1,0,0,1-.32-.43,0,0,0,0,1,0,0l-.24-.28-.17-.19a1.11,1.11,0,0,1-.2-.52,1.06,1.06,0,0,1,0-.56A1.11,1.11,0,0,1,232.8,167.62Z"/><path d="M256.34,168a1,1,0,0,1,.14-.53l.2-.3a1.62,1.62,0,0,1,.6-.4l.37-.07a1.46,1.46,0,0,1,.72.15c.16.11.32.21.47.33l.17.15.33.29a1,1,0,0,1,.32.44,1.1,1.1,0,0,1,.16.53l0,.38a1,1,0,0,1-.23.49.67.67,0,0,1-.23.27,1.18,1.18,0,0,1-.47.28l-.37.07A1.24,1.24,0,0,1,258,170l.1,0a1.65,1.65,0,0,0-.32-.07,1,1,0,0,1-.46-.08,1.06,1.06,0,0,1-.47-.27,1,1,0,0,1-.32-.43,1,1,0,0,1-.15-.54v-.21A1.08,1.08,0,0,1,256.34,168Z"/><path d="M318.17,207.08a.55.55,0,0,1-.24.26.61.61,0,0,1-.3.2,1.1,1.1,0,0,1-.53.16,5.87,5.87,0,0,1-1.44-.19,1.11,1.11,0,0,1-.49-.23,1.06,1.06,0,0,1-.39-.37,1,1,0,0,1-.19-.51,1,1,0,0,1,0-.57l.12-.34a1.34,1.34,0,0,1,.47-.53l.33-.17a7.88,7.88,0,0,1,1.12-.06l.38.05.09,0,.41.14.08,0,.18.12.19.14.24.27.16.33.07.37a1.05,1.05,0,0,1-.09.55A.69.69,0,0,1,318.17,207.08Z"/><path d="M298.16,149.39h0C298.42,149.67,298.22,149.46,298.16,149.39Z"/><path d="M341.85,247.34a1,1,0,0,1,.22-.49,1.06,1.06,0,0,1,.37-.39,1.1,1.1,0,0,1,.52-.19,1,1,0,0,1,.56,0l.34.12a1.44,1.44,0,0,1,.54.47,2.22,2.22,0,0,1,.14.32h.11l.37,0a1.44,1.44,0,0,1,.65.33,1.41,1.41,0,0,1,.47,1c0,.22,0,.43,0,.65a1.57,1.57,0,0,1,0,.23,3.27,3.27,0,0,1-.17.53,2.87,2.87,0,0,1-.28.43,1.65,1.65,0,0,1-.78.54,1.06,1.06,0,0,1-.23,0l-.24.05a2.74,2.74,0,0,1-.5,0,2.17,2.17,0,0,1-.87-.44,1.07,1.07,0,0,1-.25-.22,3.05,3.05,0,0,1-.45-.57A3.64,3.64,0,0,1,342,249a.9.9,0,0,1-.06-.22,4.34,4.34,0,0,1-.11-.59,1,1,0,0,1,0-.24A3.15,3.15,0,0,1,341.85,247.34Z"/><path d="M374.13,271.34a1,1,0,0,1,.09-.55,1,1,0,0,1,.26-.47,1.56,1.56,0,0,1,1-.47h.17s0,0,0-.05a1.12,1.12,0,0,1,.37-.38l.33-.16a1.43,1.43,0,0,1,.74,0l.35.12a1.45,1.45,0,0,1,.53.48,4.48,4.48,0,0,1,.37.68,2.35,2.35,0,0,1,.14.37,5.77,5.77,0,0,1,.16.72l0,.35a5.52,5.52,0,0,1-.05.71c0,.11,0,.22-.05.33a6.45,6.45,0,0,1-.21.62l-.12.26a5.8,5.8,0,0,1-.34.52,1.37,1.37,0,0,1-.17.17,2.56,2.56,0,0,1-.43.36l-.41.2-.09,0-.41.08h-.08l-.42,0a1.64,1.64,0,0,1-.51-.18,2.18,2.18,0,0,1-.67-.61,2.33,2.33,0,0,1-.3-.53,2.83,2.83,0,0,1-.11-.31,6.8,6.8,0,0,1-.15-.76,6.71,6.71,0,0,1,0-1.1C374.11,271.57,374.12,271.46,374.13,271.34Z"/></g></g></svg>