<!-- Generated by IcoMoon.io -->
<svg version="1.1" xmlns="http://www.w3.org/2000/svg" width="1229" height="1024" viewBox="0 0 1229 1024">
<title></title>
<g id="icomoon-ignore">
</g>
<path fill="#661A34" d="M1209.358 137.236c-43.779 19.418-90.836 32.543-140.22 38.444 50.401-30.216 89.115-78.062 107.343-135.075-47.172 27.981-99.424 48.299-155.034 59.245-44.537-47.45-107.984-77.096-178.21-77.096-134.827 0-244.153 109.31-244.153 244.141 0 19.135 2.161 37.769 6.326 55.641-202.911-10.183-382.813-107.382-503.228-255.095-21.017 36.058-33.057 77.998-33.057 122.742 0 84.705 43.101 159.433 108.614 203.219-40.018-1.275-77.669-12.254-110.583-30.54-0.023 1.020-0.023 2.039-0.023 3.069 0 118.295 84.159 216.969 195.846 239.4-20.485 5.581-42.055 8.567-64.322 8.567-15.732 0-31.027-1.536-45.937-4.381 31.070 96.988 121.234 167.582 228.072 169.548-83.557 65.488-188.83 104.516-303.218 104.516-19.707 0-39.141-1.161-58.241-3.413 108.047 69.27 236.381 109.698 374.257 109.698 449.073 0 694.656-372.026 694.656-694.661 0-10.584-0.239-21.114-0.717-31.587 47.712-34.423 89.102-77.421 121.829-126.382z"></path>
</svg>
