<?xml version="1.0" encoding="UTF-8"?>
<svg width="54px" height="85px" viewBox="0 0 54 85" version="1.1" xmlns="http://www.w3.org/2000/svg" xmlns:xlink="http://www.w3.org/1999/xlink">
    <title>Group 14</title>
    <defs>
        <polygon id="path-1" points="0 0 12 0 12 67 0 67"></polygon>
    </defs>
    <g id="Symbols" stroke="none" stroke-width="1" fill="none" fill-rule="evenodd">
        <g id="Group-14">
            <g id="Group-3" transform="translate(42.000000, 0.000000)">
                <mask id="mask-2" fill="white">
                    <use xlink:href="#path-1"></use>
                </mask>
                <g id="Clip-2"></g>
                <path d="M11.7001503,31.95821 C11.039194,30.0251832 11.1301601,28.7311151 11.348866,26.6098326 C11.4925732,25.2208796 11.1896752,24.2397296 10.8693582,23.2005384 C10.729038,22.7473118 10.5838792,22.2779345 10.4653329,21.7454689 C10.327432,21.122156 10.3322706,20.4968244 10.338077,19.8341444 C10.3438833,19.0170242 10.3516251,18.1716403 10.0671139,17.3287801 C9.77244156,16.4561421 9.74728071,15.7904339 9.71776508,15.0197467 C9.70276534,14.6235519 9.6877656,14.2147394 9.63647616,13.7337538 C9.57067084,13.1069081 9.53292956,12.6345025 9.49567213,12.1732006 C9.4559954,11.6790926 9.41777025,11.1976024 9.3471263,10.5561201 C9.28954665,10.0352627 9.09019524,9.47655237 8.87971499,8.88402664 C8.51197938,7.85089192 8.13166335,6.78293242 8.4456902,5.80834368 C8.65326728,5.16534728 8.28262849,4.19631031 7.95553735,3.34184177 C7.85247461,3.07182366 7.75860525,2.8280503 7.70296105,2.63676644 C7.66667135,2.51008504 7.63425256,2.36119655 7.59893058,2.20120451 C7.39715986,1.2816288 7.05410125,-0.258231506 5.3180021,0.0370219448 C3.79915727,0.29442239 3.53303282,2.11994672 3.35739068,3.32770998 C3.33610072,3.47256082 3.31626235,3.60832694 3.29594012,3.73147539 C3.17690991,4.4426072 3.0540088,4.973054 2.93497859,5.48533136 C2.72740152,6.37866231 2.54837234,7.14985423 2.50579243,8.47370005 C2.46563183,9.70821277 1.87096465,12.5345706 1.33968347,13.6262513 C1.06581721,14.189504 0.895497564,14.7229791 0.714532937,15.2877459 C0.616792683,15.5925888 0.517600842,15.9029835 0.398570632,16.2244817 C-0.227547624,17.9167634 0.014383696,19.5504992 0.248089351,21.1302313 C0.4145381,22.2526992 0.585825474,23.41302 0.441150545,24.5854538 C0.403893121,24.8908014 0.342926429,25.1582959 0.283895187,25.4172105 C0.179380856,25.8775031 0.0806728778,26.3115509 0.1140594,26.8960013 C0.137768669,27.3244973 0.175993818,27.7454228 0.213251241,28.1628152 C0.301314242,29.1500217 0.385022479,30.0817103 0.292120852,31.0704309 C0.126639829,32.8227727 0.277604972,33.9205099 0.5466326,35.5204303 C0.617760408,35.9423652 0.620663584,36.3511776 0.623082898,36.7837113 C0.626953799,37.3050734 0.6308247,37.8435955 0.761951475,38.4108859 C0.923561597,39.1088953 0.877110784,39.7786412 0.828240657,40.4872495 C0.781305981,41.169613 0.732919717,41.8762025 0.885820311,42.6044943 C1.22839506,44.2346971 1.26178158,44.9054524 1.08323627,46.5921824 C0.901303916,48.3137371 1.34161892,50.444609 1.6396783,51.153722 C1.9091898,51.7946996 2.17289493,52.164145 2.42789055,52.5199632 C2.67466049,52.8646779 2.90739842,53.1902138 3.15223292,53.7711313 C3.72028766,55.1181936 4.15382858,56.3708758 4.40446943,57.7078439 C4.49398402,56.7716129 4.58204702,55.8363913 4.64398144,54.9041979 C4.70349654,54.0310552 4.74075397,53.1594267 4.75623757,52.2872934 C4.70494813,52.2560016 4.65656187,52.2151203 4.61736899,52.164145 C4.19350532,51.6074534 3.88722027,51.0098806 3.61674105,50.3971666 C3.35690682,49.7809197 3.13771704,49.1490268 2.98046168,48.4999739 C2.82514177,47.8489022 2.79127139,47.1715857 2.74240126,46.5124387 C2.66353165,45.8603576 2.64127397,45.172947 2.88997937,44.5440824 C2.89481799,44.5314647 2.90885001,44.5254082 2.92046271,44.5304553 C2.92917224,44.5339882 2.93497859,44.5420635 2.93594632,44.5506436 C2.98046168,44.8822359 2.99546142,45.1971729 3.03223498,45.5136241 C3.07287945,45.8280564 3.06949241,46.1455169 3.13384614,46.4574257 C3.25723111,47.0822526 3.51754921,47.6692266 3.73867444,48.253677 C3.95883194,48.8401463 4.2002794,49.4175308 4.48140359,49.9706894 C4.57430522,50.1604591 4.67736796,50.3436677 4.77849525,50.5278857 C4.77994684,49.9510058 4.77172118,49.3781637 4.72914126,48.8098639 C4.66285208,47.7999456 4.5602732,46.7713533 4.51333853,45.7139926 C4.49156471,45.1855647 4.48091973,44.6475473 4.504629,44.0979216 C4.52833827,43.5765595 4.5525314,43.0572163 4.59027269,42.5398919 C4.6405944,41.8363306 4.70446427,41.1363024 4.77414049,40.4372835 C4.70446427,40.2096608 4.63527191,39.9825427 4.57043432,39.75492 C4.39817922,39.1220177 4.2443109,38.488106 4.10495846,37.8531849 C3.8272213,36.5823333 3.58625771,35.3089582 3.36610021,34.0335642 C3.14255567,32.7591797 2.95094606,31.4802527 2.76659439,30.2013258 L2.49176041,28.2783931 C2.40756831,27.6036002 2.55708187,26.951519 2.47917999,26.3398145 L2.47821226,26.3342627 C2.47240591,26.2822779 2.50772788,26.2348354 2.55708187,26.2282743 C2.605952,26.2217131 2.6499835,26.2555284 2.65869303,26.3034756 C2.7859489,26.9712026 2.68917637,27.6237884 2.80530341,28.230446 L3.19336124,30.1215822 L3.9956055,33.9023405 C4.27189107,35.1585556 4.56317638,36.410733 4.89946091,37.644741 C4.93236357,37.7643565 4.97155645,37.8799344 5.00542683,37.9990452 C5.03832949,37.4872725 5.05961945,36.9734811 5.0692967,36.4490907 C5.09978005,34.4231978 5.06494194,32.3195801 5.35961428,30.2184859 C6.1507297,26.2802591 4.68269045,22.0916977 5.36929154,17.9753094 C5.36154973,18.9716005 5.42832278,19.9577975 5.53332097,20.9399569 C5.75493006,20.4342407 5.9668619,19.9169163 6.18218077,19.4031248 L6.64330187,18.30993 C6.80587972,17.9465411 6.95732872,17.5851711 7.18184099,17.2338952 C7.21377592,17.1844339 7.27764579,17.1703021 7.32651592,17.2031081 C7.37345059,17.2349046 7.38699875,17.2995071 7.35748313,17.3489683 L7.3526445,17.3575483 C7.16393807,17.6755136 7.0158761,18.0489966 6.86878186,18.4103666 L6.44443432,19.5131509 C6.17540669,20.2162074 5.92766902,20.9197686 5.61606148,21.6233298 C5.71864036,22.4460018 5.8386383,23.2676644 5.9707328,24.0913459 C6.12702043,25.1088347 6.28814669,26.128847 6.39072557,27.1715712 C6.43911183,27.6939427 6.4836272,28.2188377 6.47491767,28.7593786 C6.4836272,29.0268732 6.4550793,29.3029478 6.43814411,29.5775083 L6.3824999,30.3310355 C6.25379244,32.3311883 6.46862745,34.3545577 6.52185235,36.4410154 C6.55233569,37.4786925 6.55814204,38.5582603 6.46620814,39.6065362 L6.33653295,41.2856956 C6.41588643,41.3396992 6.48459492,41.4053111 6.54023913,41.4805124 C6.68926882,41.1645659 6.84265328,40.8516478 6.99071524,40.5346919 C7.32603205,39.8341589 7.63909118,39.112933 7.93811829,38.4048294 C8.23569382,37.6967258 8.38569124,36.9169539 8.68568607,36.1790726 C8.59713921,36.5621451 8.60149397,36.959854 8.55746247,37.3560488 C8.51778574,37.7517389 8.45681904,38.1484384 8.37359467,38.5441285 C8.19892026,39.3334898 7.96037597,40.0814653 7.72570259,40.8410489 C7.48135196,41.5950808 7.21135661,42.3385139 6.92442606,43.0779093 C6.66991431,43.7007174 6.41443484,44.3068702 6.08927914,44.9221077 C6.08637597,45.1658811 6.08831142,45.412178 6.09363391,45.6604937 C6.11395614,46.6608225 6.18072918,47.6843678 6.2194382,48.7291108 C6.2426636,49.3625178 6.2465345,49.9878494 6.24459905,50.6101529 C6.30217871,50.5218292 6.35975836,50.4350196 6.41298325,50.3436677 C6.75071937,49.8202868 6.96071576,49.2025257 7.29506484,48.6135329 C7.38264398,48.4691868 7.46683608,48.3167654 7.58005994,48.1840275 C7.63522028,48.1163968 7.70828354,48.0568414 7.76199229,47.9957719 C7.80699152,47.9372259 7.85634551,47.883727 7.89989314,47.8221527 C8.08085777,47.5829217 8.24246789,47.3154272 8.39536849,47.0413714 C8.6982665,46.4902316 8.96826185,45.9032577 9.18067755,45.2976096 L9.18212914,45.2945813 C9.19132253,45.265813 9.2227736,45.2511765 9.25035377,45.2612707 C9.27357918,45.2698507 9.2876112,45.2935719 9.28567575,45.3183025 C9.22567678,45.9845155 9.04567988,46.6219601 8.81149036,47.2472918 C8.58697809,47.8731281 8.16359828,48.4742339 7.90811881,48.9779312 C7.61489805,49.5179674 7.32845137,50.1009037 7.044424,50.7105895 C6.83539534,51.1330291 6.57217406,51.5574874 6.22911545,51.9350081 C6.20782549,52.9499734 6.17347124,53.9598916 6.15218129,54.9793992 C6.09750481,57.0497063 6.06605374,59.1079005 6.06024739,61.1479252 L6.04815082,64.2019058 L6.03944129,65.7271296 L6.03557039,66.4902462 L6.03557039,66.8718045 C6.02831245,66.9096575 6.03363494,66.9465011 6.03218335,66.9833447 C6.46620814,66.9883917 6.83249216,66.9949529 6.83297602,66.9944482 L7.1557124,67 L6.99748932,63.9808442 C6.956361,63.177351 6.9965216,62.3450896 7.03571447,61.5390729 L7.05023035,61.2498759 C7.06958485,60.8289505 7.07877824,60.3641156 7.08990709,59.8775783 C7.12329361,58.2771532 7.16103489,56.4627324 7.57715676,55.165636 C7.7566698,54.6044021 7.88973203,54.3394311 8.07456756,53.9725093 C8.16021125,53.8019184 8.25553219,53.6121486 8.36875604,53.3668611 C8.51972119,53.0423347 8.70358899,52.8217779 8.89810177,52.5880986 C9.1385815,52.2999111 9.38680304,52.0021341 9.56099359,51.5206438 C9.69018491,51.1628068 9.85953684,50.821625 10.0390499,50.4587408 C10.3443672,49.8429986 10.6603295,49.2065634 10.7653277,48.4812998 C10.8601648,47.8332563 10.781779,47.2154952 10.7053287,46.6184271 C10.6312977,46.0309485 10.5606538,45.4762758 10.6448459,44.9024242 C10.7246832,44.3628927 10.8533907,43.85112 10.9777434,43.3565074 C11.2738673,42.1780171 11.5530561,41.0651387 11.2070943,39.6686151 C10.8756484,38.3301328 10.9622598,37.7577954 11.454832,36.3476447 C11.9996613,34.7875961 12.2309476,33.5096786 11.7001503,31.95821" id="Fill-1" fill="#FEFEFE" mask="url(#mask-2)"></path>
            </g>
            <path d="M32.7448231,40.6694334 C32.7433552,40.1961097 32.7360158,39.7113144 32.7291657,39.2245241 C32.7164441,38.4359837 32.7042118,37.6394631 32.717912,36.8708731 C32.72623,36.3880729 32.7712449,35.9257219 32.8152813,35.4788325 C32.9253721,34.3371696 33.0305701,33.259348 32.540788,32.0074591 C32.2261728,31.2039558 32.2408516,30.5530733 32.2569982,29.7994462 C32.2667841,29.3575443 32.2770593,28.8996821 32.2237263,28.3704972 C32.1684363,27.8353271 32.0700884,27.3310802 31.9756549,26.8437912 C31.8210384,26.0497644 31.6747399,25.2996285 31.7129047,24.4547282 L31.7207334,24.2656979 C31.7999988,22.4671674 31.8684998,20.9145258 31.5832421,19.052154 C31.3444673,17.4890384 31.1448358,16.3593458 30.5865528,14.9483522 C30.3149954,14.2625565 30.3859428,14.0590622 30.4921193,13.7513269 C30.5978066,13.4460855 30.728937,13.0670275 30.600253,12.2814796 C30.5743205,12.1263651 30.5425165,11.9508014 30.5077767,11.7597761 C30.3003166,10.6410562 29.9886371,8.95125546 30.3575638,7.35721677 C30.5087553,6.70633426 30.0057623,6.15919394 29.5624631,5.67639374 C29.2248511,5.3078097 28.8754961,4.9272554 28.8980036,4.60355981 C28.9117038,4.40255931 28.9523151,4.18609724 28.9939049,3.96464755 C29.1035065,3.37311755 29.2277869,2.70278338 28.9273611,2.12272487 C28.7047329,1.69279328 28.6773325,1.30026874 28.6558037,0.985550833 C28.6259568,0.571579582 28.5858348,0.00448884489 27.8445563,0 L27.8401527,0 C26.9383861,0 26.1100135,1.40201589 25.7278759,3.57461681 C25.686286,3.81302435 25.5047584,4.01053352 25.3129556,4.22051171 C25.0854345,4.4683957 24.850574,4.72475862 24.8290451,5.08236993 C24.8163235,5.29982953 24.8173021,5.44546761 24.81877,5.55818749 C24.8207271,5.79609627 24.8217057,5.83250579 24.6117991,6.26642746 C24.4557148,6.59112057 24.2653799,6.83401696 24.0818951,7.06793565 C23.7477082,7.49537344 23.4017782,7.93727528 23.3675277,8.76471902 C23.3484453,9.22307996 23.3836744,9.68044338 23.4179248,10.1218465 C23.4648969,10.7243492 23.5094226,11.293435 23.4286893,11.8709997 C23.3709527,12.2819784 23.2789657,12.6750017 23.1899144,13.0560547 C23.0064296,13.8401063 22.8170734,14.6510909 22.9442895,15.5827756 C22.9697327,15.7683146 22.9995795,15.9463721 23.0299157,16.1189432 C23.1634926,16.9094787 23.2608619,17.4810583 22.8204984,18.1693478 C22.6859429,18.379326 22.5645983,18.5508996 22.4594004,18.700029 C21.9617896,19.4032814 21.7709655,19.7379497 22.0469266,20.9564217 C22.0963451,21.1728838 22.1452744,21.3654054 22.1917572,21.5454579 C22.3561596,22.1833727 22.463804,22.6053241 22.3781778,23.3375046 C22.3179948,23.842749 22.1834393,24.2916335 22.0395872,24.7669523 C21.8732277,25.3205765 21.7005073,25.8926548 21.6638104,26.5485249 C21.63641,27.0123722 21.5635053,27.4941749 21.4861971,28.0039082 C21.3384307,28.9854689 21.1847928,29.9994491 21.3677882,30.9436028 C21.4436286,31.3366261 21.5346371,31.6782771 21.6202633,31.9999777 C21.8257663,32.7665726 21.9867436,33.3715692 21.8419129,34.3082415 C21.7631368,34.8189723 21.628092,35.3561374 21.4857078,35.9257219 C21.1045488,37.445944 20.7106681,39.0180373 21.3032016,40.378656 C21.6642997,41.207596 21.5419765,42.0490051 21.4118246,42.9402902 C21.3257091,43.5328177 21.2366578,44.1447969 21.2846085,44.7837091 C21.3443022,45.579731 21.5855235,46.2665242 21.8184269,46.9308733 C22.0386086,47.558314 22.246558,48.1508416 22.3170162,48.8366373 C22.4457002,50.101494 22.7485724,51.8142378 23.0695484,53.1000424 C23.3841636,54.3604103 23.8866673,55.3509488 24.3720457,56.3090678 C24.6509426,56.8596994 24.9210322,57.3998571 25.1446389,57.9694416 C25.1955254,56.9928685 25.2542405,56.0162953 25.3149128,55.0407197 C25.3922211,54.0207544 25.4318538,52.9992928 25.5766844,51.9853126 C25.6569284,51.4172244 25.7342367,50.8466423 25.7890375,50.2840404 C25.3109985,49.5753017 24.882378,48.8346423 24.5154085,48.052087 C24.3015875,47.6066938 24.1220171,47.1428465 23.9639755,46.6555575 C23.8910709,46.408671 23.8245271,46.1572957 23.7814694,45.8809823 C23.757494,45.7468157 23.7452617,45.5971876 23.7398795,45.4440681 C23.7384116,45.3642664 23.7467296,45.2744895 23.7521118,45.1911965 C23.7589619,45.1084023 23.7599405,45.1113948 23.7667906,45.0670051 C23.7814694,44.6724855 23.7349865,44.1692362 23.7031825,43.7009 C23.668932,43.2230874 23.6283207,42.7422822 23.6244064,42.2569882 C23.6048347,41.2913878 23.6209813,40.2983556 23.8827529,39.3571944 C23.8891138,39.3347502 23.9121105,39.3212837 23.934618,39.3277676 C23.9532111,39.3332539 23.9654434,39.3517081 23.9654434,39.3701622 C23.9693578,40.3252886 24.1283779,41.2539808 24.3020768,42.1836704 L24.5780379,43.5806987 C24.6665999,44.0585113 24.7732657,44.5004132 24.8241522,45.0600225 L24.8246415,45.2934424 L24.8290451,45.3986809 C24.8407881,45.4839689 24.8525312,45.571252 24.8784637,45.6710041 C24.9225,45.8635257 24.9934475,46.0705113 25.0707557,46.2760007 C25.2214579,46.691967 25.4201107,47.1044419 25.6148493,47.5204082 C25.6926468,47.6805104 25.7807195,47.8366224 25.8624314,47.995727 C25.8570492,47.3219015 25.8438383,46.6415922 25.8296488,45.9478162 C25.823288,45.4311003 25.8218201,44.906903 25.8477526,44.375723 L25.9372932,42.836548 C26.007262,41.8140889 26.124203,40.7986124 26.2284224,39.7841335 C26.3522134,38.7965876 26.4114178,37.825002 26.4319681,36.817007 C26.4388182,36.4514155 26.4427326,36.0813352 26.4466469,35.7117536 C26.2817553,34.7092449 26.0664665,33.7037437 25.8100771,32.7092152 C25.5282444,31.6084506 25.2058005,30.5101799 24.8358952,29.4448274 C24.4175499,28.3640133 24.1503961,27.2343207 23.9634863,26.1001392 C23.8710099,25.5320509 23.8078912,24.9584763 23.7937017,24.3829067 C23.7707049,23.8083345 23.7927231,23.2277772 23.9140677,22.6606865 C23.9209178,22.6297633 23.9512539,22.6103117 23.9815901,22.6167956 C24.0119262,22.6237782 24.0314979,22.6542026 24.0256264,22.684627 C23.8039768,23.7993568 23.9365752,24.954985 24.1645856,26.0617346 C24.4077641,27.1714769 24.7595655,28.2567798 25.2395617,29.2767451 C25.714665,30.3341175 26.1051206,31.4094452 26.510255,32.4872667 C26.5205301,32.5156961 26.530316,32.5446242 26.5405911,32.5730535 C26.5797345,31.9371338 26.6320889,31.3007154 26.722608,30.6632994 C27.5142837,26.762992 26.0136228,22.6312596 26.7064614,18.5623711 C26.6981434,19.9958089 26.839549,21.4082988 27.0357554,22.8197911 C27.048477,22.7290167 27.0582629,22.6377435 27.0734309,22.5474679 C27.137039,22.1589334 27.2177723,21.774389 27.3122058,21.3938347 L27.6062707,20.2661371 L27.6082279,20.2566607 C27.6229067,20.199802 27.6806432,20.1658863 27.7369119,20.1808491 C27.7926913,20.1958119 27.8264525,20.2531694 27.812263,20.3095293 L27.5289625,21.4472021 C27.4399112,21.8237663 27.3640708,22.2033231 27.305845,22.5848749 C27.240769,23.0058288 27.2021149,23.4297753 27.1884147,23.8542205 C27.2270688,24.105097 27.2632765,24.3559736 27.3038878,24.6073489 C27.4604615,25.6128502 27.6209495,26.6208452 27.7222331,27.6507857 C27.7696945,28.1665041 27.8127523,28.6847163 27.8029664,29.2173926 C27.8112844,29.4812369 27.7819268,29.7535602 27.763823,30.0238884 L27.7055972,30.7690366 C27.5715309,32.7476197 27.7829054,34.748647 27.8430884,36.8095256 C27.8763603,37.8344785 27.8822318,38.8988335 27.7936698,39.9347591 L27.6459034,41.8395257 C27.9057179,41.1861493 28.1772754,40.5377606 28.4605759,39.893362 C28.6949471,39.3811349 28.9224682,38.8763893 29.2101723,38.3671548 C29.2219154,38.3491994 29.2302333,38.3297477 29.2409978,38.3117923 C29.234637,38.2983258 29.2282762,38.2848593 29.2233832,38.2703952 L29.2219154,38.2649088 C29.0076051,37.6110338 28.9532936,36.9416971 28.9728654,36.2972985 C28.9909692,35.6504061 29.0883384,35.0239628 29.1646681,34.3960233 C29.2043008,35.0279529 29.2243618,35.6633739 29.3202632,36.2763506 C29.3887642,36.7202474 29.4968979,37.1521741 29.6568966,37.5506837 C29.7596481,37.3427006 29.8599531,37.1327224 29.9558545,36.9157616 L31.2676483,33.8523743 C30.9931551,34.9336872 30.7250227,36.015 30.3653925,37.0783575 C30.1858221,37.6055474 29.9857013,38.1481989 29.7239297,38.6544408 C29.4924942,39.1267671 29.2899271,39.6479718 29.0927421,40.1592014 C28.69984,41.1896407 28.3534207,42.2410279 28.0016193,43.2854325 C27.8264525,43.8081335 27.6674323,44.3343259 27.5167302,44.8595207 C27.4839475,44.9817171 27.4550793,45.1024171 27.4237645,45.2246135 C27.4164251,45.4640185 27.4032142,45.6994335 27.4007678,45.9428286 L27.4130001,49.0097072 C27.4105536,49.5269219 27.3679852,50.0785511 27.3503706,50.5738203 C27.3332454,51.0810598 27.349392,51.5897955 27.3503706,52.0975337 C27.369453,53.113509 27.294102,54.1230003 27.2759981,55.1344867 C27.2114115,57.1559632 27.2197295,59.1779384 27.2084757,61.2029062 C27.2011363,62.2153901 27.1893933,63.2283728 27.1585679,64.2428517 C27.1448677,64.7495924 27.1331246,65.2573307 27.10866,65.7645701 L27.0783239,66.5256787 L27.0636451,66.9067318 C27.056795,66.9376549 27.0616879,66.9685781 27.0621772,67 C27.4374647,66.9965087 27.787309,66.989526 28.0079801,66.975062 L28.3015557,66.9561091 L28.2927484,66.6603441 C28.2917699,66.6289222 28.1997828,63.5201477 28.1997828,62.4727506 C28.1997828,61.2876955 28.4082215,60.8038978 28.6954364,60.1330648 C28.8808783,59.7011382 29.0898063,59.2118541 29.2904163,58.4482517 C29.5663775,57.3963657 30.1182997,56.1165462 30.6511395,54.8791213 C31.083185,53.8756151 31.4917444,52.9269725 31.7584089,52.1025213 C32.1816472,50.7942724 32.3333279,49.2461197 32.480605,47.7483418 C32.589228,46.6520661 32.6905116,45.6176368 32.8891645,44.6774731 C33.0878173,43.7373095 32.9791943,42.9238311 32.8744857,42.1367869 C32.8113669,41.6689496 32.746291,41.1846531 32.7448231,40.6694334" id="Fill-4" fill="#FEFEFE"></path>
            <path d="M11.9484873,35.1267045 C12.0638134,34.4386075 11.9727665,34.1785038 11.8014114,33.7775733 C11.7514523,33.6603011 11.6935558,33.5254883 11.6347254,33.346573 C11.3797939,32.5667632 11.3508457,31.8215336 11.3204967,31.0322016 C11.3092909,30.7450351 11.2980851,30.4518547 11.2761405,30.148651 C11.2541958,29.8454473 11.187895,29.5437471 11.1234617,29.2520701 C11.0478227,28.9117803 10.9768528,28.5895324 10.9777866,28.2843241 C10.9782535,28.0227169 11.0445543,27.749583 11.1145905,27.4594095 C11.2117072,27.0589802 11.3116254,26.6455206 11.2579311,26.1994854 C11.2084389,25.7875293 11.0501572,25.4332069 10.8970116,25.0899102 C10.7709465,24.8082565 10.652352,24.5416377 10.6023929,24.2619886 C10.5603713,24.0304513 10.5785807,23.7733546 10.5977239,23.5017242 C10.6182678,23.2160612 10.6388117,22.9203749 10.592121,22.6216817 C10.5230187,22.1791546 10.3488622,21.7967671 10.1807755,21.4269087 C10.0336996,21.1046608 9.89502807,20.8004548 9.834797,20.4772046 C9.78623862,20.2191055 9.80724946,19.9329414 9.82919411,19.63074 C9.85113876,19.3230258 9.87355032,19.0047872 9.82545885,18.6855463 C9.75495582,18.2219704 9.64336492,17.8295596 9.53504238,17.4511815 C9.36742259,16.8623148 9.22268126,16.3536342 9.25256334,15.6800709 C9.29411811,14.7509144 9.07187014,14.0006732 8.85709269,13.2754901 C8.72402405,12.8244433 8.58581943,12.3578604 8.51204804,11.8486786 C8.43314067,11.302912 8.41166293,10.7656651 8.3915859,10.2459589 C8.35656784,9.36741991 8.32061596,8.45830996 8.00311886,7.49908369 C7.77900326,6.82301461 7.68422103,5.85326392 7.59270716,4.91458534 C7.41574922,3.10588754 7.24906324,1.39642005 6.20272352,1.03708607 L6.09440098,1 L5.99121442,1.05011631 C5.02004681,1.52822596 4.81460751,2.94902348 4.61570491,4.32371399 C4.49244133,5.17919949 4.36404177,6.06325128 4.06382024,6.69872615 C3.96390204,6.90921467 3.87378889,7.08913224 3.79301389,7.2515091 C3.4517045,7.93609796 3.24579829,8.34955756 3.12533616,9.38746643 C3.07164179,9.84803537 2.98012792,10.2990822 2.8914155,10.7355953 C2.71819281,11.5875726 2.53890033,12.4686175 2.63601709,13.4524007 C2.66356464,13.7360591 2.69811579,13.9871418 2.7298655,14.2171757 C2.84939382,15.0897007 2.91569469,15.5703162 2.46186059,16.4463494 C1.88569673,17.5579292 1.74095541,18.589323 1.57333561,19.7830936 L1.51543908,20.1915416 C1.3987122,20.9969107 1.33894804,21.8017788 1.28105151,22.5805863 C1.25630542,22.9118551 1.23155932,23.2441263 1.20261105,23.5779009 C1.15872175,24.0795653 0.978962358,24.5561714 0.788464096,25.0603415 C0.571819013,25.6321687 0.348170319,26.2240424 0.332762371,26.871044 C0.315486793,27.6177771 0.349571041,28.3750346 0.382721474,29.107234 C0.44528708,30.4859338 0.509720315,31.9112418 0.22443983,33.2859323 C0.0115300075,34.3118132 -0.172431549,35.1978697 0.277200378,36.35706 C0.361243729,36.5725602 0.446687802,36.762501 0.528396615,36.9424186 C0.739905715,37.4085003 0.907058602,37.7768552 0.919665104,38.3717359 C0.925267995,38.6328419 0.911727677,38.8804165 0.899121174,39.1254853 C0.877176522,39.5314274 0.854764961,39.9514021 0.915929844,40.4159804 C1.10129212,41.8347732 1.2366953,43.1362939 1.01211279,44.6959137 C0.818813083,46.0360239 1.0373258,46.7792489 1.33988186,47.808638 C1.3921755,47.987052 1.44773749,48.1754894 1.50470021,48.3789616 C1.59714789,48.7102305 1.63683503,49.0475133 1.67885671,49.4053437 C1.73722015,49.9034999 1.79791812,50.4201991 2.01176176,50.9318867 C2.21486652,51.4200196 2.45812533,51.8901106 2.69344672,52.3446656 C2.95258038,52.8458288 3.22011838,53.3630291 3.42835913,53.8942621 L3.51520392,54.1177808 C3.94522574,55.2153281 4.36030651,56.2752882 4.6087013,57.3878704 C4.6334474,56.9232921 4.65585896,56.459215 4.67173381,55.9956391 C4.74036922,53.9789586 4.73850159,51.9958561 4.59702861,49.986693 C4.53679754,48.9758469 4.47843411,47.9574834 4.46349307,46.9165676 C4.45742327,46.4033765 4.46162544,45.8510947 4.50411402,45.3369013 L4.63624884,43.8103584 C4.64465318,43.7241583 4.65539205,43.6384594 4.66379639,43.5522593 C4.48216937,43.2736126 4.37758209,42.9588822 4.25945449,42.6491634 C4.07129076,42.1339676 3.93215233,41.5937138 3.78274192,41.0564669 C3.70990435,40.7868411 3.63099699,40.5202223 3.5446191,40.2566105 C3.49699453,40.1207953 3.46664554,40.0045254 3.40454685,39.852673 C3.34618341,39.7008206 3.30696318,39.5404484 3.28641925,39.379575 C3.22992344,38.7761746 3.18183197,38.2624823 3.14214483,37.6986738 L2.99927113,36.0503482 C2.98526391,35.9155353 2.97125668,35.7772143 2.95211347,35.6524247 C2.93904006,35.5647211 2.89375003,35.3637547 2.88441188,35.2309465 C2.85593053,34.9452835 2.83165134,34.6696437 2.81951174,34.3904959 L2.73406767,32.7296412 C2.71819281,32.4529991 2.69344672,32.1788629 2.6677668,31.9052278 C2.63835163,31.6391102 2.61874151,31.3424216 2.52162475,31.1274226 L2.51088588,31.1033668 C2.49921319,31.0773063 2.50948516,31.045733 2.53423126,31.0332039 C2.55757663,31.021176 2.58605799,31.0311993 2.59866449,31.0547539 C2.88161044,31.5909985 2.91195943,32.1457861 3.01141073,32.6960633 L3.23599324,34.3483981 L3.34011361,35.1632894 C3.35972372,35.3066221 3.38213529,35.3742791 3.42135552,35.558206 C3.45030378,35.7060491 3.46944699,35.8428667 3.48952401,35.9831923 C3.56703066,36.5399846 3.61792357,37.0927675 3.67395248,37.6465528 C3.73605117,38.1873079 3.75799583,38.7816873 3.81355782,39.281347 C3.85511259,39.5048658 3.97744235,39.692802 4.11331244,39.9534068 C4.24357963,40.1954686 4.38085044,40.4340222 4.52419104,40.6695689 C4.65072298,40.8805586 4.77912254,41.0915483 4.90425375,41.3040415 C4.92386387,41.1291355 4.94067254,40.9527261 4.96028265,40.7778202 C5.0630023,39.8015544 5.08961603,38.8137618 5.09428511,37.8114355 C5.10082181,35.810291 5.00137051,33.7475035 5.27357759,31.6761962 C5.3492166,31.2221424 5.39637426,30.7645805 5.42485562,30.3035104 C4.61337038,28.9448571 4.10350738,27.4799572 3.67441938,26.0080411 C4.19548816,27.0870453 4.77211893,28.1465042 5.45520461,29.0836793 C5.43652831,25.9950108 4.76184696,22.7865643 5.27077614,19.6317423 C5.24556314,21.6624554 5.55278828,23.6470615 5.87448755,25.6457001 C6.03276919,26.6460217 6.18498104,27.6508538 6.28583306,28.6767348 C6.32878855,29.1909282 6.36707496,29.7086297 6.36193898,30.2398627 C6.36614115,30.5034745 6.35120011,30.7725991 6.32692092,31.0442295 C6.30777771,31.3228762 6.28023017,31.5423857 6.25688479,31.7939696 C6.13595575,33.3671207 6.18824939,34.96533 6.23587395,36.5911032 C6.5248897,36.1225157 6.76581397,35.6133339 6.94277192,35.0675673 C7.11319316,34.5729192 7.23132075,34.0547165 7.34571309,33.5274929 C7.46570832,33.0077867 7.54648332,32.4419735 7.79207667,31.9172557 C8.21602868,30.9409899 8.58255107,29.9266357 8.83047896,28.8797059 C9.06906869,27.835783 9.21194239,26.7392381 9.02051031,25.6787769 C9.01397361,25.6477047 9.032183,25.6166326 9.06159817,25.6101175 C9.09054644,25.6031012 9.11996161,25.6241501 9.12649832,25.654721 C9.33567288,26.7402404 9.2184791,27.8538249 9.02938156,28.9268152 C8.82254153,30.001309 8.53025743,31.0562574 8.15392998,32.0821384 C7.96950152,32.5522294 7.93401655,33.085467 7.85230774,33.6277255 C7.77993707,34.1699841 7.68702248,34.7182566 7.56095745,35.2655267 C7.32516916,36.2989251 6.891879,37.3127782 6.26902439,38.2048486 C6.27836254,39.0974201 6.26902439,39.9995138 6.19665372,40.9041133 L6.01596052,43.9241224 L5.95059347,45.428113 C5.93098335,45.9247657 5.92304593,46.3863369 5.93752006,46.8854954 C5.95386182,47.5289889 5.99121442,48.1825057 6.03183538,48.8385282 C6.30824462,47.9208985 6.58652149,47.0022665 6.90682004,46.0921542 C7.10105356,45.5654317 7.28221367,45.0487325 7.56095745,44.5144926 C7.83036308,44.0594365 8.05447869,43.5768163 8.26878923,43.0726462 L9.53177403,40.0250731 C9.27964398,41.106082 9.032183,42.1870909 8.69741032,43.2510603 C8.53025743,43.7797874 8.34489515,44.3205425 8.10070253,44.8327312 C7.89899849,45.2852815 7.74024994,45.8225284 7.58663737,46.3402299 C7.28314749,47.3901667 6.99693319,48.4536349 6.72799446,49.5231171 L6.32505329,51.1288438 L6.19712063,51.6405314 C6.26155387,53.1009208 6.28396543,54.56983 6.30264173,56.0191938 L6.32972236,62.1138388 C6.33252381,63.1221791 6.3255202,64.1290159 6.30357554,65.1358526 C6.28956832,65.6390204 6.28910141,66.1421882 6.26435531,66.6463583 L6.23960921,67.4006089 L6.22746962,67.7784859 C6.21719765,67.8411313 6.24147684,67.9042778 6.20319043,67.9674244 C6.19198465,67.9779488 6.17237453,67.9889744 6.15369823,68 C6.58325314,67.9944872 6.93856975,67.9909791 6.93856975,67.9909791 L7.23972509,67.9879721 L7.22618477,67.6697335 C7.18929908,66.8017189 7.13887307,64.7790245 7.17249041,64.0057297 C7.19023289,63.5932724 7.20377321,63.1818175 7.21684662,62.7698614 C7.27054099,61.0804404 7.32656989,59.334388 7.73884921,57.6605031 C7.98911164,56.6431419 8.37757868,55.6774005 8.75297231,54.7447359 C9.07093632,53.9544016 9.39963921,53.1375057 9.65270308,52.2760063 C9.80818327,51.7472791 10.0196924,51.2240648 10.223731,50.7188924 C10.4235674,50.2237432 10.6304074,49.7125568 10.7863545,49.1913471 C10.9871247,48.5197885 11.03615,47.6883588 11.0833077,46.8844931 C11.1085207,46.4575021 11.1318661,46.0545669 11.1771561,45.6972376 C11.2411224,45.194571 11.273339,44.6929067 11.3046218,44.2062773 C11.3573824,43.3818639 11.4073415,42.6030563 11.5978397,41.8102162 L11.6454643,41.6137603 C11.8532381,40.7567713 12.0325306,40.0170545 11.924675,39.063341 C11.884054,38.7060117 11.7738639,38.3762464 11.6678759,38.0575066 C11.561421,37.7382657 11.4610358,37.4370666 11.4404919,37.1408792 C11.4157458,36.7875592 11.5478806,36.4161973 11.6879529,36.0232854 C11.7902056,35.7361189 11.8961936,35.4389292 11.9484873,35.1267045" id="Fill-6" fill="#FEFEFE"></path>
            <path d="M6,73 C6.86120183,73 7.65431091,73.1573623 8.37981711,73.4715874 C9.10483344,73.7858124 9.73922273,74.2174347 10.2834749,74.7659548 C10.8272371,75.3144748 11.2495101,75.9514175 11.549804,76.6772824 C11.8496081,77.4031472 12,78.1774697 12,78.9997502 C12,79.8230298 11.8496081,80.5973523 11.549804,81.3232172 C11.2495101,82.0490821 10.8272371,82.6860247 10.2834749,83.2345448 C9.73922273,83.7830648 9.10483344,84.2146871 8.37981711,84.5289122 C7.65431091,84.8431373 6.86120183,85 6,85 C5.13879817,85 4.34519922,84.8431373 3.62018289,84.5289122 C2.89516656,84.2146871 2.26077727,83.7830648 1.71652515,83.2345448 C1.1727629,82.6860247 0.750489876,82.0490821 0.45019595,81.3232172 C0.149902025,80.5973523 0,79.8230298 0,78.9997502 C0,78.1774697 0.149902025,77.4031472 0.45019595,76.6772824 C0.750489876,75.9514175 1.1727629,75.3144748 1.71652515,74.7659548 C2.26077727,74.2174347 2.89516656,73.7858124 3.62018289,73.4715874 C4.34519922,73.1573623 5.13879817,73 6,73 M6,74.5091795 C5.15006532,74.5091795 4.39075767,74.7030099 3.72256695,75.0916698 C3.05339647,75.4798301 2.52677988,76.0143624 2.14173743,76.6947671 C1.75620509,77.3741726 1.56368387,78.1429999 1.56368387,78.9997502 C1.56368387,79.8574997 1.75620509,80.62283 2.14173743,81.2972399 C2.52677988,81.9716498 3.05339647,82.5056825 3.72256695,82.8998376 C4.39075767,83.2944923 5.15006532,83.4913201 6,83.4913201 C6.84993468,83.4913201 7.60875245,83.2944923 8.27743305,82.8998376 C8.94611365,82.5056825 9.47322012,81.9716498 9.85826257,81.2972399 C10.243305,80.62283 10.4363161,79.8574997 10.4363161,78.9997502 C10.4363161,78.1429999 10.243305,77.3741726 9.85826257,76.6947671 C9.47322012,76.0143624 8.94611365,75.4798301 8.27743305,75.0916698 C7.60875245,74.7030099 6.84993468,74.5091795 6,74.5091795" id="Fill-8" fill="#FEFEFE"></path>
            <polygon id="Fill-10" fill="#FEFEFE" points="32 74 32 85 31.3916271 85 23.6101258 77.1360908 23.6101258 85 22 85 22 74 22.6083729 74 30.3898742 81.9629436 30.3898742 74"></polygon>
            <path d="M47.8689975,74 L53,85 L51.2296624,85 L50.0820376,82.3729558 L44.9344988,82.3729558 L43.7708101,85 L42,85 L47.131475,74 L47.8689975,74 Z M47.5245683,76.4959551 L45.5411477,80.9773834 L49.4753887,80.9773834 L47.5245683,76.4959551 Z" id="Fill-12" fill="#FEFEFE"></path>
        </g>
    </g>
</svg>