<?xml version="1.0" standalone="no"?>
<!DOCTYPE svg PUBLIC "-//W3C//DTD SVG 1.1//EN" "http://www.w3.org/Graphics/SVG/1.1/DTD/svg11.dtd" >
<svg xmlns="http://www.w3.org/2000/svg" xmlns:xlink="http://www.w3.org/1999/xlink" version="1.1">
<metadata>
Created by FontForge 20170731 at Wed Jun 23 04:39:50 2021
 By Aleksey,,,
Rakel Tomas
</metadata>
<defs>
<font id="SilkSerif-Regular" horiz-adv-x="1021" >
  <font-face 
    font-family="Silk Serif"
    font-weight="400"
    font-stretch="normal"
    units-per-em="2048"
    panose-1="0 0 5 0 0 0 0 0 0 0"
    ascent="1638"
    descent="-410"
    x-height="922"
    cap-height="1434"
    bbox="-199 -1235 2312 1862.86"
    underline-thickness="102"
    underline-position="-307"
    unicode-range="U+0020-2265"
  />
<missing-glyph horiz-adv-x="937" 
d="M768 1434v-1874h-594v1874h594zM625 1309h-310v-62h121v-69h-123v-64h312v64h-125v69h125v62zM500 1067h-187v-195h312v64h-125v131zM436 1004v-68h-61v68h61zM625 821h-312v-61h123v-70h-123v-61h187v131h125v61zM625 709h-62v-123h-250v-66h312v189zM625 479h-189v-104
h64v43h63v-88h-188v149h-62v-211h312v211zM625 156h-312v-211h312v211zM563 94v-88h-188v88h188zM625 -98h-312v-64h131l-131 -88v-61h312v61h-193l131 88h62v64z" />
    <glyph glyph-name=".notdef" horiz-adv-x="937" 
d="M768 1434v-1874h-594v1874h594zM625 1309h-310v-62h121v-69h-123v-64h312v64h-125v69h125v62zM500 1067h-187v-195h312v64h-125v131zM436 1004v-68h-61v68h61zM625 821h-312v-61h123v-70h-123v-61h187v131h125v61zM625 709h-62v-123h-250v-66h312v189zM625 479h-189v-104
h64v43h63v-88h-188v149h-62v-211h312v211zM625 156h-312v-211h312v211zM563 94v-88h-188v88h188zM625 -98h-312v-64h131l-131 -88v-61h312v61h-193l131 88h62v64z" />
    <glyph glyph-name=".null" horiz-adv-x="0" 
 />
    <glyph glyph-name="nonmarkingreturn" horiz-adv-x="682" 
 />
    <glyph glyph-name="space" unicode=" " horiz-adv-x="565" 
 />
    <glyph glyph-name="exclam" unicode="!" horiz-adv-x="466" 
d="M229 287q0 108 -10.5 235.5t-24 233t-28 212.5t-21 188t-3 145.5t25 98.5t63.5 34q45 0 68 -34t26 -98.5t-4 -145.5t-22.5 -188t-30.5 -212.5t-27 -233t-12 -235.5zM229 287v-8v8zM227 180q38 0 65 -28t27 -66q0 -37 -27 -64.5t-65 -27.5t-66 27.5t-28 64.5q0 38 28 66
t66 28z" />
    <glyph glyph-name="quotedbl" unicode="&#x22;" horiz-adv-x="487" 
d="M250 1483q32 1 45.5 -24t7.5 -64l-47 -305l-2 6v-6l-53 309q-6 36 8 60t41 24z" />
    <glyph glyph-name="numbersign" unicode="#" horiz-adv-x="1273" 
d="M1217 879h-287l-121 -371h285l-4 -23h-289l-162 -497h-33l162 497h-373l-162 -497h-32l161 497h-329l4 23h334l121 371h-338l4 22h340l161 496h33l-162 -496l375 -2l162 498h31l-162 -498h285zM776 508l121 371h-373l-121 -371h373z" />
    <glyph glyph-name="dollar" unicode="$" horiz-adv-x="1153" 
d="M668 829q107 -21 184.5 -66t117.5 -106t56 -128t10 -142q-13 -148 -118 -248.5t-250 -128.5v-104h-21v743q-63 14 -86 17q-30 4 -45 8v-768h-18v98h-4q-77 8 -133.5 31.5t-120.5 66.5q-160 108 -150 308q0 41 11.5 80.5t42.5 71.5t77 32q41 0 65.5 -25t25 -56t-8.5 -60
q-12 -22 -35.5 -39.5t-41 -35t-21.5 -46.5q-15 -101 45.5 -181t175.5 -114q38 -13 72 -17v658q-90 21 -157 63.5t-103 99t-52 117.5t-12 127q12 134 99.5 224t224.5 118v82h18v-651q59 -15 105 -20q4 -1 13 -2t13 -2v675h21v-71q141 -12 224 -80t107 -178q15 -68 -9 -123.5
t-81 -55.5q-52 0 -81.5 32t-26.5 71q2 25 18.5 46.5t32 46t14.5 60.5q-8 98 -123 142q-40 13 -75 18v-588zM389 1372q-41 -24 -70.5 -64.5t-44 -88t-9 -100t29.5 -100t76.5 -89t126.5 -66.5v549q-62 -15 -109 -41zM948 305q9 260 -280 340v-618q119 23 197.5 96t82.5 182z
" />
    <glyph glyph-name="percent" unicode="%" horiz-adv-x="1351" 
d="M401 870q-40 -3 -80.5 5t-86 29.5t-81.5 71t-51 120.5q-25 123 34.5 220t178.5 128q92 18 167.5 0.5t126.5 -82.5t61 -166q13 -137 -64.5 -227.5t-204.5 -98.5zM578 1208q-23 125 -90 188.5t-166 35.5q-46 -15 -76.5 -51.5t-41 -80.5t-13.5 -91.5t6 -84.5
q23 -136 90 -192.5t145 -44.5q97 10 133 102.5t13 218.5zM172 0l940 1436h35l-936 -1436h-39zM977 -6q-40 -3 -80.5 5t-86 29.5t-81.5 70.5t-51 120q-25 123 34.5 220t178.5 128q141 32 240 -32t114 -216q13 -137 -64 -227t-204 -98zM1153 332q-23 125 -90.5 188t-165.5 35
q-46 -15 -77 -51.5t-41.5 -80.5t-13.5 -92t7 -85q23 -135 90 -191.5t146 -46.5q50 6 84.5 35.5t50 74t19.5 100.5t-9 114z" />
    <glyph glyph-name="ampersand" unicode="&#x26;" horiz-adv-x="1554" 
d="M1327 88q66 -3 119.5 36t71.5 112q-2 -40 -17.5 -81.5t-42.5 -80t-72.5 -64t-101.5 -26.5q-86 -2 -149.5 27.5t-122.5 115.5l-113 162q-46 -62 -77 -101t-75.5 -84t-85 -70t-93 -42.5t-111.5 -18.5q-149 -3 -251.5 84t-101.5 246q1 40 8.5 76.5t25 69.5t35.5 60.5t49 56
t54 49t64 48t66 43.5t71 45t70 44l-23 32q-86 122 -108 165q-50 95 -49 200q1 70 28.5 125t74 88.5t103.5 51t121 18.5q113 2 200.5 -63.5t90.5 -184.5q3 -187 -178 -301q-18 -13 -59.5 -37.5t-63.5 -38.5l297 -418q45 57 92 123q79 109 101.5 184.5t-5 117.5t-100.5 63h410
q-58 0 -136 -54q-49 -33 -93.5 -89.5t-110.5 -155t-115 -162.5q-14 -16 -33 -43l117 -164q34 -46 51 -67t44.5 -47t56.5 -37t67 -13zM502 1210q5 -79 39.5 -144t117.5 -181l15 -19q36 25 65 54q73 69 106 147t29 180q-3 85 -49.5 150t-132.5 65q-97 2 -148.5 -61.5
t-41.5 -190.5zM504 109q180 -8 379 204l-326 467l-51 -39q-59 -47 -97.5 -83.5t-75.5 -84t-55 -100.5t-18 -113q0 -106 62.5 -177t181.5 -74z" />
    <glyph glyph-name="quotesingle" unicode="'" horiz-adv-x="329" 
d="M168 1090l-53 309q-8 35 5.5 59.5t41.5 24.5q32 1 45.5 -24t7.5 -64z" />
    <glyph glyph-name="parenleft" unicode="(" horiz-adv-x="524" 
d="M451 -375q-17 11 -53.5 48.5t-91 119t-101.5 181.5t-81 248.5t-34 307.5q0 122 19 238t49 204t67 166t74 131.5t70 92.5t54 57.5t26 18.5q-10 -13 -26.5 -37t-58.5 -109.5t-74 -182.5t-58.5 -254t-26.5 -325q0 -157 25.5 -308t61.5 -254.5t72 -184t62 -119.5z" />
    <glyph glyph-name="parenright" unicode=")" horiz-adv-x="532" 
d="M47 -375q17 11 53.5 48.5t91 119t101.5 181.5t81 248.5t34 307.5q0 122 -19 238t-49 204t-67 166t-74 131.5t-70 92.5t-54 57.5t-26 18.5q10 -13 26.5 -37t58.5 -109.5t74 -182.5t58.5 -254t26.5 -325q0 -157 -25.5 -308t-61.5 -254.5t-72 -184t-62 -119.5z" />
    <glyph glyph-name="asterisk" unicode="*" horiz-adv-x="735" 
d="M365 1419q24 1 33.5 -20.5t4.5 -57.5l-34 -174l-90 -163q-17 -26 -39 -34t-39 5q-18 18 -9.5 41.5t35.5 44.5l140 106l-181 39q-32 4 -47.5 23t-7.5 39q11 23 38.5 22t51.5 -22l146 -101l2 2l-41 181q-6 31 4.5 50t32.5 19zM602 1266q9 -24 -7 -41.5t-48 -22.5l-178 -35
l153 107q26 17 48.5 14.5t31.5 -22.5zM532 971q-19 -15 -41.5 -4t-37.5 41l-84 159l145 -116q51 -42 18 -80z" />
    <glyph glyph-name="plus" unicode="+" horiz-adv-x="1107" 
d="M991 727v-22h-424v-431h-22v431h-428v22h428v422h22v-422h424z" />
    <glyph glyph-name="comma" unicode="," horiz-adv-x="407" 
d="M250 174q34 -18 47.5 -73t5.5 -120t-43.5 -132t-91.5 -105q50 42 76.5 123t11.5 151q-18 -15 -47 -18q-40 -5 -70 19.5t-33 64.5q-4 40 20 69.5t62 32.5q35 3 62 -12z" />
    <glyph glyph-name="hyphen" unicode="-" horiz-adv-x="860" 
d="M117 563h626v-22h-626v22z" />
    <glyph glyph-name="period" unicode="." horiz-adv-x="421" 
d="M213 -6q-38 0 -66 27.5t-28 64.5q0 38 28 66t66 28t66 -28t28 -66q0 -37 -28 -64.5t-66 -27.5z" />
    <glyph glyph-name="slash" unicode="/" horiz-adv-x="765" 
d="M59 -12l559 1448h29l-559 -1448h-29z" />
    <glyph glyph-name="zero" unicode="0" horiz-adv-x="1329" 
d="M690 1440q109 2 197.5 -41t146 -114.5t96 -169t55 -200.5t15.5 -213q-1 -109 -25 -215t-71 -197t-110 -160.5t-147 -109t-177 -38.5q-113 1 -206.5 46.5t-155 120.5t-104 172.5t-60.5 199.5t-17 204q3 203 73 364t197.5 254.5t292.5 96.5zM1038 690q-15 310 -118 509
t-256 208q-120 8 -206 -79t-125 -239t-30 -344q8 -194 60 -356t140 -262t195 -109q94 -9 165.5 50t109.5 161t54.5 220t10.5 241z" />
    <glyph glyph-name="one" unicode="1" horiz-adv-x="653" 
d="M412 147q0 -41 16 -71.5t35.5 -44t46.5 -21.5t39 -9t24 -1h-471q11 0 22.5 1t37 9t44 21.5t33.5 44t15 71.5v826q-2 51 0 168q0 55 -10 87.5t-30.5 42t-45 4.5t-59.5 -22l305 215q0 -112 -1 -203t-1 -143v-114v-861z" />
    <glyph glyph-name="two" unicode="2" horiz-adv-x="1083" 
d="M610 123q90 0 146.5 6t109 25.5t84 57.5t51.5 99l-96 -311h-850q25 19 69 54t162.5 148.5t217.5 231.5q69 84 114 148.5t82.5 140t52.5 153.5t11 166q-5 94 -57 165t-132.5 102t-166.5 16q-62 -11 -118 -39.5t-92 -62t-63 -65t-39 -52.5l-12 -21q2 7 6.5 18.5t21 46.5
t36 67t53.5 72t72 70.5t91.5 55t112.5 31.5q87 11 162 -7t126 -55.5t87 -89.5t53 -109t17 -114q0 -52 -9.5 -99.5t-33 -96t-47.5 -87.5t-68.5 -94t-80 -95.5t-98.5 -112t-108 -124.5q-138 -162 -139 -205q-1 -25 35 -31q21 -3 82 -3h22h133z" />
    <glyph glyph-name="three" unicode="3" horiz-adv-x="1132" 
d="M760 817q133 -37 209 -138t73 -259q-2 -149 -83 -258.5t-217.5 -155t-295.5 -12.5q-132 28 -217 122.5t-125 231.5q21 -38 39 -65.5t53 -66.5t73 -64t97 -45.5t128 -24.5q153 -9 257.5 75t110.5 242q7 172 -103 273.5t-265 77.5q-3 0 -8 -1t-7 -1l21 6q27 11 52.5 24
t68 43t74 66t57.5 93.5t32 123.5q5 69 -19.5 128.5t-83.5 100t-142 43.5q-109 6 -189 -32.5t-149 -118.5q22 39 51.5 73.5t72.5 69.5t103 57.5t129 26.5q94 6 168.5 -18t118.5 -69.5t67 -98.5t25 -109q8 -232 -176 -340z" />
    <glyph glyph-name="four" unicode="4" horiz-adv-x="1249" 
d="M1116 330h-227v-256l-150 -168v424h-665l815 1143v-1006h360zM739 467v635q0 64 -22 66.5t-53 -42.5l-412 -585q-51 -73 24 -76z" />
    <glyph glyph-name="five" unicode="5" horiz-adv-x="1105" 
d="M199 930q-11 -56 -2 -62q7 -1 8 -1.5t11 5.5l9 5q90 64 163.5 85t164.5 23q181 3 300.5 -103.5t119.5 -303.5q0 -87 -39.5 -176.5t-118.5 -168.5q-60 -60 -155.5 -116.5t-189 -94t-178.5 -66.5t-138 -42l-52 -14q137 45 255.5 107t218 141.5t158.5 181t61 211.5
q1 57 -13 107.5t-43.5 93.5t-80.5 70.5t-119 33.5q-76 10 -146.5 -2t-117 -36t-82 -49t-51.5 -44l-17 -19l158 740h639l-109 -148h-446q-28 0 -47.5 -6.5t-30.5 -15t-19.5 -28.5t-12 -34t-9.5 -45z" />
    <glyph glyph-name="six" unicode="6" horiz-adv-x="1202" 
d="M403 1239q69 74 146.5 127t133.5 77t118 36.5t85 13.5t49 0h5q-45 -5 -94 -20t-111 -46t-124.5 -89t-112.5 -136q-112 -174 -150 -350q60 51 146 70q87 20 168 19.5t153.5 -30.5t129 -80.5t93.5 -130.5t47 -180q23 -224 -107.5 -380.5t-338.5 -159.5q-409 -5 -500 380
q-13 55 -17 124t6.5 164.5t39 190t88.5 201.5t147 199zM686 4q74 8 126.5 59t75.5 126t30.5 168t-9.5 186q-19 130 -78 223.5t-146.5 130.5t-184.5 2q-56 -21 -96.5 -64.5t-62 -97t-31.5 -117.5t-8.5 -124t11.5 -119q16 -92 48.5 -162.5t71 -111.5t85 -66t87.5 -31.5
t81 -1.5z" />
    <glyph glyph-name="seven" unicode="7" horiz-adv-x="1101" 
d="M1073 1438q-19 -26 -51 -73t-116.5 -190t-151.5 -284q-24 -51 -44.5 -100.5t-35.5 -87.5t-28.5 -86t-21.5 -74.5t-16 -76t-12 -67.5t-9 -72t-6 -66t-5 -74t-5 -72q-6 -91 -63 -117q-44 -21 -83 10q-39 32 -34 94q6 53 21 112.5t29 105.5t49.5 125t53.5 118t72 141
t73 137.5t87 159.5q34 61 56 104.5t35.5 78t16.5 56t-1.5 37.5t-18.5 23t-34.5 11.5t-49.5 3.5t-64 0h-44h-187q-70 0 -117.5 -3.5t-94.5 -15t-78.5 -32.5t-58 -55.5t-44.5 -84.5l80 314h901z" />
    <glyph glyph-name="eight" unicode="8" horiz-adv-x="1159" 
d="M805 748q51 -25 96.5 -63t84.5 -90t58 -121.5t11 -145.5q-11 -120 -98 -207t-215.5 -122.5t-268.5 -16.5q-182 23 -282 133.5t-78 271.5q7 57 32.5 107t57 84t81.5 67t89.5 53t97.5 45q-30 14 -65 36t-76.5 60.5t-73 83t-50 106.5t-11.5 128q10 104 78 179t165 106.5
t205 23.5q160 -9 253.5 -101.5t88.5 -227.5q-9 -207 -315 -320zM332 1171q6 -119 85.5 -197.5t231.5 -148.5q95 72 147 145t58 163q4 75 -21.5 144.5t-87.5 119.5t-149 53q-132 4 -200.5 -75.5t-63.5 -203.5zM492 733q-208 -133 -226 -348q-5 -70 14 -136t58.5 -120.5
t105.5 -88.5t148 -38q88 -5 154 19.5t102.5 68.5t53 101.5t12 119.5t-26.5 123q-15 42 -44.5 80t-61.5 64t-76 52t-76.5 41t-75.5 34t-61 28z" />
    <glyph glyph-name="nine" unicode="9" horiz-adv-x="1161" 
d="M772 217q-240 -258 -541 -258q45 5 95 21t111.5 48t125.5 90.5t115 135.5q114 175 151 358q-54 -44 -143 -69q-85 -20 -165.5 -19.5t-152.5 30t-127.5 79.5t-93 129t-47.5 178q-14 145 42 267t162.5 192.5t238.5 75.5q48 2 93.5 -3t97 -18.5t97 -42t86 -69t72 -103
t47.5 -141.5q12 -60 17.5 -121.5t-2.5 -157.5t-34.5 -187.5t-89 -203t-155.5 -211.5zM494 1452q-71 -12 -121 -62.5t-72.5 -124t-29 -164t9.5 -183.5q14 -96 51.5 -173.5t90.5 -125t120 -63.5t139 11q71 26 116 86t59.5 137.5t14.5 150t-12 142.5q-13 78 -36.5 141
t-52 103.5t-63 70t-70 41.5t-73 17t-71.5 -4z" />
    <glyph glyph-name="colon" unicode=":" horiz-adv-x="446" 
d="M227 750q-38 0 -66 28t-28 66t28 65t66 27t65 -27t27 -65t-27 -66t-65 -28zM227 -6q-38 0 -66 27.5t-28 64.5q0 38 28 66t66 28t65 -28t27 -66q0 -37 -27 -64.5t-65 -27.5z" />
    <glyph glyph-name="semicolon" unicode=";" horiz-adv-x="425" 
d="M238 750q-40 0 -68.5 28t-28.5 66t28.5 66t68.5 28q38 0 65 -28t27 -66t-27 -66t-65 -28zM336 123q15 -37 15 -88.5t-14 -105t-46 -104t-78 -81.5q50 42 77.5 124t12.5 150q-21 -15 -49 -18q-39 -4 -68 20t-34 64q-4 40 19.5 69.5t61.5 32.5q37 4 65.5 -13.5t37.5 -49.5z
" />
    <glyph glyph-name="less" unicode="&#x3c;" horiz-adv-x="868" 
d="M733 963v-25l-651 -268l651 -283v-25l-710 310z" />
    <glyph glyph-name="equal" unicode="=" horiz-adv-x="1097" 
d="M117 879h864v-23h-864v23zM117 559h864v-22h-864v22z" />
    <glyph glyph-name="greater" unicode="&#x3e;" horiz-adv-x="944" 
d="M117 963v-25l651 -268l-651 -283v-25l710 310z" />
    <glyph glyph-name="question" unicode="?" horiz-adv-x="913" 
d="M426 272q0 88 39.5 181.5t95.5 173.5t112 158.5t95.5 164.5t40.5 162q1 160 -109.5 248.5t-281.5 77.5q-79 -5 -144 -37t-104 -78.5t-59.5 -98.5t-18.5 -102q0 -50 26.5 -85.5t65.5 -35.5q45 0 71.5 33.5t20.5 81.5q-3 25 -30.5 69.5t-28.5 67.5q-1 78 60 120t143 44
q106 0 170 -76.5t69 -207.5q2 -71 -27 -154.5t-68.5 -162t-77.5 -162t-56.5 -183.5t-3.5 -199zM428 -6q-38 0 -66 27.5t-28 64.5q0 38 28 66t66 28t65 -28t27 -66q0 -37 -27 -64.5t-65 -27.5z" />
    <glyph glyph-name="at" unicode="@" horiz-adv-x="1439" 
d="M770 283l152 403q27 86 22 133q-2 39 -23.5 63.5t-58.5 24.5q-60 0 -138 -65t-134 -166q-84 -156 -84 -289q0 -47 17 -80t50 -39q39 -8 78 6.5t67 40.5t50.5 53.5t33.5 47.5l11 20q0 -2 -12.5 -29t-37.5 -68t-57.5 -80t-79 -67t-94.5 -28q-71 0 -108 48t-37 128
q0 132 70 264q42 79 90.5 139t92 93.5t90 54t82.5 26t71 3.5q73 -4 114 -66l93 51l-201 -590q-8 -20 -12 -36.5t-5.5 -36.5t9.5 -31t34 -10q70 4 134.5 37.5t116 91.5t82 145.5t30.5 190.5q0 79 -33.5 158t-92.5 142.5t-147.5 103t-189.5 38.5q-121 -1 -224 -40.5
t-174.5 -104.5t-122 -150t-74 -175.5t-23.5 -182.5q0 -230 137 -361t356 -129q364 0 584 289q-46 -74 -104.5 -136.5t-136 -116.5t-179 -84.5t-215.5 -31.5q-134 -1 -241 45.5t-173.5 125t-101.5 177t-35 207.5q0 149 53.5 284.5t147 236t229 161t291.5 62.5
q112 1 210.5 -33.5t170.5 -97.5t112.5 -158t36.5 -207q-3 -104 -36 -193.5t-82.5 -149.5t-111.5 -104t-122 -64.5t-115 -22.5q-65 -3 -93.5 32.5t-8.5 96.5z" />
    <glyph glyph-name="A" unicode="A" horiz-adv-x="1277" 
d="M1133 178q22 -56 53 -94.5t62.5 -54.5t51 -22t37.5 -7h-549q4 0 10.5 1t25 6t34 12.5t32.5 22t26 33t8.5 47.5t-13.5 64l-145 400h-473l-133 -350q-22 -64 -19 -114t43 -83t115 -39h-405q71 5 134 67t105 175l488 1253q2 -8 6 -18zM535 1149q-26 0 -81 -144
q-2 -4 -3 -6.5t-2 -5.5l-146 -387l455 2l-152 426q-25 66 -41 90.5t-30 24.5zM1346 0h-9h9z" />
    <glyph glyph-name="B" unicode="B" horiz-adv-x="1308" 
d="M821 745q53 0 102.5 -8t105 -33t96.5 -64.5t68 -108t26 -158.5q0 -72 -18.5 -130t-48 -96.5t-74 -67t-88 -43.5t-100 -24t-99 -11.5t-95.5 -2.5l-659 2q15 0 32.5 1.5t49.5 11.5t56 27t42.5 52t18.5 82v1092q-1 47 -22.5 81.5t-47 50.5t-59 25t-47 10t-23.5 1l618 4
q229 0 346 -82t117 -264q0 -148 -79.5 -241.5t-217.5 -105.5zM426 1419v-671q153 0 223 8q68 5 120 29t83 57.5t50 78.5t25 88t5 91q-2 83 -27 142.5t-66 94.5t-107.5 54.5t-137 25t-168.5 2.5zM1020 358q1 186 -97 273t-278 92q-88 6 -219 2v-541q0 -34 8 -61.5t19.5 -44.5
t31.5 -29.5t36.5 -18.5t43 -9.5t42 -4t42.5 -0.5q75 -2 138 14.5t116.5 54.5t84.5 107.5t32 165.5z" />
    <glyph glyph-name="C" unicode="C" horiz-adv-x="1456" 
d="M291 741q14 -185 101 -328t222.5 -219t296.5 -77q72 0 136.5 14.5t109.5 38.5t82.5 53t60.5 58.5t39 53.5t23 39l6 15q-2 -7 -6.5 -19.5t-21.5 -49.5t-38.5 -71t-59.5 -77.5t-82 -77t-109 -61t-138 -37.5q-145 -20 -275.5 9.5t-226.5 97t-167.5 161.5t-108.5 204t-39 224
q-3 141 33.5 261t101.5 206.5t154 149.5t191.5 97t214.5 42q135 9 268 -16q76 -15 140 -40t90 -43l26 -18l-2 -293q-15 30 -25 48t-41 63t-63 78t-84.5 73t-112.5 68q-108 52 -228 50t-224 -62q-128 -75 -194.5 -241t-49.5 -374z" />
    <glyph glyph-name="D" unicode="D" horiz-adv-x="1454" 
d="M1352 766q3 -157 -38.5 -295t-121.5 -242.5t-205.5 -166t-281.5 -62.5h-123h-564q11 0 23.5 1.5t37 5.5t45 15.5t41 28.5t32.5 47t12 68v1094q0 48 -18 83.5t-41 52t-54.5 26t-47 11t-30.5 1.5h580q142 2 251.5 -15t205 -62.5t158.5 -120.5t99.5 -193t39.5 -277zM709 25
q149 9 249 104t145.5 256.5t41.5 382.5q-2 152 -33.5 266.5t-81.5 184.5t-123 114t-147.5 61t-165.5 19q-137 0 -184 -4v-1216q0 -101 46.5 -135.5t149.5 -34.5q89 0 103 2z" />
    <glyph glyph-name="E" unicode="E" horiz-adv-x="1333" 
d="M1044 143q73 53 127 109t71 86l18 29l-89 -367h-1130q17 0 40 5t58 19.5t58.5 52.5t23.5 93v1100q0 45 -17 78t-38.5 49t-51 25t-44.5 10.5t-29 1.5h1059l71 -328q-17 33 -75.5 98t-128.5 113q-60 39 -105.5 57.5t-120.5 28.5t-200 10h-127v-657h114q50 1 93 12.5
t71.5 29t51 38.5t35 41.5t21 38t10.5 28.5l3 10v-424q-2 8 -5.5 21.5t-23.5 48.5t-48 61.5t-83.5 48.5t-124.5 23h-114v-538q0 -47 10.5 -81t25.5 -52t37.5 -28.5t39.5 -13t38 -2.5h129q106 0 189 34t161 91z" />
    <glyph glyph-name="F" unicode="F" horiz-adv-x="1241" 
d="M1106 1434l76 -334q-9 29 -70.5 101.5t-120.5 111.5q-42 27 -69.5 40.5t-77.5 30t-118.5 23t-164.5 6.5h-143v-143v-115v-399h141q67 2 120.5 23t82 50t47 58t23.5 49l6 20v-432q-1 4 -3 11.5t-10.5 29t-20.5 41.5t-34.5 44t-50 41t-69.5 29.5t-91 12.5h-141v-573
q0 -43 16.5 -75t38 -47.5t49.5 -24.5t43.5 -11t28.5 -2h-541q13 0 28 1.5t43.5 10.5t49 24.5t37 48t16.5 75.5v37v106v936v35q0 44 -16.5 76.5t-37 47.5t-49 24t-43 10.5t-28.5 1.5h1053z" />
    <glyph glyph-name="G" unicode="G" horiz-adv-x="1525" 
d="M1473 594l-15 -2.5t-33 -12.5t-42 -27t-33 -48.5t-15 -75.5v-448q-17 65 -67.5 121t-89.5 61q-3 -3 -23 -23.5t-29.5 -29.5t-34.5 -30t-44 -32.5t-51 -27.5t-62.5 -24.5t-71.5 -15t-84 -6.5q-130 0 -241 37.5t-192 104.5t-138 159.5t-85 202.5t-28 232q0 130 35 242
t96.5 193.5t143.5 144t176.5 98t194.5 49t200 4.5q32 -3 64 -8t58 -10.5t53 -13.5t46.5 -14.5t41.5 -15.5t35.5 -15t30.5 -14.5t24 -12.5t19 -11t13 -8l-4 -322q-10 25 -33 63.5t-62 93t-99 108t-126 86.5q-120 60 -238 61t-210 -51q-134 -67 -202.5 -235t-51.5 -406
q10 -154 58.5 -281.5t122.5 -211t165.5 -131t190.5 -52.5q146 -6 235 63q121 85 121 312v10q0 44 -19 77.5t-46.5 50t-55 27t-46.5 13.5l-19 2h467z" />
    <glyph glyph-name="H" unicode="H" horiz-adv-x="1488" 
d="M1278 174q0 -48 16.5 -83t37.5 -52t50 -26.5t43.5 -11t28.5 -1.5h-539q13 0 26.5 1.5t40.5 10.5t47 24.5t37 48.5t19 77v573h-696v-561q0 -48 16.5 -83t37 -52t49 -26.5t43 -11t28.5 -1.5h-538q13 0 26.5 1.5t40.5 10.5t47.5 24.5t37.5 48.5t20 77v1098q0 48 -16.5 83
t-37 52t-49 26.5t-43 11t-28.5 1.5h540q-14 0 -28.5 -1.5t-43 -11t-49 -26.5t-37 -52t-16.5 -83v-502h696v502q0 48 -16 83t-36.5 52t-48.5 26.5t-42.5 11t-28.5 1.5h541q-14 0 -28.5 -1.5t-43.5 -11t-50 -26.5t-37.5 -52t-16.5 -83v-1086z" />
    <glyph glyph-name="I" unicode="I" horiz-adv-x="686" 
d="M432 174q0 -47 17.5 -82t39.5 -52t52 -27t45.5 -11.5t29.5 -1.5h-557q13 0 29 1.5t45.5 11.5t52 27t39.5 52t17 82v1086q0 48 -17.5 83t-39 52t-51.5 26.5t-45.5 11t-29.5 1.5h557q-14 0 -29.5 -1.5t-45.5 -11t-52 -26.5t-39.5 -52t-17.5 -83v-1086z" />
    <glyph glyph-name="J" unicode="J" horiz-adv-x="899" 
d="M506 1274q0 44 -15.5 76.5t-35 47.5t-46.5 24t-41.5 10.5t-27.5 1.5h524q-13 0 -27.5 -1.5t-42 -10.5t-47.5 -24t-35.5 -47.5t-15.5 -76.5v-934q0 -83 -22 -146.5t-55.5 -100t-81 -59.5t-91.5 -30.5t-94 -7.5q-44 0 -92 10t-101 33t-88 71t-36 113q0 41 25.5 74t68.5 33
q60 0 83.5 -45.5t8.5 -106.5q-15 -72 24.5 -119t106.5 -47q89 0 121.5 75t32.5 241v946z" />
    <glyph glyph-name="K" unicode="K" horiz-adv-x="1302" 
d="M389 160q0 -43 16 -75t37.5 -47.5t49 -24.5t43 -11t28.5 -2h-540q13 0 28 2t42.5 11t48.5 24.5t37 47.5t16 75v1114q0 44 -16 76.5t-36.5 47.5t-48.5 24t-42.5 10.5t-28.5 1.5h540q-14 0 -28.5 -1.5t-43 -10.5t-49 -24t-37 -47.5t-16.5 -76.5v-1114zM1090 242
q45 -58 91 -104.5t79.5 -71.5t60 -41.5t39.5 -21.5l14 -5l-327 4q-66 63 -152 174l-356 467q-17 21 -37.5 27t-38 0t-33 -15t-24.5 -17l-9 -9l469 559q46 59 44.5 111t-39 89t-93.5 42h459h-3q-3 -1 -10.5 -3t-17.5 -5t-24 -8.5t-30 -13t-35.5 -19t-40 -25t-44 -32
t-47.5 -40.5q-32 -29 -86.5 -93t-124 -150.5t-86.5 -106.5q-30 -32 -38.5 -61.5t-0.5 -55t31 -55.5z" />
    <glyph glyph-name="L" unicode="L" horiz-adv-x="1243" 
d="M649 18q95 0 188 31.5t164.5 82t124 112.5t74.5 125l-78 -369h-1097q9 0 18.5 0.5t28.5 4.5t35.5 10.5t35.5 20t32.5 32t22.5 48.5t9 66v1078q0 48 -16.5 83t-37 52t-49 26.5t-43 11t-28.5 1.5h540q-14 0 -28.5 -1.5t-43.5 -11t-50 -26.5t-37.5 -52t-16.5 -83v-1059
q0 -101 42 -142t122 -41h88z" />
    <glyph glyph-name="M" unicode="M" horiz-adv-x="1951" 
d="M1726 182q0 -48 17.5 -84t40 -54t52 -28.5t46.5 -13t29 -2.5h-563q12 0 28.5 2.5t45 13t50.5 28.5t39 54t17 84v901q0 67 -5.5 94t-19.5 29q-3 0 -6.5 -1.5t-6.5 -4.5t-5.5 -6.5t-6 -9.5t-6.5 -11t-7 -13.5t-7 -15t-7.5 -17.5t-8.5 -19l-481 -1128l-605 1159
q-41 77 -64.5 62.5t-23.5 -97.5l-2 -823q0 -79 26 -136.5t57.5 -84t73 -42t58.5 -17t27 -1.5h-492q11 0 28 2t55.5 18t68.5 43t54 85t24 137v839q0 47 -7 87.5t-19 70t-27.5 53.5t-32 39.5t-33.5 27t-32.5 18t-27.5 10t-19 4.5l-7 2h385l520 -998q38 -72 65.5 -95t53 -3
t55.5 90l434 1004h344q-8 0 -22 -2t-42 -13t-50.5 -29.5t-40 -57t-17.5 -89.5v-1061z" />
    <glyph glyph-name="N" unicode="N" horiz-adv-x="1503" 
d="M1227 1180q0 66 -20 115.5t-46.5 74.5t-62 40.5t-55.5 19t-39 4.5h464q-18 -1 -37 -4t-54.5 -18.5t-61.5 -40.5t-46 -74.5t-20 -116.5v-1205h-2l-16 25l-879 1169q-38 47 -59 11q-14 -25 -14 -78v-838q0 -50 12.5 -92t32.5 -68.5t44 -46.5t47.5 -30.5t43.5 -17t33 -7.5
l12 -2h-473q5 0 13 1.5t31.5 8t44.5 16.5t47 30.5t44.5 47t31.5 69t13 93.5v836q0 51 -7 95t-18.5 75t-27 57t-32.5 42.5t-33.5 29t-32 19t-27 10t-18.5 4.5l-7 2h348l736 -981q42 -57 67 -52q8 1 13 10.5t7 29.5t2.5 34.5t0.5 42.5v660z" />
    <glyph glyph-name="O" unicode="O" horiz-adv-x="1656" 
d="M860 1450q142 1 258.5 -43.5t192.5 -117.5t127.5 -171t72.5 -201.5t19 -211.5q-4 -153 -56.5 -286t-145 -231t-229 -153.5t-298.5 -54.5q-122 0 -226.5 32.5t-180 89t-134 129t-93 157t-51 170.5t-14.5 171q3 219 104.5 384.5t271.5 251t382 85.5zM1311 711
q-7 191 -73.5 351.5t-183 256.5t-259.5 96q-228 6 -359.5 -174.5t-116.5 -492.5q10 -188 80.5 -351t188.5 -266.5t258 -114.5q126 -12 221 36t150.5 143.5t79 226t14.5 289.5z" />
    <glyph glyph-name="P" unicode="P" horiz-adv-x="1185" 
d="M1047 1266q50 -82 55 -186.5t-31 -195.5t-100 -143q-60 -47 -129.5 -72t-175.5 -32.5t-240 16.5q256 -12 376 91.5t122 299.5q1 111 -29 188t-88 118.5t-130.5 58t-168.5 14.5q-57 0 -119 -4v-1243q0 -48 17 -84t39 -52.5t52 -26.5t45 -11.5t29 -1.5h-557q14 0 29.5 1.5
t45.5 11.5t51.5 26.5t39 52.5t17.5 84v1106q0 41 -16.5 72t-37 45.5t-49 23t-43.5 10t-28 1.5q71 1 242.5 4.5t242.5 3.5q221 2 346.5 -32.5t192.5 -143.5z" />
    <glyph glyph-name="Q" unicode="Q" horiz-adv-x="1642" 
d="M885 1450q142 1 258.5 -43.5t192.5 -117.5t127 -171t72 -201.5t19 -211.5q-4 -153 -56.5 -286t-145 -231t-229 -153.5t-298.5 -54.5q-145 1 -265.5 47t-200 121.5t-134 174t-77.5 201t-21 205.5q3 219 105 384.5t272 251t381 85.5zM1335 711q-7 191 -73.5 351.5
t-182.5 256.5t-258 96q-228 6 -360 -174.5t-117 -492.5q10 -188 80 -351t188 -266.5t258 -114.5q126 -12 221 36t150.5 143.5t79 226t14.5 289.5zM592 -51q52 -3 100.5 -24t88.5 -51.5t77.5 -62.5t84 -62.5t91.5 -45.5q70 -21 138.5 -22.5t135.5 30.5t111 94
q-19 -43 -47 -80t-68.5 -71.5t-99 -53.5t-127.5 -18q-71 2 -132.5 27.5t-108.5 62.5t-91 75.5t-98.5 71.5t-111.5 44q-94 17 -181.5 -11t-134.5 -73q151 185 373 170z" />
    <glyph glyph-name="R" unicode="R" horiz-adv-x="1241" 
d="M1110 195q25 -44 56.5 -80.5t59 -57t51.5 -34t38 -18.5l14 -5h-303q-62 67 -139 209l-187 321q-15 26 -31.5 47.5t-30 37.5t-33 28.5t-31 20.5t-33.5 13.5t-31.5 8.5t-34 4.5t-32.5 1.5h-35h-33l-2 -565q0 -35 14 -60.5t31.5 -37.5t42 -19.5t37.5 -8.5t26 -1h-518
q14 0 28.5 1.5t43 10.5t49 24t37 47.5t16.5 76.5v1114q0 44 -17 76.5t-39 47.5t-50.5 24t-42.5 10.5t-25 1.5q83 0 259.5 4.5t260.5 3.5q202 -2 318.5 -35.5t177.5 -124.5q62 -85 59 -215q-3 -84 -39 -159.5t-100 -125.5q-44 -35 -98 -57t-94 -25q81 -24 176 -192zM561 725
q162 18 246 110t86 236q1 90 -23 155.5t-67.5 105.5t-111 62t-143.5 28t-175 1l2 -708q115 0 186 10z" />
    <glyph glyph-name="S" unicode="S" horiz-adv-x="1222" 
d="M1047 1065q-4 11 -13.5 30t-52 75t-98.5 108q-105 104 -249 135t-251 -31q-60 -37 -86 -105t-14 -144q18 -106 103 -175t251 -104q293 -61 408.5 -179t93.5 -319q-7 -83 -38.5 -149.5t-78.5 -109.5t-110 -72t-129 -41.5t-138 -12.5q-332 3 -536 156l-5 389
q63 -179 203.5 -311t308.5 -172q75 -19 148.5 -14t133 27t97.5 75t41 129q3 48 -7 89.5t-40.5 85.5t-82.5 80.5t-138.5 71.5t-202.5 62q-101 24 -176.5 58.5t-121.5 74.5t-73 90.5t-36 101.5t-6 113q6 172 144.5 275.5t348.5 101.5q68 -1 134.5 -11.5t112 -25t81.5 -29
t53 -24.5l18 -10z" />
    <glyph glyph-name="T" unicode="T" horiz-adv-x="1382" 
d="M1280 1434l53 -344q-6 13 -17 35t-47.5 75.5t-74.5 89.5q-128 121 -332 121h-74v-1229q0 -50 18.5 -87t41.5 -54.5t55 -27.5t48 -11.5t30 -1.5h-573q14 0 30 1.5t47 11.5t54 27.5t41 54.5t18 87v1229h-86q-200 0 -332 -125q-41 -37 -77.5 -87.5t-52.5 -82.5l-17 -31
l59 349h1188z" />
    <glyph glyph-name="U" unicode="U" horiz-adv-x="1398" 
d="M1186 1188q0 62 -17.5 109.5t-41 72t-54.5 40t-49.5 19.5t-34.5 5h404q-14 -1 -30.5 -5t-46 -20t-52 -41t-39.5 -74t-17 -114v-580q0 -35 -0.5 -58t-5 -74t-12.5 -89t-24.5 -91t-40 -92t-60.5 -81t-83.5 -68.5t-111.5 -43.5t-143 -17q-101 0 -181.5 24t-135 62.5t-94 99
t-61.5 121t-34.5 142t-16 148t-3.5 152.5v492q0 56 -16.5 97.5t-38 61.5t-50.5 32t-44.5 14t-28.5 2h559q-15 0 -31 -2t-45.5 -14t-51 -32t-38.5 -61.5t-17 -97.5v-609q0 -126 21.5 -226t67 -177.5t123.5 -118.5t184 -39q198 5 294.5 139t96.5 416v576z" />
    <glyph glyph-name="V" unicode="V" horiz-adv-x="1484" 
d="M764 -33l487 1213q53 128 115.5 183.5t140.5 70.5h-446q121 -3 164 -72.5t-6 -198.5q-89 -221 -261 -653q-45 -111 -64 -139.5t-46 -28.5q-42 0 -84 96q-63 140 -137 314t-137 324.5t-66 158.5q-21 55 -14.5 92t33 58.5t55.5 32t52 13.5l23 3q-84 1 -196.5 1t-246.5 -0.5
t-191 -0.5q161 0 237 -154z" />
    <glyph glyph-name="W" unicode="W" horiz-adv-x="2267" 
d="M1827 1434h457q-172 -29 -263 -254l-479 -1233l-405 921l-367 -921q-574 1302 -588 1333q-72 154 -227 154q54 0 187 0.5t243.5 0.5t189.5 -1q-5 0 -12.5 -1t-28.5 -6.5t-39 -13.5t-37 -24t-29.5 -36.5t-10.5 -52t16 -69.5q84 -209 336 -793q13 -27 22 -43t26.5 -34.5
t33.5 -18.5q25 0 43 21.5t55 109.5q21 51 37 91.5t51 128t84 208.5l-168 379q-72 154 -227 154q54 0 187 0.5t244 0.5t190 -1q-5 0 -12.5 -1t-28.5 -6.5t-38.5 -13.5t-37 -24t-30 -36.5t-10.5 -52t15 -69.5l336 -793q1 -2 8.5 -16.5t10.5 -19.5t10.5 -17t12.5 -17.5
t12 -12.5t14 -10t14 -3q23 0 42 26.5t52 108.5q164 411 271 686q47 117 3.5 192t-165.5 79z" />
    <glyph glyph-name="X" unicode="X" horiz-adv-x="1409" 
d="M868 0q25 0 55 9.5t58.5 31.5t31.5 56.5t-26 84.5q-3 4 -49.5 71.5t-132 190.5t-160.5 230l-278 -389q-86 -120 -57.5 -193t159.5 -92h-524q89 20 187.5 84.5t184.5 181.5l314 430q-381 546 -404 574q-67 86 -135 125t-112 39l593 -2q-83 -5 -107 -60.5t34 -146.5
q213 -311 266 -387l219 305q36 51 53 97t13.5 87t-39.5 69t-103 38h465q-173 -25 -334 -250l-260 -369q226 -331 336 -477q135 -182 219.5 -257t169.5 -81h-637z" />
    <glyph glyph-name="Y" unicode="Y" horiz-adv-x="1185" 
d="M877 1434h397q-82 -19 -149 -80.5t-113 -143.5l-242 -436q-53 -96 -53 -225v-381q0 -50 21 -85.5t53 -52t55.5 -23t42.5 -7.5h-539q18 0 43 6.5t56.5 21.5t53.5 49.5t23 82.5l2 366q0 110 -49 189l-323 553q-37 60 -86.5 100t-85.5 53t-62 13l539 -2q-79 -4 -105 -60
t17 -129l272 -477q21 -38 48 -37t52 47l222 398q60 101 38.5 172t-128.5 88z" />
    <glyph glyph-name="Z" unicode="Z" horiz-adv-x="1320" 
d="M442 18h80q278 5 492 162q68 52 124 118t78 106l21 40l-102 -444h-1112l856 1274q51 74 34 106.5t-106 32.5h-82q-273 0 -449 -131q-56 -42 -108 -101.5t-76 -98.5l-24 -38l102 390h1038q-20 -26 -403.5 -603.5t-454.5 -685.5q-19 -30 -24.5 -52.5t3 -39.5t37 -26
t76.5 -9z" />
    <glyph glyph-name="bracketleft" unicode="[" horiz-adv-x="587" 
d="M541 1432l-291 -56v-1661l291 -55l-359 -4v1778z" />
    <glyph glyph-name="backslash" unicode="\" horiz-adv-x="729" 
d="M633 -12l-559 1448h-27l557 -1448h29z" />
    <glyph glyph-name="bracketright" unicode="]" horiz-adv-x="532" 
d="M29 1434l290 -56v-1661l-290 -55l358 -4v1778z" />
    <glyph glyph-name="asciicircum" unicode="^" horiz-adv-x="808" 
d="M705 735l-293 461l-308 -440l310 506z" />
    <glyph glyph-name="underscore" unicode="_" 
d="M104 27h814v-23h-814v23z" />
    <glyph glyph-name="grave" unicode="`" horiz-adv-x="507" 
d="M190 1049l-249 174q-41 30 -49 62.5t12 47.5q23 25 54 15t60 -54z" />
    <glyph glyph-name="a" unicode="a" 
d="M983 115q23 2 35 39q-11 -36 -21.5 -60t-30 -52.5t-51 -43t-73.5 -14.5q-71 0 -106.5 43.5t-35.5 124.5v395q-79 -24 -135 -43.5t-116 -47.5t-97 -56.5t-62 -67.5t-28 -84q-5 -69 37 -122.5t127 -57.5q128 -11 266 98q-33 -35 -48.5 -50.5t-54.5 -48t-70.5 -48.5t-79 -30
t-97.5 -14q-67 0 -117 23t-76 59.5t-37.5 76.5t-9.5 79q2 36 13 67t34 57t47 46.5t64 39.5t72.5 33t85 30t88.5 26t97 26.5t97 26.5v115q0 147 -63 210.5t-166 43.5q-77 -13 -130.5 -58t-53.5 -118q0 -21 13 -53t15 -52q1 -41 -27 -66.5t-65 -25.5q-36 0 -64.5 24.5
t-25.5 78.5q2 69 58 132t131 101t153 53q47 9 92.5 10t90 -7t81.5 -29t65.5 -54t43.5 -84.5t14 -117.5v-502q0 -54 21.5 -76t49.5 -13t50 38z" />
    <glyph glyph-name="b" unicode="b" horiz-adv-x="1114" 
d="M315 399q0 -86 20.5 -157.5t55 -119.5t81 -80t99 -38t107.5 6q73 19 118.5 93t60.5 173t9 220q-9 177 -97.5 283.5t-221.5 103.5q-69 -3 -128.5 -41.5t-88.5 -83.5q13 27 33.5 55.5t55 62.5t86 57t109.5 25q83 2 155 -25.5t129 -84t90 -151.5t32 -218q-1 -98 -32 -187.5
t-87 -160t-143 -112.5t-191 -42q-55 0 -120.5 17.5t-114.5 50.5q-20 14 -41.5 32t-32.5 29l-12 11l-92 -150v1237q0 63 -28.5 87t-66.5 14l256 161v-1067z" />
    <glyph glyph-name="c" unicode="c" horiz-adv-x="1050" 
d="M240 434q23 -153 122 -242.5t244 -95.5q119 -5 219 42t156 157q-34 -139 -144.5 -231.5t-271.5 -92.5q-95 1 -180 33t-151.5 91t-106.5 150.5t-41 203.5q-1 90 23 168.5t67 136t101.5 102.5t126.5 67.5t142 32t148 -5.5q97 -16 171 -76.5t75 -142.5q3 -51 -25 -79.5
t-71 -26.5q-52 3 -75.5 44t-10.5 91q24 83 -21.5 131t-130.5 51q-74 4 -138.5 -20.5t-111 -71t-78.5 -111t-40.5 -142t2.5 -163.5z" />
    <glyph glyph-name="d" unicode="d" horiz-adv-x="1097" 
d="M793 174q-14 -25 -22 -38.5t-27 -41t-39 -44t-48.5 -35.5t-65 -29t-79.5 -11q-182 -5 -309.5 126t-130.5 356q-3 119 35 216.5t103 158.5t145.5 94t166.5 35q175 5 281 -99v338q0 64 -31 88.5t-63 14.5l252 163v-1249q0 -38 14.5 -58.5t31 -24t34 -3.5h18.5l-256 -166
v524q0 208 -80.5 330t-208.5 125q-123 3 -204.5 -121.5t-71.5 -328.5q4 -97 32.5 -180t73 -138t101 -87.5t116.5 -37.5q145 -7 232 123z" />
    <glyph glyph-name="e" unicode="e" horiz-adv-x="1054" 
d="M608 96q256 -10 357 195q-29 -133 -142 -224t-270 -90q-127 2 -231 62.5t-166.5 171.5t-65.5 252q-3 156 61.5 262.5t167.5 167.5q122 75 281 68q159 -9 259.5 -125t96.5 -301h-710q0 -190 98.5 -311.5t263.5 -127.5zM391 889q-74 -53 -107.5 -147.5t-37.5 -190.5
q303 0 366 8q129 12 174 70q23 28 30 74t-11.5 99.5t-65.5 90.5q-68 57 -168 55t-180 -59z" />
    <glyph glyph-name="f" unicode="f" horiz-adv-x="659" 
d="M639 1450q40 -9 75.5 -28t64 -58.5t28.5 -91.5q0 -31 -23.5 -57.5t-58.5 -26.5q-50 0 -71 41t-13 98q6 63 -26 94t-83 31q-32 0 -56 -11.5t-39.5 -35.5t-25 -52t-14.5 -70.5t-6.5 -81t-1.5 -93.5v-186h279l-19 -19h-260v-756q0 -41 16 -71.5t35.5 -44t47 -21.5t39.5 -9
t24 -1h-479q11 0 23 1t38.5 9t45.5 21.5t34.5 44t15.5 71.5v756h-106l-25 19h131v186q0 76 18 137t48.5 101t70.5 67t86.5 38t93.5 11t93 -12z" />
    <glyph glyph-name="g" unicode="g" horiz-adv-x="985" 
d="M965 975q34 0 50 -20t11 -44q-7 -25 -31.5 -34t-62.5 10q-21 16 -35 22t-40.5 -0.5t-59.5 -34.5q44 50 83 75.5t85 25.5zM588 119q160 -6 242 -47t116 -129q27 -66 17 -131.5t-34 -112.5t-59 -84q-155 -160 -434 -141q-184 12 -283.5 91.5t-99.5 192.5q0 43 12.5 82
t29.5 64.5t34.5 45t30.5 28.5l12 8q-59 -122 -21 -214t141.5 -147.5t242.5 -64.5q158 -12 269.5 50.5t104.5 162.5q6 91 -89.5 144.5t-256.5 51.5q-192 -2 -299.5 30t-126.5 124q-9 36 5.5 69.5t45 59t56.5 41.5t55 29l-10 4q-84 39 -134 122t-46 187q5 204 233 293
q85 32 185.5 27.5t172.5 -44.5q102 -52 144.5 -171t1.5 -224q-30 -74 -81.5 -120.5t-143.5 -78.5q-68 -22 -150.5 -23t-148.5 19q-111 -65 -58 -137q14 -22 40 -35t65 -17.5t69.5 -5.5t79.5 0t70 1zM281 522q27 -70 68 -117t83.5 -64.5t88.5 -21t85 12.5q67 24 95.5 99.5
t23.5 156.5t-31 151q-27 73 -65.5 119.5t-81.5 64.5t-86.5 16.5t-87.5 -19.5q-87 -35 -112 -150.5t20 -247.5z" />
    <glyph glyph-name="h" unicode="h" horiz-adv-x="1155" 
d="M356 139q0 -39 16 -67.5t35 -41.5t46.5 -20.5t39 -8.5t23.5 -1h-479q12 0 23.5 1t39 8.5t46.5 20.5t35 41.5t16 67.5v1073q0 24 -3.5 42t-10.5 28.5t-14 17t-17 8.5t-16 2.5t-15 -0.5t-10 -1l245 157v-1327zM983 139q0 -39 14.5 -67.5t32 -41.5t42 -20.5t35.5 -8.5t21 -1
h-448q10 0 21 1t35 8.5t41.5 20.5t31.5 41.5t14 67.5v353v33v72.5t-2 61.5t-6 56.5t-11 44t-18.5 39t-28 26t-38.5 19.5q-65 26 -165 -9t-177 -106q33 40 75 77.5t97 74t120.5 56t127.5 13.5q39 -3 69.5 -15.5t50 -32t33 -45.5t20 -56.5t10 -65t3.5 -71.5v-76v-43v-406z" />
    <glyph glyph-name="i" unicode="i" horiz-adv-x="606" 
d="M299 1079q-41 0 -70.5 30.5t-29.5 72.5q0 43 29.5 72.5t70.5 29.5q42 0 72 -30t30 -72q0 -41 -30.5 -72t-71.5 -31zM389 139q0 -39 14 -67.5t31 -41.5t41.5 -20.5t35 -8.5t21.5 -1h-454q11 0 22.5 1t37 8.5t43.5 20.5t33 41.5t15 67.5v568q0 62 -26 84.5t-58 15.5
l244 156v-824z" />
    <glyph glyph-name="j" unicode="j" horiz-adv-x="540" 
d="M281 1079q-41 0 -72 31t-31 72q0 42 30.5 72t72.5 30q41 0 70.5 -29.5t29.5 -72.5q0 -42 -29.5 -72.5t-70.5 -30.5zM215 705q0 65 -26 85.5t-62 16.5l248 156v-1067q0 -79 -19 -140.5t-51.5 -98t-76 -60.5t-92.5 -27t-101 2q-99 6 -166.5 53.5t-67.5 126.5q0 34 24.5 60
t57.5 26q50 0 73 -42.5t15 -98.5q-5 -63 34 -90.5t87 -22.5q73 3 98 62t25 221v838z" />
    <glyph glyph-name="k" unicode="k" horiz-adv-x="950" 
d="M348 139q0 -39 13.5 -67t30 -41.5t39.5 -21t34 -8.5t20 -1h-448q10 0 21.5 1t37 8.5t44 21t33.5 42t15 66.5v1071q0 59 -28 84.5t-60 12.5l250 159zM352 453l246 268q66 75 34.5 138.5t-126.5 68.5h409q-19 -3 -55.5 -20t-110.5 -71.5t-147 -134.5l-76 -81
q-37 -43 2 -103q30 -44 151 -202t175 -216q37 -41 77 -66t61 -30l22 -4h-383q34 3 39.5 32t-23.5 70q-30 42 -126.5 169t-119.5 151q-31 39 -49 31z" />
    <glyph glyph-name="l" unicode="l" horiz-adv-x="540" 
d="M344 139q0 -39 16 -67.5t35 -41.5t46.5 -20.5t39 -8.5t23.5 -1h-479q11 0 23 1t39 8.5t46.5 20.5t35 41.5t15.5 67.5v1059q0 41 -10.5 67.5t-25 34t-28.5 11t-22 -1.5l246 157v-1327z" />
    <glyph glyph-name="m" unicode="m" horiz-adv-x="1759" 
d="M365 139q0 -47 19.5 -78.5t49.5 -43t46 -14.5t30 -3h-447q10 0 21 1t35 8.5t42 21t32 41.5t14 67v568q0 30 -7.5 51.5t-18.5 30t-23.5 14t-22 4t-14.5 -1.5l244 158v-824zM369 729q88 96 197.5 164t221.5 59q46 -4 79.5 -19.5t53 -40t31.5 -57.5t16 -71t5.5 -80.5
t-0.5 -86.5v-52v-406q0 -47 19.5 -78.5t49.5 -43t46 -14.5t30 -3h-448q10 0 21 1t35 8.5t41.5 21t31.5 41.5t14 67v396v17q0 47 -0.5 69.5t-2.5 58.5t-6 53.5t-12 41t-20 35.5t-30 23t-42 17q-68 17 -158.5 -19.5t-172.5 -101.5zM981 729q85 93 197.5 161.5t220.5 59.5
q31 -3 55.5 -11.5t43 -18t33 -29.5t23.5 -34t15.5 -43.5t9.5 -45.5t4.5 -53t2 -53.5t0 -58.5t-0.5 -58v-406q0 -39 14.5 -67t32.5 -41.5t42 -21t35.5 -8.5t21.5 -1h-449q10 0 21 1t35 8.5t41.5 21t31.5 41.5t14 67v389v22v68t-2 56.5t-6 51t-11.5 39.5t-19 34.5t-28 23
t-39.5 17.5q-68 26 -160 -8t-178 -103z" />
    <glyph glyph-name="n" unicode="n" horiz-adv-x="1161" 
d="M362 139q0 -39 14.5 -67.5t32 -41.5t42.5 -20.5t36 -8.5t21 -1h-449q10 0 21 1t35 8.5t41.5 20.5t32 41.5t14.5 67.5v574q0 28 -8 47.5t-19 27.5t-23.5 13t-22 3.5t-13.5 -1.5l245 160v-824zM977 139q0 -39 14.5 -67.5t32 -41.5t42 -20.5t35.5 -8.5t21 -1h-450q10 0 21 1
t35 8.5t41.5 20.5t31.5 41.5t14 67.5v353v33v72.5t-2 61.5t-6 56.5t-11 44t-18.5 39t-28 26t-38.5 19.5q-64 26 -162.5 -9t-175.5 -106q35 41 75.5 77.5t94.5 73.5t118.5 56.5t126.5 13.5q35 -3 63 -13t47 -26t33.5 -37t22.5 -46t13.5 -54t7 -60.5t2.5 -65t0 -67.5v-12.5
v-11v-12.5v-406z" />
    <glyph glyph-name="o" unicode="o" horiz-adv-x="1107" 
d="M602 -18q-41 -2 -83 2.5t-95.5 16t-102 38.5t-93.5 65.5t-79.5 100.5t-52.5 141q-43 208 53 375.5t289 218.5q73 19 143.5 20.5t134 -14.5t118.5 -50.5t97.5 -84.5t70.5 -120t38 -154q13 -113 -16.5 -215t-90 -174.5t-147 -117t-184.5 -48.5zM862 571q-17 89 -56 165
t-95 128t-126.5 68.5t-150.5 -12.5q-62 -23 -104.5 -79t-60 -130.5t-17.5 -158t18 -167.5q21 -106 64 -184t96.5 -119.5t109 -59t111.5 -12.5q76 8 128.5 60.5t74 130.5t25.5 175t-17 195z" />
    <glyph glyph-name="p" unicode="p" horiz-adv-x="1132" 
d="M651 952q169 5 279.5 -122.5t109.5 -348.5q-1 -109 -36 -203t-92.5 -157t-132 -99t-154.5 -38q-187 0 -299 110v-401q0 -37 15 -64.5t33.5 -40t44.5 -19.5t37.5 -8t22.5 -1h-452q7 0 16.5 1t33.5 8t42 19.5t32.5 40t14.5 64.5v1005q0 66 -28.5 90.5t-61.5 16.5l250 158
v-191v-2v-340q0 -111 30 -197t79.5 -135.5t109 -72.5t121.5 -17q104 9 162.5 132.5t56.5 314.5q-4 189 -83 296.5t-198 118.5q-157 14 -262 -137q6 15 16.5 35t37.5 54t59.5 60.5t84.5 47.5t111 22zM340 733h2h-2z" />
    <glyph glyph-name="q" unicode="q" horiz-adv-x="1091" 
d="M958 -307q0 -37 15 -64.5t33.5 -40t44 -19.5t37 -8t22.5 -1h-463q11 0 22.5 1t37 8t44 19.5t33.5 40t15 64.5v735l10 78l-10 -27q0 138 -34 243.5t-104.5 165t-168.5 50.5q-110 -9 -181 -135.5t-59 -323.5q10 -194 97.5 -308.5t209.5 -125.5q49 -4 90.5 7t67.5 30.5
t42 38t23 35.5q-2 -10 -11 -28t-31.5 -43.5t-52 -47.5t-77.5 -37.5t-104 -15.5q-82 -1 -156 29.5t-133 88t-95 148.5t-38 203q-3 112 33 207.5t99 158.5t145.5 99t173.5 38q200 4 319 -131l104 125v-1257z" />
    <glyph glyph-name="r" unicode="r" horiz-adv-x="833" 
d="M690 952q59 -3 85 -36t26 -70q0 -35 -21 -66t-65 -32q-26 -1 -45.5 8t-29 20t-22.5 26.5t-22 22.5q-16 13 -36.5 18t-50.5 1t-70 -35.5t-83 -87.5v-588q0 -37 15 -64.5t34 -40t45 -19.5t37.5 -8t22.5 -1h-465q11 0 22.5 1t37 8t44 19.5t33.5 40t15 64.5v27v553
q0 56 -26 78t-56 18l241 154v-142v-47v-43q58 107 150 165.5t184 55.5z" />
    <glyph glyph-name="s" unicode="s" horiz-adv-x="892" 
d="M766 670q-59 118 -158.5 190.5t-204.5 71.5q-69 -1 -111 -34.5t-50 -90.5q-5 -15 -2.5 -34.5t7 -40t22.5 -43.5t43.5 -44t71 -41.5t105.5 -36.5q189 -52 263.5 -120.5t74.5 -170.5q1 -45 -11 -87.5t-38.5 -81t-65.5 -67.5t-97 -46t-128 -17q-37 0 -72.5 3.5t-62.5 8
t-56.5 13.5t-47.5 15t-42.5 17.5t-34.5 17t-31 17t-25 13.5l-4 274q85 -185 206 -264q78 -51 168.5 -69.5t160.5 8.5t79 100q16 83 -48.5 152t-238.5 118q-169 48 -236 116.5t-67 164.5q2 115 92.5 197t255.5 82q61 0 115 -11.5t90 -30t51.5 -28.5t26.5 -19v-202z" />
    <glyph glyph-name="t" unicode="t" horiz-adv-x="724" 
d="M475 72q87 -8 146.5 43.5t89.5 126.5q-6 -30 -16.5 -61t-34 -69.5t-55 -66.5t-81.5 -46.5t-110 -16.5q-64 2 -111 25.5t-74 59t-43 89.5t-21 105.5t-5 119.5v524h-88l-25 19h113v243l162 136q-1 -178 -3 -379h250l-18 -19h-232q0 -79 -0.5 -213t-0.5 -212.5t1 -106.5
q1 -60 4 -99.5t12.5 -79t26 -63t45 -39.5t68.5 -20z" />
    <glyph glyph-name="u" unicode="u" horiz-adv-x="1103" 
d="M420 88q67 -26 171.5 8t178.5 105q-72 -89 -190.5 -159.5t-237.5 -61.5q-30 3 -55 11t-43 21t-32 30t-23 38t-15.5 45t-9.5 50t-4.5 54.5t-1.5 58.5v60v12.5v11v11.5v397q0 40 -14.5 69t-32.5 42.5t-42.5 21t-35.5 8.5t-21 1h305v-142v-342v-71.5t1.5 -61.5t4 -57
t7 -45.5t12 -42t18.5 -30.5t26 -26.5t34 -15.5zM782 788q0 37 -14 64.5t-31 40.5t-41 20t-34.5 8t-20.5 1h301v-721q0 -14 2 -25t6 -18.5t9 -13t11.5 -9t11.5 -5.5t12 -2.5t10.5 -1t9 0t6.5 0.5l-238 -154v144v671z" />
    <glyph glyph-name="v" unicode="v" horiz-adv-x="940" 
d="M989 922q-8 -2 -22 -7t-47 -25t-56 -46q-33 -31 -63 -103l-322 -782l-375 846q-17 32 -39 56t-42.5 35t-38.5 17.5t-28 7.5l-11 1h411q-2 0 -6 -0.5t-16.5 -3.5t-21.5 -8t-21 -13.5t-16 -21t-6.5 -31t7.5 -41.5l213 -496q15 -32 29 -47.5t33 -15.5q9 0 16.5 4.5
t14.5 14.5t11 18t11.5 24t11.5 23l164 401l8 23q25 70 -8.5 114.5t-115.5 55.5h325z" />
    <glyph glyph-name="w" unicode="w" horiz-adv-x="1445" 
d="M1155 922h348q-10 -2 -25.5 -7t-52.5 -25t-61 -46q-35 -38 -61 -105l-306 -778l-288 653l-238 -653l-381 842q-27 52 -67 81.5t-67 33.5l-26 4h400q-2 0 -6 -0.5t-15 -3.5t-20 -7t-18.5 -12.5t-14.5 -20t-4.5 -29t8.5 -38.5l217 -512q22 -51 49 -51q20 0 36 24.5t36 79.5
l102 279l-75 172q-26 52 -62 81.5t-59 33.5l-23 4h391q-3 0 -7 -0.5t-15.5 -3.5t-21.5 -7.5t-20.5 -14t-16 -21.5t-5.5 -30.5t9 -41.5l213 -498q14 -35 26.5 -50t30.5 -15q20 0 34.5 25t33.5 75l149 387l8 23q25 70 -13.5 115.5t-121.5 56.5z" />
    <glyph glyph-name="x" unicode="x" horiz-adv-x="993" 
d="M618 0q27 0 51.5 16t32.5 46t-26 73l-219 287l-160 -209q-67 -86 -45 -143q21 -52 123 -70h-367q74 21 137 72q65 53 152 164l152 196l-273 359q-27 37 -56.5 64.5t-51 40t-39.5 19.5t-27 8l-10 1h434l-2 -1q-67 -12 -80 -42q-10 -20 -2 -47t41 -70l170 -219l141 172
q42 53 52.5 85t1.5 60q-10 25 -44 42t-71 20h342q-63 -13 -129 -64q-56 -44 -135 -145l-150 -183l336 -434q72 -80 145 -98h-424z" />
    <glyph glyph-name="y" unicode="y" horiz-adv-x="919" 
d="M674 922h325q-8 -2 -22 -7t-47 -25t-56 -46q-33 -31 -63 -103l-319 -782l-117 -281q-31 -75 -68 -97t-90 -15q-38 6 -58.5 38.5t-11.5 69.5q8 26 30.5 43.5t55.5 16.5q22 -2 45.5 -24.5t32.5 -24.5q46 -10 80 67l90 219l-368 834q-17 33 -39.5 57t-42.5 35t-38 17.5
t-29 7.5h-11h414q-3 0 -7 -0.5t-16.5 -4t-22.5 -8t-21 -14t-17 -21.5t-5.5 -30.5t9.5 -40.5l213 -496q15 -32 28.5 -47.5t32.5 -15.5q9 0 16.5 4.5t14.5 14.5t11.5 17.5t12.5 24.5t11 23l164 401l8 23q25 70 -9 114.5t-116 55.5z" />
    <glyph glyph-name="z" unicode="z" horiz-adv-x="1019" 
d="M508 8q69 2 126.5 17.5t77.5 26.5t58 34q46 29 90 83.5t65 94.5l21 39l-57 -309l-803 2l578 838q30 40 22.5 60.5t-59.5 20.5h-123q-77 1 -130 -18.5t-120 -62.5q-36 -23 -73.5 -58.5t-56.5 -59.5l-20 -24l68 238h754q-101 -139 -329 -468t-251 -368q-51 -84 43 -84z" />
    <glyph glyph-name="braceleft" unicode="{" horiz-adv-x="638" 
d="M625 1444q-29 1 -58 0.5t-58 -11.5t-54 -29t-46.5 -52.5t-35.5 -81.5q-23 -83 -20 -155t11 -147.5t14.5 -139t-9.5 -129t-60 -117.5q45 -49 65 -109t17.5 -112t-8.5 -107q-3 -35 -14.5 -109.5t-17 -124t-3 -116t18.5 -119.5q18 -53 46.5 -83t62 -38.5t75 -9.5t84.5 4
q-222 -46 -311 59.5t-62 343.5q3 27 9.5 78t9 73t6 59.5t3 57.5t-2 46.5t-6.5 46.5t-13 39q-13 37 -38.5 63t-44 35.5t-46.5 18.5q58 11 103 67q28 36 35 87t2 136q0 1 -11 96t-10 169q1 61 15.5 111.5t37 84.5t53 59t63.5 38t69 19.5t68 5.5t61 -7z" />
    <glyph glyph-name="bar" unicode="|" horiz-adv-x="276" 
d="M129 1653h18v-1768h-18v1768z" />
    <glyph glyph-name="braceright" unicode="}" horiz-adv-x="647" 
d="M-4 1444q29 1 58 0.5t58 -11.5t54 -29t46.5 -52.5t35.5 -81.5q17 -61 19.5 -129.5t-5.5 -125t-14 -118.5t-7 -113t16 -104.5t54 -97.5q-45 -48 -65 -108.5t-17 -112.5t9 -107q3 -35 14.5 -109.5t17 -124t3 -116t-18.5 -119.5q-18 -53 -46.5 -83t-62 -38.5t-75 -9.5
t-84.5 4q222 -46 310.5 59t61.5 344q-3 27 -9.5 78t-9 73t-6 59.5t-3 57.5t2 46.5t6.5 46.5t13 39q13 37 38.5 63t44 35.5t46.5 18.5q-57 11 -102 67q-28 36 -35 87t-2 136q1 20 7 65t10 95.5t3 104.5q-1 61 -15 111.5t-37 84.5t-53.5 59t-63.5 38t-68.5 19.5t-67.5 5.5
t-61 -7z" />
    <glyph glyph-name="asciitilde" unicode="~" horiz-adv-x="808" 
d="M117 586q16 44 44.5 70t49.5 32t41 6q43 0 82.5 -18t66 -39t66.5 -39t84 -18q65 0 106 47.5t33 111.5q-9 -100 -139 -100q-42 0 -126.5 53t-135.5 58q-68 5 -116.5 -39t-55.5 -125z" />
    <glyph glyph-name="exclamdown" unicode="&#xa1;" horiz-adv-x="466" 
d="M254 1106q-38 0 -66 27t-28 65t28 66t66 28t65 -28t27 -66t-27 -65t-65 -27zM256 997v9v-9zM256 997q0 -86 7.5 -183.5t18.5 -182.5t23.5 -174t23 -163.5t18 -144t7 -122.5t-9 -92.5t-30 -60.5t-56.5 -21q-42 0 -63.5 33.5t-25 98t3 145t21 187.5t28 212t24 232.5
t10.5 235.5z" />
    <glyph glyph-name="cent" unicode="&#xa2;" horiz-adv-x="993" 
d="M633 172q120 -5 220 42t155 155q-34 -137 -144.5 -229.5t-271.5 -92.5h-19v-86h-20v88q-184 13 -310.5 139.5t-129.5 335.5q-1 109 34 200t96.5 153t140.5 100.5t169 50.5v121h20v-119q71 9 148 -4q97 -16 171 -76.5t75 -142.5q3 -51 -25.5 -80.5t-71.5 -26.5
q-52 3 -75 43.5t-9 92.5q22 84 -23 131.5t-128 50.5q-21 2 -62 -2v-838q27 -6 60 -6zM266 510q20 -130 96.5 -215.5t190.5 -112.5v830q-152 -28 -234 -171.5t-53 -330.5z" />
    <glyph glyph-name="sterling" unicode="&#xa3;" horiz-adv-x="1173" 
d="M926 1450q89 -9 142.5 -58.5t51.5 -119.5q-2 -34 -23 -55t-53 -21q-45 0 -65.5 35.5t-9.5 87.5q10 56 -23.5 89.5t-83.5 31.5q-27 0 -51.5 -12t-44 -36t-35 -49t-30.5 -62t-23.5 -62.5t-20.5 -63.5q-119 -379 -184 -563h221l-18 -19h-209q-43 -126 -121 -323
q47 0 77.5 -2.5t78 -15.5t88.5 -39l42 -27t39 -25.5t32.5 -19.5t35 -17.5t33 -12t39.5 -9.5q80 -13 143.5 7.5t77.5 78.5q8 41 -16 59t-72 21q-27 0 -47 20t-25 49q-4 64 54 80q35 10 66 -4t46 -45q36 -60 25 -145q-39 -245 -270 -230q-50 2 -91 16.5t-68.5 36t-52 47
t-48 51.5t-49 47.5t-63 37t-83.5 18.5q-40 -104 -74 -155q-26 -41 -54.5 -62.5t-74.5 -21.5q-41 0 -67.5 14t-35.5 35.5t-8.5 43.5t7.5 42q22 52 86.5 85.5t124.5 43.5q81 274 94 321h-137l-25 19h168q112 411 150 541q52 183 168 261.5t266 55.5zM156 100q42 19 82 133
q-45 -3 -89 -34.5t-47 -67.5q-2 -19 15.5 -30t38.5 -1z" />
    <glyph glyph-name="currency" unicode="&#xa4;" horiz-adv-x="989" 
d="M856 698q0 -133 -86 -235l111 -109l-41 -43l-111 113q-101 -88 -237 -88q-133 0 -234 82l-113 -113l-41 43l111 113q-90 103 -90 237q0 136 92 238l-115 113l41 43l113 -117q102 86 236 86q136 0 237 -88l113 117l43 -43l-117 -115q88 -101 88 -234zM489 385
q128 0 218 91t90 222q0 129 -90.5 220.5t-217.5 91.5t-216 -91.5t-89 -220.5q0 -132 88.5 -222.5t216.5 -90.5z" />
    <glyph glyph-name="yen" unicode="&#xa5;" horiz-adv-x="1298" 
d="M1319 1434q-151 -22 -254 -217q-55 -103 -121.5 -232.5t-109.5 -208.5h282l-18 -20h-826l-24 20h233l-297 486q-29 46 -63 81t-62 51.5t-52.5 26.5t-38.5 11l-13 2h543q-36 0 -72 -22.5t-53 -67.5t26 -113q125 -200 289 -455h115q17 28 42.5 75t75.5 141t93 175
q34 63 36.5 121t-31 98.5t-99.5 47.5h399zM272 614l-24 21h868l-18 -21h-307q-11 -33 -11 -100v-348q0 -38 11.5 -68t31.5 -47t40 -28.5t43.5 -15.5t35.5 -5.5t23 -1.5h-559q14 0 29 1.5t44.5 10.5t51 25t38.5 49.5t17 79.5v348q0 40 -17 100h-297z" />
    <glyph glyph-name="brokenbar" unicode="&#xa6;" horiz-adv-x="276" 
d="M129 1397h18v-559h-18v559zM129 578h18v-560h-18v560z" />
    <glyph glyph-name="section" unicode="&#xa7;" horiz-adv-x="985" 
d="M510 1044q102 -16 173.5 -47.5t110 -75.5t54.5 -92.5t14 -107.5q-6 -112 -88 -201q77 -86 74 -215q-3 -126 -99.5 -207.5t-234.5 -81.5q-96 0 -172 27.5t-120 71t-66.5 91.5t-22.5 95q0 44 22.5 77.5t63.5 33.5q43 0 68.5 -33.5t19.5 -71.5q-14 -51 -5.5 -101.5
t46.5 -90.5q45 -45 116.5 -63t138.5 -6.5t116.5 59.5t50.5 124q1 43 -13 80t-46.5 73t-95 62t-150.5 39q-180 30 -249 105.5t-64 191.5q3 117 90 201q-77 74 -74 199q5 122 100 208t254 82q120 -1 206.5 -74t86.5 -165q0 -90 -74 -90q-46 0 -61.5 36.5t-3.5 82.5
q18 77 -51 134t-168 54q-65 -3 -122 -40.5t-75 -98.5q-7 -23 -7 -48t6.5 -52.5t25 -53.5t46.5 -48t74 -39t105 -24zM778 629q2 93 -68 164t-229 90q-138 17 -217 80q-29 -37 -37 -80q-8 -35 1 -70.5t36 -70t86 -60t142 -35.5q170 -20 264 -108q19 44 22 90z" />
    <glyph glyph-name="dieresis" unicode="&#xa8;" horiz-adv-x="1228" 
d="M209 1108q-37 0 -64.5 27.5t-27.5 66.5q0 37 27.5 63.5t64.5 26.5q39 0 66.5 -26.5t27.5 -63.5q0 -40 -27 -67t-67 -27zM631 1108q-39 0 -66.5 27.5t-27.5 66.5q0 37 28 63.5t66 26.5t66 -26.5t28 -63.5q0 -39 -27.5 -66.5t-66.5 -27.5z" />
    <glyph glyph-name="copyright" unicode="&#xa9;" horiz-adv-x="1536" 
d="M762 -174q-180 0 -333.5 89.5t-243 243t-89.5 333.5t89.5 332.5t243 241.5t333.5 89q135 0 258 -52.5t212.5 -141.5t142 -212t52.5 -257q0 -181 -89 -334t-242.5 -242.5t-333.5 -89.5zM764 -154q175 0 324 87t236 236.5t87 324.5t-87 323.5t-236 235t-324 86.5
t-323.5 -86.5t-235 -235t-86.5 -323.5t86.5 -324.5t235 -236.5t323.5 -87zM455 453q24 -149 116 -235t220 -99q54 -8 113.5 0t112.5 27t101 61.5t78 103.5q-25 -83 -79 -152t-144 -116t-197 -47q-93 0 -178 31t-152 89t-108 149.5t-43 203.5q-1 92 24 171.5t69 137
t103.5 102.5t128.5 67t143.5 31t147.5 -5q99 -19 173.5 -80t74.5 -141q0 -51 -27 -79.5t-69 -25.5q-53 6 -76.5 45t-9.5 90q22 83 -23 130.5t-129 52.5q-187 7 -296 -144t-74 -368z" />
    <glyph glyph-name="guillemotleft" unicode="&#xab;" horiz-adv-x="729" 
d="M379 854l-250 -293l229 -307l-321 309zM592 854l-250 -293l229 -307l-321 309z" />
    <glyph glyph-name="logicalnot" unicode="&#xac;" horiz-adv-x="864" 
d="M80 653h706v-229h-20v211h-686v18z" />
    <glyph glyph-name="registered" unicode="&#xae;" horiz-adv-x="1529" 
d="M762 1155q135 0 258 -52.5t212.5 -141.5t142 -212t52.5 -257q0 -181 -89 -334t-242.5 -242.5t-333.5 -89.5t-333.5 89.5t-243 243t-89.5 333.5t89.5 332.5t243 241.5t333.5 89zM764 -154q175 0 324 87t236 236.5t87 324.5t-87 323.5t-236 235t-324 86.5t-323.5 -86.5
t-235 -235t-86.5 -323.5t86.5 -324.5t235 -236.5t323.5 -87zM1065 205q24 -41 56.5 -69t53.5 -36l21 -8h-176q-35 38 -82 123l-113 191q-20 35 -41.5 56.5t-48.5 30t-44 10t-49 1.5h-11l-2 -338q0 -25 11.5 -41.5t29 -22.5t28.5 -8t21 -2h-303q8 0 16.5 1t25 6t29 13.5
t22 27.5t9.5 44v664q0 32 -13.5 53t-34.5 29t-33 10t-21 2q44 0 149 2.5t156 1.5q122 -2 190.5 -20.5t102.5 -73.5q38 -52 35 -127q-2 -50 -23 -95.5t-59 -74.5q-55 -41 -117 -49q49 -12 104 -111zM741 520q96 10 147.5 65.5t51.5 141.5q1 66 -20.5 110t-65 66t-97 29
t-128.5 4l2 -422q55 0 110 6z" />
    <glyph glyph-name="macron" unicode="&#xaf;" horiz-adv-x="944" 
d="M276 1204l404 2v-18h-404v16z" />
    <glyph glyph-name="degree" unicode="&#xb0;" horiz-adv-x="446" 
d="M397 1044q-51 0 -88 38t-37 89q0 54 37 91.5t88 37.5q55 0 92.5 -36t36.5 -93q0 -51 -38 -89t-91 -38zM399 1075q40 0 70.5 30.5t30.5 70.5q0 39 -30.5 68.5t-70.5 29.5t-69 -29t-29 -69t29.5 -70.5t68.5 -30.5z" />
    <glyph glyph-name="plusminus" unicode="&#xb1;" horiz-adv-x="1107" 
d="M565 737h426v-22h-426v-357h-22v357h-426v22h426v414h22v-414zM117 252v20h874v-20h-874z" />
    <glyph glyph-name="acute" unicode="&#xb4;" horiz-adv-x="1228" 
d="M291 1034l248 174q29 20 41 42.5t9.5 39.5t-14.5 29q-21 24 -53 13t-59 -54z" />
    <glyph glyph-name="periodcentered" unicode="&#xb7;" horiz-adv-x="425" 
d="M211 700q-35 0 -60.5 25.5t-25.5 62.5q0 35 25.5 60.5t60.5 25.5q37 0 62.5 -25.5t25.5 -60.5q0 -37 -25.5 -62.5t-62.5 -25.5z" />
    <glyph glyph-name="cedilla" unicode="&#xb8;" horiz-adv-x="565" 
d="M317 -4l27 4l-59 -88q93 -7 133.5 -53t30.5 -107q-10 -62 -50.5 -98t-92 -42t-103.5 6.5t-86 39.5q33 -14 73 -18t79 3t67.5 35.5t32.5 75.5q7 59 -36 89t-97 34z" />
    <glyph glyph-name="guillemotright" unicode="&#xbb;" horiz-adv-x="729" 
d="M117 854l252 -293l-232 -307l322 309zM330 854l252 -293l-232 -307l322 309z" />
    <glyph glyph-name="questiondown" unicode="&#xbf;" horiz-adv-x="942" 
d="M508 1057q39 0 67.5 -27.5t28.5 -64.5q0 -39 -28 -67t-68 -28q-38 0 -65 28t-27 67q0 37 27 64.5t65 27.5zM510 778q0 -88 -39.5 -181t-95.5 -173.5t-112 -159t-95.5 -164t-40.5 -161.5q-1 -159 110 -248t281 -78q79 5 144.5 36.5t104.5 78t60 98.5t19 102q-2 51 -28 86
t-66 35q-45 0 -72 -33.5t-21 -81.5q3 -25 31.5 -69.5t28.5 -67.5q1 -78 -59 -120t-142 -44q-106 0 -172 77.5t-70 207.5q-2 71 27 154.5t69 161.5t77.5 161.5t56.5 183.5t4 199z" />
    <glyph glyph-name="Agrave" unicode="&#xc0;" horiz-adv-x="1277" 
d="M528 1720q-28 20 -40 42.5t-9.5 39.5t15.5 29q21 24 53 13t59 -54l172 -244zM1133 178q22 -56 53 -94.5t62.5 -54.5t51 -22t37.5 -7h-549q4 0 10.5 1t25 6t34 12.5t32.5 22t26 33t8.5 47.5t-13.5 64l-145 400h-473l-133 -350q-22 -64 -19 -114t43 -83t115 -39h-405
q71 5 134 67t105 175l488 1253q2 -8 6 -18zM535 1149q-26 0 -81 -144q-2 -4 -3 -6.5t-2 -5.5l-146 -387l455 2l-152 426q-25 66 -41 90.5t-30 24.5zM1346 0h-9h9z" />
    <glyph glyph-name="Aacute" unicode="&#xc1;" horiz-adv-x="1277" 
d="M807 1839q12 -11 14.5 -27.5t-10 -39t-41.5 -43.5l-250 -173l174 244q27 44 58.5 54t54.5 -15zM1133 178q22 -56 53 -94.5t62.5 -54.5t51 -22t37.5 -7h-549q4 0 10.5 1t25 6t34 12.5t32.5 22t26 33t8.5 47.5t-13.5 64l-145 400h-473l-133 -350q-22 -64 -19 -114t43 -83
t115 -39h-405q71 5 134 67t105 175l488 1253q2 -8 6 -18zM535 1149q-26 0 -81 -144q-2 -4 -3 -6.5t-2 -5.5l-146 -387l455 2l-152 426q-25 66 -41 90.5t-30 24.5zM1346 0h-9h9z" />
    <glyph glyph-name="Acircumflex" unicode="&#xc2;" horiz-adv-x="1277" 
d="M858 1526l-201 209l-223 -211l168 280h113zM1133 178q22 -56 53 -94.5t62.5 -54.5t51 -22t37.5 -7h-549q4 0 10.5 1t25 6t34 12.5t32.5 22t26 33t8.5 47.5t-13.5 64l-145 400h-473l-133 -350q-22 -64 -19 -114t43 -83t115 -39h-405q71 5 134 67t105 175l488 1253
q2 -8 6 -18zM535 1149q-26 0 -81 -144q-2 -4 -3 -6.5t-2 -5.5l-146 -387l455 2l-152 426q-25 66 -41 90.5t-30 24.5zM1346 0h-9h9z" />
    <glyph glyph-name="Atilde" unicode="&#xc3;" horiz-adv-x="1277" 
d="M471 1714q-15 0 -31.5 -4.5t-38 -17t-39 -41t-26.5 -70.5q1 97 58.5 151t135.5 48q33 -3 65.5 -23.5t54 -43t50.5 -41t58 -19.5q56 -2 94.5 33t42.5 96q6 -75 -39 -137.5t-121 -65.5q-36 -1 -66.5 12.5t-52 33.5t-42 40t-47 34t-56.5 15zM1133 178q22 -56 53 -94.5
t62.5 -54.5t51 -22t37.5 -7h-549q4 0 10.5 1t25 6t34 12.5t32.5 22t26 33t8.5 47.5t-13.5 64l-145 400h-473l-133 -350q-22 -64 -19 -114t43 -83t115 -39h-405q71 5 134 67t105 175l488 1253q2 -8 6 -18zM535 1149q-26 0 -81 -144q-2 -4 -3 -6.5t-2 -5.5l-146 -387l455 2
l-152 426q-25 66 -41 90.5t-30 24.5zM1346 0h-9h9z" />
    <glyph glyph-name="Adieresis" unicode="&#xc4;" horiz-adv-x="1277" 
d="M410 1604q-38 0 -65.5 28t-27.5 68q0 37 27.5 62.5t65.5 25.5q40 0 67 -25.5t27 -62.5q0 -40 -27 -68t-67 -28zM829 1604q-37 0 -64.5 28.5t-27.5 67.5q0 36 27.5 62t64.5 26q40 0 67.5 -25.5t27.5 -62.5q0 -40 -27.5 -68t-67.5 -28zM1133 178q22 -56 53 -94.5
t62.5 -54.5t51 -22t37.5 -7h-549q4 0 10.5 1t25 6t34 12.5t32.5 22t26 33t8.5 47.5t-13.5 64l-145 400h-473l-133 -350q-22 -64 -19 -114t43 -83t115 -39h-405q71 5 134 67t105 175l488 1253q2 -8 6 -18zM535 1149q-26 0 -81 -144q-2 -4 -3 -6.5t-2 -5.5l-146 -387l455 2
l-152 426q-25 66 -41 90.5t-30 24.5zM1346 0h-9h9z" />
    <glyph glyph-name="Aring" unicode="&#xc5;" horiz-adv-x="1277" 
d="M625 1581q-52 0 -89.5 37t-37.5 88q0 55 37 93t90 38q55 0 92 -36.5t37 -94.5q0 -51 -37.5 -88t-91.5 -37zM627 1810q-41 0 -70 -30t-29 -70t29 -70t70 -30q40 0 69 30t29 70t-29 70t-69 30zM1133 178q22 -56 53 -94.5t62.5 -54.5t51 -22t37.5 -7h-549q4 0 10.5 1t25 6
t34 12.5t32.5 22t26 33t8.5 47.5t-13.5 64l-145 400h-473l-133 -350q-22 -64 -19 -114t43 -83t115 -39h-405q71 5 134 67t105 175l488 1253q2 -8 6 -18zM535 1149q-26 0 -81 -144q-2 -4 -3 -6.5t-2 -5.5l-146 -387l455 2l-152 426q-25 66 -41 90.5t-30 24.5zM1346 0h-9h9z
" />
    <glyph glyph-name="AE" unicode="&#xc6;" horiz-adv-x="1832" 
d="M1755 387l-98 -387h-1057q8 0 19.5 1.5t35.5 11.5t42.5 26.5t33 52.5t14.5 84v459l-360 -2l-182 -348q-65 -132 -36.5 -203t138.5 -82h-420q14 0 36.5 7t60.5 27t82 69.5t81 121.5q42 80 175 340.5t275 540t167 328.5h840l79 -342q-20 41 -77.5 110.5t-120.5 108.5
q-1 0 -24.5 14t-26.5 16t-26 14t-31 14.5t-32 11.5t-39 11.5t-41.5 8.5t-50.5 8t-56 4t-66 2h-152v-659h100q74 3 131 27.5t86 57t47 65t22 54.5l5 23v-475q-1 9 -4 24.5t-21 54.5t-46.5 69t-86 54.5t-133.5 24.5h-100v-573q0 -84 31.5 -114t83.5 -30h116q188 0 375 132
q65 46 118 105.5t73 95.5zM393 655h352v471q0 5 0.5 24.5t0.5 32t-1.5 28t-7 24t-14.5 8.5q-12 0 -25.5 -11.5t-30 -39.5t-27 -48t-32.5 -63q-2 -5 -3.5 -7t-3 -6t-3.5 -7z" />
    <glyph glyph-name="Ccedilla" unicode="&#xc7;" horiz-adv-x="1456" 
d="M911 117q72 0 136.5 14.5t109.5 38.5t82.5 53t60.5 58.5t39 53.5t23 39l6 15q-2 -7 -6.5 -19.5t-21.5 -49.5t-38.5 -71t-59.5 -77.5t-82 -77t-109 -61t-138 -37.5q-55 -8 -118 -8l-52 -76q93 -7 133.5 -53t30.5 -107q-10 -62 -50.5 -98t-92 -42t-103.5 6.5t-86 39.5
q33 -14 73 -18t79 3t67.5 35.5t32.5 75.5q7 59 -36 89t-97 34l76 113q-121 5 -228.5 46.5t-186.5 109.5t-137.5 156t-89 187.5t-32.5 202.5q-3 141 33.5 261t101.5 206.5t154 149.5t191.5 97t214.5 42q135 9 268 -16q76 -15 140 -40t90 -43l26 -18l-2 -293q-15 30 -25 48
t-41 63t-63 78t-84.5 73t-112.5 68q-108 52 -228 50t-224 -62q-128 -75 -194.5 -241t-49.5 -374q14 -185 101 -328t222.5 -219t296.5 -77z" />
    <glyph glyph-name="Egrave" unicode="&#xc8;" horiz-adv-x="1333" 
d="M500 1720q-41 30 -49 63t12 48q23 24 54.5 13.5t60.5 -54.5l172 -244zM1044 143q73 53 127 109t71 86l18 29l-89 -367h-1130q17 0 40 5t58 19.5t58.5 52.5t23.5 93v1100q0 45 -17 78t-38.5 49t-51 25t-44.5 10.5t-29 1.5h1059l71 -328q-17 33 -75.5 98t-128.5 113
q-60 39 -105.5 57.5t-120.5 28.5t-200 10h-127v-657h114q50 1 93 12.5t71.5 29t51 38.5t35 41.5t21 38t10.5 28.5l3 10v-424q-2 8 -5.5 21.5t-23.5 48.5t-48 61.5t-83.5 48.5t-124.5 23h-114v-538q0 -47 10.5 -81t25.5 -52t37.5 -28.5t39.5 -13t38 -2.5h129q106 0 189 34
t161 91z" />
    <glyph glyph-name="Eacute" unicode="&#xc9;" horiz-adv-x="1333" 
d="M866 1839q12 -11 14.5 -27.5t-10 -39t-41.5 -43.5l-249 -173l174 244q27 44 58 54t54 -15zM1044 143q73 53 127 109t71 86l18 29l-89 -367h-1130q17 0 40 5t58 19.5t58.5 52.5t23.5 93v1100q0 45 -17 78t-38.5 49t-51 25t-44.5 10.5t-29 1.5h1059l71 -328
q-17 33 -75.5 98t-128.5 113q-60 39 -105.5 57.5t-120.5 28.5t-200 10h-127v-657h114q50 1 93 12.5t71.5 29t51 38.5t35 41.5t21 38t10.5 28.5l3 10v-424q-2 8 -5.5 21.5t-23.5 48.5t-48 61.5t-83.5 48.5t-124.5 23h-114v-538q0 -47 10.5 -81t25.5 -52t37.5 -28.5t39.5 -13
t38 -2.5h129q106 0 189 34t161 91z" />
    <glyph glyph-name="Ecircumflex" unicode="&#xca;" horiz-adv-x="1333" 
d="M860 1526l-201 209l-225 -211l168 280h115zM1044 143q73 53 127 109t71 86l18 29l-89 -367h-1130q17 0 40 5t58 19.5t58.5 52.5t23.5 93v1100q0 45 -17 78t-38.5 49t-51 25t-44.5 10.5t-29 1.5h1059l71 -328q-17 33 -75.5 98t-128.5 113q-60 39 -105.5 57.5t-120.5 28.5
t-200 10h-127v-657h114q50 1 93 12.5t71.5 29t51 38.5t35 41.5t21 38t10.5 28.5l3 10v-424q-2 8 -5.5 21.5t-23.5 48.5t-48 61.5t-83.5 48.5t-124.5 23h-114v-538q0 -47 10.5 -81t25.5 -52t37.5 -28.5t39.5 -13t38 -2.5h129q106 0 189 34t161 91z" />
    <glyph glyph-name="Edieresis" unicode="&#xcb;" horiz-adv-x="1333" 
d="M420 1604q-37 0 -64.5 28.5t-27.5 67.5q0 36 27.5 62t64.5 26q40 0 68 -25.5t28 -62.5q0 -40 -28 -68t-68 -28zM842 1604q-37 0 -64.5 28.5t-27.5 67.5q0 36 27.5 62t64.5 26q40 0 67 -25.5t27 -62.5q0 -40 -27 -68t-67 -28zM1044 143q73 53 127 109t71 86l18 29
l-89 -367h-1130q17 0 40 5t58 19.5t58.5 52.5t23.5 93v1100q0 45 -17 78t-38.5 49t-51 25t-44.5 10.5t-29 1.5h1059l71 -328q-17 33 -75.5 98t-128.5 113q-60 39 -105.5 57.5t-120.5 28.5t-200 10h-127v-657h114q50 1 93 12.5t71.5 29t51 38.5t35 41.5t21 38t10.5 28.5l3 10
v-424q-2 8 -5.5 21.5t-23.5 48.5t-48 61.5t-83.5 48.5t-124.5 23h-114v-538q0 -47 10.5 -81t25.5 -52t37.5 -28.5t39.5 -13t38 -2.5h129q106 0 189 34t161 91z" />
    <glyph glyph-name="Igrave" unicode="&#xcc;" horiz-adv-x="686" 
d="M199 1720q-29 20 -41.5 42.5t-10 39.5t14.5 29q21 24 53 13t59 -54l172 -244zM432 174q0 -47 17.5 -82t39.5 -52t52 -27t45.5 -11.5t29.5 -1.5h-557q13 0 29 1.5t45.5 11.5t52 27t39.5 52t17 82v1086q0 48 -17.5 83t-39 52t-51.5 26.5t-45.5 11t-29.5 1.5h557
q-14 0 -29.5 -1.5t-45.5 -11t-52 -26.5t-39.5 -52t-17.5 -83v-1086z" />
    <glyph glyph-name="Iacute" unicode="&#xcd;" horiz-adv-x="686" 
d="M514 1839q13 -10 15.5 -27t-10 -39.5t-40.5 -43.5l-250 -173l172 244q27 44 59.5 54t53.5 -15zM432 174q0 -47 17.5 -82t39.5 -52t52 -27t45.5 -11.5t29.5 -1.5h-557q13 0 29 1.5t45.5 11.5t52 27t39.5 52t17 82v1086q0 48 -17.5 83t-39 52t-51.5 26.5t-45.5 11
t-29.5 1.5h557q-14 0 -29.5 -1.5t-45.5 -11t-52 -26.5t-39.5 -52t-17.5 -83v-1086z" />
    <glyph glyph-name="Icircumflex" unicode="&#xce;" horiz-adv-x="686" 
d="M567 1526l-200 209l-226 -211l170 280h113zM432 174q0 -47 17.5 -82t39.5 -52t52 -27t45.5 -11.5t29.5 -1.5h-557q13 0 29 1.5t45.5 11.5t52 27t39.5 52t17 82v1086q0 48 -17.5 83t-39 52t-51.5 26.5t-45.5 11t-29.5 1.5h557q-14 0 -29.5 -1.5t-45.5 -11t-52 -26.5
t-39.5 -52t-17.5 -83v-1086z" />
    <glyph glyph-name="Idieresis" unicode="&#xcf;" horiz-adv-x="686" 
d="M137 1604q-37 0 -64.5 28.5t-27.5 67.5q0 36 27.5 62t64.5 26q40 0 67 -25.5t27 -62.5q0 -40 -27 -68t-67 -28zM559 1788q40 0 67 -25.5t27 -62.5q0 -40 -27 -68t-67 -28q-37 0 -64.5 28.5t-27.5 67.5q0 36 27.5 62t64.5 26zM432 174q0 -47 17.5 -82t39.5 -52t52 -27
t45.5 -11.5t29.5 -1.5h-557q13 0 29 1.5t45.5 11.5t52 27t39.5 52t17 82v1086q0 48 -17.5 83t-39 52t-51.5 26.5t-45.5 11t-29.5 1.5h557q-14 0 -29.5 -1.5t-45.5 -11t-52 -26.5t-39.5 -52t-17.5 -83v-1086z" />
    <glyph glyph-name="Eth" unicode="&#xd0;" horiz-adv-x="1462" 
d="M1397 766q3 -125 -22 -239t-78.5 -209.5t-130 -166t-183 -110.5t-231.5 -41h-125h-561q14 0 30 1.5t46.5 10.5t53 25t40.5 49.5t18 79.5v555h-152l-24 18h176v521q0 48 -18 83.5t-40.5 52t-53.5 26t-46 11t-30 1.5h577q142 2 251.5 -15t205 -62.5t158.5 -120.5t99.5 -193
t39.5 -277zM756 25q149 9 248.5 104t145 256.5t42.5 382.5q-3 152 -34.5 266.5t-81.5 184.5t-122.5 114t-147 61t-165.5 19q-139 0 -186 -4v-670h194l-18 -18h-176v-528q0 -101 46.5 -135.5t149.5 -34.5q91 0 105 2z" />
    <glyph glyph-name="Ntilde" unicode="&#xd1;" horiz-adv-x="1503" 
d="M639 1714q-15 0 -31.5 -4.5t-38.5 -17t-39.5 -41t-25.5 -70.5q0 97 58 151t136 48q33 -3 65 -23.5t53 -43t50 -41t58 -19.5q57 -2 96 32.5t43 96.5q5 -75 -39.5 -137.5t-120.5 -65.5q-36 -1 -66.5 12.5t-52 33.5t-42 40t-47 34t-56.5 15zM1227 1180q0 66 -20 115.5
t-46.5 74.5t-62 40.5t-55.5 19t-39 4.5h464q-18 -1 -37 -4t-54.5 -18.5t-61.5 -40.5t-46 -74.5t-20 -116.5v-1205h-2l-16 25l-879 1169q-38 47 -59 11q-14 -25 -14 -78v-838q0 -50 12.5 -92t32.5 -68.5t44 -46.5t47.5 -30.5t43.5 -17t33 -7.5l12 -2h-473q5 0 13 1.5t31.5 8
t44.5 16.5t47 30.5t44.5 47t31.5 69t13 93.5v836q0 51 -7 95t-18.5 75t-27 57t-32.5 42.5t-33.5 29t-32 19t-27 10t-18.5 4.5l-7 2h348l736 -981q42 -57 67 -52q8 1 13 10.5t7 29.5t2.5 34.5t0.5 42.5v660z" />
    <glyph glyph-name="Ograve" unicode="&#xd2;" horiz-adv-x="1656" 
d="M975 1546l-248 174q-29 20 -41.5 42.5t-10 39.5t14.5 29q21 24 53.5 13t59.5 -54zM860 1450q142 1 258.5 -43.5t192.5 -117.5t127.5 -171t72.5 -201.5t19 -211.5q-4 -153 -56.5 -286t-145 -231t-229 -153.5t-298.5 -54.5q-122 0 -226.5 32.5t-180 89t-134 129t-93 157
t-51 170.5t-14.5 171q3 219 104.5 384.5t271.5 251t382 85.5zM1311 711q-7 191 -73.5 351.5t-183 256.5t-259.5 96q-228 6 -359.5 -174.5t-116.5 -492.5q10 -188 80.5 -351t188.5 -266.5t258 -114.5q126 -12 221 36t150.5 143.5t79 226t14.5 289.5z" />
    <glyph glyph-name="Oacute" unicode="&#xd3;" horiz-adv-x="1656" 
d="M737 1556l248 173q29 21 41.5 43.5t10 39t-14.5 27.5q-21 25 -53.5 15t-59.5 -54zM860 1450q142 1 258.5 -43.5t192.5 -117.5t127.5 -171t72.5 -201.5t19 -211.5q-4 -153 -56.5 -286t-145 -231t-229 -153.5t-298.5 -54.5q-122 0 -226.5 32.5t-180 89t-134 129t-93 157
t-51 170.5t-14.5 171q3 219 104.5 384.5t271.5 251t382 85.5zM1311 711q-7 191 -73.5 351.5t-183 256.5t-259.5 96q-228 6 -359.5 -174.5t-116.5 -492.5q10 -188 80.5 -351t188.5 -266.5t258 -114.5q126 -12 221 36t150.5 143.5t79 226t14.5 289.5z" />
    <glyph glyph-name="Ocircumflex" unicode="&#xd4;" horiz-adv-x="1656" 
d="M623 1524l225 211l201 -209l-144 278h-114zM860 1450q142 1 258.5 -43.5t192.5 -117.5t127.5 -171t72.5 -201.5t19 -211.5q-4 -153 -56.5 -286t-145 -231t-229 -153.5t-298.5 -54.5q-122 0 -226.5 32.5t-180 89t-134 129t-93 157t-51 170.5t-14.5 171q3 219 104.5 384.5
t271.5 251t382 85.5zM1311 711q-7 191 -73.5 351.5t-183 256.5t-259.5 96q-228 6 -359.5 -174.5t-116.5 -492.5q10 -188 80.5 -351t188.5 -266.5t258 -114.5q126 -12 221 36t150.5 143.5t79 226t14.5 289.5z" />
    <glyph glyph-name="Otilde" unicode="&#xd5;" horiz-adv-x="1656" 
d="M545 1581q8 42 25.5 70.5t39.5 41t38.5 17t31.5 4.5q30 -1 56.5 -15t47 -34t42 -40t52 -33.5t66.5 -12.5q76 3 120.5 65.5t39.5 137.5q-4 -62 -43 -96.5t-96 -32.5q-29 1 -58 19.5t-50 41t-53 43t-65 23.5q-78 6 -136 -48t-58 -151zM860 1450q142 1 258.5 -43.5
t192.5 -117.5t127.5 -171t72.5 -201.5t19 -211.5q-4 -153 -56.5 -286t-145 -231t-229 -153.5t-298.5 -54.5q-122 0 -226.5 32.5t-180 89t-134 129t-93 157t-51 170.5t-14.5 171q3 219 104.5 384.5t271.5 251t382 85.5zM1311 711q-7 191 -73.5 351.5t-183 256.5t-259.5 96
q-228 6 -359.5 -174.5t-116.5 -492.5q10 -188 80.5 -351t188.5 -266.5t258 -114.5q126 -12 221 36t150.5 143.5t79 226t14.5 289.5z" />
    <glyph glyph-name="Odieresis" unicode="&#xd6;" horiz-adv-x="1656" 
d="M627 1604q-37 0 -64.5 28.5t-27.5 67.5q0 36 27.5 62t64.5 26q40 0 67 -25.5t27 -62.5q0 -40 -27 -68t-67 -28zM1047 1604q-37 0 -65 28.5t-28 67.5q0 36 28 62t65 26q40 0 67 -25.5t27 -62.5q0 -40 -27 -68t-67 -28zM860 1450q142 1 258.5 -43.5t192.5 -117.5
t127.5 -171t72.5 -201.5t19 -211.5q-4 -153 -56.5 -286t-145 -231t-229 -153.5t-298.5 -54.5q-122 0 -226.5 32.5t-180 89t-134 129t-93 157t-51 170.5t-14.5 171q3 219 104.5 384.5t271.5 251t382 85.5zM1311 711q-7 191 -73.5 351.5t-183 256.5t-259.5 96
q-228 6 -359.5 -174.5t-116.5 -492.5q10 -188 80.5 -351t188.5 -266.5t258 -114.5q126 -12 221 36t150.5 143.5t79 226t14.5 289.5z" />
    <glyph glyph-name="multiply" unicode="&#xd7;" horiz-adv-x="872" 
d="M756 410l-19 -19l-301 303l-303 -303l-16 19l301 301l-299 299l18 18l299 -299l299 299l17 -18l-297 -297z" />
    <glyph glyph-name="Oslash" unicode="&#xd8;" horiz-adv-x="1675" 
d="M1313 1298q119 -107 175.5 -265t53.5 -328q-4 -153 -56.5 -286t-145 -231t-229 -153.5t-298.5 -54.5q-279 0 -467 170l-125 -150h-33l140 166q-109 109 -163.5 260t-51.5 303q3 219 105 384.5t272 251t382 85.5q256 0 422 -137l105 123h31zM332 748q12 -244 121 -435
l733 869q-71 110 -168 171.5t-211 61.5q-228 6 -359 -174.5t-116 -492.5zM856 16q127 -12 222.5 36t150.5 144t79 226t15 289q-12 263 -125 450l-731 -870q73 -120 173 -193t216 -82z" />
    <glyph glyph-name="Ugrave" unicode="&#xd9;" horiz-adv-x="1398" 
d="M649 1720q-29 20 -41.5 42.5t-10 39.5t14.5 29q21 24 53.5 13t59.5 -54l172 -244zM1186 1188q0 62 -17.5 109.5t-41 72t-54.5 40t-49.5 19.5t-34.5 5h404q-14 -1 -30.5 -5t-46 -20t-52 -41t-39.5 -74t-17 -114v-580q0 -35 -0.5 -58t-5 -74t-12.5 -89t-24.5 -91t-40 -92
t-60.5 -81t-83.5 -68.5t-111.5 -43.5t-143 -17q-101 0 -181.5 24t-135 62.5t-94 99t-61.5 121t-34.5 142t-16 148t-3.5 152.5v492q0 56 -16.5 97.5t-38 61.5t-50.5 32t-44.5 14t-28.5 2h559q-15 0 -31 -2t-45.5 -14t-51 -32t-38.5 -61.5t-17 -97.5v-609q0 -126 21.5 -226
t67 -177.5t123.5 -118.5t184 -39q198 5 294.5 139t96.5 416v576z" />
    <glyph glyph-name="Uacute" unicode="&#xda;" horiz-adv-x="1398" 
d="M1012 1839q12 -11 14.5 -27.5t-10 -39t-41.5 -43.5l-250 -173l174 244q27 44 58.5 54t54.5 -15zM1186 1188q0 62 -17.5 109.5t-41 72t-54.5 40t-49.5 19.5t-34.5 5h404q-14 -1 -30.5 -5t-46 -20t-52 -41t-39.5 -74t-17 -114v-580q0 -35 -0.5 -58t-5 -74t-12.5 -89
t-24.5 -91t-40 -92t-60.5 -81t-83.5 -68.5t-111.5 -43.5t-143 -17q-101 0 -181.5 24t-135 62.5t-94 99t-61.5 121t-34.5 142t-16 148t-3.5 152.5v492q0 56 -16.5 97.5t-38 61.5t-50.5 32t-44.5 14t-28.5 2h559q-15 0 -31 -2t-45.5 -14t-51 -32t-38.5 -61.5t-17 -97.5v-609
q0 -126 21.5 -226t67 -177.5t123.5 -118.5t184 -39q198 5 294.5 139t96.5 416v576z" />
    <glyph glyph-name="Ucircumflex" unicode="&#xdb;" horiz-adv-x="1398" 
d="M975 1526l-201 209l-223 -211l168 280h112zM1186 1188q0 62 -17.5 109.5t-41 72t-54.5 40t-49.5 19.5t-34.5 5h404q-14 -1 -30.5 -5t-46 -20t-52 -41t-39.5 -74t-17 -114v-580q0 -35 -0.5 -58t-5 -74t-12.5 -89t-24.5 -91t-40 -92t-60.5 -81t-83.5 -68.5t-111.5 -43.5
t-143 -17q-101 0 -181.5 24t-135 62.5t-94 99t-61.5 121t-34.5 142t-16 148t-3.5 152.5v492q0 56 -16.5 97.5t-38 61.5t-50.5 32t-44.5 14t-28.5 2h559q-15 0 -31 -2t-45.5 -14t-51 -32t-38.5 -61.5t-17 -97.5v-609q0 -126 21.5 -226t67 -177.5t123.5 -118.5t184 -39
q198 5 294.5 139t96.5 416v576z" />
    <glyph glyph-name="Udieresis" unicode="&#xdc;" horiz-adv-x="1398" 
d="M586 1604q-37 0 -64.5 28.5t-27.5 67.5q0 36 27.5 62t64.5 26q40 0 67 -25.5t27 -62.5q0 -40 -27 -68t-67 -28zM1008 1604q-37 0 -65 28.5t-28 67.5q0 36 28 62t65 26q40 0 67 -25.5t27 -62.5q0 -40 -27 -68t-67 -28zM1186 1188q0 62 -17.5 109.5t-41 72t-54.5 40
t-49.5 19.5t-34.5 5h404q-14 -1 -30.5 -5t-46 -20t-52 -41t-39.5 -74t-17 -114v-580q0 -35 -0.5 -58t-5 -74t-12.5 -89t-24.5 -91t-40 -92t-60.5 -81t-83.5 -68.5t-111.5 -43.5t-143 -17q-101 0 -181.5 24t-135 62.5t-94 99t-61.5 121t-34.5 142t-16 148t-3.5 152.5v492
q0 56 -16.5 97.5t-38 61.5t-50.5 32t-44.5 14t-28.5 2h559q-15 0 -31 -2t-45.5 -14t-51 -32t-38.5 -61.5t-17 -97.5v-609q0 -126 21.5 -226t67 -177.5t123.5 -118.5t184 -39q198 5 294.5 139t96.5 416v576z" />
    <glyph glyph-name="Yacute" unicode="&#xdd;" horiz-adv-x="1185" 
d="M897 1839q12 -11 14.5 -27.5t-10 -39t-41.5 -43.5l-248 -173l172 244q27 44 59.5 54t53.5 -15zM877 1434h397q-82 -19 -149 -80.5t-113 -143.5l-242 -436q-53 -96 -53 -225v-381q0 -50 21 -85.5t53 -52t55.5 -23t42.5 -7.5h-539q18 0 43 6.5t56.5 21.5t53.5 49.5t23 82.5
l2 366q0 110 -49 189l-323 553q-37 60 -86.5 100t-85.5 53t-62 13l539 -2q-79 -4 -105 -60t17 -129l272 -477q21 -38 48 -37t52 47l222 398q60 101 38.5 172t-128.5 88z" />
    <glyph glyph-name="Thorn" unicode="&#xde;" horiz-adv-x="1128" 
d="M1006 967q53 -135 18 -270t-125 -199q-78 -59 -210 -77t-249 11q64 -6 123.5 1t115 32t96.5 65.5t66.5 106t26.5 149.5q1 189 -90 276t-270 85q-25 3 -113 -2v-993q0 -35 10.5 -62t28 -43t35.5 -26t39.5 -14.5t33 -5.5t21.5 -1h-524q13 0 27.5 1.5t41.5 10t46.5 23
t35 45.5t15.5 72v1130q0 41 -15.5 72t-35 45.5t-46.5 23t-41.5 10t-27.5 1.5h524q-10 0 -21.5 -1t-33 -5.5t-39.5 -14.5t-35.5 -26t-28 -43t-10.5 -62v-121q22 2 68 5t47 3q91 4 160 -1.5t137 -25t118.5 -63.5t80.5 -112z" />
    <glyph glyph-name="germandbls" unicode="&#xdf;" horiz-adv-x="1083" 
d="M1006 332q3 -146 -82 -244t-232 -98q-107 0 -175 50.5t-68 125.5q0 39 23.5 58.5t53.5 19.5q22 0 33 -11q39 -25 39 -102q0 -59 34.5 -91.5t90.5 -29.5q47 1 81 35.5t49.5 86t16.5 114.5q6 250 -229 342q-43 19 -73 39t-43.5 37.5t-21 35.5t-6 32t0.5 28q2 26 18 49.5
t38 41.5t48.5 45t49.5 58t41.5 83.5t23.5 119.5q2 37 2 76t-12 77t-30.5 68.5t-53.5 49t-82 18.5q-94 0 -133 -69t-39 -222v-1030q0 -35 14 -60.5t31.5 -37.5t41.5 -18.5t35 -7.5t21 -1h-449q10 0 21 1t35 7.5t41.5 18.5t32 37.5t14.5 60.5v1005q0 93 27.5 159t79.5 102.5
t117.5 52.5t150.5 14q59 -1 107.5 -18t79.5 -44t54.5 -62t32 -72.5t12 -75t-5.5 -70.5q-12 -62 -37.5 -111.5t-56.5 -79.5t-65.5 -52.5t-66.5 -36t-58.5 -25t-43 -24t-18.5 -27.5q-2 -16 7.5 -27.5t30 -19t39.5 -11.5t50.5 -9t48.5 -9q86 -20 149 -58.5t97 -88.5t50 -100
t18 -105z" />
    <glyph glyph-name="agrave" unicode="&#xe0;" 
d="M426 1223q-29 20 -41.5 42t-10 39t14.5 29q21 25 53.5 15t59.5 -54l172 -245zM983 115q23 2 35 39q-11 -36 -21.5 -60t-30 -52.5t-51 -43t-73.5 -14.5q-71 0 -106.5 43.5t-35.5 124.5v395q-79 -24 -135 -43.5t-116 -47.5t-97 -56.5t-62 -67.5t-28 -84q-5 -69 37 -122.5
t127 -57.5q128 -11 266 98q-33 -35 -48.5 -50.5t-54.5 -48t-70.5 -48.5t-79 -30t-97.5 -14q-67 0 -117 23t-76 59.5t-37.5 76.5t-9.5 79q2 36 13 67t34 57t47 46.5t64 39.5t72.5 33t85 30t88.5 26t97 26.5t97 26.5v115q0 147 -63 210.5t-166 43.5q-77 -13 -130.5 -58
t-53.5 -118q0 -21 13 -53t15 -52q1 -41 -27 -66.5t-65 -25.5q-36 0 -64.5 24.5t-25.5 78.5q2 69 58 132t131 101t153 53q47 9 92.5 10t90 -7t81.5 -29t65.5 -54t43.5 -84.5t14 -117.5v-502q0 -54 21.5 -76t49.5 -13t50 38z" />
    <glyph glyph-name="aacute" unicode="&#xe1;" 
d="M711 1333q12 -11 14.5 -27.5t-9.5 -39t-40 -43.5l-250 -172l172 243q27 44 59.5 54t53.5 -15zM983 115q23 2 35 39q-11 -36 -21.5 -60t-30 -52.5t-51 -43t-73.5 -14.5q-71 0 -106.5 43.5t-35.5 124.5v395q-79 -24 -135 -43.5t-116 -47.5t-97 -56.5t-62 -67.5t-28 -84
q-5 -69 37 -122.5t127 -57.5q128 -11 266 98q-33 -35 -48.5 -50.5t-54.5 -48t-70.5 -48.5t-79 -30t-97.5 -14q-67 0 -117 23t-76 59.5t-37.5 76.5t-9.5 79q2 36 13 67t34 57t47 46.5t64 39.5t72.5 33t85 30t88.5 26t97 26.5t97 26.5v115q0 147 -63 210.5t-166 43.5
q-77 -13 -130.5 -58t-53.5 -118q0 -21 13 -53t15 -52q1 -41 -27 -66.5t-65 -25.5q-36 0 -64.5 24.5t-25.5 78.5q2 69 58 132t131 101t153 53q47 9 92.5 10t90 -7t81.5 -29t65.5 -54t43.5 -84.5t14 -117.5v-502q0 -54 21.5 -76t49.5 -13t50 38z" />
    <glyph glyph-name="acircumflex" unicode="&#xe2;" 
d="M758 1012l-203 209l-223 -211l168 280h114zM983 115q23 2 35 39q-11 -36 -21.5 -60t-30 -52.5t-51 -43t-73.5 -14.5q-71 0 -106.5 43.5t-35.5 124.5v395q-79 -24 -135 -43.5t-116 -47.5t-97 -56.5t-62 -67.5t-28 -84q-5 -69 37 -122.5t127 -57.5q128 -11 266 98
q-33 -35 -48.5 -50.5t-54.5 -48t-70.5 -48.5t-79 -30t-97.5 -14q-67 0 -117 23t-76 59.5t-37.5 76.5t-9.5 79q2 36 13 67t34 57t47 46.5t64 39.5t72.5 33t85 30t88.5 26t97 26.5t97 26.5v115q0 147 -63 210.5t-166 43.5q-77 -13 -130.5 -58t-53.5 -118q0 -21 13 -53t15 -52
q1 -41 -27 -66.5t-65 -25.5q-36 0 -64.5 24.5t-25.5 78.5q2 69 58 132t131 101t153 53q47 9 92.5 10t90 -7t81.5 -29t65.5 -54t43.5 -84.5t14 -117.5v-502q0 -54 21.5 -76t49.5 -13t50 38z" />
    <glyph glyph-name="atilde" unicode="&#xe3;" 
d="M393 1210q-15 0 -31.5 -4.5t-38.5 -17t-40 -42t-27 -71.5q1 98 59.5 152.5t135.5 48.5q34 -3 66.5 -24t53.5 -43.5t49.5 -41t57.5 -18.5q56 -2 94.5 32t42.5 95q6 -73 -39 -135.5t-121 -65.5q-36 -1 -66 12.5t-51.5 33.5t-42 40t-46.5 34t-56 15zM983 115q23 2 35 39
q-11 -36 -21.5 -60t-30 -52.5t-51 -43t-73.5 -14.5q-71 0 -106.5 43.5t-35.5 124.5v395q-79 -24 -135 -43.5t-116 -47.5t-97 -56.5t-62 -67.5t-28 -84q-5 -69 37 -122.5t127 -57.5q128 -11 266 98q-33 -35 -48.5 -50.5t-54.5 -48t-70.5 -48.5t-79 -30t-97.5 -14
q-67 0 -117 23t-76 59.5t-37.5 76.5t-9.5 79q2 36 13 67t34 57t47 46.5t64 39.5t72.5 33t85 30t88.5 26t97 26.5t97 26.5v115q0 147 -63 210.5t-166 43.5q-77 -13 -130.5 -58t-53.5 -118q0 -21 13 -53t15 -52q1 -41 -27 -66.5t-65 -25.5q-36 0 -64.5 24.5t-25.5 78.5
q2 69 58 132t131 101t153 53q47 9 92.5 10t90 -7t81.5 -29t65.5 -54t43.5 -84.5t14 -117.5v-502q0 -54 21.5 -76t49.5 -13t50 38z" />
    <glyph glyph-name="adieresis" unicode="&#xe4;" 
d="M332 1108q-37 0 -64.5 27.5t-27.5 66.5q0 37 27.5 63.5t64.5 26.5q39 0 66.5 -26.5t27.5 -63.5q0 -40 -27 -67t-67 -27zM754 1108q-39 0 -67 27.5t-28 66.5q0 37 28.5 63.5t66.5 26.5t66 -26.5t28 -63.5q0 -39 -27.5 -66.5t-66.5 -27.5zM983 115q23 2 35 39
q-11 -36 -21.5 -60t-30 -52.5t-51 -43t-73.5 -14.5q-71 0 -106.5 43.5t-35.5 124.5v395q-79 -24 -135 -43.5t-116 -47.5t-97 -56.5t-62 -67.5t-28 -84q-5 -69 37 -122.5t127 -57.5q128 -11 266 98q-33 -35 -48.5 -50.5t-54.5 -48t-70.5 -48.5t-79 -30t-97.5 -14
q-67 0 -117 23t-76 59.5t-37.5 76.5t-9.5 79q2 36 13 67t34 57t47 46.5t64 39.5t72.5 33t85 30t88.5 26t97 26.5t97 26.5v115q0 147 -63 210.5t-166 43.5q-77 -13 -130.5 -58t-53.5 -118q0 -21 13 -53t15 -52q1 -41 -27 -66.5t-65 -25.5q-36 0 -64.5 24.5t-25.5 78.5
q2 69 58 132t131 101t153 53q47 9 92.5 10t90 -7t81.5 -29t65.5 -54t43.5 -84.5t14 -117.5v-502q0 -54 21.5 -76t49.5 -13t50 38z" />
    <glyph glyph-name="aring" unicode="&#xe5;" 
d="M532 1044q-51 0 -87.5 38t-36.5 89q0 54 36.5 91.5t87.5 37.5q56 0 93.5 -36t36.5 -93q0 -51 -38 -89t-92 -38zM535 1274q-40 0 -69.5 -29t-29.5 -69t29.5 -70.5t69.5 -30.5q39 0 68.5 30.5t29.5 70.5t-29 69t-69 29zM983 115q23 2 35 39q-11 -36 -21.5 -60t-30 -52.5
t-51 -43t-73.5 -14.5q-71 0 -106.5 43.5t-35.5 124.5v395q-79 -24 -135 -43.5t-116 -47.5t-97 -56.5t-62 -67.5t-28 -84q-5 -69 37 -122.5t127 -57.5q128 -11 266 98q-33 -35 -48.5 -50.5t-54.5 -48t-70.5 -48.5t-79 -30t-97.5 -14q-67 0 -117 23t-76 59.5t-37.5 76.5
t-9.5 79q2 36 13 67t34 57t47 46.5t64 39.5t72.5 33t85 30t88.5 26t97 26.5t97 26.5v115q0 147 -63 210.5t-166 43.5q-77 -13 -130.5 -58t-53.5 -118q0 -21 13 -53t15 -52q1 -41 -27 -66.5t-65 -25.5q-36 0 -64.5 24.5t-25.5 78.5q2 69 58 132t131 101t153 53q47 9 92.5 10
t90 -7t81.5 -29t65.5 -54t43.5 -84.5t14 -117.5v-502q0 -54 21.5 -76t49.5 -13t50 38z" />
    <glyph glyph-name="ae" unicode="&#xe6;" horiz-adv-x="1607" 
d="M743 176l-29.5 -29.5t-42 -41.5t-53 -43t-68.5 -41.5t-82 -28.5t-99 -12q-70 0 -122.5 22t-81 57.5t-42 74.5t-12.5 79q1 42 16 78t35 62.5t58 50.5t69.5 39.5t88 34t94 29t106.5 29t108 29.5v113q0 78 -18.5 133t-50.5 82t-66.5 37t-73.5 6q-85 -9 -141.5 -58.5
t-52.5 -117.5q2 -19 12.5 -46.5t11.5 -47.5q2 -40 -22 -67t-64 -28q-37 -2 -63 25t-25 78q3 99 127 188q103 77 236 90q42 8 90 1t90 -22.5t78 -52t55 -87.5q18 25 54.5 57t74.5 53q99 58 229 51q154 -6 249 -122.5t91 -303.5h-657q-4 -111 28 -204.5t104 -156.5t175 -71
q112 -10 207 33.5t147 151.5q-33 -121 -132 -208.5t-234 -88.5q-104 -2 -213 53.5t-172 157.5q-44 83 -59 162t-15 196q-184 -66 -248 -100q-143 -76 -154 -185q-1 -13 -1 -26q2 -73 46 -125.5t132 -55.5q78 -3 141 22.5t141 94.5zM850 547q242 0 330 6q125 8 170 63
q20 23 29.5 65t-2.5 97t-54 96q-61 62 -159 63t-175 -58q-70 -56 -103 -136.5t-36 -195.5z" />
    <glyph glyph-name="ccedilla" unicode="&#xe7;" horiz-adv-x="1050" 
d="M981 295q-34 -137 -142 -229t-266 -95l-41 -59q93 -7 133.5 -53t30.5 -107q-10 -62 -50.5 -98t-91.5 -42t-103 6.5t-86 39.5q33 -14 72.5 -18t78.5 3t67.5 35.5t32.5 75.5q7 59 -36 89t-97 34l66 94q-93 4 -175 37t-146 92t-102.5 149t-39.5 200q-1 90 23 168.5t67 136
t101.5 102.5t126.5 67.5t142 32t148 -5.5q97 -16 171 -76.5t75 -142.5q3 -51 -25 -79.5t-71 -26.5q-52 3 -75.5 44t-10.5 91q24 83 -21.5 131t-130.5 51q-74 4 -138.5 -20.5t-111 -71t-78.5 -111t-40.5 -142t2.5 -163.5q23 -153 122 -242.5t244 -95.5q119 -5 219 42t156 157
z" />
    <glyph glyph-name="egrave" unicode="&#xe8;" horiz-adv-x="1054" 
d="M678 1049l-250 174q-28 20 -40.5 42t-10 39t15.5 29q21 25 53.5 15t59.5 -54zM608 96q256 -10 357 195q-29 -133 -142 -224t-270 -90q-127 2 -231 62.5t-166.5 171.5t-65.5 252q-3 156 61.5 262.5t167.5 167.5q122 75 281 68q159 -9 259.5 -125t96.5 -301h-710
q0 -190 98.5 -311.5t263.5 -127.5zM391 889q-74 -53 -107.5 -147.5t-37.5 -190.5q303 0 366 8q129 12 174 70q23 28 30 74t-11.5 99.5t-65.5 90.5q-68 57 -168 55t-180 -59z" />
    <glyph glyph-name="eacute" unicode="&#xe9;" horiz-adv-x="1054" 
d="M477 1051l250 172q41 31 49 64t-12 46q-23 25 -54.5 15t-58.5 -54zM608 96q256 -10 357 195q-29 -133 -142 -224t-270 -90q-127 2 -231 62.5t-166.5 171.5t-65.5 252q-3 156 61.5 262.5t167.5 167.5q122 75 281 68q159 -9 259.5 -125t96.5 -301h-710q0 -190 98.5 -311.5
t263.5 -127.5zM391 889q-74 -53 -107.5 -147.5t-37.5 -190.5q303 0 366 8q129 12 174 70q23 28 30 74t-11.5 99.5t-65.5 90.5q-68 57 -168 55t-180 -59z" />
    <glyph glyph-name="ecircumflex" unicode="&#xea;" horiz-adv-x="1054" 
d="M344 1010l223 211l201 -209l-143 278h-113zM608 96q256 -10 357 195q-29 -133 -142 -224t-270 -90q-127 2 -231 62.5t-166.5 171.5t-65.5 252q-3 156 61.5 262.5t167.5 167.5q122 75 281 68q159 -9 259.5 -125t96.5 -301h-710q0 -190 98.5 -311.5t263.5 -127.5zM391 889
q-74 -53 -107.5 -147.5t-37.5 -190.5q303 0 366 8q129 12 174 70q23 28 30 74t-11.5 99.5t-65.5 90.5q-68 57 -168 55t-180 -59z" />
    <glyph glyph-name="edieresis" unicode="&#xeb;" horiz-adv-x="1054" 
d="M350 1108q-37 0 -64.5 27.5t-27.5 66.5q0 37 27.5 63.5t64.5 26.5q39 0 66.5 -26.5t27.5 -63.5q0 -40 -27 -67t-67 -27zM772 1108q-38 0 -65 27t-27 67q0 37 27 63.5t65 26.5q39 0 66.5 -26.5t27.5 -63.5q0 -40 -27 -67t-67 -27zM608 96q256 -10 357 195
q-29 -133 -142 -224t-270 -90q-127 2 -231 62.5t-166.5 171.5t-65.5 252q-3 156 61.5 262.5t167.5 167.5q122 75 281 68q159 -9 259.5 -125t96.5 -301h-710q0 -190 98.5 -311.5t263.5 -127.5zM391 889q-74 -53 -107.5 -147.5t-37.5 -190.5q303 0 366 8q129 12 174 70
q23 28 30 74t-11.5 99.5t-65.5 90.5q-68 57 -168 55t-180 -59z" />
    <glyph glyph-name="igrave" unicode="&#xec;" horiz-adv-x="669" 
d="M233 1223q-41 30 -48.5 62.5t12.5 47.5q23 25 54 15t60 -54l172 -245zM420 139q0 -39 14 -67.5t31.5 -41.5t42 -20.5t35.5 -8.5t22 -1h-456q11 0 22.5 1t37 8.5t43.5 20.5t33 41.5t15 67.5v568q0 63 -25 85t-59 15l244 156v-824z" />
    <glyph glyph-name="iacute" unicode="&#xed;" horiz-adv-x="669" 
d="M467 1333q13 -10 15.5 -27t-10 -39.5t-40.5 -43.5l-250 -172l172 243q27 44 59.5 54t53.5 -15zM420 139q0 -39 14 -67.5t31.5 -41.5t42 -20.5t35.5 -8.5t22 -1h-456q11 0 22.5 1t37 8.5t43.5 20.5t33 41.5t15 67.5v568q0 63 -25 85t-59 15l244 156v-824z" />
    <glyph glyph-name="icircumflex" unicode="&#xee;" horiz-adv-x="669" 
d="M571 1012l-200 209l-226 -211l170 280h113zM420 139q0 -39 14 -67.5t31.5 -41.5t42 -20.5t35.5 -8.5t22 -1h-456q11 0 22.5 1t37 8.5t43.5 20.5t33 41.5t15 67.5v568q0 63 -25 85t-59 15l244 156v-824z" />
    <glyph glyph-name="idieresis" unicode="&#xef;" horiz-adv-x="669" 
d="M231 1202q0 -40 -27 -67t-67 -27q-37 0 -64.5 27.5t-27.5 66.5q0 37 27.5 63.5t64.5 26.5q39 0 66.5 -26.5t27.5 -63.5zM559 1292q39 0 66.5 -26.5t27.5 -63.5q0 -40 -27 -67t-67 -27q-39 0 -66.5 27.5t-27.5 66.5q0 37 28 63.5t66 26.5zM420 139q0 -39 14 -67.5
t31.5 -41.5t42 -20.5t35.5 -8.5t22 -1h-456q11 0 22.5 1t37 8.5t43.5 20.5t33 41.5t15 67.5v568q0 63 -25 85t-59 15l244 156v-824z" />
    <glyph glyph-name="eth" unicode="&#xf0;" horiz-adv-x="1118" 
d="M1018 569q11 -169 -45.5 -301t-160.5 -204t-239 -80q-50 -3 -102.5 3t-115.5 30.5t-115.5 64.5t-96.5 112t-63 166q-43 213 54 374.5t290 207.5q121 25 212.5 13.5t145.5 -48.5q-28 125 -98 262l-203 -114l-30 4l223 127q-109 189 -244 280q166 -76 309 -245l125 71
l-6 -24l-106 -62q111 -134 183 -298t83 -339zM627 8q61 8 107 43.5t73 89t40 122t12 142.5t-15 150q-18 99 -53 177t-86.5 130.5t-118 69.5t-146.5 -6q-58 -18 -100 -62.5t-63 -100t-30.5 -121.5t-7.5 -124t11 -110q18 -112 58.5 -195t92.5 -129t109.5 -65t116.5 -11z" />
    <glyph glyph-name="ntilde" unicode="&#xf1;" horiz-adv-x="1161" 
d="M461 1210q-12 0 -24 -2t-29.5 -10.5t-32 -22.5t-28.5 -40t-21 -60q1 98 58.5 152.5t135.5 48.5q33 -3 65.5 -24t54 -43.5t50.5 -41t58 -18.5q56 -2 94.5 32t42.5 95q6 -73 -39 -135.5t-121 -65.5q-36 -1 -66.5 12.5t-52 33.5t-42 40t-47 34t-56.5 15zM362 139
q0 -39 14.5 -67.5t32 -41.5t42.5 -20.5t36 -8.5t21 -1h-449q10 0 21 1t35 8.5t41.5 20.5t32 41.5t14.5 67.5v574q0 28 -8 47.5t-19 27.5t-23.5 13t-22 3.5t-13.5 -1.5l245 160v-824zM977 139q0 -39 14.5 -67.5t32 -41.5t42 -20.5t35.5 -8.5t21 -1h-450q10 0 21 1t35 8.5
t41.5 20.5t31.5 41.5t14 67.5v353v33v72.5t-2 61.5t-6 56.5t-11 44t-18.5 39t-28 26t-38.5 19.5q-64 26 -162.5 -9t-175.5 -106q35 41 75.5 77.5t94.5 73.5t118.5 56.5t126.5 13.5q35 -3 63 -13t47 -26t33.5 -37t22.5 -46t13.5 -54t7 -60.5t2.5 -65t0 -67.5v-12.5v-11v-12.5
v-406z" />
    <glyph glyph-name="ograve" unicode="&#xf2;" horiz-adv-x="1107" 
d="M692 1049l-250 174q-41 30 -48.5 62.5t12.5 47.5q23 25 54 15t60 -54zM602 -18q-41 -2 -83 2.5t-95.5 16t-102 38.5t-93.5 65.5t-79.5 100.5t-52.5 141q-43 208 53 375.5t289 218.5q73 19 143.5 20.5t134 -14.5t118.5 -50.5t97.5 -84.5t70.5 -120t38 -154
q13 -113 -16.5 -215t-90 -174.5t-147 -117t-184.5 -48.5zM862 571q-17 89 -56 165t-95 128t-126.5 68.5t-150.5 -12.5q-62 -23 -104.5 -79t-60 -130.5t-17.5 -158t18 -167.5q21 -106 64 -184t96.5 -119.5t109 -59t111.5 -12.5q76 8 128.5 60.5t74 130.5t25.5 175t-17 195z
" />
    <glyph glyph-name="oacute" unicode="&#xf3;" horiz-adv-x="1107" 
d="M473 1051l250 172q29 21 41.5 43.5t10 39t-14.5 27.5q-23 25 -54.5 15t-58.5 -54zM602 -18q-41 -2 -83 2.5t-95.5 16t-102 38.5t-93.5 65.5t-79.5 100.5t-52.5 141q-43 208 53 375.5t289 218.5q73 19 143.5 20.5t134 -14.5t118.5 -50.5t97.5 -84.5t70.5 -120t38 -154
q13 -113 -16.5 -215t-90 -174.5t-147 -117t-184.5 -48.5zM862 571q-17 89 -56 165t-95 128t-126.5 68.5t-150.5 -12.5q-62 -23 -104.5 -79t-60 -130.5t-17.5 -158t18 -167.5q21 -106 64 -184t96.5 -119.5t109 -59t111.5 -12.5q76 8 128.5 60.5t74 130.5t25.5 175t-17 195z
" />
    <glyph glyph-name="ocircumflex" unicode="&#xf4;" horiz-adv-x="1107" 
d="M362 1010l226 211l200 -209l-143 278h-115zM602 -18q-41 -2 -83 2.5t-95.5 16t-102 38.5t-93.5 65.5t-79.5 100.5t-52.5 141q-43 208 53 375.5t289 218.5q73 19 143.5 20.5t134 -14.5t118.5 -50.5t97.5 -84.5t70.5 -120t38 -154q13 -113 -16.5 -215t-90 -174.5t-147 -117
t-184.5 -48.5zM862 571q-17 89 -56 165t-95 128t-126.5 68.5t-150.5 -12.5q-62 -23 -104.5 -79t-60 -130.5t-17.5 -158t18 -167.5q21 -106 64 -184t96.5 -119.5t109 -59t111.5 -12.5q76 8 128.5 60.5t74 130.5t25.5 175t-17 195z" />
    <glyph glyph-name="otilde" unicode="&#xf5;" horiz-adv-x="1107" 
d="M295 1075q9 42 26.5 71.5t39.5 42t38.5 17t32.5 4.5q30 -1 56 -15t46.5 -34t41.5 -40t51.5 -33.5t66.5 -12.5q76 3 121 65.5t39 135.5q-4 -61 -42.5 -95t-94.5 -32q-29 0 -58 18.5t-50.5 41t-54 43.5t-65.5 24q-76 6 -134.5 -48.5t-59.5 -152.5zM602 -18q-41 -2 -83 2.5
t-95.5 16t-102 38.5t-93.5 65.5t-79.5 100.5t-52.5 141q-43 208 53 375.5t289 218.5q73 19 143.5 20.5t134 -14.5t118.5 -50.5t97.5 -84.5t70.5 -120t38 -154q13 -113 -16.5 -215t-90 -174.5t-147 -117t-184.5 -48.5zM862 571q-17 89 -56 165t-95 128t-126.5 68.5
t-150.5 -12.5q-62 -23 -104.5 -79t-60 -130.5t-17.5 -158t18 -167.5q21 -106 64 -184t96.5 -119.5t109 -59t111.5 -12.5q76 8 128.5 60.5t74 130.5t25.5 175t-17 195z" />
    <glyph glyph-name="odieresis" unicode="&#xf6;" horiz-adv-x="1107" 
d="M377 1108q-38 0 -65 27t-27 67q0 37 27 63.5t65 26.5q39 0 66.5 -26.5t27.5 -63.5q0 -40 -27 -67t-67 -27zM797 1108q-37 0 -64.5 27.5t-27.5 66.5q0 37 27.5 63.5t64.5 26.5q39 0 66.5 -26.5t27.5 -63.5q0 -40 -27 -67t-67 -27zM602 -18q-41 -2 -83 2.5t-95.5 16
t-102 38.5t-93.5 65.5t-79.5 100.5t-52.5 141q-43 208 53 375.5t289 218.5q73 19 143.5 20.5t134 -14.5t118.5 -50.5t97.5 -84.5t70.5 -120t38 -154q13 -113 -16.5 -215t-90 -174.5t-147 -117t-184.5 -48.5zM862 571q-17 89 -56 165t-95 128t-126.5 68.5t-150.5 -12.5
q-62 -23 -104.5 -79t-60 -130.5t-17.5 -158t18 -167.5q21 -106 64 -184t96.5 -119.5t109 -59t111.5 -12.5q76 8 128.5 60.5t74 130.5t25.5 175t-17 195z" />
    <glyph glyph-name="divide" unicode="&#xf7;" horiz-adv-x="1038" 
d="M524 727q-34 0 -59 25t-25 59q0 32 25 56t59 24q32 0 57 -24t25 -56q0 -34 -25 -59t-57 -25zM117 551h805v-19h-805v19zM524 188q-34 0 -59 25t-25 59q0 32 25 56t59 24q32 0 57 -24t25 -56q0 -34 -25 -59t-57 -25z" />
    <glyph glyph-name="oslash" unicode="&#xf8;" horiz-adv-x="1140" 
d="M1053 537q13 -113 -17 -215t-90.5 -174.5t-147 -117t-184.5 -48.5q-90 -4 -188.5 21t-177.5 95l-88 -98h-27l100 111q-89 89 -124 235q-43 208 53 375.5t289 218.5q128 34 247 12t205 -98l62 70h24l-74 -82q118 -115 138 -305zM281 385q18 -93 53 -162l477 529
q-63 112 -158.5 160.5t-206.5 7.5q-121 -45 -161.5 -200.5t-3.5 -334.5zM664 10q75 8 127.5 60.5t74 130.5t25.5 175t-17 195q-15 86 -55 164l-475 -530q59 -108 146 -155.5t174 -39.5z" />
    <glyph glyph-name="ugrave" unicode="&#xf9;" horiz-adv-x="1103" 
d="M432 1223q-29 20 -41.5 42t-10 39t14.5 29q21 25 53.5 15t59.5 -54l172 -245zM420 88q67 -26 171.5 8t178.5 105q-72 -89 -190.5 -159.5t-237.5 -61.5q-30 3 -55 11t-43 21t-32 30t-23 38t-15.5 45t-9.5 50t-4.5 54.5t-1.5 58.5v60v12.5v11v11.5v397q0 40 -14.5 69
t-32.5 42.5t-42.5 21t-35.5 8.5t-21 1h305v-142v-342v-71.5t1.5 -61.5t4 -57t7 -45.5t12 -42t18.5 -30.5t26 -26.5t34 -15.5zM782 788q0 37 -14 64.5t-31 40.5t-41 20t-34.5 8t-20.5 1h301v-721q0 -14 2 -25t6 -18.5t9 -13t11.5 -9t11.5 -5.5t12 -2.5t10.5 -1t9 0t6.5 0.5
l-238 -154v144v671z" />
    <glyph glyph-name="uacute" unicode="&#xfa;" horiz-adv-x="1103" 
d="M752 1333q12 -11 14.5 -27.5t-10 -39t-41.5 -43.5l-248 -172l172 243q27 44 59.5 54t53.5 -15zM420 88q67 -26 171.5 8t178.5 105q-72 -89 -190.5 -159.5t-237.5 -61.5q-30 3 -55 11t-43 21t-32 30t-23 38t-15.5 45t-9.5 50t-4.5 54.5t-1.5 58.5v60v12.5v11v11.5v397
q0 40 -14.5 69t-32.5 42.5t-42.5 21t-35.5 8.5t-21 1h305v-142v-342v-71.5t1.5 -61.5t4 -57t7 -45.5t12 -42t18.5 -30.5t26 -26.5t34 -15.5zM782 788q0 37 -14 64.5t-31 40.5t-41 20t-34.5 8t-20.5 1h301v-721q0 -14 2 -25t6 -18.5t9 -13t11.5 -9t11.5 -5.5t12 -2.5t10.5 -1
t9 0t6.5 0.5l-238 -154v144v671z" />
    <glyph glyph-name="ucircumflex" unicode="&#xfb;" horiz-adv-x="1103" 
d="M780 1012l-200 209l-224 -211l168 280h115zM420 88q67 -26 171.5 8t178.5 105q-72 -89 -190.5 -159.5t-237.5 -61.5q-30 3 -55 11t-43 21t-32 30t-23 38t-15.5 45t-9.5 50t-4.5 54.5t-1.5 58.5v60v12.5v11v11.5v397q0 40 -14.5 69t-32.5 42.5t-42.5 21t-35.5 8.5t-21 1
h305v-142v-342v-71.5t1.5 -61.5t4 -57t7 -45.5t12 -42t18.5 -30.5t26 -26.5t34 -15.5zM782 788q0 37 -14 64.5t-31 40.5t-41 20t-34.5 8t-20.5 1h301v-721q0 -14 2 -25t6 -18.5t9 -13t11.5 -9t11.5 -5.5t12 -2.5t10.5 -1t9 0t6.5 0.5l-238 -154v144v671z" />
    <glyph glyph-name="udieresis" unicode="&#xfc;" horiz-adv-x="1103" 
d="M346 1108q-37 0 -64.5 27.5t-27.5 66.5q0 37 27.5 63.5t64.5 26.5q39 0 66.5 -26.5t27.5 -63.5q0 -40 -27 -67t-67 -27zM768 1108q-38 0 -65 27t-27 67q0 37 27 63.5t65 26.5q39 0 66.5 -26.5t27.5 -63.5q0 -40 -27 -67t-67 -27zM420 88q67 -26 171.5 8t178.5 105
q-72 -89 -190.5 -159.5t-237.5 -61.5q-30 3 -55 11t-43 21t-32 30t-23 38t-15.5 45t-9.5 50t-4.5 54.5t-1.5 58.5v60v12.5v11v11.5v397q0 40 -14.5 69t-32.5 42.5t-42.5 21t-35.5 8.5t-21 1h305v-142v-342v-71.5t1.5 -61.5t4 -57t7 -45.5t12 -42t18.5 -30.5t26 -26.5
t34 -15.5zM782 788q0 37 -14 64.5t-31 40.5t-41 20t-34.5 8t-20.5 1h301v-721q0 -14 2 -25t6 -18.5t9 -13t11.5 -9t11.5 -5.5t12 -2.5t10.5 -1t9 0t6.5 0.5l-238 -154v144v671z" />
    <glyph glyph-name="yacute" unicode="&#xfd;" horiz-adv-x="919" 
d="M760 1333q12 -11 14.5 -27.5t-10 -39t-41.5 -43.5l-248 -172l172 243q27 44 59.5 54t53.5 -15zM674 922h325q-8 -2 -22 -7t-47 -25t-56 -46q-33 -31 -63 -103l-319 -782l-117 -281q-31 -75 -68 -97t-90 -15q-38 6 -58.5 38.5t-11.5 69.5q8 26 30.5 43.5t55.5 16.5
q22 -2 45.5 -24.5t32.5 -24.5q46 -10 80 67l90 219l-368 834q-17 33 -39.5 57t-42.5 35t-38 17.5t-29 7.5h-11h414q-3 0 -7 -0.5t-16.5 -4t-22.5 -8t-21 -14t-17 -21.5t-5.5 -30.5t9.5 -40.5l213 -496q15 -32 28.5 -47.5t32.5 -15.5q9 0 16.5 4.5t14.5 14.5t11.5 17.5
t12.5 24.5t11 23l164 401l8 23q25 70 -9 114.5t-116 55.5z" />
    <glyph glyph-name="thorn" unicode="&#xfe;" horiz-adv-x="1128" 
d="M1034 481q1 -102 -33.5 -194.5t-93 -158.5t-137 -105.5t-162.5 -40.5q-186 -4 -299 106v-407q0 -35 15 -60t34 -36.5t45 -18t37.5 -7.5t22.5 -1h-465q11 0 22.5 1t37 7.5t44 18t33.5 36.5t15 60v1519q0 35 -9 58t-21 32.5t-27 13t-24 2.5t-16 -3l256 165v-204v-852
q0 -111 28 -194.5t75 -130.5t103.5 -67.5t117.5 -15.5q124 12 188.5 136t59.5 311q-4 105 -29.5 186t-67.5 129t-91.5 73t-106.5 29q-46 3 -90 -9.5t-73.5 -33t-52.5 -41.5t-34 -36l-10 -15q4 9 12 23t36 51.5t60.5 66t86 53.5t112.5 27q173 6 285.5 -117t115.5 -356z" />
    <glyph glyph-name="ydieresis" unicode="&#xff;" horiz-adv-x="919" 
d="M313 1108q-37 0 -64.5 27.5t-27.5 66.5q0 37 27.5 63.5t64.5 26.5q40 0 67.5 -26.5t27.5 -63.5q0 -40 -27.5 -67t-67.5 -27zM733 1108q-37 0 -64.5 27.5t-27.5 66.5q0 37 27.5 63.5t64.5 26.5q39 0 66.5 -26.5t27.5 -63.5q0 -40 -27 -67t-67 -27zM674 922h325
q-8 -2 -22 -7t-47 -25t-56 -46q-33 -31 -63 -103l-319 -782l-117 -281q-31 -75 -68 -97t-90 -15q-38 6 -58.5 38.5t-11.5 69.5q8 26 30.5 43.5t55.5 16.5q22 -2 45.5 -24.5t32.5 -24.5q46 -10 80 67l90 219l-368 834q-17 33 -39.5 57t-42.5 35t-38 17.5t-29 7.5h-11h414
q-3 0 -7 -0.5t-16.5 -4t-22.5 -8t-21 -14t-17 -21.5t-5.5 -30.5t9.5 -40.5l213 -496q15 -32 28.5 -47.5t32.5 -15.5q9 0 16.5 4.5t14.5 14.5t11.5 17.5t12.5 24.5t11 23l164 401l8 23q25 70 -9 114.5t-116 55.5z" />
    <glyph glyph-name="Amacron" unicode="&#x100;" horiz-adv-x="1277" 
d="M827 1634v-18h-403v16zM1133 178q22 -56 53 -94.5t62.5 -54.5t51 -22t37.5 -7h-549q4 0 10.5 1t25 6t34 12.5t32.5 22t26 33t8.5 47.5t-13.5 64l-145 400h-473l-133 -350q-22 -64 -19 -114t43 -83t115 -39h-405q71 5 134 67t105 175l488 1253q2 -8 6 -18zM535 1149
q-26 0 -81 -144q-2 -4 -3 -6.5t-2 -5.5l-146 -387l455 2l-152 426q-25 66 -41 90.5t-30 24.5zM1346 0h-9h9z" />
    <glyph glyph-name="amacron" unicode="&#x101;" 
d="M752 1124v-18h-404v16zM983 115q23 2 35 39q-11 -36 -21.5 -60t-30 -52.5t-51 -43t-73.5 -14.5q-71 0 -106.5 43.5t-35.5 124.5v395q-79 -24 -135 -43.5t-116 -47.5t-97 -56.5t-62 -67.5t-28 -84q-5 -69 37 -122.5t127 -57.5q128 -11 266 98q-33 -35 -48.5 -50.5
t-54.5 -48t-70.5 -48.5t-79 -30t-97.5 -14q-67 0 -117 23t-76 59.5t-37.5 76.5t-9.5 79q2 36 13 67t34 57t47 46.5t64 39.5t72.5 33t85 30t88.5 26t97 26.5t97 26.5v115q0 147 -63 210.5t-166 43.5q-77 -13 -130.5 -58t-53.5 -118q0 -21 13 -53t15 -52q1 -41 -27 -66.5
t-65 -25.5q-36 0 -64.5 24.5t-25.5 78.5q2 69 58 132t131 101t153 53q47 9 92.5 10t90 -7t81.5 -29t65.5 -54t43.5 -84.5t14 -117.5v-502q0 -54 21.5 -76t49.5 -13t50 38z" />
    <glyph glyph-name="Abreve" unicode="&#x102;" horiz-adv-x="1277" 
d="M627 1608q-93 0 -149 61.5t-58 151.5q21 -66 76 -102t127 -36q162 0 202 136q-2 -82 -54 -146.5t-144 -64.5zM1133 178q22 -56 53 -94.5t62.5 -54.5t51 -22t37.5 -7h-549q4 0 10.5 1t25 6t34 12.5t32.5 22t26 33t8.5 47.5t-13.5 64l-145 400h-473l-133 -350
q-22 -64 -19 -114t43 -83t115 -39h-405q71 5 134 67t105 175l488 1253q2 -8 6 -18zM535 1149q-26 0 -81 -144q-2 -4 -3 -6.5t-2 -5.5l-146 -387l455 2l-152 426q-25 66 -41 90.5t-30 24.5zM1346 0h-9h9z" />
    <glyph glyph-name="abreve" unicode="&#x103;" 
d="M547 1098q-95 0 -151 61.5t-58 151.5q21 -65 76.5 -100t128.5 -35q163 0 202 133q-2 -81 -55 -146t-143 -65zM983 115q23 2 35 39q-11 -36 -21.5 -60t-30 -52.5t-51 -43t-73.5 -14.5q-71 0 -106.5 43.5t-35.5 124.5v395q-79 -24 -135 -43.5t-116 -47.5t-97 -56.5
t-62 -67.5t-28 -84q-5 -69 37 -122.5t127 -57.5q128 -11 266 98q-33 -35 -48.5 -50.5t-54.5 -48t-70.5 -48.5t-79 -30t-97.5 -14q-67 0 -117 23t-76 59.5t-37.5 76.5t-9.5 79q2 36 13 67t34 57t47 46.5t64 39.5t72.5 33t85 30t88.5 26t97 26.5t97 26.5v115q0 147 -63 210.5
t-166 43.5q-77 -13 -130.5 -58t-53.5 -118q0 -21 13 -53t15 -52q1 -41 -27 -66.5t-65 -25.5q-36 0 -64.5 24.5t-25.5 78.5q2 69 58 132t131 101t153 53q47 9 92.5 10t90 -7t81.5 -29t65.5 -54t43.5 -84.5t14 -117.5v-502q0 -54 21.5 -76t49.5 -13t50 38z" />
    <glyph glyph-name="Aogonek" unicode="&#x104;" horiz-adv-x="1277" 
d="M1149 0q-54 -34 -92 -91.5t-27 -123.5q7 -46 31.5 -75.5t57.5 -38.5t67 -6.5t65 16.5q-34 -28 -85 -39.5t-101.5 -4t-91.5 43.5t-53 96q-24 126 90 223h-222q4 0 10.5 1t25 6t34 12.5t32.5 22t26 33t8.5 47.5t-13.5 64l-145 400h-473l-133 -350q-22 -64 -19 -114t43 -83
t115 -39h-405q71 5 134 67t105 175l488 1253q2 -8 6 -18l506 -1299q22 -56 53 -94.5t62.5 -54.5t51 -22t37.5 -7h-188zM535 1149q-26 0 -81 -144q-2 -4 -3 -6.5t-2 -5.5l-146 -387l455 2l-152 426q-25 66 -41 90.5t-30 24.5zM1346 0h-9h9z" />
    <glyph glyph-name="aogonek" unicode="&#x105;" 
d="M983 115q23 2 35 39q-11 -36 -21.5 -60t-30 -52.5t-51 -43t-73.5 -14.5q-71 0 -106.5 43.5t-35.5 124.5v395q-79 -24 -135 -43.5t-116 -47.5t-97 -56.5t-62 -67.5t-28 -84q-5 -69 37 -122.5t127 -57.5q128 -11 266 98l-16 -17q-17 -17 -19.5 -20t-18.5 -19t-22 -20.5
t-22 -18.5t-25 -19.5t-25 -16.5t-29 -17.5t-29.5 -13.5t-32.5 -12q-48 -36 -79 -92t-20 -117q7 -46 31.5 -75.5t57.5 -39t67 -7t65 16.5q-47 -38 -117.5 -46.5t-134.5 27.5t-79 116q-21 114 67 202q-112 10 -163 82t-46 154q2 36 13 67t34 57t47 46.5t64 39.5t72.5 33t85 30
t88.5 26t97 26.5t97 26.5v115q0 147 -63 210.5t-166 43.5q-77 -13 -130.5 -58t-53.5 -118q0 -21 13 -53t15 -52q1 -41 -27 -66.5t-65 -25.5q-36 0 -64.5 24.5t-25.5 78.5q2 69 58 132t131 101t153 53q47 9 92.5 10t90 -7t81.5 -29t65.5 -54t43.5 -84.5t14 -117.5v-502
q0 -54 21.5 -76t49.5 -13t50 38z" />
    <glyph glyph-name="Cacute" unicode="&#x106;" horiz-adv-x="1456" 
d="M729 1556l250 173q28 21 40.5 43.5t10 39.5t-15.5 27q-21 25 -53.5 15t-59.5 -54zM291 741q14 -185 101 -328t222.5 -219t296.5 -77q72 0 136.5 14.5t109.5 38.5t82.5 53t60.5 58.5t39 53.5t23 39l6 15q-2 -7 -6.5 -19.5t-21.5 -49.5t-38.5 -71t-59.5 -77.5t-82 -77
t-109 -61t-138 -37.5q-145 -20 -275.5 9.5t-226.5 97t-167.5 161.5t-108.5 204t-39 224q-3 141 33.5 261t101.5 206.5t154 149.5t191.5 97t214.5 42q135 9 268 -16q76 -15 140 -40t90 -43l26 -18l-2 -293q-15 30 -25 48t-41 63t-63 78t-84.5 73t-112.5 68q-108 52 -228 50
t-224 -62q-128 -75 -194.5 -241t-49.5 -374z" />
    <glyph glyph-name="cacute" unicode="&#x107;" horiz-adv-x="1050" 
d="M512 1051l250 172q41 31 49 64t-12 46q-23 25 -54.5 15t-60.5 -54zM240 434q23 -153 122 -242.5t244 -95.5q119 -5 219 42t156 157q-34 -139 -144.5 -231.5t-271.5 -92.5q-95 1 -180 33t-151.5 91t-106.5 150.5t-41 203.5q-1 90 23 168.5t67 136t101.5 102.5t126.5 67.5
t142 32t148 -5.5q97 -16 171 -76.5t75 -142.5q3 -51 -25 -79.5t-71 -26.5q-52 3 -75.5 44t-10.5 91q24 83 -21.5 131t-130.5 51q-74 4 -138.5 -20.5t-111 -71t-78.5 -111t-40.5 -142t2.5 -163.5z" />
    <glyph glyph-name="Cdotaccent" unicode="&#x10a;" horiz-adv-x="1456" 
d="M825 1604q-37 0 -63.5 27t-26.5 65q0 35 26.5 61.5t63.5 26.5q35 0 61.5 -26.5t26.5 -61.5q0 -38 -26 -65t-62 -27zM291 741q14 -185 101 -328t222.5 -219t296.5 -77q72 0 136.5 14.5t109.5 38.5t82.5 53t60.5 58.5t39 53.5t23 39l6 15q-2 -7 -6.5 -19.5t-21.5 -49.5
t-38.5 -71t-59.5 -77.5t-82 -77t-109 -61t-138 -37.5q-145 -20 -275.5 9.5t-226.5 97t-167.5 161.5t-108.5 204t-39 224q-3 141 33.5 261t101.5 206.5t154 149.5t191.5 97t214.5 42q135 9 268 -16q76 -15 140 -40t90 -43l26 -18l-2 -293q-15 30 -25 48t-41 63t-63 78
t-84.5 73t-112.5 68q-108 52 -228 50t-224 -62q-128 -75 -194.5 -241t-49.5 -374z" />
    <glyph glyph-name="cdotaccent" unicode="&#x10b;" horiz-adv-x="1050" 
d="M600 1098q-39 0 -67.5 28.5t-28.5 65.5q0 38 28 66t68 28q38 0 65 -28t27 -66q0 -37 -27 -65.5t-65 -28.5zM240 434q23 -153 122 -242.5t244 -95.5q119 -5 219 42t156 157q-34 -139 -144.5 -231.5t-271.5 -92.5q-95 1 -180 33t-151.5 91t-106.5 150.5t-41 203.5
q-1 90 23 168.5t67 136t101.5 102.5t126.5 67.5t142 32t148 -5.5q97 -16 171 -76.5t75 -142.5q3 -51 -25 -79.5t-71 -26.5q-52 3 -75.5 44t-10.5 91q24 83 -21.5 131t-130.5 51q-74 4 -138.5 -20.5t-111 -71t-78.5 -111t-40.5 -142t2.5 -163.5z" />
    <glyph glyph-name="Ccaron" unicode="&#x10c;" horiz-adv-x="1456" 
d="M555 1839l168 -280h115l143 278l-203 -209zM291 741q14 -185 101 -328t222.5 -219t296.5 -77q72 0 136.5 14.5t109.5 38.5t82.5 53t60.5 58.5t39 53.5t23 39l6 15q-2 -7 -6.5 -19.5t-21.5 -49.5t-38.5 -71t-59.5 -77.5t-82 -77t-109 -61t-138 -37.5q-145 -20 -275.5 9.5
t-226.5 97t-167.5 161.5t-108.5 204t-39 224q-3 141 33.5 261t101.5 206.5t154 149.5t191.5 97t214.5 42q135 9 268 -16q76 -15 140 -40t90 -43l26 -18l-2 -293q-15 30 -25 48t-41 63t-63 78t-84.5 73t-112.5 68q-108 52 -228 50t-224 -62q-128 -75 -194.5 -241t-49.5 -374z
" />
    <glyph glyph-name="ccaron" unicode="&#x10d;" horiz-adv-x="1050" 
d="M362 1335l168 -280h115l143 278l-202 -209zM240 434q23 -153 122 -242.5t244 -95.5q119 -5 219 42t156 157q-34 -139 -144.5 -231.5t-271.5 -92.5q-95 1 -180 33t-151.5 91t-106.5 150.5t-41 203.5q-1 90 23 168.5t67 136t101.5 102.5t126.5 67.5t142 32t148 -5.5
q97 -16 171 -76.5t75 -142.5q3 -51 -25 -79.5t-71 -26.5q-52 3 -75.5 44t-10.5 91q24 83 -21.5 131t-130.5 51q-74 4 -138.5 -20.5t-111 -71t-78.5 -111t-40.5 -142t2.5 -163.5z" />
    <glyph glyph-name="Dcaron" unicode="&#x10e;" horiz-adv-x="1454" 
d="M758 1559h-115l-168 280l223 -211l201 209zM1352 766q3 -157 -38.5 -295t-121.5 -242.5t-205.5 -166t-281.5 -62.5h-123h-564q11 0 23.5 1.5t37 5.5t45 15.5t41 28.5t32.5 47t12 68v1094q0 48 -18 83.5t-41 52t-54.5 26t-47 11t-30.5 1.5h580q142 2 251.5 -15t205 -62.5
t158.5 -120.5t99.5 -193t39.5 -277zM709 25q149 9 249 104t145.5 256.5t41.5 382.5q-2 152 -33.5 266.5t-81.5 184.5t-123 114t-147.5 61t-165.5 19q-137 0 -184 -4v-1216q0 -101 46.5 -135.5t149.5 -34.5q89 0 103 2z" />
    <glyph glyph-name="dcaron" unicode="&#x10f;" horiz-adv-x="1097" 
d="M1059 131l-256 -166v524q0 208 -80.5 330t-208.5 125q-123 3 -204.5 -121.5t-71.5 -328.5q4 -97 32.5 -180t73 -138t101 -87.5t116.5 -37.5q145 -7 232 123q-14 -25 -22 -38.5t-27 -41t-39 -44t-48.5 -35.5t-65 -29t-79.5 -11q-182 -5 -309.5 126t-130.5 356
q-3 119 35 216.5t103 158.5t145.5 94t166.5 35q175 5 281 -99v209q-6 -6 -17.5 -14t-13.5 -10q26 26 31 32v121q0 64 -31 88.5t-63 14.5l32 22q-27 24 -30 61q-4 40 20 70t62 33q34 3 61 -12q6 -3 20 -17q15 -15 21 -33v-4l66 43v-1249q0 -38 14.5 -58.5t31 -24t34 -3.5
h18.5z" />
    <glyph glyph-name="Dcroat" unicode="&#x110;" horiz-adv-x="1476" 
d="M1364 766q3 -157 -38.5 -295t-121.5 -242.5t-205.5 -166t-281.5 -62.5h-125h-561q9 0 18.5 0.5t29.5 4t37.5 9.5t37.5 18.5t34 29.5t23.5 44t9.5 60v555h-127l-24 18h151v521q0 48 -18 83.5t-41 52t-54.5 26t-46.5 11t-30 1.5h579q117 2 212 -10t181 -40.5t149 -79
t111 -124t73 -177.5t28 -237zM721 25q149 9 249 104t145.5 256.5t41.5 382.5q-2 152 -33.5 266.5t-81.5 184.5t-123 114t-147.5 61t-165.5 19q-137 0 -186 -4v-670h221l-18 -18h-203v-528q0 -101 47 -135.5t151 -34.5q89 0 103 2z" />
    <glyph glyph-name="dcroat" unicode="&#x111;" horiz-adv-x="1148" 
d="M1087 1098h-114v-881q0 -38 14.5 -58.5t31 -24t34 -3.5h18.5l-258 -166v524q0 208 -80 330t-207 125q-123 3 -204.5 -121.5t-71.5 -328.5q4 -97 32.5 -180t73 -138t101 -87.5t116.5 -37.5q144 -7 232 123q-14 -25 -22 -38.5t-27 -41t-39 -44t-48.5 -35.5t-65 -29
t-79.5 -11q-88 -2 -166.5 29.5t-139.5 92t-97.5 153.5t-38.5 207q-2 119 36 216.5t103.5 158.5t146 94t167.5 35q174 5 278 -99v236h-160v16h160v86q0 64 -31 88.5t-61 14.5l252 163v-350h114v-18z" />
    <glyph glyph-name="Emacron" unicode="&#x112;" horiz-adv-x="1333" 
d="M823 1634v-18h-403v16zM1044 143q73 53 127 109t71 86l18 29l-89 -367h-1130q17 0 40 5t58 19.5t58.5 52.5t23.5 93v1100q0 45 -17 78t-38.5 49t-51 25t-44.5 10.5t-29 1.5h1059l71 -328q-17 33 -75.5 98t-128.5 113q-60 39 -105.5 57.5t-120.5 28.5t-200 10h-127v-657
h114q50 1 93 12.5t71.5 29t51 38.5t35 41.5t21 38t10.5 28.5l3 10v-424q-2 8 -5.5 21.5t-23.5 48.5t-48 61.5t-83.5 48.5t-124.5 23h-114v-538q0 -47 10.5 -81t25.5 -52t37.5 -28.5t39.5 -13t38 -2.5h129q106 0 189 34t161 91z" />
    <glyph glyph-name="emacron" unicode="&#x113;" horiz-adv-x="1054" 
d="M377 1122l403 2v-18h-403v16zM608 96q256 -10 357 195q-29 -133 -142 -224t-270 -90q-127 2 -231 62.5t-166.5 171.5t-65.5 252q-3 156 61.5 262.5t167.5 167.5q122 75 281 68q159 -9 259.5 -125t96.5 -301h-710q0 -190 98.5 -311.5t263.5 -127.5zM391 889
q-74 -53 -107.5 -147.5t-37.5 -190.5q303 0 366 8q129 12 174 70q23 28 30 74t-11.5 99.5t-65.5 90.5q-68 57 -168 55t-180 -59z" />
    <glyph glyph-name="Edotaccent" unicode="&#x116;" horiz-adv-x="1333" 
d="M670 1604q-37 0 -63.5 27t-26.5 65q0 35 26.5 61.5t63.5 26.5q36 0 62 -26t26 -62q0 -38 -25.5 -65t-62.5 -27zM1044 143q73 53 127 109t71 86l18 29l-89 -367h-1130q17 0 40 5t58 19.5t58.5 52.5t23.5 93v1100q0 45 -17 78t-38.5 49t-51 25t-44.5 10.5t-29 1.5h1059
l71 -328q-17 33 -75.5 98t-128.5 113q-60 39 -105.5 57.5t-120.5 28.5t-200 10h-127v-657h114q50 1 93 12.5t71.5 29t51 38.5t35 41.5t21 38t10.5 28.5l3 10v-424q-2 8 -5.5 21.5t-23.5 48.5t-48 61.5t-83.5 48.5t-124.5 23h-114v-538q0 -47 10.5 -81t25.5 -52t37.5 -28.5
t39.5 -13t38 -2.5h129q106 0 189 34t161 91z" />
    <glyph glyph-name="edotaccent" unicode="&#x117;" horiz-adv-x="1054" 
d="M588 1098q-39 0 -67.5 28.5t-28.5 65.5q0 38 28 66t68 28q38 0 65 -28t27 -66q0 -37 -27 -65.5t-65 -28.5zM608 96q256 -10 357 195q-29 -133 -142 -224t-270 -90q-127 2 -231 62.5t-166.5 171.5t-65.5 252q-3 156 61.5 262.5t167.5 167.5q122 75 281 68
q159 -9 259.5 -125t96.5 -301h-710q0 -190 98.5 -311.5t263.5 -127.5zM391 889q-74 -53 -107.5 -147.5t-37.5 -190.5q303 0 366 8q129 12 174 70q23 28 30 74t-11.5 99.5t-65.5 90.5q-68 57 -168 55t-180 -59z" />
    <glyph glyph-name="Eogonek" unicode="&#x118;" horiz-adv-x="1333" 
d="M1036 -217q7 -46 31.5 -75.5t57.5 -39t67 -7t65 16.5q-47 -38 -117.5 -46.5t-134.5 27.5t-79 116q-24 128 92 225h-977q17 0 40 5t58 19.5t58.5 52.5t23.5 93v1100q0 45 -17 78t-38.5 49t-51 25t-44.5 10.5t-29 1.5h1059l71 -328q-17 33 -75.5 98t-128.5 113
q-60 39 -105.5 57.5t-120.5 28.5t-200 10h-127v-657h114q50 1 93 12.5t71.5 29t51 38.5t35 41.5t21 38t10.5 28.5l3 10v-424q-2 8 -5.5 21.5t-23.5 48.5t-48 61.5t-83.5 48.5t-124.5 23h-114v-538q0 -47 10.5 -81t25.5 -52t37.5 -28.5t39.5 -13t38 -2.5h129q106 0 189 34
t161 91q73 53 127 109t71 86l18 29l-89 -367h-12q-56 -32 -95.5 -90.5t-27.5 -126.5z" />
    <glyph glyph-name="eogonek" unicode="&#x119;" horiz-adv-x="1054" 
d="M645 -14q-50 -36 -80.5 -89t-19.5 -114q7 -46 31.5 -75.5t57.5 -39t67 -7t65 16.5q-34 -28 -85.5 -39.5t-102 -4t-91.5 44t-53 96.5q-24 116 70 207q-115 13 -207.5 75t-148 168t-58.5 238q-3 156 61.5 262.5t167.5 167.5q122 75 281 68q159 -9 259.5 -125t96.5 -301
h-710q0 -190 98.5 -311.5t263.5 -127.5q256 -10 357 195q-24 -111 -110.5 -196t-209.5 -109zM391 889q-74 -53 -107.5 -147.5t-37.5 -190.5q303 0 366 8q129 12 174 70q23 28 30 74t-11.5 99.5t-65.5 90.5q-68 57 -168 55t-180 -59z" />
    <glyph glyph-name="Ecaron" unicode="&#x11a;" horiz-adv-x="1333" 
d="M717 1559h-115l-168 280l225 -211l201 209zM1044 143q73 53 127 109t71 86l18 29l-89 -367h-1130q17 0 40 5t58 19.5t58.5 52.5t23.5 93v1100q0 45 -17 78t-38.5 49t-51 25t-44.5 10.5t-29 1.5h1059l71 -328q-17 33 -75.5 98t-128.5 113q-60 39 -105.5 57.5t-120.5 28.5
t-200 10h-127v-657h114q50 1 93 12.5t71.5 29t51 38.5t35 41.5t21 38t10.5 28.5l3 10v-424q-2 8 -5.5 21.5t-23.5 48.5t-48 61.5t-83.5 48.5t-124.5 23h-114v-538q0 -47 10.5 -81t25.5 -52t37.5 -28.5t39.5 -13t38 -2.5h129q106 0 189 34t161 91z" />
    <glyph glyph-name="ecaron" unicode="&#x11b;" horiz-adv-x="1054" 
d="M350 1335l168 -280h115l143 278l-201 -209zM608 96q256 -10 357 195q-29 -133 -142 -224t-270 -90q-127 2 -231 62.5t-166.5 171.5t-65.5 252q-3 156 61.5 262.5t167.5 167.5q122 75 281 68q159 -9 259.5 -125t96.5 -301h-710q0 -190 98.5 -311.5t263.5 -127.5zM391 889
q-74 -53 -107.5 -147.5t-37.5 -190.5q303 0 366 8q129 12 174 70q23 28 30 74t-11.5 99.5t-65.5 90.5q-68 57 -168 55t-180 -59z" />
    <glyph glyph-name="Gbreve" unicode="&#x11e;" horiz-adv-x="1525" 
d="M805 1683q-72 0 -128 36t-77 102q2 -90 58 -151.5t151 -61.5q90 0 143.5 65t55.5 146q-42 -136 -203 -136zM1473 594l-15 -2.5t-33 -12.5t-42 -27t-33 -48.5t-15 -75.5v-448q-17 65 -67.5 121t-89.5 61q-3 -3 -23 -23.5t-29.5 -29.5t-34.5 -30t-44 -32.5t-51 -27.5
t-62.5 -24.5t-71.5 -15t-84 -6.5q-130 0 -241 37.5t-192 104.5t-138 159.5t-85 202.5t-28 232q0 130 35 242t96.5 193.5t143.5 144t176.5 98t194.5 49t200 4.5q32 -3 64 -8t58 -10.5t53 -13.5t46.5 -14.5t41.5 -15.5t35.5 -15t30.5 -14.5t24 -12.5t19 -11t13 -8l-4 -322
q-10 25 -33 63.5t-62 93t-99 108t-126 86.5q-120 60 -238 61t-210 -51q-134 -67 -202.5 -235t-51.5 -406q10 -154 58.5 -281.5t122.5 -211t165.5 -131t190.5 -52.5q146 -6 235 63q121 85 121 312v10q0 44 -19 77.5t-46.5 50t-55 27t-46.5 13.5l-19 2h467z" />
    <glyph glyph-name="gbreve" unicode="&#x11f;" horiz-adv-x="985" 
d="M514 1098q-93 0 -149 61.5t-58 151.5q21 -66 75.5 -100.5t127.5 -34.5q164 0 203 133q-2 -82 -54.5 -146.5t-144.5 -64.5zM965 975q34 0 50 -20t11 -44q-7 -25 -31.5 -34t-62.5 10q-21 16 -35 22t-40.5 -0.5t-59.5 -34.5q44 50 83 75.5t85 25.5zM588 119q160 -6 242 -47
t116 -129q27 -66 17 -131.5t-34 -112.5t-59 -84q-155 -160 -434 -141q-184 12 -283.5 91.5t-99.5 192.5q0 43 12.5 82t29.5 64.5t34.5 45t30.5 28.5l12 8q-59 -122 -21 -214t141.5 -147.5t242.5 -64.5q158 -12 269.5 50.5t104.5 162.5q6 91 -89.5 144.5t-256.5 51.5
q-192 -2 -299.5 30t-126.5 124q-9 36 5.5 69.5t45 59t56.5 41.5t55 29l-10 4q-84 39 -134 122t-46 187q5 204 233 293q85 32 185.5 27.5t172.5 -44.5q102 -52 144.5 -171t1.5 -224q-30 -74 -81.5 -120.5t-143.5 -78.5q-68 -22 -150.5 -23t-148.5 19q-111 -65 -58 -137
q14 -22 40 -35t65 -17.5t69.5 -5.5t79.5 0t70 1zM281 522q27 -70 68 -117t83.5 -64.5t88.5 -21t85 12.5q67 24 95.5 99.5t23.5 156.5t-31 151q-27 73 -65.5 119.5t-81.5 64.5t-86.5 16.5t-87.5 -19.5q-87 -35 -112 -150.5t20 -247.5z" />
    <glyph glyph-name="Gdotaccent" unicode="&#x120;" horiz-adv-x="1525" 
d="M829 1604q-38 0 -65 27t-27 65q0 36 27 62t65 26q35 0 62 -26.5t27 -61.5q0 -38 -26.5 -65t-62.5 -27zM1473 594l-15 -2.5t-33 -12.5t-42 -27t-33 -48.5t-15 -75.5v-448q-17 65 -67.5 121t-89.5 61q-3 -3 -23 -23.5t-29.5 -29.5t-34.5 -30t-44 -32.5t-51 -27.5
t-62.5 -24.5t-71.5 -15t-84 -6.5q-130 0 -241 37.5t-192 104.5t-138 159.5t-85 202.5t-28 232q0 130 35 242t96.5 193.5t143.5 144t176.5 98t194.5 49t200 4.5q32 -3 64 -8t58 -10.5t53 -13.5t46.5 -14.5t41.5 -15.5t35.5 -15t30.5 -14.5t24 -12.5t19 -11t13 -8l-4 -322
q-10 25 -33 63.5t-62 93t-99 108t-126 86.5q-120 60 -238 61t-210 -51q-134 -67 -202.5 -235t-51.5 -406q10 -154 58.5 -281.5t122.5 -211t165.5 -131t190.5 -52.5q146 -6 235 63q121 85 121 312v10q0 44 -19 77.5t-46.5 50t-55 27t-46.5 13.5l-19 2h467z" />
    <glyph glyph-name="gdotaccent" unicode="&#x121;" horiz-adv-x="985" 
d="M539 1098q-39 0 -68 28.5t-29 65.5q0 38 28.5 66t68.5 28q38 0 65 -28t27 -66q0 -37 -27 -65.5t-65 -28.5zM965 975q34 0 50 -20t11 -44q-7 -25 -31.5 -34t-62.5 10q-21 16 -35 22t-40.5 -0.5t-59.5 -34.5q44 50 83 75.5t85 25.5zM588 119q160 -6 242 -47t116 -129
q27 -66 17 -131.5t-34 -112.5t-59 -84q-155 -160 -434 -141q-184 12 -283.5 91.5t-99.5 192.5q0 43 12.5 82t29.5 64.5t34.5 45t30.5 28.5l12 8q-59 -122 -21 -214t141.5 -147.5t242.5 -64.5q158 -12 269.5 50.5t104.5 162.5q6 91 -89.5 144.5t-256.5 51.5
q-192 -2 -299.5 30t-126.5 124q-9 36 5.5 69.5t45 59t56.5 41.5t55 29l-10 4q-84 39 -134 122t-46 187q5 204 233 293q85 32 185.5 27.5t172.5 -44.5q102 -52 144.5 -171t1.5 -224q-30 -74 -81.5 -120.5t-143.5 -78.5q-68 -22 -150.5 -23t-148.5 19q-111 -65 -58 -137
q14 -22 40 -35t65 -17.5t69.5 -5.5t79.5 0t70 1zM281 522q27 -70 68 -117t83.5 -64.5t88.5 -21t85 12.5q67 24 95.5 99.5t23.5 156.5t-31 151q-27 73 -65.5 119.5t-81.5 64.5t-86.5 16.5t-87.5 -19.5q-87 -35 -112 -150.5t20 -247.5z" />
    <glyph glyph-name="Gcommaaccent" unicode="&#x122;" horiz-adv-x="1525" 
d="M1006 594h467l-15 -2.5t-33 -12.5t-42 -27t-33 -48.5t-15 -75.5v-448q-17 65 -67.5 121t-89.5 61q-3 -3 -23 -23.5t-29.5 -29.5t-34.5 -30t-44 -32.5t-51 -27.5t-62.5 -24.5t-71.5 -15t-84 -6.5q-130 0 -241 37.5t-192 104.5t-138 159.5t-85 202.5t-28 232q0 130 35 242
t96.5 193.5t143.5 144t176.5 98t194.5 49t200 4.5q32 -3 64 -8t58 -10.5t53 -13.5t46.5 -14.5t41.5 -15.5t35.5 -15t30.5 -14.5t24 -12.5t19 -11t13 -8l-4 -322q-10 25 -33 63.5t-62 93t-99 108t-126 86.5q-120 60 -238 61t-210 -51q-134 -67 -202.5 -235t-51.5 -406
q10 -154 58.5 -281.5t122.5 -211t165.5 -131t190.5 -52.5q146 -6 235 63q121 85 121 312v10q0 44 -19 77.5t-46.5 50t-55 27t-46.5 13.5zM784 -152q36 4 66 -15t39 -52q30 -81 -3 -199t-122 -178q50 43 77.5 125t12.5 152q-22 -16 -49 -19q-38 -5 -68.5 19.5t-34.5 64.5
q-5 38 19.5 68.5t62.5 33.5z" />
    <glyph glyph-name="gcommaaccent" unicode="&#x123;" horiz-adv-x="985" 
d="M965 975q34 0 50 -20t11 -44q-7 -25 -31.5 -34t-62.5 10q-21 16 -35 22t-40.5 -0.5t-59.5 -34.5q44 50 83 75.5t85 25.5zM588 119q160 -6 242 -47t116 -129q27 -66 17 -131.5t-34 -112.5t-59 -84q-155 -160 -434 -141q-184 12 -283.5 91.5t-99.5 192.5q0 43 12.5 82
t29.5 64.5t34.5 45t30.5 28.5l12 8q-59 -122 -21 -214t141.5 -147.5t242.5 -64.5q158 -12 269.5 50.5t104.5 162.5q6 91 -89.5 144.5t-256.5 51.5q-192 -2 -299.5 30t-126.5 124q-9 36 5.5 69.5t45 59t56.5 41.5t55 29l-10 4q-84 39 -134 122t-46 187q5 204 233 293
q85 32 185.5 27.5t172.5 -44.5q102 -52 144.5 -171t1.5 -224q-30 -74 -81.5 -120.5t-143.5 -78.5q-68 -22 -150.5 -23t-148.5 19q-111 -65 -58 -137q14 -22 40 -35t65 -17.5t69.5 -5.5t79.5 0t70 1zM281 522q27 -70 68 -117t83.5 -64.5t88.5 -21t85 12.5q67 24 95.5 99.5
t23.5 156.5t-31 151q-27 73 -65.5 119.5t-81.5 64.5t-86.5 16.5t-87.5 -19.5q-87 -35 -112 -150.5t20 -247.5zM565 -805q34 -18 47.5 -73t5.5 -120t-43.5 -132t-91.5 -105q50 42 76.5 123t11.5 151q-18 -15 -47 -18q-40 -5 -69.5 19.5t-32.5 64.5q-4 40 20 69.5t62 32.5
q34 3 61 -12z" />
    <glyph glyph-name="Hbar" unicode="&#x126;" horiz-adv-x="1517" 
d="M1296 174q0 -48 16.5 -83t37 -52t49 -26.5t43 -11t28.5 -1.5h-538q13 0 26.5 1.5t41 10.5t48 24.5t37.5 48.5t19 77v573h-698v-561q0 -48 16.5 -83t37.5 -52t50 -26.5t43.5 -11t28.5 -1.5h-539q13 0 26.5 1.5t40.5 10.5t47 24.5t37 48.5t19 77v936h-154l-24 18h178v144
q0 48 -16 83t-36.5 52t-48.5 26.5t-42.5 11t-28.5 1.5h541q-14 0 -28.5 -1.5t-43.5 -11t-50 -26.5t-37.5 -52t-16.5 -83v-144h698v144q0 48 -16.5 83t-37 52t-49 26.5t-43 11t-28.5 1.5h540q-14 0 -28.5 -1.5t-43 -11t-49 -26.5t-37 -52t-16.5 -83v-144h181l-19 -18h-162
v-924zM406 758h698v340h-698v-340z" />
    <glyph glyph-name="hbar" unicode="&#x127;" horiz-adv-x="1171" 
d="M367 139q0 -39 16 -67.5t35.5 -41.5t46.5 -20.5t39 -8.5t24 -1h-479q11 0 23 1t39 8.5t46 20.5t34.5 41.5t15.5 67.5v959h-90l-25 18h115v96q0 24 -3.5 42t-10 28.5t-13.5 17t-16.5 8.5t-15.5 2.5t-15 -0.5t-10 -1l244 157v-350h223l-19 -18h-204v-959zM995 139
q0 -39 14.5 -67.5t32 -41.5t42.5 -20.5t36 -8.5t21 -1h-449q10 0 21 1t35 8.5t41.5 20.5t32 41.5t14.5 67.5v353q0 174 -9 224q-16 95 -81 123q-7 3 -15 5q-66 26 -165.5 -9t-176.5 -106q33 40 75 77.5t97 74t120.5 56t127.5 13.5q39 -3 69.5 -15.5t50 -32t33 -45.5
t20 -56.5t10 -65t3.5 -71.5v-76v-43v-406z" />
    <glyph glyph-name="Imacron" unicode="&#x12a;" horiz-adv-x="686" 
d="M553 1634v-18h-403v16zM432 174q0 -47 17.5 -82t39.5 -52t52 -27t45.5 -11.5t29.5 -1.5h-557q13 0 29 1.5t45.5 11.5t52 27t39.5 52t17 82v1086q0 48 -17.5 83t-39 52t-51.5 26.5t-45.5 11t-29.5 1.5h557q-14 0 -29.5 -1.5t-45.5 -11t-52 -26.5t-39.5 -52t-17.5 -83
v-1086z" />
    <glyph glyph-name="imacron" unicode="&#x12b;" horiz-adv-x="669" 
d="M551 1124v-18h-404v16zM420 139q0 -39 14 -67.5t31.5 -41.5t42 -20.5t35.5 -8.5t22 -1h-456q11 0 22.5 1t37 8.5t43.5 20.5t33 41.5t15 67.5v568q0 63 -25 85t-59 15l244 156v-824z" />
    <glyph glyph-name="Iogonek" unicode="&#x12e;" horiz-adv-x="686" 
d="M477 0q-55 -32 -94.5 -90.5t-28.5 -126.5q7 -46 31.5 -75.5t57.5 -39t67 -7t65 16.5q-47 -38 -117.5 -46.5t-134.5 27.5t-79 116q-24 128 92 225h-277q13 0 29 1.5t45.5 11.5t52 27t39.5 52t17 82v1086q0 48 -17.5 83t-39 52t-51.5 26.5t-45.5 11t-29.5 1.5h557
q-14 0 -29.5 -1.5t-45.5 -11t-52 -26.5t-39.5 -52t-17.5 -83v-1086q0 -47 17.5 -82t39.5 -52t52 -27t45.5 -11.5t29.5 -1.5h-139z" />
    <glyph glyph-name="iogonek" unicode="&#x12f;" horiz-adv-x="669" 
d="M344 1092q-37 0 -63.5 27.5t-26.5 64.5t26.5 63.5t63.5 26.5t63.5 -26.5t26.5 -63.5t-26.5 -64.5t-63.5 -27.5zM362 -217q7 -46 32 -75.5t57.5 -39t67 -7t65.5 16.5q-34 -28 -85.5 -39.5t-102 -4t-91.5 44t-53 96.5q-28 127 92 225h-235q11 0 22.5 1t37 8.5t43.5 20.5
t33 41.5t15 67.5v568q0 63 -25 85t-59 15l244 156v-824q0 -39 14 -67.5t31.5 -41.5t42 -20.5t35.5 -8.5t22 -1h-80q-56 -31 -95.5 -90t-27.5 -127z" />
    <glyph glyph-name="Idotaccent" unicode="&#x130;" horiz-adv-x="686" 
d="M346 1604q-37 0 -63.5 27t-26.5 65q0 35 26.5 61.5t63.5 26.5q36 0 62 -26t26 -62q0 -38 -25.5 -65t-62.5 -27zM432 174q0 -47 17.5 -82t39.5 -52t52 -27t45.5 -11.5t29.5 -1.5h-557q13 0 29 1.5t45.5 11.5t52 27t39.5 52t17 82v1086q0 48 -17.5 83t-39 52t-51.5 26.5
t-45.5 11t-29.5 1.5h557q-14 0 -29.5 -1.5t-45.5 -11t-52 -26.5t-39.5 -52t-17.5 -83v-1086z" />
    <glyph glyph-name="dotlessi" unicode="&#x131;" horiz-adv-x="694" 
d="M432 139q0 -39 14.5 -67.5t32 -41.5t42 -20.5t35.5 -8.5t22 -1h-457q11 0 22.5 1t37 8.5t43.5 20.5t33 41.5t15 67.5v568q0 62 -26 84.5t-58 15.5l244 156v-824z" />
    <glyph glyph-name="IJ" unicode="&#x132;" horiz-adv-x="1585" 
d="M432 174q0 -47 17.5 -82t39.5 -52t52 -27t45.5 -11.5t29.5 -1.5h-557q13 0 29 1.5t45.5 11.5t52 27t39.5 52t17 82v1086q0 48 -17.5 83t-39 52t-51.5 26.5t-45.5 11t-29.5 1.5h557q-14 0 -29.5 -1.5t-45.5 -11t-52 -26.5t-39.5 -52t-17.5 -83v-1086zM1192 1274
q0 44 -15.5 76.5t-35 47.5t-46.5 24t-41.5 10.5t-27.5 1.5h526q-13 0 -27.5 -1.5t-42 -10.5t-47.5 -24t-35.5 -47.5t-15.5 -76.5v-934q0 -83 -22 -146.5t-56 -100t-82 -59.5t-92 -30.5t-94 -7.5q-44 0 -92 10t-100.5 33t-87.5 71t-37 113q0 40 26.5 73.5t69.5 33.5
q58 0 81.5 -45t10.5 -107q-17 -71 23 -118.5t106 -47.5q90 0 122 74.5t32 241.5v946z" />
    <glyph glyph-name="ij" unicode="&#x133;" horiz-adv-x="1138" 
d="M299 1079q-41 0 -70.5 30.5t-29.5 72.5q0 43 29.5 72.5t70.5 29.5q42 0 72 -30t30 -72q0 -41 -30.5 -72t-71.5 -31zM879 1079q-41 0 -72 31t-31 72q0 42 30.5 72t72.5 30q41 0 70.5 -29.5t29.5 -72.5q0 -42 -29.5 -72.5t-70.5 -30.5zM78 0q11 0 22.5 1t37 8.5t43.5 20.5
t33 41.5t15 67.5v568q0 62 -26 84.5t-58 15.5l244 156v-824q0 -39 14 -67.5t31 -41.5t41.5 -20.5t35 -8.5t21.5 -1h-454zM813 705q0 65 -26 85.5t-62 16.5l248 156v-1067q0 -79 -19 -140.5t-51.5 -98t-76 -60.5t-92.5 -27t-101 2q-99 6 -166.5 53.5t-67.5 126.5
q0 34 24.5 60t59.5 26q48 0 71 -42.5t15 -98.5q-4 -63 34.5 -90.5t86.5 -22.5q73 3 98 62t25 221v838z" />
    <glyph glyph-name="Kcommaaccent" unicode="&#x136;" horiz-adv-x="1302" 
d="M389 160q0 -43 16 -75t37.5 -47.5t49 -24.5t43 -11t28.5 -2h-540q13 0 28 2t42.5 11t48.5 24.5t37 47.5t16 75v1114q0 44 -16 76.5t-36.5 47.5t-48.5 24t-42.5 10.5t-28.5 1.5h540q-14 0 -28.5 -1.5t-43 -10.5t-49 -24t-37 -47.5t-16.5 -76.5v-1114zM1090 242
q45 -58 91 -104.5t79.5 -71.5t60 -41.5t39.5 -21.5l14 -5l-327 4q-66 63 -152 174l-356 467q-17 21 -37.5 27t-38 0t-33 -15t-24.5 -17l-9 -9l469 559q46 59 44.5 111t-39 89t-93.5 42h459h-3q-3 -1 -10.5 -3t-17.5 -5t-24 -8.5t-30 -13t-35.5 -19t-40 -25t-44 -32
t-47.5 -40.5q-32 -29 -86.5 -93t-124 -150.5t-86.5 -106.5q-30 -32 -38.5 -61.5t-0.5 -55t31 -55.5zM778 -170q40 -30 47 -111.5t-30 -174t-109 -140.5q50 43 77.5 125t12.5 152q-22 -16 -49 -19q-38 -5 -68 19.5t-34 64.5q-5 38 19.5 68.5t62.5 33.5q44 3 71 -18z" />
    <glyph glyph-name="kcommaaccent" unicode="&#x137;" horiz-adv-x="950" 
d="M37 0q10 0 21.5 1t37 8.5t44 21t33.5 42t15 66.5v1071q0 59 -28 84.5t-60 12.5l250 159l-2 -1327q0 -39 13.5 -67t30 -41.5t39.5 -21t34 -8.5t20 -1h-448zM631 0q34 3 39.5 32t-23.5 70q-30 42 -126.5 169t-119.5 151q-31 39 -49 31l246 268q66 75 34.5 138.5
t-126.5 68.5h409q-19 -3 -55.5 -20t-110.5 -71.5t-147 -134.5l-76 -81q-37 -43 2 -103q30 -44 151 -202t175 -216q37 -41 77 -66t61 -30l22 -4h-383zM508 -152q30 3 56 -10.5t40 -38.5q18 -35 20.5 -88.5t-10.5 -109.5t-46 -110.5t-81 -86.5q50 44 78 126t13 151
q-22 -16 -50 -19q-39 -4 -68 20t-34 64q-5 38 19.5 68.5t62.5 33.5z" />
    <glyph glyph-name="Lacute" unicode="&#x139;" horiz-adv-x="1243" 
d="M543 1839q12 -11 14.5 -27.5t-10 -39t-41.5 -43.5l-248 -173l172 244q27 44 59.5 54t53.5 -15zM649 18q95 0 188 31.5t164.5 82t124 112.5t74.5 125l-78 -369h-1097q9 0 18.5 0.5t28.5 4.5t35.5 10.5t35.5 20t32.5 32t22.5 48.5t9 66v1078q0 48 -16.5 83t-37 52t-49 26.5
t-43 11t-28.5 1.5h540q-14 0 -28.5 -1.5t-43.5 -11t-50 -26.5t-37.5 -52t-16.5 -83v-1059q0 -101 42 -142t122 -41h88z" />
    <glyph glyph-name="lacute" unicode="&#x13a;" horiz-adv-x="540" 
d="M408 1831q12 -12 14.5 -29t-10 -39.5t-41.5 -42.5l-250 -174l174 244q27 43 58.5 54t54.5 -13zM344 139q0 -39 16 -67.5t35 -41.5t46.5 -20.5t39 -8.5t23.5 -1h-479q11 0 23 1t39 8.5t46.5 20.5t35 41.5t15.5 67.5v1059q0 41 -10.5 67.5t-25 34t-28.5 11t-22 -1.5
l246 157v-1327z" />
    <glyph glyph-name="Lcommaaccent" unicode="&#x13b;" horiz-adv-x="1243" 
d="M649 18q95 0 188 31.5t164.5 82t124 112.5t74.5 125l-78 -369h-1097q9 0 18.5 0.5t28.5 4.5t35.5 10.5t35.5 20t32.5 32t22.5 48.5t9 66v1078q0 48 -16.5 83t-37 52t-49 26.5t-43 11t-28.5 1.5h540q-14 0 -28.5 -1.5t-43.5 -11t-50 -26.5t-37.5 -52t-16.5 -83v-1059
q0 -101 42 -142t122 -41h88zM641 -152q36 4 65.5 -15t38.5 -52q31 -81 -2 -199t-122 -178q50 43 77.5 125t12.5 152q-22 -16 -49 -19q-38 -5 -68.5 19.5t-34.5 64.5q-5 38 19.5 68.5t62.5 33.5z" />
    <glyph glyph-name="lcommaaccent" unicode="&#x13c;" horiz-adv-x="540" 
d="M344 139q0 -39 16 -67.5t35 -41.5t46.5 -20.5t39 -8.5t23.5 -1h-479q11 0 23 1t39 8.5t46.5 20.5t35 41.5t15.5 67.5v1059q0 41 -10.5 67.5t-25 34t-28.5 11t-22 -1.5l246 157v-1327zM293 -152q36 4 65.5 -15t38.5 -52q30 -81 -3 -199t-122 -178q50 43 77.5 125t12.5 152
q-22 -16 -49 -19q-38 -5 -68 19.5t-34 64.5q-5 38 19.5 68.5t62.5 33.5z" />
    <glyph glyph-name="Lcaron" unicode="&#x13d;" horiz-adv-x="1243" 
d="M567 1386q-4 40 20 70t62 33t62 -12q34 -18 47.5 -73.5t5.5 -120.5t-43.5 -132t-91.5 -104q50 42 77.5 123t12.5 151q-21 -15 -49 -18q-40 -4 -69 19.5t-34 63.5zM649 18q95 0 188 31.5t164.5 82t124 112.5t74.5 125l-78 -369h-1097q9 0 18.5 0.5t28.5 4.5t35.5 10.5
t35.5 20t32.5 32t22.5 48.5t9 66v1078q0 48 -16.5 83t-37 52t-49 26.5t-43 11t-28.5 1.5h540q-14 0 -28.5 -1.5t-43.5 -11t-50 -26.5t-37.5 -52t-16.5 -83v-1059q0 -101 42 -142t122 -41h88z" />
    <glyph glyph-name="lcaron" unicode="&#x13e;" horiz-adv-x="540" 
d="M582 1477q34 -18 47.5 -73.5t5.5 -120.5t-43.5 -132t-91.5 -104q50 42 77.5 123t12.5 151q-21 -15 -49 -18q-40 -4 -69 19.5t-34 63.5q-4 40 20 70t62 33t62 -12zM344 139q0 -39 16 -67.5t35 -41.5t46.5 -20.5t39 -8.5t23.5 -1h-479q11 0 23 1t39 8.5t46.5 20.5t35 41.5
t15.5 67.5v1059q0 41 -10.5 67.5t-25 34t-28.5 11t-22 -1.5l246 157v-1327z" />
    <glyph glyph-name="Ldot" unicode="&#x13f;" horiz-adv-x="1243" 
d="M649 18q95 0 188 31.5t164.5 82t124 112.5t74.5 125l-78 -369h-1097q9 0 18.5 0.5t28.5 4.5t35.5 10.5t35.5 20t32.5 32t22.5 48.5t9 66v1078q0 48 -16.5 83t-37 52t-49 26.5t-43 11t-28.5 1.5h540q-14 0 -28.5 -1.5t-43.5 -11t-50 -26.5t-37.5 -52t-16.5 -83v-1059
q0 -101 42 -142t122 -41h88zM756 700q-34 0 -59 26t-25 62q0 35 25 60.5t59 25.5q38 0 63 -25t25 -61q0 -37 -25 -62.5t-63 -25.5z" />
    <glyph glyph-name="ldot" unicode="&#x140;" horiz-adv-x="712" 
d="M369 139q0 -39 15.5 -67.5t35 -41.5t46.5 -20.5t39 -8.5t23 -1h-479q12 0 23.5 1t39 8.5t46.5 20.5t35 41.5t16 67.5v1059q0 33 -7 57t-18 34.5t-23 17t-22 4.5t-16 -2l246 157v-1327zM530 874q37 0 62.5 -25.5t25.5 -60.5q0 -37 -25.5 -62.5t-62.5 -25.5
q-35 0 -59.5 25.5t-24.5 62.5q0 35 24.5 60.5t59.5 25.5z" />
    <glyph glyph-name="Lslash" unicode="&#x141;" horiz-adv-x="1259" 
d="M662 18q95 0 187.5 31.5t164 82t124 112.5t74.5 125l-77 -369h-1098q14 0 29 1.5t44.5 11.5t51 27.5t38.5 54.5t17 87v633l-131 -51l-33 8l164 64v424q0 48 -16 83t-36.5 52t-48.5 26.5t-42.5 11t-28.5 1.5h539q-14 0 -28.5 -1.5t-43 -11t-49 -26.5t-37 -52t-16.5 -83
v-351l170 66l-11 -25l-159 -61v-688q0 -101 41.5 -142t121.5 -41h89z" />
    <glyph glyph-name="lslash" unicode="&#x142;" horiz-adv-x="587" 
d="M356 895l183 70l-11 -25l-172 -66v-735q0 -39 16 -67.5t35 -41.5t46.5 -20.5t39 -8.5t23.5 -1h-479q12 0 23.5 1t39 8.5t46.5 20.5t35 41.5t16 67.5v674l-127 -49l-33 8l160 62v364q0 33 -7 57t-18 34.5t-23 17t-22 4.5t-16 -2l245 157v-571z" />
    <glyph glyph-name="Nacute" unicode="&#x143;" horiz-adv-x="1503" 
d="M993 1839q20 -13 12 -46t-49 -64l-249 -173l172 244q29 44 60 54t54 -15zM1227 1180q0 66 -20 115.5t-46.5 74.5t-62 40.5t-55.5 19t-39 4.5h464q-18 -1 -37 -4t-54.5 -18.5t-61.5 -40.5t-46 -74.5t-20 -116.5v-1205h-2l-16 25l-879 1169q-38 47 -59 11q-14 -25 -14 -78
v-838q0 -50 12.5 -92t32.5 -68.5t44 -46.5t47.5 -30.5t43.5 -17t33 -7.5l12 -2h-473q5 0 13 1.5t31.5 8t44.5 16.5t47 30.5t44.5 47t31.5 69t13 93.5v836q0 51 -7 95t-18.5 75t-27 57t-32.5 42.5t-33.5 29t-32 19t-27 10t-18.5 4.5l-7 2h348l736 -981q42 -57 67 -52
q8 1 13 10.5t7 29.5t2.5 34.5t0.5 42.5v660z" />
    <glyph glyph-name="nacute" unicode="&#x144;" horiz-adv-x="1161" 
d="M782 1333q20 -13 12 -46t-49 -64l-249 -172l174 243q27 44 58 54t54 -15zM362 139q0 -39 14.5 -67.5t32 -41.5t42.5 -20.5t36 -8.5t21 -1h-449q10 0 21 1t35 8.5t41.5 20.5t32 41.5t14.5 67.5v574q0 28 -8 47.5t-19 27.5t-23.5 13t-22 3.5t-13.5 -1.5l245 160v-824z
M977 139q0 -39 14.5 -67.5t32 -41.5t42 -20.5t35.5 -8.5t21 -1h-450q10 0 21 1t35 8.5t41.5 20.5t31.5 41.5t14 67.5v353v33v72.5t-2 61.5t-6 56.5t-11 44t-18.5 39t-28 26t-38.5 19.5q-64 26 -162.5 -9t-175.5 -106q35 41 75.5 77.5t94.5 73.5t118.5 56.5t126.5 13.5
q35 -3 63 -13t47 -26t33.5 -37t22.5 -46t13.5 -54t7 -60.5t2.5 -65t0 -67.5v-12.5v-11v-12.5v-406z" />
    <glyph glyph-name="Ncommaaccent" unicode="&#x145;" horiz-adv-x="1503" 
d="M1227 1180q0 66 -20 115.5t-46.5 74.5t-62 40.5t-55.5 19t-39 4.5h464q-18 -1 -37 -4t-54.5 -18.5t-61.5 -40.5t-46 -74.5t-20 -116.5v-1205h-2l-16 25l-879 1169q-38 47 -59 11q-14 -25 -14 -78v-838q0 -50 12.5 -92t32.5 -68.5t44 -46.5t47.5 -30.5t43.5 -17t33 -7.5
l12 -2h-473q5 0 13 1.5t31.5 8t44.5 16.5t47 30.5t44.5 47t31.5 69t13 93.5v836q0 51 -7 95t-18.5 75t-27 57t-32.5 42.5t-33.5 29t-32 19t-27 10t-18.5 4.5l-7 2h348l736 -981q42 -57 67 -52q8 1 13 10.5t7 29.5t2.5 34.5t0.5 42.5v660zM758 -152q36 4 65.5 -15t38.5 -52
q30 -81 -3 -199t-122 -178q50 43 77.5 125t12.5 152q-22 -16 -49 -19q-39 -4 -68 20t-34 64q-5 38 19.5 68.5t62.5 33.5z" />
    <glyph glyph-name="ncommaaccent" unicode="&#x146;" horiz-adv-x="1161" 
d="M362 139q0 -39 14.5 -67.5t32 -41.5t42.5 -20.5t36 -8.5t21 -1h-449q10 0 21 1t35 8.5t41.5 20.5t32 41.5t14.5 67.5v574q0 28 -8 47.5t-19 27.5t-23.5 13t-22 3.5t-13.5 -1.5l245 160v-824zM977 139q0 -39 14.5 -67.5t32 -41.5t42 -20.5t35.5 -8.5t21 -1h-450q10 0 21 1
t35 8.5t41.5 20.5t31.5 41.5t14 67.5v353v33v72.5t-2 61.5t-6 56.5t-11 44t-18.5 39t-28 26t-38.5 19.5q-64 26 -162.5 -9t-175.5 -106q35 41 75.5 77.5t94.5 73.5t118.5 56.5t126.5 13.5q35 -3 63 -13t47 -26t33.5 -37t22.5 -46t13.5 -54t7 -60.5t2.5 -65t0 -67.5v-12.5
v-11v-12.5v-406zM596 -152q30 3 56 -10.5t40 -38.5q18 -35 20.5 -88.5t-10.5 -109.5t-46 -110.5t-81 -86.5q50 43 77 124.5t12 149.5q-19 -13 -48 -16q-40 -5 -69.5 19.5t-32.5 64.5q-5 38 19.5 68.5t62.5 33.5z" />
    <glyph glyph-name="Ncaron" unicode="&#x147;" horiz-adv-x="1503" 
d="M844 1559h-113l-170 280l225 -211l201 209zM1227 1180q0 66 -20 115.5t-46.5 74.5t-62 40.5t-55.5 19t-39 4.5h464q-18 -1 -37 -4t-54.5 -18.5t-61.5 -40.5t-46 -74.5t-20 -116.5v-1205h-2l-16 25l-879 1169q-38 47 -59 11q-14 -25 -14 -78v-838q0 -50 12.5 -92
t32.5 -68.5t44 -46.5t47.5 -30.5t43.5 -17t33 -7.5l12 -2h-473q5 0 13 1.5t31.5 8t44.5 16.5t47 30.5t44.5 47t31.5 69t13 93.5v836q0 51 -7 95t-18.5 75t-27 57t-32.5 42.5t-33.5 29t-32 19t-27 10t-18.5 4.5l-7 2h348l736 -981q42 -57 67 -52q8 1 13 10.5t7 29.5t2.5 34.5
t0.5 42.5v660z" />
    <glyph glyph-name="ncaron" unicode="&#x148;" horiz-adv-x="1161" 
d="M657 1055h-114l-168 280l223 -211l203 209zM362 139q0 -39 14.5 -67.5t32 -41.5t42.5 -20.5t36 -8.5t21 -1h-449q10 0 21 1t35 8.5t41.5 20.5t32 41.5t14.5 67.5v574q0 28 -8 47.5t-19 27.5t-23.5 13t-22 3.5t-13.5 -1.5l245 160v-824zM977 139q0 -39 14.5 -67.5
t32 -41.5t42 -20.5t35.5 -8.5t21 -1h-450q10 0 21 1t35 8.5t41.5 20.5t31.5 41.5t14 67.5v353v33v72.5t-2 61.5t-6 56.5t-11 44t-18.5 39t-28 26t-38.5 19.5q-64 26 -162.5 -9t-175.5 -106q35 41 75.5 77.5t94.5 73.5t118.5 56.5t126.5 13.5q35 -3 63 -13t47 -26t33.5 -37
t22.5 -46t13.5 -54t7 -60.5t2.5 -65t0 -67.5v-12.5v-11v-12.5v-406z" />
    <glyph glyph-name="Eng" unicode="&#x14a;" horiz-adv-x="1536" 
d="M1239 1180q0 66 -20 115.5t-46.5 74.5t-62 40.5t-55.5 19t-39 4.5h465q-18 -1 -37 -4t-55 -18.5t-62 -40.5t-46.5 -74.5t-20.5 -116.5v-1284q0 -98 -28.5 -168.5t-77.5 -105.5t-107 -47.5t-125 -2.5q-99 6 -166.5 53.5t-67.5 126.5q0 34 24.5 60t57.5 26q49 0 72.5 -42.5
t15.5 -98.5q-5 -63 34 -90.5t85 -22.5q74 3 98.5 61.5t24.5 221.5v170q0 24 -4.5 49.5t-10 46t-17 46t-19 41t-22.5 39.5t-21 33t-21 30.5t-16 23.5h14l-618 823q-38 47 -59 12q-15 -25 -15 -79v-838q0 -50 12.5 -92t32.5 -68.5t44 -46.5t47.5 -30.5t43.5 -17t33 -7.5l12 -2
h-473q5 0 13 1.5t31.5 8t44.5 16.5t47 30.5t44.5 47t31.5 69t13 93.5v836q0 51 -7 95t-19 75t-27.5 57t-32 42.5t-33.5 29t-32.5 19t-27.5 10t-19 4.5l-7 2h351l735 -981q42 -57 68 -52q8 1 12.5 10t6.5 27.5t2.5 32t0.5 40.5v7v660z" />
    <glyph glyph-name="eng" unicode="&#x14b;" horiz-adv-x="1150" 
d="M63 0q10 0 21 1t35 8.5t41.5 20.5t32 41.5t14.5 67.5v574q0 28 -8 47.5t-19 27.5t-23.5 13t-22 3.5t-13.5 -1.5l246 160v-824q0 -39 14.5 -67.5t32 -41.5t42 -20.5t35.5 -8.5t21 -1h-449zM793 950q35 -3 62.5 -13t47 -25.5t34 -36.5t22.5 -46t13 -54t6.5 -60t2.5 -64.5
t0 -67.5v-38v-682q0 -84 -18.5 -148.5t-48 -104t-71.5 -64.5t-84.5 -34.5t-90.5 -9.5q-34 0 -71.5 5.5t-82 21.5t-79.5 40.5t-59 66.5t-26 96q0 39 26.5 71.5t69.5 32.5q58 0 81.5 -45t9.5 -106q-15 -73 22.5 -119.5t108.5 -46.5q45 0 76 30t46.5 87t22 121t6.5 149v586v33
v72.5t-2 61.5t-6 56.5t-11 44t-18.5 39t-28 26t-38.5 19.5q-64 26 -162.5 -9t-175.5 -106q34 40 75 77t95.5 74t119 56.5t126.5 13.5z" />
    <glyph glyph-name="Omacron" unicode="&#x14c;" horiz-adv-x="1656" 
d="M623 1573l403 2v-19h-403v17zM860 1450q142 1 258.5 -43.5t192.5 -117.5t127.5 -171t72.5 -201.5t19 -211.5q-4 -153 -56.5 -286t-145 -231t-229 -153.5t-298.5 -54.5q-122 0 -226.5 32.5t-180 89t-134 129t-93 157t-51 170.5t-14.5 171q3 219 104.5 384.5t271.5 251
t382 85.5zM1311 711q-7 191 -73.5 351.5t-183 256.5t-259.5 96q-228 6 -359.5 -174.5t-116.5 -492.5q10 -188 80.5 -351t188.5 -266.5t258 -114.5q126 -12 221 36t150.5 143.5t79 226t14.5 289.5z" />
    <glyph glyph-name="omacron" unicode="&#x14d;" horiz-adv-x="1107" 
d="M367 1122l403 2v-18h-403v16zM602 -18q-41 -2 -83 2.5t-95.5 16t-102 38.5t-93.5 65.5t-79.5 100.5t-52.5 141q-43 208 53 375.5t289 218.5q73 19 143.5 20.5t134 -14.5t118.5 -50.5t97.5 -84.5t70.5 -120t38 -154q13 -113 -16.5 -215t-90 -174.5t-147 -117t-184.5 -48.5
zM862 571q-17 89 -56 165t-95 128t-126.5 68.5t-150.5 -12.5q-62 -23 -104.5 -79t-60 -130.5t-17.5 -158t18 -167.5q21 -106 64 -184t96.5 -119.5t109 -59t111.5 -12.5q76 8 128.5 60.5t74 130.5t25.5 175t-17 195z" />
    <glyph glyph-name="Ohungarumlaut" unicode="&#x150;" horiz-adv-x="1656" 
d="M598 1563l248 172q29 20 41.5 42t10 39t-14.5 29q-21 25 -53.5 15t-59.5 -54zM864 1563l248 172q29 20 41.5 42t10 39t-14.5 29q-21 25 -53.5 15t-59.5 -54zM860 1450q142 1 258.5 -43.5t192.5 -117.5t127.5 -171t72.5 -201.5t19 -211.5q-4 -153 -56.5 -286t-145 -231
t-229 -153.5t-298.5 -54.5q-122 0 -226.5 32.5t-180 89t-134 129t-93 157t-51 170.5t-14.5 171q3 219 104.5 384.5t271.5 251t382 85.5zM1311 711q-7 191 -73.5 351.5t-183 256.5t-259.5 96q-228 6 -359.5 -174.5t-116.5 -492.5q10 -188 80.5 -351t188.5 -266.5t258 -114.5
q126 -12 221 36t150.5 143.5t79 226t14.5 289.5z" />
    <glyph glyph-name="ohungarumlaut" unicode="&#x151;" horiz-adv-x="1107" 
d="M379 1051l250 172q28 21 40.5 43.5t10 39.5t-15.5 27q-21 25 -53.5 15t-59.5 -54zM602 1051l250 172q41 31 49 64t-12 46q-23 25 -54.5 15t-60.5 -54zM602 -18q-41 -2 -83 2.5t-95.5 16t-102 38.5t-93.5 65.5t-79.5 100.5t-52.5 141q-43 208 53 375.5t289 218.5
q73 19 143.5 20.5t134 -14.5t118.5 -50.5t97.5 -84.5t70.5 -120t38 -154q13 -113 -16.5 -215t-90 -174.5t-147 -117t-184.5 -48.5zM862 571q-17 89 -56 165t-95 128t-126.5 68.5t-150.5 -12.5q-62 -23 -104.5 -79t-60 -130.5t-17.5 -158t18 -167.5q21 -106 64 -184
t96.5 -119.5t109 -59t111.5 -12.5q76 8 128.5 60.5t74 130.5t25.5 175t-17 195z" />
    <glyph glyph-name="OE" unicode="&#x152;" horiz-adv-x="2385" 
d="M2097 143q73 53 126.5 109t70.5 86l18 29l-88 -367h-885q-59 0 -169 -10.5t-158 -9.5q-140 1 -257.5 47t-195.5 121.5t-132 174t-77 201.5t-20 205q2 161 59 297t155 229.5t233.5 146t291.5 52.5q66 0 178.5 -10t149.5 -10h757l70 -328q-14 32 -73.5 97.5t-131.5 113.5
q-60 40 -105 58t-120 28t-201 10h-127v-657h115q69 1 124.5 22t84.5 50t48 57.5t24 48.5l6 20v-424q-2 8 -5.5 21.5t-23.5 48.5t-48.5 61.5t-84 48.5t-125.5 23h-115v-538q0 -58 15 -96.5t41 -54.5t47.5 -21t48.5 -5h129q106 0 189 34t161 91zM1038 16q33 -1 63 2t63 15
t57 32t39.5 56.5t15.5 85.5v1005q0 179 -207 203q-251 28 -393 -144.5t-133 -506.5q7 -184 71.5 -352t177.5 -279t246 -117z" />
    <glyph glyph-name="oe" unicode="&#x153;" horiz-adv-x="1798" 
d="M1356 94q119 -8 212 39.5t144 153.5q-18 -60 -51 -112.5t-81.5 -97.5t-118 -71t-150.5 -26q-124 2 -229.5 58.5t-168.5 160.5q-59 -97 -155 -155t-211 -62q-41 -2 -83 2.5t-95.5 16t-102 38.5t-93.5 65.5t-79.5 100.5t-52.5 141q-43 208 53 375.5t289 218.5
q169 44 314 -5.5t223 -184.5q52 84 151 147q117 72 279 64q160 -9 260 -125t96 -301h-705q0 -68 17 -132q30 -139 121.5 -220t216.5 -89zM596 10q76 8 128.5 60.5t74 130.5t25.5 175t-17 195q-17 89 -56 165t-95 128t-126.5 68.5t-150.5 -12.5q-62 -23 -104.5 -79
t-60 -130.5t-17.5 -158t18 -167.5q21 -106 64 -184t96.5 -119.5t109 -59t111.5 -12.5zM1143 891q-71 -56 -104.5 -151.5t-37.5 -188.5q265 0 357 6q133 8 180 70q20 26 27 71.5t-11.5 101.5t-64.5 93q-67 56 -165 55.5t-181 -57.5z" />
    <glyph glyph-name="Racute" unicode="&#x154;" horiz-adv-x="1241" 
d="M750 1839q12 -11 14.5 -27.5t-10 -39t-41.5 -43.5l-248 -173l172 244q27 44 59.5 54t53.5 -15zM1110 195q25 -44 56.5 -80.5t59 -57t51.5 -34t38 -18.5l14 -5h-303q-62 67 -139 209l-187 321q-15 26 -31.5 47.5t-30 37.5t-33 28.5t-31 20.5t-33.5 13.5t-31.5 8.5t-34 4.5
t-32.5 1.5h-35h-33l-2 -565q0 -35 14 -60.5t31.5 -37.5t42 -19.5t37.5 -8.5t26 -1h-518q14 0 28.5 1.5t43 10.5t49 24t37 47.5t16.5 76.5v1114q0 44 -17 76.5t-39 47.5t-50.5 24t-42.5 10.5t-25 1.5q83 0 259.5 4.5t260.5 3.5q202 -2 318.5 -35.5t177.5 -124.5
q62 -85 59 -215q-3 -84 -39 -159.5t-100 -125.5q-44 -35 -98 -57t-94 -25q81 -24 176 -192zM561 725q162 18 246 110t86 236q1 90 -23 155.5t-67.5 105.5t-111 62t-143.5 28t-175 1l2 -708q115 0 186 10z" />
    <glyph glyph-name="racute" unicode="&#x155;" horiz-adv-x="833" 
d="M662 1333q20 -13 12 -46t-49 -64l-250 -172l172 243q29 44 60.5 54t54.5 -15zM690 952q59 -3 85 -36t26 -70q0 -35 -21 -66t-65 -32q-26 -1 -45.5 8t-29 20t-22.5 26.5t-22 22.5q-16 13 -36.5 18t-50.5 1t-70 -35.5t-83 -87.5v-588q0 -37 15 -64.5t34 -40t45 -19.5
t37.5 -8t22.5 -1h-465q11 0 22.5 1t37 8t44 19.5t33.5 40t15 64.5v27v553q0 56 -26 78t-56 18l241 154v-142v-47v-43q58 107 150 165.5t184 55.5z" />
    <glyph glyph-name="Rcommaaccent" unicode="&#x156;" horiz-adv-x="1241" 
d="M1110 195q25 -44 56.5 -80.5t59 -57t51.5 -34t38 -18.5l14 -5h-303q-62 67 -139 209l-187 321q-15 26 -31.5 47.5t-30 37.5t-33 28.5t-31 20.5t-33.5 13.5t-31.5 8.5t-34 4.5t-32.5 1.5h-35h-33l-2 -565q0 -35 14 -60.5t31.5 -37.5t42 -19.5t37.5 -8.5t26 -1h-518
q14 0 28.5 1.5t43 10.5t49 24t37 47.5t16.5 76.5v1114q0 44 -17 76.5t-39 47.5t-50.5 24t-42.5 10.5t-25 1.5q83 0 259.5 4.5t260.5 3.5q202 -2 318.5 -35.5t177.5 -124.5q62 -85 59 -215q-3 -84 -39 -159.5t-100 -125.5q-44 -35 -98 -57t-94 -25q81 -24 176 -192zM561 725
q162 18 246 110t86 236q1 90 -23 155.5t-67.5 105.5t-111 62t-143.5 28t-175 1l2 -708q115 0 186 10zM748 -186q5 -10 8 -13q18 -34 21 -87.5t-9.5 -110t-45.5 -111.5t-81 -88q50 43 76.5 124.5t11.5 149.5q-19 -13 -47 -16q-40 -5 -69.5 19.5t-32.5 64.5q-5 38 19.5 68.5
t62.5 33.5q42 6 73 -22z" />
    <glyph glyph-name="rcommaaccent" unicode="&#x157;" horiz-adv-x="833" 
d="M690 952q59 -3 85 -36t26 -70q0 -35 -21 -66t-65 -32q-26 -1 -45.5 8t-29 20t-22.5 26.5t-22 22.5q-16 13 -36.5 18t-50.5 1t-70 -35.5t-83 -87.5v-588q0 -37 15 -64.5t34 -40t45 -19.5t37.5 -8t22.5 -1h-465q11 0 22.5 1t37 8t44 19.5t33.5 40t15 64.5v27v553
q0 56 -26 78t-56 18l241 154v-142v-47v-43q58 107 150 165.5t184 55.5zM463 -186q5 -10 8 -13q18 -34 21 -87.5t-10 -110t-46.5 -111.5t-81.5 -88q50 43 77.5 125t12.5 152q-19 -16 -49 -19q-38 -5 -68 19.5t-34 64.5q-4 38 21 68.5t63 33.5q43 6 74 -22z" />
    <glyph glyph-name="Rcaron" unicode="&#x158;" horiz-adv-x="1241" 
d="M692 1559h-114l-168 280l225 -211l201 209zM1110 195q25 -44 56.5 -80.5t59 -57t51.5 -34t38 -18.5l14 -5h-303q-62 67 -139 209l-187 321q-15 26 -31.5 47.5t-30 37.5t-33 28.5t-31 20.5t-33.5 13.5t-31.5 8.5t-34 4.5t-32.5 1.5h-35h-33l-2 -565q0 -35 14 -60.5
t31.5 -37.5t42 -19.5t37.5 -8.5t26 -1h-518q14 0 28.5 1.5t43 10.5t49 24t37 47.5t16.5 76.5v1114q0 44 -17 76.5t-39 47.5t-50.5 24t-42.5 10.5t-25 1.5q83 0 259.5 4.5t260.5 3.5q202 -2 318.5 -35.5t177.5 -124.5q62 -85 59 -215q-3 -84 -39 -159.5t-100 -125.5
q-44 -35 -98 -57t-94 -25q81 -24 176 -192zM561 725q162 18 246 110t86 236q1 90 -23 155.5t-67.5 105.5t-111 62t-143.5 28t-175 1l2 -708q115 0 186 10z" />
    <glyph glyph-name="rcaron" unicode="&#x159;" horiz-adv-x="833" 
d="M518 1055h-115l-167 280l225 -211l201 209zM690 952q59 -3 85 -36t26 -70q0 -35 -21 -66t-65 -32q-26 -1 -45.5 8t-29 20t-22.5 26.5t-22 22.5q-16 13 -36.5 18t-50.5 1t-70 -35.5t-83 -87.5v-588q0 -37 15 -64.5t34 -40t45 -19.5t37.5 -8t22.5 -1h-465q11 0 22.5 1t37 8
t44 19.5t33.5 40t15 64.5v27v553q0 56 -26 78t-56 18l241 154v-142v-47v-43q58 107 150 165.5t184 55.5z" />
    <glyph glyph-name="Sacute" unicode="&#x15a;" horiz-adv-x="1222" 
d="M518 1556l250 173q28 21 40.5 43.5t10 39.5t-15.5 27q-21 25 -53.5 15t-59.5 -54zM1047 1065q-4 11 -13.5 30t-52 75t-98.5 108q-105 104 -249 135t-251 -31q-60 -37 -86 -105t-14 -144q18 -106 103 -175t251 -104q293 -61 408.5 -179t93.5 -319q-7 -83 -38.5 -149.5
t-78.5 -109.5t-110 -72t-129 -41.5t-138 -12.5q-332 3 -536 156l-5 389q63 -179 203.5 -311t308.5 -172q75 -19 148.5 -14t133 27t97.5 75t41 129q3 48 -7 89.5t-40.5 85.5t-82.5 80.5t-138.5 71.5t-202.5 62q-101 24 -176.5 58.5t-121.5 74.5t-73 90.5t-36 101.5t-6 113
q6 172 144.5 275.5t348.5 101.5q68 -1 134.5 -11.5t112 -25t81.5 -29t53 -24.5l18 -10z" />
    <glyph glyph-name="sacute" unicode="&#x15b;" horiz-adv-x="892" 
d="M352 1051l250 172q29 21 41.5 43.5t10 39t-14.5 27.5q-23 25 -54.5 15t-58.5 -54zM766 670q-59 118 -158.5 190.5t-204.5 71.5q-69 -1 -111 -34.5t-50 -90.5q-5 -15 -2.5 -34.5t7 -40t22.5 -43.5t43.5 -44t71 -41.5t105.5 -36.5q189 -52 263.5 -120.5t74.5 -170.5
q1 -45 -11 -87.5t-38.5 -81t-65.5 -67.5t-97 -46t-128 -17q-37 0 -72.5 3.5t-62.5 8t-56.5 13.5t-47.5 15t-42.5 17.5t-34.5 17t-31 17t-25 13.5l-4 274q85 -185 206 -264q78 -51 168.5 -69.5t160.5 8.5t79 100q16 83 -48.5 152t-238.5 118q-169 48 -236 116.5t-67 164.5
q2 115 92.5 197t255.5 82q61 0 115 -11.5t90 -30t51.5 -28.5t26.5 -19v-202z" />
    <glyph glyph-name="Scedilla" unicode="&#x15e;" horiz-adv-x="1222" 
d="M637 854q293 -61 408.5 -179t93.5 -319q-8 -101 -52.5 -177.5t-113.5 -120t-149 -65t-169 -22.5l-41 -59q93 -7 133.5 -53t30.5 -107q-10 -62 -50.5 -98t-92 -42t-103.5 6.5t-86 39.5q33 -14 73 -18t79 3t67.5 35.5t32.5 75.5q7 59 -36 89t-97 34l66 94q-320 6 -522 156
l-5 389q63 -179 203.5 -311t308.5 -172q75 -19 148.5 -14t133 27t97.5 75t41 129q3 48 -7 89.5t-40.5 85.5t-82.5 80.5t-138.5 71.5t-202.5 62q-101 24 -176.5 58.5t-121.5 74.5t-73 90.5t-36 101.5t-6 113q6 172 144.5 275.5t348.5 101.5q68 -1 134.5 -11.5t112 -25
t81.5 -29t53 -24.5l18 -10l3 -289q-4 11 -13.5 30t-52 75t-98.5 108q-105 104 -249 135t-251 -31q-60 -37 -86 -105t-14 -144q18 -106 103 -175t251 -104z" />
    <glyph glyph-name="scedilla" unicode="&#x15f;" horiz-adv-x="892" 
d="M487 -23l-45 -65q94 -7 134 -52.5t32 -107.5q-10 -62 -50.5 -98t-92 -42t-103.5 6.5t-86 39.5q33 -14 72.5 -18t78.5 3t67.5 35.5t33.5 75.5q5 59 -38 89t-97 34l70 100q-38 1 -74 5.5t-67 13t-54.5 15.5t-50 19t-39.5 18.5t-36 19t-27 14.5l-4 274q85 -185 206 -264
q78 -51 168.5 -69.5t160.5 8.5t79 100q16 83 -48.5 152t-238.5 118q-169 48 -236 116.5t-67 164.5q2 115 92.5 197t255.5 82q61 0 115 -11.5t90 -30t51.5 -28.5t26.5 -19v-202q-59 118 -158.5 190.5t-204.5 71.5q-69 -1 -111 -34.5t-50 -90.5q-5 -15 -2.5 -34.5t7 -40
t22.5 -43.5t43.5 -44t71 -41.5t105.5 -36.5q189 -52 263.5 -120.5t74.5 -170.5q1 -45 -11 -87.5t-38.5 -81t-65.5 -67.5t-97 -46t-128 -17z" />
    <glyph glyph-name="Scaron" unicode="&#x160;" horiz-adv-x="1222" 
d="M403 1839l168 -280h115l141 278l-200 -209zM1047 1065q-4 11 -13.5 30t-52 75t-98.5 108q-105 104 -249 135t-251 -31q-60 -37 -86 -105t-14 -144q18 -106 103 -175t251 -104q293 -61 408.5 -179t93.5 -319q-7 -83 -38.5 -149.5t-78.5 -109.5t-110 -72t-129 -41.5
t-138 -12.5q-332 3 -536 156l-5 389q63 -179 203.5 -311t308.5 -172q75 -19 148.5 -14t133 27t97.5 75t41 129q3 48 -7 89.5t-40.5 85.5t-82.5 80.5t-138.5 71.5t-202.5 62q-101 24 -176.5 58.5t-121.5 74.5t-73 90.5t-36 101.5t-6 113q6 172 144.5 275.5t348.5 101.5
q68 -1 134.5 -11.5t112 -25t81.5 -29t53 -24.5l18 -10z" />
    <glyph glyph-name="scaron" unicode="&#x161;" horiz-adv-x="892" 
d="M246 1335l168 -280h114l144 278l-201 -209zM766 670q-59 118 -158.5 190.5t-204.5 71.5q-69 -1 -111 -34.5t-50 -90.5q-5 -15 -2.5 -34.5t7 -40t22.5 -43.5t43.5 -44t71 -41.5t105.5 -36.5q189 -52 263.5 -120.5t74.5 -170.5q1 -45 -11 -87.5t-38.5 -81t-65.5 -67.5
t-97 -46t-128 -17q-37 0 -72.5 3.5t-62.5 8t-56.5 13.5t-47.5 15t-42.5 17.5t-34.5 17t-31 17t-25 13.5l-4 274q85 -185 206 -264q78 -51 168.5 -69.5t160.5 8.5t79 100q16 83 -48.5 152t-238.5 118q-169 48 -236 116.5t-67 164.5q2 115 92.5 197t255.5 82q61 0 115 -11.5
t90 -30t51.5 -28.5t26.5 -19v-202z" />
    <glyph glyph-name="uni0162" unicode="&#x162;" horiz-adv-x="1382" 
d="M1280 1434l53 -344q-6 13 -17 35t-47.5 75.5t-74.5 89.5q-128 121 -332 121h-74v-1229q0 -50 18.5 -87t41.5 -54.5t55 -27.5t48 -11.5t30 -1.5h-573q14 0 30 1.5t47 11.5t54 27.5t41 54.5t18 87v1229h-86q-200 0 -332 -125q-41 -37 -77.5 -87.5t-52.5 -82.5l-17 -31
l59 349h1188zM637 -123l82 119l29 4l-62 -88q94 -7 134 -52.5t32 -107.5q-10 -62 -50.5 -98t-92 -42t-103.5 6.5t-86 39.5q33 -14 72.5 -18t78.5 3t67.5 35.5t33.5 75.5q5 59 -38 89t-97 34z" />
    <glyph glyph-name="uni0163" unicode="&#x163;" horiz-adv-x="724" 
d="M711 242q-6 -30 -16.5 -61t-34 -69t-54.5 -66.5t-80 -47t-108 -16.5l-47 -70q93 -7 133.5 -53t30.5 -107q-10 -62 -50.5 -98t-92 -42t-103.5 6.5t-86 39.5q33 -14 73 -18t79 3t67.5 35.5t32.5 75.5q7 59 -36 89t-97 34l73 107q-60 5 -103 29.5t-68 59.5t-40 88
t-19.5 103.5t-4.5 116.5v524h-88l-25 19h113v243l162 136q-1 -178 -3 -379h250l-18 -19h-232q0 -79 -0.5 -213t-0.5 -212.5t1 -106.5q1 -60 4 -99.5t12.5 -79t26 -63t45 -39.5t68.5 -20q87 -8 146.5 43.5t89.5 126.5z" />
    <glyph glyph-name="Tcaron" unicode="&#x164;" horiz-adv-x="1382" 
d="M778 1559h-114l-168 280l223 -211l203 209zM1280 1434l53 -344q-6 13 -17 35t-47.5 75.5t-74.5 89.5q-128 121 -332 121h-74v-1229q0 -50 18.5 -87t41.5 -54.5t55 -27.5t48 -11.5t30 -1.5h-573q14 0 30 1.5t47 11.5t54 27.5t41 54.5t18 87v1229h-86q-200 0 -332 -125
q-41 -37 -77.5 -87.5t-52.5 -82.5l-17 -31l59 349h1188z" />
    <glyph glyph-name="tcaron" unicode="&#x165;" horiz-adv-x="724" 
d="M547 1303q-40 -4 -69 19.5t-34 63.5q-4 40 20 70t62 33q35 3 62 -12q6 -3 20 -17q15 -15 21 -33q15 -37 15 -89t-14 -106t-46 -104.5t-78 -80.5q50 42 77.5 123t12.5 151q-21 -15 -49 -18zM475 72q87 -8 146.5 43.5t89.5 126.5q-6 -30 -16.5 -61t-34 -69.5t-55 -66.5
t-81.5 -46.5t-110 -16.5q-64 2 -111 25.5t-74 59t-43 89.5t-21 105.5t-5 119.5v524h-88l-25 19h113v243l162 136q-1 -178 -3 -379h250l-18 -19h-232q0 -79 -0.5 -213t-0.5 -212.5t1 -106.5q1 -60 4 -99.5t12.5 -79t26 -63t45 -39.5t68.5 -20z" />
    <glyph glyph-name="Tbar" unicode="&#x166;" horiz-adv-x="1382" 
d="M905 1626v-18h-403v16zM1280 1434l53 -344q-6 13 -17 35t-47.5 75.5t-74.5 89.5q-128 121 -332 121h-74v-1229q0 -50 18.5 -87t41.5 -54.5t55 -27.5t48 -11.5t30 -1.5h-573q14 0 30 1.5t47 11.5t54 27.5t41 54.5t18 87v1229h-86q-200 0 -332 -125q-41 -37 -77.5 -87.5
t-52.5 -82.5l-17 -31l59 349h1188z" />
    <glyph glyph-name="tbar" unicode="&#x167;" horiz-adv-x="724" 
d="M508 1386v-18h-404v16zM475 72q87 -8 146.5 43.5t89.5 126.5q-6 -30 -16.5 -61t-34 -69.5t-55 -66.5t-81.5 -46.5t-110 -16.5q-64 2 -111 25.5t-74 59t-43 89.5t-21 105.5t-5 119.5v524h-88l-25 19h113v243l162 136q-1 -178 -3 -379h250l-18 -19h-232q0 -79 -0.5 -213
t-0.5 -212.5t1 -106.5q1 -60 4 -99.5t12.5 -79t26 -63t45 -39.5t68.5 -20z" />
    <glyph glyph-name="Umacron" unicode="&#x16a;" horiz-adv-x="1398" 
d="M983 1634v-18h-403v16zM1186 1188q0 62 -17.5 109.5t-41 72t-54.5 40t-49.5 19.5t-34.5 5h404q-14 -1 -30.5 -5t-46 -20t-52 -41t-39.5 -74t-17 -114v-580q0 -35 -0.5 -58t-5 -74t-12.5 -89t-24.5 -91t-40 -92t-60.5 -81t-83.5 -68.5t-111.5 -43.5t-143 -17
q-101 0 -181.5 24t-135 62.5t-94 99t-61.5 121t-34.5 142t-16 148t-3.5 152.5v492q0 56 -16.5 97.5t-38 61.5t-50.5 32t-44.5 14t-28.5 2h559q-15 0 -31 -2t-45.5 -14t-51 -32t-38.5 -61.5t-17 -97.5v-609q0 -126 21.5 -226t67 -177.5t123.5 -118.5t184 -39q198 5 294.5 139
t96.5 416v576z" />
    <glyph glyph-name="umacron" unicode="&#x16b;" horiz-adv-x="1103" 
d="M743 1124v-18h-403v16zM420 88q67 -26 171.5 8t178.5 105q-72 -89 -190.5 -159.5t-237.5 -61.5q-30 3 -55 11t-43 21t-32 30t-23 38t-15.5 45t-9.5 50t-4.5 54.5t-1.5 58.5v60v12.5v11v11.5v397q0 40 -14.5 69t-32.5 42.5t-42.5 21t-35.5 8.5t-21 1h305v-142v-342v-71.5
t1.5 -61.5t4 -57t7 -45.5t12 -42t18.5 -30.5t26 -26.5t34 -15.5zM782 788q0 37 -14 64.5t-31 40.5t-41 20t-34.5 8t-20.5 1h301v-721q0 -14 2 -25t6 -18.5t9 -13t11.5 -9t11.5 -5.5t12 -2.5t10.5 -1t9 0t6.5 0.5l-238 -154v144v671z" />
    <glyph glyph-name="Uring" unicode="&#x16e;" horiz-adv-x="1398" 
d="M797 1556q-51 0 -88 38t-37 89q0 54 37 91.5t88 37.5q55 0 92.5 -36t36.5 -93q0 -51 -38 -89t-91 -38zM799 1786q-40 0 -69.5 -30t-29.5 -70q0 -39 30 -69t69 -30q41 0 70.5 30t29.5 69q0 40 -29.5 70t-70.5 30zM1186 1188q0 62 -17.5 109.5t-41 72t-54.5 40t-49.5 19.5
t-34.5 5h404q-14 -1 -30.5 -5t-46 -20t-52 -41t-39.5 -74t-17 -114v-580q0 -35 -0.5 -58t-5 -74t-12.5 -89t-24.5 -91t-40 -92t-60.5 -81t-83.5 -68.5t-111.5 -43.5t-143 -17q-101 0 -181.5 24t-135 62.5t-94 99t-61.5 121t-34.5 142t-16 148t-3.5 152.5v492
q0 56 -16.5 97.5t-38 61.5t-50.5 32t-44.5 14t-28.5 2h559q-15 0 -31 -2t-45.5 -14t-51 -32t-38.5 -61.5t-17 -97.5v-609q0 -126 21.5 -226t67 -177.5t123.5 -118.5t184 -39q198 5 294.5 139t96.5 416v576z" />
    <glyph glyph-name="uring" unicode="&#x16f;" horiz-adv-x="1103" 
d="M545 1044q-52 0 -89.5 38t-37.5 89q0 54 37 91.5t90 37.5q55 0 92 -36t37 -93q0 -51 -38 -89t-91 -38zM547 1274q-41 0 -69.5 -29t-28.5 -69t28.5 -70.5t69.5 -30.5q39 0 68.5 30.5t29.5 70.5t-29 69t-69 29zM420 88q67 -26 171.5 8t178.5 105q-72 -89 -190.5 -159.5
t-237.5 -61.5q-30 3 -55 11t-43 21t-32 30t-23 38t-15.5 45t-9.5 50t-4.5 54.5t-1.5 58.5v60v12.5v11v11.5v397q0 40 -14.5 69t-32.5 42.5t-42.5 21t-35.5 8.5t-21 1h305v-142v-342v-71.5t1.5 -61.5t4 -57t7 -45.5t12 -42t18.5 -30.5t26 -26.5t34 -15.5zM782 788
q0 37 -14 64.5t-31 40.5t-41 20t-34.5 8t-20.5 1h301v-721q0 -14 2 -25t6 -18.5t9 -13t11.5 -9t11.5 -5.5t12 -2.5t10.5 -1t9 0t6.5 0.5l-238 -154v144v671z" />
    <glyph glyph-name="Uhungarumlaut" unicode="&#x170;" horiz-adv-x="1398" 
d="M850 1845q20 -15 12 -47.5t-49 -62.5l-250 -172l172 243q29 44 60.5 54t54.5 -15zM1079 1735l-250 -172l172 243q27 44 59.5 54t53.5 -15q13 -12 15.5 -29t-10 -39t-40.5 -42zM1186 1188q0 62 -17.5 109.5t-41 72t-54.5 40t-49.5 19.5t-34.5 5h404q-14 -1 -30.5 -5
t-46 -20t-52 -41t-39.5 -74t-17 -114v-580q0 -35 -0.5 -58t-5 -74t-12.5 -89t-24.5 -91t-40 -92t-60.5 -81t-83.5 -68.5t-111.5 -43.5t-143 -17q-101 0 -181.5 24t-135 62.5t-94 99t-61.5 121t-34.5 142t-16 148t-3.5 152.5v492q0 56 -16.5 97.5t-38 61.5t-50.5 32t-44.5 14
t-28.5 2h559q-15 0 -31 -2t-45.5 -14t-51 -32t-38.5 -61.5t-17 -97.5v-609q0 -126 21.5 -226t67 -177.5t123.5 -118.5t184 -39q198 5 294.5 139t96.5 416v576z" />
    <glyph glyph-name="uhungarumlaut" unicode="&#x171;" horiz-adv-x="1103" 
d="M635 1333q12 -11 14.5 -27.5t-10 -39t-41.5 -43.5l-248 -172l172 243q27 44 59.5 54t53.5 -15zM823 1223l-250 -172l172 243q27 44 59.5 54t53.5 -15q13 -10 15.5 -27t-10 -39.5t-40.5 -43.5zM420 88q67 -26 171.5 8t178.5 105q-72 -89 -190.5 -159.5t-237.5 -61.5
q-30 3 -55 11t-43 21t-32 30t-23 38t-15.5 45t-9.5 50t-4.5 54.5t-1.5 58.5v60v12.5v11v11.5v397q0 40 -14.5 69t-32.5 42.5t-42.5 21t-35.5 8.5t-21 1h305v-142v-342v-71.5t1.5 -61.5t4 -57t7 -45.5t12 -42t18.5 -30.5t26 -26.5t34 -15.5zM782 788q0 37 -14 64.5t-31 40.5
t-41 20t-34.5 8t-20.5 1h301v-721q0 -14 2 -25t6 -18.5t9 -13t11.5 -9t11.5 -5.5t12 -2.5t10.5 -1t9 0t6.5 0.5l-238 -154v144v671z" />
    <glyph glyph-name="Uogonek" unicode="&#x172;" horiz-adv-x="1398" 
d="M1186 1188q0 62 -17.5 109.5t-41 72t-54.5 40t-49.5 19.5t-34.5 5h404q-14 -1 -30.5 -5t-46 -20t-52 -41t-39.5 -74t-17 -114v-580q0 -33 -0.5 -54.5t-4 -70t-10.5 -84t-21.5 -86.5t-34.5 -88.5t-52 -80t-72.5 -70.5t-97.5 -49.5t-124 -28.5q-51 -34 -83.5 -88.5
t-21.5 -116.5q7 -46 31.5 -75.5t57.5 -39t67 -7t65 16.5q-34 -28 -85.5 -39.5t-102 -4t-91.5 44t-53 96.5q-27 119 80 215q-87 8 -156.5 36.5t-116.5 68.5t-81 100t-53 118.5t-30 136t-14 141t-3 144.5v492q0 56 -16.5 97.5t-38 61.5t-50.5 32t-44.5 14t-28.5 2h559
q-15 0 -31 -2t-45.5 -14t-51 -32t-38.5 -61.5t-17 -97.5v-609q0 -126 21.5 -226t67 -177.5t123.5 -118.5t184 -39q198 5 294.5 139t96.5 416v576z" />
    <glyph glyph-name="uogonek" unicode="&#x173;" horiz-adv-x="1103" 
d="M420 88q67 -26 171.5 8t178.5 105q-47 -58 -120 -113.5t-154 -85.5q-52 -34 -88 -94t-25 -125q8 -46 33 -75.5t57.5 -39t66 -7t64.5 16.5q-34 -28 -85.5 -39.5t-102 -4t-91.5 44t-53 96.5q-21 117 70 205q-30 3 -55 11t-43 21t-32 30t-23 38t-15.5 45t-9.5 50t-4.5 54.5
t-1.5 58.5v60v12.5v11v11.5v397q0 40 -14.5 69t-32.5 42.5t-42.5 21t-35.5 8.5t-21 1h305v-142v-342v-71.5t1.5 -61.5t4 -57t7 -45.5t12 -42t18.5 -30.5t26 -26.5t34 -15.5zM782 788q0 37 -14 64.5t-31 40.5t-41 20t-34.5 8t-20.5 1h301v-721q0 -14 2 -25t6 -18.5t9 -13
t11.5 -9t11.5 -5.5t12 -2.5t10.5 -1t9 0t6.5 0.5l-238 -154v144v671z" />
    <glyph glyph-name="Wcircumflex" unicode="&#x174;" horiz-adv-x="2267" 
d="M1374 1526l-203 209l-223 -211l168 280h115zM1827 1434h457q-172 -29 -263 -254l-479 -1233l-405 921l-367 -921q-574 1302 -588 1333q-72 154 -227 154q54 0 187 0.5t243.5 0.5t189.5 -1q-5 0 -12.5 -1t-28.5 -6.5t-39 -13.5t-37 -24t-29.5 -36.5t-10.5 -52t16 -69.5
q84 -209 336 -793q13 -27 22 -43t26.5 -34.5t33.5 -18.5q25 0 43 21.5t55 109.5q21 51 37 91.5t51 128t84 208.5l-168 379q-72 154 -227 154q54 0 187 0.5t244 0.5t190 -1q-5 0 -12.5 -1t-28.5 -6.5t-38.5 -13.5t-37 -24t-30 -36.5t-10.5 -52t15 -69.5l336 -793
q1 -2 8.5 -16.5t10.5 -19.5t10.5 -17t12.5 -17.5t12 -12.5t14 -10t14 -3q23 0 42 26.5t52 108.5q164 411 271 686q47 117 3.5 192t-165.5 79z" />
    <glyph glyph-name="wcircumflex" unicode="&#x175;" horiz-adv-x="1445" 
d="M981 1012l-201 209l-225 -211l170 280h113zM1155 922h348q-10 -2 -25.5 -7t-52.5 -25t-61 -46q-35 -38 -61 -105l-306 -778l-288 653l-238 -653l-381 842q-27 52 -67 81.5t-67 33.5l-26 4h400q-2 0 -6 -0.5t-15 -3.5t-20 -7t-18.5 -12.5t-14.5 -20t-4.5 -29t8.5 -38.5
l217 -512q22 -51 49 -51q20 0 36 24.5t36 79.5l102 279l-75 172q-26 52 -62 81.5t-59 33.5l-23 4h391q-3 0 -7 -0.5t-15.5 -3.5t-21.5 -7.5t-20.5 -14t-16 -21.5t-5.5 -30.5t9 -41.5l213 -498q14 -35 26.5 -50t30.5 -15q20 0 34.5 25t33.5 75l149 387l8 23
q25 70 -13.5 115.5t-121.5 56.5z" />
    <glyph glyph-name="Ycircumflex" unicode="&#x176;" horiz-adv-x="1185" 
d="M883 1526l-201 209l-225 -211l168 280h114zM877 1434h397q-82 -19 -149 -80.5t-113 -143.5l-242 -436q-53 -96 -53 -225v-381q0 -50 21 -85.5t53 -52t55.5 -23t42.5 -7.5h-539q18 0 43 6.5t56.5 21.5t53.5 49.5t23 82.5l2 366q0 110 -49 189l-323 553q-37 60 -86.5 100
t-85.5 53t-62 13l539 -2q-79 -4 -105 -60t17 -129l272 -477q21 -38 48 -37t52 47l222 398q60 101 38.5 172t-128.5 88z" />
    <glyph glyph-name="ycircumflex" unicode="&#x177;" horiz-adv-x="919" 
d="M723 1012l-201 209l-225 -211l170 280h113zM674 922h325q-8 -2 -22 -7t-47 -25t-56 -46q-33 -31 -63 -103l-319 -782l-117 -281q-31 -75 -68 -97t-90 -15q-38 6 -58.5 38.5t-11.5 69.5q8 26 30.5 43.5t55.5 16.5q22 -2 45.5 -24.5t32.5 -24.5q46 -10 80 67l90 219
l-368 834q-17 33 -39.5 57t-42.5 35t-38 17.5t-29 7.5h-11h414q-3 0 -7 -0.5t-16.5 -4t-22.5 -8t-21 -14t-17 -21.5t-5.5 -30.5t9.5 -40.5l213 -496q15 -32 28.5 -47.5t32.5 -15.5q9 0 16.5 4.5t14.5 14.5t11.5 17.5t12.5 24.5t11 23l164 401l8 23q25 70 -9 114.5t-116 55.5
z" />
    <glyph glyph-name="Ydieresis" unicode="&#x178;" horiz-adv-x="1185" 
d="M463 1620q-37 0 -64.5 27.5t-27.5 66.5q0 37 27.5 63.5t64.5 26.5q39 0 66.5 -26.5t27.5 -63.5q0 -40 -27 -67t-67 -27zM885 1620q-37 0 -64.5 27.5t-27.5 66.5q0 37 27.5 63.5t64.5 26.5q39 0 66.5 -26.5t27.5 -63.5q0 -40 -27 -67t-67 -27zM877 1434h397
q-82 -19 -149 -80.5t-113 -143.5l-242 -436q-53 -96 -53 -225v-381q0 -50 21 -85.5t53 -52t55.5 -23t42.5 -7.5h-539q18 0 43 6.5t56.5 21.5t53.5 49.5t23 82.5l2 366q0 110 -49 189l-323 553q-37 60 -86.5 100t-85.5 53t-62 13l539 -2q-79 -4 -105 -60t17 -129l272 -477
q21 -38 48 -37t52 47l222 398q60 101 38.5 172t-128.5 88z" />
    <glyph glyph-name="Zacute" unicode="&#x179;" horiz-adv-x="1320" 
d="M569 1556l250 173q28 21 40.5 43.5t10 39.5t-15.5 27q-21 25 -53.5 15t-59.5 -54zM442 18h80q278 5 492 162q68 52 124 118t78 106l21 40l-102 -444h-1112l856 1274q51 74 34 106.5t-106 32.5h-82q-273 0 -449 -131q-56 -42 -108 -101.5t-76 -98.5l-24 -38l102 390h1038
q-20 -26 -403.5 -603.5t-454.5 -685.5q-19 -30 -24.5 -52.5t3 -39.5t37 -26t76.5 -9z" />
    <glyph glyph-name="zacute" unicode="&#x17a;" horiz-adv-x="1019" 
d="M457 1051l250 172q41 31 48.5 64t-12.5 46q-23 25 -54 15t-60 -54zM508 8q69 2 126.5 17.5t77.5 26.5t58 34q46 29 90 83.5t65 94.5l21 39l-57 -309l-803 2l578 838q30 40 22.5 60.5t-59.5 20.5h-123q-77 1 -130 -18.5t-120 -62.5q-36 -23 -73.5 -58.5t-56.5 -59.5
l-20 -24l68 238h754q-101 -139 -329 -468t-251 -368q-51 -84 43 -84z" />
    <glyph glyph-name="Zdotaccent" unicode="&#x17b;" horiz-adv-x="1320" 
d="M698 1604q-37 0 -63.5 27t-26.5 65q0 35 26.5 61.5t63.5 26.5q36 0 62 -26t26 -62q0 -38 -25.5 -65t-62.5 -27zM442 18h80q278 5 492 162q68 52 124 118t78 106l21 40l-102 -444h-1112l856 1274q51 74 34 106.5t-106 32.5h-82q-273 0 -449 -131q-56 -42 -108 -101.5
t-76 -98.5l-24 -38l102 390h1038q-20 -26 -403.5 -603.5t-454.5 -685.5q-19 -30 -24.5 -52.5t3 -39.5t37 -26t76.5 -9z" />
    <glyph glyph-name="zdotaccent" unicode="&#x17c;" horiz-adv-x="1019" 
d="M557 1098q-38 0 -66 28.5t-28 65.5q0 38 28 66t66 28t66 -28t28 -66q0 -37 -28 -65.5t-66 -28.5zM508 8q69 2 126.5 17.5t77.5 26.5t58 34q46 29 90 83.5t65 94.5l21 39l-57 -309l-803 2l578 838q30 40 22.5 60.5t-59.5 20.5h-123q-77 1 -130 -18.5t-120 -62.5
q-36 -23 -73.5 -58.5t-56.5 -59.5l-20 -24l68 238h754q-101 -139 -329 -468t-251 -368q-51 -84 43 -84z" />
    <glyph glyph-name="Zcaron" unicode="&#x17d;" horiz-adv-x="1320" 
d="M451 1839l167 -280h115l144 278l-201 -209zM442 18h80q278 5 492 162q68 52 124 118t78 106l21 40l-102 -444h-1112l856 1274q51 74 34 106.5t-106 32.5h-82q-273 0 -449 -131q-56 -42 -108 -101.5t-76 -98.5l-24 -38l102 390h1038q-20 -26 -403.5 -603.5t-454.5 -685.5
q-19 -30 -24.5 -52.5t3 -39.5t37 -26t76.5 -9z" />
    <glyph glyph-name="zcaron" unicode="&#x17e;" horiz-adv-x="1019" 
d="M342 1335l168 -280h115l141 278l-201 -209zM508 8q69 2 126.5 17.5t77.5 26.5t58 34q46 29 90 83.5t65 94.5l21 39l-57 -309l-803 2l578 838q30 40 22.5 60.5t-59.5 20.5h-123q-77 1 -130 -18.5t-120 -62.5q-36 -23 -73.5 -58.5t-56.5 -59.5l-20 -24l68 238h754
q-101 -139 -329 -468t-251 -368q-51 -84 43 -84z" />
    <glyph glyph-name="Scommaaccent" unicode="&#x218;" horiz-adv-x="1222" 
d="M637 854q293 -61 408.5 -179t93.5 -319q-7 -83 -38.5 -149.5t-78.5 -109.5t-110 -72t-129 -41.5t-138 -12.5q-332 3 -536 156l-5 389q63 -179 203.5 -311t308.5 -172q75 -19 148.5 -14t133 27t97.5 75t41 129q3 48 -7 89.5t-40.5 85.5t-82.5 80.5t-138.5 71.5t-202.5 62
q-101 24 -176.5 58.5t-121.5 74.5t-73 90.5t-36 101.5t-6 113q6 172 144.5 275.5t348.5 101.5q68 -1 134.5 -11.5t112 -25t81.5 -29t53 -24.5l18 -10l3 -289q-4 11 -13.5 30t-52 75t-98.5 108q-105 104 -249 135t-251 -31q-60 -37 -86 -105t-14 -144q18 -106 103 -175
t251 -104zM623 -152q30 3 56 -10.5t40 -38.5q18 -35 20.5 -88.5t-10.5 -109.5t-46 -110.5t-81 -86.5q50 43 77.5 125t12.5 152q-22 -16 -49 -19q-39 -4 -68 20t-34 64q-5 38 19.5 68.5t62.5 33.5z" />
    <glyph glyph-name="scommaaccent" unicode="&#x219;" horiz-adv-x="892" 
d="M827 276q1 -45 -11 -87.5t-38.5 -81t-65.5 -67.5t-97 -46t-128 -17q-37 0 -72.5 3.5t-62.5 8t-56.5 13.5t-47.5 15t-42.5 17.5t-34.5 17t-31 17t-25 13.5l-4 274q85 -185 206 -264q78 -51 168.5 -69.5t160.5 8.5t79 100q16 83 -48.5 152t-238.5 118q-169 48 -236 116.5
t-67 164.5q2 115 92.5 197t255.5 82q61 0 115 -11.5t90 -30t51.5 -28.5t26.5 -19v-202q-59 118 -158.5 190.5t-204.5 71.5q-69 -1 -111 -34.5t-50 -90.5q-5 -15 -2.5 -34.5t7 -40t22.5 -43.5t43.5 -44t71 -41.5t105.5 -36.5q189 -52 263.5 -120.5t74.5 -170.5zM535 -186
q5 -10 8 -13q18 -34 21 -87.5t-9.5 -110t-45.5 -111.5t-81 -88q50 43 76.5 125t11.5 152q-19 -16 -49 -19q-38 -5 -68 19.5t-34 64.5q-3 39 21.5 69t62.5 33q42 6 73 -22z" />
    <glyph glyph-name="uni021A" unicode="&#x21a;" horiz-adv-x="1382" 
d="M1280 1434l53 -344q-6 13 -17 35t-47.5 75.5t-74.5 89.5q-128 121 -332 121h-74v-1229q0 -50 18.5 -87t41.5 -54.5t55 -27.5t48 -11.5t30 -1.5h-573q14 0 30 1.5t47 11.5t54 27.5t41 54.5t18 87v1229h-86q-200 0 -332 -125q-41 -37 -77.5 -87.5t-52.5 -82.5l-17 -31
l59 349h1188zM770 -170q40 -30 47 -111.5t-30 -174t-109 -140.5q50 43 77.5 125t12.5 152q-22 -16 -49 -19q-38 -5 -68.5 19.5t-34.5 64.5q-5 38 19.5 68.5t62.5 33.5q45 3 72 -18z" />
    <glyph glyph-name="uni021B" unicode="&#x21b;" horiz-adv-x="724" 
d="M475 72q87 -8 146.5 43.5t89.5 126.5q-6 -30 -16.5 -61t-34 -69.5t-55 -66.5t-81.5 -46.5t-110 -16.5q-64 2 -111 25.5t-74 59t-43 89.5t-21 105.5t-5 119.5v524h-88l-25 19h113v243l162 136q-1 -178 -3 -379h250l-18 -19h-232q0 -79 -0.5 -213t-0.5 -212.5t1 -106.5
q1 -60 4 -99.5t12.5 -79t26 -63t45 -39.5t68.5 -20zM375 -152q36 4 65.5 -15t38.5 -52q30 -81 -3 -199t-122 -178q50 43 77.5 125t12.5 152q-22 -16 -49 -19q-38 -5 -68 19.5t-34 64.5q-5 38 19.5 68.5t62.5 33.5z" />
    <glyph glyph-name="circumflex" unicode="&#x2c6;" horiz-adv-x="608" 
d="M102 1073l226 211l200 -209l-143 279h-113z" />
    <glyph glyph-name="caron" unicode="&#x2c7;" horiz-adv-x="608" 
d="M102 1399l170 -281h113l143 277l-200 -209z" />
    <glyph glyph-name="breve" unicode="&#x2d8;" horiz-adv-x="585" 
d="M291 1176q-73 0 -127.5 34.5t-75.5 100.5q2 -90 58 -151.5t149 -61.5q92 0 144.5 64.5t54.5 146.5q-39 -133 -203 -133z" />
    <glyph glyph-name="dotaccent" unicode="&#x2d9;" horiz-adv-x="419" 
d="M217 1092q-38 0 -65 27.5t-27 64.5t27 63.5t65 26.5q35 0 61.5 -26.5t26.5 -63.5t-26.5 -64.5t-61.5 -27.5z" />
    <glyph glyph-name="ring" unicode="&#x2da;" horiz-adv-x="1228" 
d="M432 1044q-51 0 -88 38t-37 89q0 54 37 91.5t88 37.5q55 0 92.5 -36t36.5 -93q0 -51 -37.5 -89t-91.5 -38zM434 1075q41 0 71 30.5t30 70.5t-30 69t-71 29q-40 0 -69 -29t-29 -69t29.5 -70.5t68.5 -30.5z" />
    <glyph glyph-name="ogonek" unicode="&#x2db;" horiz-adv-x="565" 
d="M358 0q-56 -31 -95 -90t-27 -127q7 -46 31.5 -75.5t57.5 -39t67 -7t65 16.5q-34 -28 -85.5 -39.5t-102 -4t-91.5 44t-53 96.5q-25 130 92 225h141z" />
    <glyph glyph-name="tilde" unicode="&#x2dc;" horiz-adv-x="712" 
d="M78 1075q9 42 26.5 71.5t39.5 42t38.5 17t32.5 4.5q30 -1 56 -15t46.5 -34t41.5 -40t51.5 -33.5t66.5 -12.5q76 3 121 65.5t39 135.5q-4 -61 -42.5 -95t-94.5 -32q-29 0 -58 18.5t-50 41t-53.5 43.5t-66.5 24q-76 6 -134.5 -48.5t-59.5 -152.5z" />
    <glyph glyph-name="hungarumlaut" unicode="&#x2dd;" horiz-adv-x="694" 
d="M281 1034l249 174q28 20 40.5 42.5t10 39.5t-15.5 29q-21 24 -53 13t-59 -54zM504 1034l250 174q41 30 49 63t-12 48q-23 24 -54.5 13.5t-60.5 -54.5z" />
    <glyph glyph-name="Wgrave" unicode="&#x1e80;" horiz-adv-x="2267" 
d="M952 1720q-41 30 -49 63t12 48q23 24 54.5 13t58.5 -54l174 -244zM1827 1434h457q-172 -29 -263 -254l-479 -1233l-405 921l-367 -921q-574 1302 -588 1333q-72 154 -227 154q54 0 187 0.5t243.5 0.5t189.5 -1q-5 0 -12.5 -1t-28.5 -6.5t-39 -13.5t-37 -24t-29.5 -36.5
t-10.5 -52t16 -69.5q84 -209 336 -793q13 -27 22 -43t26.5 -34.5t33.5 -18.5q25 0 43 21.5t55 109.5q21 51 37 91.5t51 128t84 208.5l-168 379q-72 154 -227 154q54 0 187 0.5t244 0.5t190 -1q-5 0 -12.5 -1t-28.5 -6.5t-38.5 -13.5t-37 -24t-30 -36.5t-10.5 -52t15 -69.5
l336 -793q1 -2 8.5 -16.5t10.5 -19.5t10.5 -17t12.5 -17.5t12 -12.5t14 -10t14 -3q23 0 42 26.5t52 108.5q164 411 271 686q47 117 3.5 192t-165.5 79z" />
    <glyph glyph-name="wgrave" unicode="&#x1e81;" horiz-adv-x="1445" 
d="M535 1223q-29 20 -41.5 42t-10 39t14.5 29q21 25 53 15t59 -54l172 -245zM1155 922h348q-10 -2 -25.5 -7t-52.5 -25t-61 -46q-35 -38 -61 -105l-306 -778l-288 653l-238 -653l-381 842q-27 52 -67 81.5t-67 33.5l-26 4h400q-2 0 -6 -0.5t-15 -3.5t-20 -7t-18.5 -12.5
t-14.5 -20t-4.5 -29t8.5 -38.5l217 -512q22 -51 49 -51q20 0 36 24.5t36 79.5l102 279l-75 172q-26 52 -62 81.5t-59 33.5l-23 4h391q-3 0 -7 -0.5t-15.5 -3.5t-21.5 -7.5t-20.5 -14t-16 -21.5t-5.5 -30.5t9 -41.5l213 -498q14 -35 26.5 -50t30.5 -15q20 0 34.5 25t33.5 75
l149 387l8 23q25 70 -13.5 115.5t-121.5 56.5z" />
    <glyph glyph-name="Wacute" unicode="&#x1e82;" horiz-adv-x="2267" 
d="M1313 1839q12 -11 14.5 -27.5t-10 -39t-41.5 -43.5l-250 -173l174 244q27 44 58.5 54t54.5 -15zM1827 1434h457q-172 -29 -263 -254l-479 -1233l-405 921l-367 -921q-574 1302 -588 1333q-72 154 -227 154q54 0 187 0.5t243.5 0.5t189.5 -1q-5 0 -12.5 -1t-28.5 -6.5
t-39 -13.5t-37 -24t-29.5 -36.5t-10.5 -52t16 -69.5q84 -209 336 -793q13 -27 22 -43t26.5 -34.5t33.5 -18.5q25 0 43 21.5t55 109.5q21 51 37 91.5t51 128t84 208.5l-168 379q-72 154 -227 154q54 0 187 0.5t244 0.5t190 -1q-5 0 -12.5 -1t-28.5 -6.5t-38.5 -13.5t-37 -24
t-30 -36.5t-10.5 -52t15 -69.5l336 -793q1 -2 8.5 -16.5t10.5 -19.5t10.5 -17t12.5 -17.5t12 -12.5t14 -10t14 -3q23 0 42 26.5t52 108.5q164 411 271 686q47 117 3.5 192t-165.5 79z" />
    <glyph glyph-name="wacute" unicode="&#x1e83;" horiz-adv-x="1445" 
d="M930 1333q13 -10 15.5 -27t-10 -39.5t-40.5 -43.5l-250 -172l172 243q27 44 59.5 54t53.5 -15zM1155 922h348q-10 -2 -25.5 -7t-52.5 -25t-61 -46q-35 -38 -61 -105l-306 -778l-288 653l-238 -653l-381 842q-27 52 -67 81.5t-67 33.5l-26 4h400q-2 0 -6 -0.5t-15 -3.5
t-20 -7t-18.5 -12.5t-14.5 -20t-4.5 -29t8.5 -38.5l217 -512q22 -51 49 -51q20 0 36 24.5t36 79.5l102 279l-75 172q-26 52 -62 81.5t-59 33.5l-23 4h391q-3 0 -7 -0.5t-15.5 -3.5t-21.5 -7.5t-20.5 -14t-16 -21.5t-5.5 -30.5t9 -41.5l213 -498q14 -35 26.5 -50t30.5 -15
q20 0 34.5 25t33.5 75l149 387l8 23q25 70 -13.5 115.5t-121.5 56.5z" />
    <glyph glyph-name="Wdieresis" unicode="&#x1e84;" horiz-adv-x="2267" 
d="M815 1604q-37 0 -64.5 28.5t-27.5 67.5q0 36 27.5 62t64.5 26q40 0 67 -25.5t27 -62.5q0 -40 -27 -68t-67 -28zM1237 1604q-38 0 -66 28t-28 68q0 37 28 62.5t66 25.5q40 0 67 -25.5t27 -62.5q0 -40 -27 -68t-67 -28zM1827 1434h457q-172 -29 -263 -254l-479 -1233
l-405 921l-367 -921q-574 1302 -588 1333q-72 154 -227 154q54 0 187 0.5t243.5 0.5t189.5 -1q-5 0 -12.5 -1t-28.5 -6.5t-39 -13.5t-37 -24t-29.5 -36.5t-10.5 -52t16 -69.5q84 -209 336 -793q13 -27 22 -43t26.5 -34.5t33.5 -18.5q25 0 43 21.5t55 109.5q21 51 37 91.5
t51 128t84 208.5l-168 379q-72 154 -227 154q54 0 187 0.5t244 0.5t190 -1q-5 0 -12.5 -1t-28.5 -6.5t-38.5 -13.5t-37 -24t-30 -36.5t-10.5 -52t15 -69.5l336 -793q1 -2 8.5 -16.5t10.5 -19.5t10.5 -17t12.5 -17.5t12 -12.5t14 -10t14 -3q23 0 42 26.5t52 108.5
q164 411 271 686q47 117 3.5 192t-165.5 79z" />
    <glyph glyph-name="wdieresis" unicode="&#x1e85;" horiz-adv-x="1445" 
d="M522 1108q-37 0 -64.5 27.5t-27.5 66.5q0 37 27.5 63.5t64.5 26.5q39 0 66.5 -26.5t27.5 -63.5q0 -40 -27 -67t-67 -27zM944 1108q-37 0 -64.5 27.5t-27.5 66.5q0 37 27.5 63.5t64.5 26.5q39 0 66.5 -26.5t27.5 -63.5q0 -40 -27 -67t-67 -27zM1155 922h348
q-10 -2 -25.5 -7t-52.5 -25t-61 -46q-35 -38 -61 -105l-306 -778l-288 653l-238 -653l-381 842q-27 52 -67 81.5t-67 33.5l-26 4h400q-2 0 -6 -0.5t-15 -3.5t-20 -7t-18.5 -12.5t-14.5 -20t-4.5 -29t8.5 -38.5l217 -512q22 -51 49 -51q20 0 36 24.5t36 79.5l102 279l-75 172
q-26 52 -62 81.5t-59 33.5l-23 4h391q-3 0 -7 -0.5t-15.5 -3.5t-21.5 -7.5t-20.5 -14t-16 -21.5t-5.5 -30.5t9 -41.5l213 -498q14 -35 26.5 -50t30.5 -15q20 0 34.5 25t33.5 75l149 387l8 23q25 70 -13.5 115.5t-121.5 56.5z" />
    <glyph glyph-name="uni1EA0" unicode="&#x1ea0;" horiz-adv-x="1277" 
d="M1133 178q22 -56 53 -94.5t62.5 -54.5t51 -22t37.5 -7h-549q4 0 10.5 1t25 6t34 12.5t32.5 22t26 33t8.5 47.5t-13.5 64l-145 400h-473l-133 -350q-22 -64 -19 -114t43 -83t115 -39h-405q71 5 134 67t105 175l488 1253q2 -8 6 -18zM535 1149q-26 0 -81 -144
q-2 -4 -3 -6.5t-2 -5.5l-146 -387l455 2l-152 426q-25 66 -41 90.5t-30 24.5zM1346 0h-9h9zM582 -154q38 0 66 -28t28 -66t-28 -66t-66 -28t-66.5 28t-28.5 66t28.5 66t66.5 28z" />
    <glyph glyph-name="uni1EA1" unicode="&#x1ea1;" 
d="M983 115q23 2 35 39q-11 -36 -21.5 -60t-30 -52.5t-51 -43t-73.5 -14.5q-71 0 -106.5 43.5t-35.5 124.5v395q-79 -24 -135 -43.5t-116 -47.5t-97 -56.5t-62 -67.5t-28 -84q-5 -69 37 -122.5t127 -57.5q128 -11 266 98q-33 -35 -48.5 -50.5t-54.5 -48t-70.5 -48.5t-79 -30
t-97.5 -14q-67 0 -117 23t-76 59.5t-37.5 76.5t-9.5 79q2 36 13 67t34 57t47 46.5t64 39.5t72.5 33t85 30t88.5 26t97 26.5t97 26.5v115q0 147 -63 210.5t-166 43.5q-77 -13 -130.5 -58t-53.5 -118q0 -21 13 -53t15 -52q1 -41 -27 -66.5t-65 -25.5q-36 0 -64.5 24.5
t-25.5 78.5q2 69 58 132t131 101t153 53q47 9 92.5 10t90 -7t81.5 -29t65.5 -54t43.5 -84.5t14 -117.5v-502q0 -54 21.5 -76t49.5 -13t50 38zM532 -154q38 0 65.5 -28t27.5 -66t-27.5 -66t-65.5 -28q-39 0 -66.5 27.5t-27.5 66.5t27.5 66.5t66.5 27.5z" />
    <glyph glyph-name="uni1EB8" unicode="&#x1eb8;" horiz-adv-x="1333" 
d="M1044 143q73 53 127 109t71 86l18 29l-89 -367h-1130q17 0 40 5t58 19.5t58.5 52.5t23.5 93v1100q0 45 -17 78t-38.5 49t-51 25t-44.5 10.5t-29 1.5h1059l71 -328q-17 33 -75.5 98t-128.5 113q-60 39 -105.5 57.5t-120.5 28.5t-200 10h-127v-657h114q50 1 93 12.5
t71.5 29t51 38.5t35 41.5t21 38t10.5 28.5l3 10v-424q-2 8 -5.5 21.5t-23.5 48.5t-48 61.5t-83.5 48.5t-124.5 23h-114v-538q0 -47 10.5 -81t25.5 -52t37.5 -28.5t39.5 -13t38 -2.5h129q106 0 189 34t161 91zM676 -154q38 0 66 -28t28 -66t-28 -66t-66 -28t-66 28t-28 66
t28 66t66 28z" />
    <glyph glyph-name="uni1EB9" unicode="&#x1eb9;" horiz-adv-x="1054" 
d="M608 96q256 -10 357 195q-29 -133 -142 -224t-270 -90q-127 2 -231 62.5t-166.5 171.5t-65.5 252q-3 156 61.5 262.5t167.5 167.5q122 75 281 68q159 -9 259.5 -125t96.5 -301h-710q0 -190 98.5 -311.5t263.5 -127.5zM391 889q-74 -53 -107.5 -147.5t-37.5 -190.5
q303 0 366 8q129 12 174 70q23 28 30 74t-11.5 99.5t-65.5 90.5q-68 57 -168 55t-180 -59zM565 -342q-38 0 -66 28t-28 66t28 66t66 28t66 -28t28 -66t-28 -66t-66 -28z" />
    <glyph glyph-name="uni1ECA" unicode="&#x1eca;" horiz-adv-x="686" 
d="M432 174q0 -47 17.5 -82t39.5 -52t52 -27t45.5 -11.5t29.5 -1.5h-557q13 0 29 1.5t45.5 11.5t52 27t39.5 52t17 82v1086q0 48 -17.5 83t-39 52t-51.5 26.5t-45.5 11t-29.5 1.5h557q-14 0 -29.5 -1.5t-45.5 -11t-52 -26.5t-39.5 -52t-17.5 -83v-1086zM344 -154
q38 0 65 -28t27 -66t-27 -66t-65 -28t-66 28t-28 66t28 66t66 28z" />
    <glyph glyph-name="uni1ECB" unicode="&#x1ecb;" horiz-adv-x="606" 
d="M299 1079q-41 0 -70.5 30.5t-29.5 72.5q0 43 29.5 72.5t70.5 29.5q42 0 72 -30t30 -72q0 -41 -30.5 -72t-71.5 -31zM389 139q0 -39 14 -67.5t31 -41.5t41.5 -20.5t35 -8.5t21.5 -1h-454q11 0 22.5 1t37 8.5t43.5 20.5t33 41.5t15 67.5v568q0 62 -26 84.5t-58 15.5
l244 156v-824zM315 -154q38 0 66.5 -28t28.5 -66t-28.5 -66t-66.5 -28t-66 28t-28 66t28 66t66 28z" />
    <glyph glyph-name="Ygrave" unicode="&#x1ef2;" horiz-adv-x="1185" 
d="M518 1720q-41 30 -48 63t13 48q21 24 53.5 13t59.5 -54l172 -244zM877 1434h397q-82 -19 -149 -80.5t-113 -143.5l-242 -436q-53 -96 -53 -225v-381q0 -50 21 -85.5t53 -52t55.5 -23t42.5 -7.5h-539q18 0 43 6.5t56.5 21.5t53.5 49.5t23 82.5l2 366q0 110 -49 189
l-323 553q-37 60 -86.5 100t-85.5 53t-62 13l539 -2q-79 -4 -105 -60t17 -129l272 -477q21 -38 48 -37t52 47l222 398q60 101 38.5 172t-128.5 88z" />
    <glyph glyph-name="ygrave" unicode="&#x1ef3;" horiz-adv-x="919" 
d="M387 1223q-29 20 -41.5 42t-10 39t14.5 29q23 25 54.5 15t58.5 -54l174 -245zM674 922h325q-8 -2 -22 -7t-47 -25t-56 -46q-33 -31 -63 -103l-319 -782l-117 -281q-31 -75 -68 -97t-90 -15q-38 6 -58.5 38.5t-11.5 69.5q8 26 30.5 43.5t55.5 16.5q22 -2 45.5 -24.5
t32.5 -24.5q46 -10 80 67l90 219l-368 834q-17 33 -39.5 57t-42.5 35t-38 17.5t-29 7.5h-11h414q-3 0 -7 -0.5t-16.5 -4t-22.5 -8t-21 -14t-17 -21.5t-5.5 -30.5t9.5 -40.5l213 -496q15 -32 28.5 -47.5t32.5 -15.5q9 0 16.5 4.5t14.5 14.5t11.5 17.5t12.5 24.5t11 23
l164 401l8 23q25 70 -9 114.5t-116 55.5z" />
    <glyph glyph-name="uni1EF4" unicode="&#x1ef4;" horiz-adv-x="1185" 
d="M877 1434h397q-82 -19 -149 -80.5t-113 -143.5l-242 -436q-53 -96 -53 -225v-381q0 -50 21 -85.5t53 -52t55.5 -23t42.5 -7.5h-539q18 0 43 6.5t56.5 21.5t53.5 49.5t23 82.5l2 366q0 110 -49 189l-323 553q-37 60 -86.5 100t-85.5 53t-62 13l539 -2q-79 -4 -105 -60
t17 -129l272 -477q21 -38 48 -37t52 47l222 398q60 101 38.5 172t-128.5 88zM618 -154q38 0 65.5 -28t27.5 -66t-27.5 -66t-65.5 -28q-40 0 -68 28t-28 66t28 66t68 28z" />
    <glyph glyph-name="uni1EF5" unicode="&#x1ef5;" horiz-adv-x="919" 
d="M674 922h325q-8 -2 -22 -7t-47 -25t-56 -46q-33 -31 -63 -103l-319 -782l-117 -281q-31 -75 -68 -97t-90 -15q-38 6 -58.5 38.5t-11.5 69.5q8 26 30.5 43.5t55.5 16.5q22 -2 45.5 -24.5t32.5 -24.5q46 -10 80 67l90 219l-368 834q-17 33 -39.5 57t-42.5 35t-38 17.5
t-29 7.5h-11h414q-3 0 -7 -0.5t-16.5 -4t-22.5 -8t-21 -14t-17 -21.5t-5.5 -30.5t9.5 -40.5l213 -496q15 -32 28.5 -47.5t32.5 -15.5q9 0 16.5 4.5t14.5 14.5t11.5 17.5t12.5 24.5t11 23l164 401l8 23q25 70 -9 114.5t-116 55.5zM489 -524q38 0 65.5 -27t27.5 -65
t-27.5 -66.5t-65.5 -28.5q-39 0 -67.5 28.5t-28.5 66.5t28 65t68 27z" />
    <glyph glyph-name="uni1EF9" unicode="&#x1ef9;" horiz-adv-x="919" 
d="M406 1210q-16 0 -32.5 -4.5t-38.5 -17t-40 -42t-27 -71.5q1 98 59.5 152.5t135.5 48.5q33 -3 65.5 -24t53.5 -43.5t50 -41t58 -18.5q56 -2 94.5 32t42.5 95q6 -73 -38.5 -135.5t-120.5 -65.5q-36 -1 -66.5 12.5t-51.5 33.5t-41.5 40t-46.5 34t-56 15zM674 922h325
q-8 -2 -22 -7t-47 -25t-56 -46q-33 -31 -63 -103l-319 -782l-117 -281q-31 -75 -68 -97t-90 -15q-38 6 -58.5 38.5t-11.5 69.5q8 26 30.5 43.5t55.5 16.5q22 -2 45.5 -24.5t32.5 -24.5q46 -10 80 67l90 219l-368 834q-17 33 -39.5 57t-42.5 35t-38 17.5t-29 7.5h-11h414
q-3 0 -7 -0.5t-16.5 -4t-22.5 -8t-21 -14t-17 -21.5t-5.5 -30.5t9.5 -40.5l213 -496q15 -32 28.5 -47.5t32.5 -15.5q9 0 16.5 4.5t14.5 14.5t11.5 17.5t12.5 24.5t11 23l164 401l8 23q25 70 -9 114.5t-116 55.5z" />
    <glyph glyph-name="endash" unicode="&#x2013;" horiz-adv-x="1210" 
d="M117 563h977v-22h-977v22z" />
    <glyph glyph-name="emdash" unicode="&#x2014;" horiz-adv-x="1472" 
d="M117 563h1239v-22h-1239v22z" />
    <glyph glyph-name="quoteleft" unicode="&#x2018;" horiz-adv-x="432" 
d="M297 1249q5 -38 -19.5 -68.5t-62.5 -33.5q-36 -4 -65.5 15t-38.5 52q-30 81 3 199t122 178q-50 -44 -78 -125.5t-13 -150.5q21 15 50 18q38 5 68 -19.5t34 -64.5z" />
    <glyph glyph-name="quoteright" unicode="&#x2019;" horiz-adv-x="432" 
d="M281 1477q33 -18 46.5 -73.5t5 -120.5t-44 -132t-91.5 -104q50 42 77.5 123t12.5 151q-21 -15 -49 -18q-38 -5 -68.5 19t-34.5 64t20 70t62 33t64 -14v2z" />
    <glyph glyph-name="quotesinglbase" unicode="&#x201a;" horiz-adv-x="432" 
d="M281 174q33 -18 46.5 -73t5 -120t-44 -132t-91.5 -105q50 42 77.5 124t12.5 152q-20 -17 -49 -20q-38 -5 -68.5 19.5t-34.5 64.5t20 69.5t62 32.5q37 3 64 -12z" />
    <glyph glyph-name="quotedblleft" unicode="&#x201c;" horiz-adv-x="686" 
d="M195 1255q38 5 68 -19.5t34 -64.5t-20 -69.5t-62 -32.5q-36 -4 -64.5 13.5t-37.5 50.5q-15 37 -15 88.5t14 104.5t46 103.5t78 81.5q-50 -42 -78 -124t-13 -152q19 17 50 20zM551 1171q4 -40 -20 -69.5t-62 -32.5q-36 -3 -63 12q-45 24 -54.5 107t27 178t110.5 145
q-50 -42 -77.5 -123t-12.5 -151q21 15 50 18q38 5 68 -19.5t34 -64.5z" />
    <glyph glyph-name="quotedblright" unicode="&#x201d;" horiz-adv-x="661" 
d="M301 1477q34 -18 47.5 -73.5t5.5 -120.5t-43.5 -132t-91.5 -104q50 42 76.5 123t11.5 151q-18 -15 -47 -18q-40 -5 -69.5 19t-32.5 64q-4 40 20 70t62 33q34 3 61 -12zM530 1477q46 -24 56 -107.5t-26.5 -178.5t-110.5 -144q50 42 77.5 123t12.5 151q-21 -15 -50 -18
q-40 -4 -68.5 19.5t-33.5 63.5q-4 40 20 70t62 33q34 3 61 -12z" />
    <glyph glyph-name="quotedblbase" unicode="&#x201e;" horiz-adv-x="679" 
d="M281 174q33 -18 46.5 -73t5 -120t-44 -132t-91.5 -105q50 42 77.5 124t12.5 152q-20 -17 -49 -20q-38 -5 -68.5 19.5t-34.5 64.5t20 69.5t62 32.5q37 3 64 -12zM528 174q33 -18 46.5 -73t5 -120t-44 -132t-91.5 -105q50 42 78 124t13 152q-19 -17 -50 -20
q-38 -5 -68 19.5t-34 64.5t20 69.5t62 32.5q36 3 63 -12z" />
    <glyph glyph-name="dagger" unicode="&#x2020;" horiz-adv-x="958" 
d="M829 1186v-19h-337v-1282h-19v1282h-344v19h344v467h19v-467h337z" />
    <glyph glyph-name="daggerdbl" unicode="&#x2021;" horiz-adv-x="958" 
d="M829 1167h-344v-739h344v-18h-344v-525h-18v525h-338v18h338v739h-338v19h338v467h18v-467h344v-19z" />
    <glyph glyph-name="bullet" unicode="&#x2022;" horiz-adv-x="530" 
d="M264 489q-55 0 -95 40t-40 96q0 55 40.5 96t94.5 41q58 0 97.5 -40.5t39.5 -96.5q0 -57 -39.5 -96.5t-97.5 -39.5z" />
    <glyph glyph-name="ellipsis" unicode="&#x2026;" horiz-adv-x="970" 
d="M203 -6q-38 0 -66 27.5t-28 64.5q0 38 28 66t66 28t66 -28t28 -66q0 -37 -28 -64.5t-66 -27.5zM504 -6q-38 0 -66 27.5t-28 64.5q0 38 28 66t66 28t65 -28t27 -66q0 -37 -27 -64.5t-65 -27.5zM807 -6q-39 0 -66.5 27.5t-27.5 64.5q0 39 27.5 66.5t66.5 27.5q38 0 65 -28
t27 -66q0 -37 -27 -64.5t-65 -27.5z" />
    <glyph glyph-name="perthousand" unicode="&#x2030;" horiz-adv-x="2004" 
d="M401 870q-40 -3 -80.5 5t-86 29.5t-81.5 71t-51 120.5q-25 123 34.5 220t178.5 128q92 18 167.5 0.5t126.5 -82.5t61 -166q13 -137 -64.5 -227.5t-204.5 -98.5zM578 1208q-23 125 -90 188.5t-166 35.5q-46 -15 -76.5 -51.5t-41 -80.5t-13.5 -91.5t6 -84.5
q23 -136 90 -192.5t145 -44.5q97 10 133 102.5t13 218.5zM172 0l940 1436h35l-936 -1436h-39zM977 -6q-40 -3 -80.5 5t-86 29.5t-81.5 70.5t-51 120q-25 123 34.5 220t178.5 128q141 32 240 -32t114 -216q13 -137 -64 -227t-204 -98zM1632 -6q-40 -3 -80.5 5t-86 29.5
t-81.5 70.5t-51 120q-25 123 34.5 220t178.5 128q92 18 167.5 0.5t126.5 -82.5t61 -166q13 -137 -64.5 -227t-204.5 -98zM1153 332q-23 125 -90.5 188t-165.5 35q-46 -15 -77 -51.5t-41.5 -80.5t-13.5 -92t7 -85q23 -135 90 -191.5t146 -46.5q50 6 84.5 35.5t50 74
t19.5 100.5t-9 114zM1808 332q-23 125 -90.5 188t-165.5 35q-46 -15 -77 -51.5t-41.5 -80.5t-13.5 -92t7 -85q23 -135 90 -191.5t146 -46.5q50 6 84.5 35.5t50 74t19.5 100.5t-9 114z" />
    <glyph glyph-name="guilsinglleft" unicode="&#x2039;" horiz-adv-x="516" 
d="M399 854l-252 -293l232 -307l-322 309z" />
    <glyph glyph-name="guilsinglright" unicode="&#x203a;" horiz-adv-x="516" 
d="M98 854l250 -293l-229 -307l321 309z" />
    <glyph glyph-name="Euro" unicode="&#x20ac;" horiz-adv-x="1275" 
d="M63 768l-24 18h129q4 85 23 165.5t57 162.5t105 154.5t157 124.5q90 51 205 58t214.5 -24.5t167.5 -109.5t68 -184q0 -53 -29 -83t-71 -28q-52 1 -75 50t-9 106q18 84 0 139.5t-64.5 83.5t-104.5 32.5t-120 -14t-110 -55.5q-200 -149 -215 -578h518l-19 -18h-803z
M1059 399q42 2 71 -28t29 -88q0 -56 -32.5 -111t-81 -94t-101 -65.5t-94.5 -32.5q-52 -7 -109.5 -7.5t-132 12t-127.5 40.5q-289 156 -311 602h-107l-24 18h846l-19 -18h-499q3 -92 17.5 -178t45 -170.5t75 -147t112.5 -101t151 -38.5q125 -1 184.5 70t34.5 178
q-8 38 -6.5 73t22 60t56.5 26z" />
    <glyph glyph-name="trademark" unicode="&#x2122;" horiz-adv-x="1779" 
d="M1409 725q10 0 20.5 2t29 9.5t30.5 28.5t12 52v451q0 63 -12 63q-16 0 -33 -47l-246 -582l-311 603q-17 27 -28 1q-7 -15 -7 -42v-410q0 -36 12 -62.5t29 -39t34.5 -19t29.5 -7.5l12 -1h-236q6 0 14.5 1t27 8t32.5 19.5t25.5 38.5t11.5 62v432q0 29 -5.5 53t-15 38.5
t-20.5 25.5t-22 16t-20.5 8t-14.5 4l-6 1h188l260 -494q19 -36 33.5 -49t29 -4t29.5 45l213 500h178q-5 0 -12 -0.5t-22 -6t-26.5 -14t-20.5 -27.5t-9 -45v-520q0 -31 12.5 -52t31.5 -28.5t30 -9.5t21 -2h-279zM508 1419h-33v-598q0 -26 9.5 -45.5t21.5 -29t28 -14.5t24 -6
t15 -1h-290q7 0 15 1t24 6t28 14.5t21.5 29t9.5 45.5v598h-37q-106 0 -172 -59q-20 -19 -40.5 -49t-31.5 -50l-10 -20l41 189h586l41 -187q-35 72 -76 115q-34 30 -71.5 45.5t-102.5 15.5z" />
    <glyph glyph-name="partialdiff" unicode="&#x2202;" horiz-adv-x="1083" 
d="M582 -20q-41 -3 -85 2t-95.5 18t-99.5 41.5t-91 69t-76 103.5t-49 142q-43 211 53.5 373t290.5 209q122 26 217 15t148 -48q-17 85 -53 162t-93.5 148t-144.5 124.5t-195 79.5q159 -18 290.5 -91.5t220.5 -188t141.5 -261.5t62.5 -315q7 -126 -23.5 -233.5t-90 -181.5
t-144 -118t-184.5 -50zM850 551q-17 98 -51.5 176t-86 130.5t-117.5 69.5t-146 -7q-59 -17 -101.5 -61.5t-64.5 -100t-31.5 -121t-8 -124t10.5 -110.5q19 -112 59.5 -195t93 -128.5t110 -64.5t116.5 -11q61 8 107.5 43.5t73 89t40 122t12 142.5t-15.5 150z" />
    <glyph glyph-name="emptyset" unicode="&#x2205;" horiz-adv-x="1179" 
d="M1073 537q16 -150 -40 -276.5t-161.5 -199.5t-236.5 -79q-87 -4 -182.5 19.5t-173.5 86.5l-78 -86h-41l96 107q-95 88 -127 237q-44 207 52.5 375t289.5 219q131 34 252 10.5t207 -102.5l63 72h43l-84 -95q101 -109 121 -288zM301 385q16 -91 55 -166l478 524
q-61 116 -157.5 167.5t-209.5 9.5q-63 -23 -105.5 -79t-60 -130.5t-17.5 -158t17 -167.5zM684 10q75 8 127.5 60.5t74 130.5t25 175t-17.5 195q-9 60 -43 144l-477 -525q58 -99 141.5 -143t169.5 -37z" />
    <glyph glyph-name="product" unicode="&#x220f;" horiz-adv-x="1478" 
d="M205 -442l28 2v1947h1012v-1945h29v1972h-1069v-1976z" />
    <glyph glyph-name="summation" unicode="&#x2211;" horiz-adv-x="1212" 
d="M129 -174v33l594 901l-592 809v35h965v-33h-924l598 -807l-600 -907h887v-31h-928z" />
    <glyph glyph-name="minus" unicode="&#x2212;" horiz-adv-x="940" 
d="M117 729h706v-22h-706v22z" />
    <glyph glyph-name="radical" unicode="&#x221a;" horiz-adv-x="1099" 
d="M1008 1432l-35 2l-438 -1756l-269 629h-149v-28h123l301 -697z" />
    <glyph glyph-name="infinity" unicode="&#x221e;" horiz-adv-x="1351" 
d="M709 811q56 85 140 122.5t179 31.5q62 -4 110.5 -30.5t77 -66.5t44 -89.5t15 -101t-14.5 -99.5q-27 -89 -99.5 -144.5t-189.5 -52.5q-53 1 -97 18.5t-76.5 48t-55.5 63t-44 75.5q-15 -29 -42.5 -62.5t-70.5 -70t-106 -59t-131 -19.5q-92 2 -156.5 52t-90.5 122.5
t-19 152.5q7 118 87 186t191 62q178 -8 285 -241q33 56 64 102zM711 608q29 -65 99.5 -103t160.5 -38q94 0 169 41.5t101 120.5q31 118 -55 186q-26 68 -116.5 82.5t-168.5 -35.5q-40 -26 -72.5 -62t-48 -61.5t-38 -70t-31.5 -60.5zM332 475q102 0 173.5 56.5t127.5 156.5
q-45 78 -115.5 120.5t-152.5 45.5q-104 6 -185 -44t-84 -142q-3 -77 56 -135t180 -58z" />
    <glyph glyph-name="integral" unicode="&#x222b;" horiz-adv-x="907" 
d="M719 1636q95 -7 150 -60t55 -130q0 -37 -23.5 -63.5t-58.5 -26.5q-49 0 -72.5 42.5t-3.5 92.5q21 57 -7 95t-83 40q-93 3 -130.5 -66.5t-37.5 -220.5v-1470q0 -109 -55 -189t-147.5 -111t-199.5 -3q-74 19 -121.5 68t-47.5 106q0 40 24 66t59 26q53 0 73 -39t7 -92
q-12 -58 20 -94.5t91 -38.5q82 -1 112.5 69t30.5 224v1446q0 122 52.5 203t133.5 110.5t179 15.5z" />
    <glyph glyph-name="approxequal" unicode="&#x2248;" horiz-adv-x="811" 
d="M119 668q12 34 31 57t39.5 33t36 14t30.5 4q43 0 82.5 -18t65.5 -39t66.5 -39t84.5 -18q65 0 106 47.5t33 111.5q-9 -100 -139 -100q-42 0 -126.5 52.5t-137.5 57.5q-68 5 -115.5 -38.5t-56.5 -124.5zM117 512q12 34 31 57t39.5 32.5t35.5 13t29 3.5q43 0 82.5 -17.5
t66 -38.5t66.5 -38.5t84 -17.5q65 0 106 47.5t33 110.5q-5 -48 -41 -74.5t-98 -26.5q-35 0 -79 26t-92 54.5t-91 32.5q-68 5 -116.5 -39t-55.5 -125z" />
    <glyph glyph-name="notequal" unicode="&#x2260;" horiz-adv-x="1134" 
d="M999 856h-364l-182 -297h546v-22h-561l-141 -230h-29l142 230h-275v22h289l184 297h-473v23h488l129 208h26l-129 -208h350v-23z" />
    <glyph glyph-name="lessequal" unicode="&#x2264;" horiz-adv-x="962" 
d="M809 971v-23l-651 -268l651 -285v-24l-711 309zM139 289h707v-23h-707v23z" />
    <glyph glyph-name="greaterequal" unicode="&#x2265;" horiz-adv-x="997" 
d="M164 971v-23l651 -268l-651 -285v-24l710 309zM831 289h-706v-23h706v23z" />
    <glyph glyph-name="zero.osf" horiz-adv-x="1161" 
d="M614 -2q-52 -3 -104.5 2.5t-116 29t-116 62.5t-96.5 110t-64 165q-43 203 55.5 365.5t294.5 209.5q111 29 212.5 14t180.5 -63t131 -141t64 -220q21 -224 -106.5 -373t-334.5 -161zM879 561q-16 94 -50 171t-85.5 130.5t-118.5 71t-148 -7.5q-55 -16 -95.5 -57.5
t-62.5 -95.5t-32 -118t-8.5 -126t12.5 -121q15 -92 46 -163.5t69 -115.5t83 -71t88.5 -35.5t86.5 -2.5q75 11 127.5 64t74 128.5t26.5 167t-13 181.5z" />
    <glyph glyph-name="one.osf" horiz-adv-x="677" 
d="M414 133q0 -37 15.5 -64.5t35 -40t46.5 -19.5t39 -8t23 -1h-469q11 0 22.5 1t36.5 8t43.5 19.5t33 40t14.5 64.5v377q-2 10 0 127q1 93 -14 134.5t-46 41t-79 -26.5l301 207q0 -113 -1 -195t-1 -134v-115v-416z" />
    <glyph glyph-name="two.osf" horiz-adv-x="944" 
d="M850 115l-193 -336q16 36 25.5 58t17.5 47t8.5 39t-3.5 29t-16.5 22.5t-32.5 14t-48.5 9t-68.5 2.5h-430q22 11 59 33t133 92.5t172 146.5q107 104 155 195t38 207q-10 100 -82 149.5t-170 34.5q-43 -8 -83 -27t-67.5 -41.5t-48.5 -44t-31 -35.5l-10 -14q4 9 11.5 24.5
t34 56.5t57.5 73.5t81 63t105 38.5q81 13 145.5 -7t101.5 -61.5t56.5 -90t19.5 -97.5q0 -24 -4.5 -47.5t-9.5 -43t-19 -44.5t-22.5 -41t-32 -44t-35.5 -42.5t-44.5 -47.5t-47 -48t-55.5 -55t-59 -58q-35 -34 -51.5 -53t-22 -31.5t6.5 -17t32.5 -6.5t56.5 -2h23h348z" />
    <glyph glyph-name="three.osf" horiz-adv-x="1132" 
d="M811 305q133 -37 210.5 -138.5t74.5 -258.5q-3 -149 -84.5 -258.5t-218 -155t-295.5 -12.5q-132 28 -216 122t-124 232q21 -38 38.5 -65.5t52.5 -66.5t73.5 -64t97 -45.5t127.5 -24.5q153 -9 256.5 75t109.5 242q7 174 -103 274.5t-267 76.5q-2 0 -6.5 -1t-6.5 -1l19 6
q26 9 53 22t69 43t74 66t58.5 94t32.5 125q10 106 -55.5 187t-188.5 85q-109 6 -189.5 -32.5t-150.5 -118.5q22 39 51.5 73.5t72.5 69.5t103 57.5t129 26.5q76 5 140 -10t107 -44.5t73.5 -69.5t44 -83.5t14.5 -87.5q10 -230 -176 -340z" />
    <glyph glyph-name="four.osf" horiz-adv-x="1249" 
d="M1167 2h-225v-256l-149 -168v424h-666l815 1143v-1006h361zM791 139v635q0 64 -21.5 67t-52.5 -42l-414 -586q-51 -73 27 -76z" />
    <glyph glyph-name="five.osf" horiz-adv-x="1105" 
d="M250 438q-11 -55 -2 -61q6 -5 31 8q88 64 162.5 85.5t164.5 23.5q181 3 300.5 -104t119.5 -304q0 -86 -40 -175t-120 -169q-60 -60 -155.5 -116.5t-189 -94.5t-178 -67t-137.5 -42l-52 -14q137 45 255.5 107t218.5 141.5t158.5 181t59.5 211.5q1 57 -13 107.5t-43.5 93.5
t-80.5 70.5t-119 33.5q-76 10 -146.5 -2t-116.5 -35.5t-81.5 -49t-51.5 -43.5l-16 -19l156 739h641l-111 -147h-446q-28 0 -47.5 -6.5t-30.5 -15t-19.5 -28.5t-12 -34t-9.5 -45z" />
    <glyph glyph-name="six.osf" horiz-adv-x="1202" 
d="M455 1239q69 74 146.5 127t133.5 77t117.5 36.5t84.5 13.5t49 0h5q-45 -5 -94 -20t-111 -46t-124.5 -89t-112.5 -136q-116 -184 -148 -350q57 50 144 70t168 19.5t154 -30.5t129.5 -80.5t93.5 -130.5t47 -180q15 -148 -39.5 -271.5t-162.5 -195t-243 -73.5
q-411 -5 -502 380q-13 55 -17 124t7 164.5t39 190t88.5 201.5t147.5 199zM737 4q74 8 127 59t76.5 126t31.5 168t-9 186q-15 97 -53 175.5t-92 127t-122 65t-143 -11.5q-56 -21 -97 -64.5t-62.5 -97t-31 -117.5t-7.5 -124t12 -119q15 -92 47 -162.5t70.5 -111.5t84.5 -66
t87 -31.5t81 -1.5z" />
    <glyph glyph-name="seven.osf" horiz-adv-x="1101" 
d="M1126 938q-19 -26 -51 -73t-116.5 -190t-151.5 -284q-55 -116 -90 -214.5t-52 -187t-24.5 -157.5t-14.5 -167q-2 -33 -3 -50q-6 -92 -64 -117q-44 -20 -82 11q-39 33 -33 94q7 73 32 158t51 152.5t86 185.5t95.5 183t120.5 220q38 69 61.5 117t35.5 83.5t11 55.5t-11 34
t-32.5 17t-52.5 6t-70 0h-46h-186q-70 0 -118 -3.5t-95.5 -15t-79 -32t-58.5 -55t-45 -84.5l82 313h901z" />
    <glyph glyph-name="eight.osf" horiz-adv-x="1159" 
d="M856 748q52 -25 97.5 -63t84 -90t57.5 -121.5t11 -145.5q-11 -120 -98 -207t-215.5 -122.5t-268.5 -16.5q-180 24 -280 134t-80 271q7 57 32.5 107t57 84t81.5 67t89.5 53t97.5 45q-30 14 -64.5 36t-76 60.5t-73 83t-49.5 106.5t-11 128q9 104 77 179t165 106.5t204 23.5
q161 -9 254 -101.5t88 -227.5q-6 -206 -315 -320q86 -43 135 -69zM383 1171q6 -119 85.5 -197.5t231.5 -148.5q96 71 148 144t59 164q4 75 -21.5 144.5t-88 119.5t-150.5 53q-131 4 -200 -76t-64 -203zM543 733q-207 -134 -224 -348q-4 -56 6.5 -109.5t36.5 -102t64.5 -85.5
t94.5 -60t122 -26q88 -5 154.5 19.5t103 68.5t53.5 101.5t12.5 119.5t-26.5 123q-15 42 -44.5 80t-62 64t-76.5 52t-77 41t-76 34t-61 28z" />
    <glyph glyph-name="nine.osf" horiz-adv-x="1161" 
d="M823 -332q-240 -258 -540 -258q45 5 94.5 21t111.5 48t125.5 90.5t114.5 135.5q112 171 154 358q-59 -46 -146 -69q-85 -20 -165 -19.5t-151.5 30t-127 79.5t-92.5 129t-47 178q-21 220 108.5 373.5t331.5 161.5q59 3 113.5 -4t116.5 -31.5t111.5 -65t90.5 -111.5
t61 -165q12 -60 17.5 -121.5t-2.5 -157.5t-34.5 -187.5t-89 -203t-155.5 -211.5zM547 903q-71 -12 -122 -62.5t-73.5 -124t-29 -164t9.5 -183.5q14 -96 52 -173.5t91 -125t120 -63.5t140 11q57 21 97 65.5t59.5 98.5t27 119.5t4.5 122t-12 111.5q-13 78 -36 141t-51.5 103.5
t-62.5 70t-69.5 41t-73 16.5t-71.5 -4z" />
    <glyph glyph-name="ampersand.001" horiz-adv-x="1662" 
d="M1616 993q51 0 85 -22t34 -64q0 -26 -15.5 -44.5t-42.5 -18.5q-27 -1 -44.5 10.5t-26 25.5t-30 26t-54.5 12q-31 0 -60.5 -8t-57.5 -26.5t-52 -37.5t-51.5 -53t-47.5 -60.5t-49 -72t-47 -75.5t-49.5 -83t-50.5 -84q95 -133 143 -244q74 -168 74 -324q0 -245 -154 -432
q-83 -101 -181 -150.5t-237 -49.5q-57 0 -88 4q-61 6 -113.5 34t-83.5 63.5t-54 69.5t-32 57l-9 24q4 -8 11.5 -20t36.5 -44t64 -56.5t94.5 -44.5t126.5 -20q100 0 188.5 35.5t153 97.5t111.5 143.5t70.5 175.5t23.5 191q0 206 -162 463q-126 -209 -165 -265
q-112 -161 -227 -218q-86 -43 -191 -43q-69 0 -132 21t-115 62t-83 108.5t-31 152.5q0 60 18 116.5t54.5 108t75.5 94.5t100 91.5t106.5 82t115.5 83t110 79.5q-152 185 -152 340q0 131 79.5 219t199.5 88q98 0 160 -57.5t63 -163.5q1 -68 -33.5 -136.5t-76 -113.5
t-105.5 -102q-15 -13 -109 -84q54 -66 148 -178.5t137 -165.5q30 -38 60 -78q12 21 34.5 57.5t26.5 42.5q29 46 68 110t55 89.5t41.5 61.5t49 60t56.5 52q103 88 238 88zM555 1204q0 -82 26.5 -155.5t104.5 -176.5q14 10 39.5 31t32.5 27q107 92 155 172.5t45 181.5
q-1 69 -46 116t-113 52q-91 6 -167.5 -69t-76.5 -179zM500 -59q66 0 129 27t113 67.5t105 107t93.5 124t89.5 141.5q-12 22 -49 73q-37 52 -72.5 98.5t-60 76l-73.5 88.5t-85 102q-161 -118 -188 -139q-71 -56 -121.5 -104t-95.5 -106.5t-67.5 -123t-22.5 -135.5
q0 -126 80 -211.5t225 -85.5z" />
    </font>
</defs>
</svg>
